<svg id="SvgjsSvg1294" width="1425.4375" height="313.265625" xmlns="http://www.w3.org/2000/svg" version="1.1" xmlns:xlink="http://www.w3.org/1999/xlink" xmlns:svgjs="http://svgjs.com/svgjs"><defs id="SvgjsDefs1295"><marker id="SvgjsMarker1488" markerWidth="16" markerHeight="12" refX="16" refY="6" viewBox="0 0 16 12" orient="auto" markerUnits="userSpaceOnUse" stroke-dasharray="0,0"><path id="SvgjsPath1489" d="M0,2 L14,6 L0,11 L0,2" fill="#323232" stroke="#323232" stroke-width="2"></path></marker><marker id="SvgjsMarker1580" markerWidth="16" markerHeight="12" refX="16" refY="6" viewBox="0 0 16 12" orient="auto" markerUnits="userSpaceOnUse" stroke-dasharray="0,0"><path id="SvgjsPath1581" d="M0,2 L14,6 L0,11 L0,2" fill="#323232" stroke="#323232" stroke-width="2"></path></marker></defs><g id="SvgjsG1296" transform="matrix(0.7071067811865476,0.7071067811865475,-0.7071067811865475,0.7071067811865476,128.35355339059328,26.663334267877563)"><path id="SvgjsPath1297" d="M 0 18C 0 -6 35 -6 35 18C 35 42 0 42 0 18Z" stroke="rgba(0,0,0,1)" stroke-width="2" fill-opacity="1" fill="#c8e6c9"></path><g id="SvgjsG1298"><text id="SvgjsText1299" font-family="微软雅黑" text-anchor="middle" font-size="16px" width="15px" fill="#000000" font-weight="700" align="middle" lineHeight="125%" anchor="middle" family="微软雅黑" size="16px" weight="700" font-style="" opacity="1" y="6" transform="rotate(0)"></text></g></g><g id="SvgjsG1300" transform="translate(110.50000000000006,33.765625)"><path id="SvgjsPath1301" d="M 0 0L 35 0L 35 36L 0 36Z" stroke="none" fill="none"></path><g id="SvgjsG1302"><text id="SvgjsText1303" font-family="微软雅黑" text-anchor="middle" font-size="16px" width="35px" fill="#000000" font-weight="700" align="middle" lineHeight="125%" anchor="middle" family="微软雅黑" size="16px" weight="700" font-style="" opacity="1" y="6" transform="rotate(0)"><tspan id="SvgjsTspan1304" dy="20" x="17.5"><tspan id="SvgjsTspan1305" style="text-decoration:;">N</tspan></tspan></text></g></g><g id="SvgjsG1306"><path id="SvgjsPath1307" d="M114.34202014332573 65.82593237921412L73.00000000000006 100.265625" stroke="#000000" stroke-width="2" fill="none"></path></g><g id="SvgjsG1308" transform="translate(244.34189782130755,169.88889390479062)"><path id="SvgjsPath1309" d="M 37.5 0L 75 45L 0 45Z" stroke="rgba(50,50,50,1)" stroke-width="2" fill-opacity="1" fill="#ffe0b2"></path><g id="SvgjsG1310"><text id="SvgjsText1311" font-family="微软雅黑" text-anchor="middle" font-size="13px" width="55px" fill="#323232" font-weight="700" align="middle" lineHeight="125%" anchor="middle" family="微软雅黑" size="13px" weight="700" font-style="" opacity="1" y="10.5" transform="rotate(0)"><tspan id="SvgjsTspan1312" dy="16" x="37.5"><tspan id="SvgjsTspan1313" style="text-decoration:;">Z</tspan></tspan><tspan id="SvgjsTspan1314" dy="16" x="37.5"><tspan id="SvgjsTspan1315" style="text-decoration:;">Z&gt;N</tspan></tspan></text></g></g><g id="SvgjsG1316" transform="translate(161.73960708918514,238.765625)"><path id="SvgjsPath1317" d="M 37.5 0L 75 45L 0 45Z" stroke-dasharray="10,6" stroke="rgba(50,50,50,1)" stroke-width="2" fill-opacity="1" fill="#bbdefb"></path><g id="SvgjsG1318"><text id="SvgjsText1319" font-family="微软雅黑" text-anchor="middle" font-size="13px" width="55px" fill="#323232" font-weight="700" align="middle" lineHeight="125%" anchor="middle" family="微软雅黑" size="13px" weight="700" font-style="" opacity="1" y="18.5" transform="rotate(0)"><tspan id="SvgjsTspan1320" dy="16" x="37.5"><tspan id="SvgjsTspan1321" style="text-decoration:;font-weight: bold;">Y2</tspan></tspan></text></g></g><g id="SvgjsG1322" transform="translate(35.50000000000006,100.265625)"><path id="SvgjsPath1323" d="M 37.5 0L 75 45L 0 45Z" stroke="rgba(50,50,50,1)" stroke-width="2" fill-opacity="1" fill="#ffcdd2"></path><g id="SvgjsG1324"><text id="SvgjsText1325" font-family="微软雅黑" text-anchor="middle" font-size="13px" width="55px" fill="#323232" font-weight="700" align="middle" lineHeight="125%" anchor="middle" family="微软雅黑" size="13px" weight="700" font-style="" opacity="1" y="10.5" transform="rotate(0)"><tspan id="SvgjsTspan1326" dy="16" x="37.5"><tspan id="SvgjsTspan1327" style="text-decoration:;">X</tspan></tspan><tspan id="SvgjsTspan1328" dy="16" x="37.5"><tspan id="SvgjsTspan1329" style="text-decoration:;">X &lt; L</tspan></tspan></text></g></g><g id="SvgjsG1330"><path id="SvgjsPath1331" d="M145.5 60.589001490862756L202.342529150543 111.86791573212247" stroke="#323232" stroke-width="2" fill="none"></path></g><g id="SvgjsG1332" transform="matrix(-0.7071067811865475,0.7071067811865476,-0.7071067811865476,-0.7071067811865475,195.95113934669743,130.79970442488496)"><path id="SvgjsPath1333" d="M 0 10L 10 0L 10 6.6000000000000005L 54.818948278124765 6.6000000000000005L 54.818948278124765 13.4L 10 13.4L 10 20L 0 10Z" stroke="rgba(50,50,50,1)" stroke-width="2" fill-opacity="1" fill="#ffffff"></path><g id="SvgjsG1334"><text id="SvgjsText1335" font-family="微软雅黑" text-anchor="middle" font-size="13px" width="55px" fill="#323232" font-weight="700" align="middle" lineHeight="125%" anchor="middle" family="微软雅黑" size="13px" weight="700" font-style="" opacity="1" y="0.3750000000000009" transform="rotate(0)"></text></g></g><g id="SvgjsG1336" transform="matrix(-0.7660444431189781,-0.6427876096865393,0.6427876096865393,-0.7660444431189781,286.82081657721875,166.10713167235565)"><path id="SvgjsPath1337" d="M 0 10L 10 0L 10 6.6000000000000005L 50.27854119063852 6.6000000000000005L 50.27854119063852 13.4L 10 13.4L 10 20L 0 10Z" stroke="rgba(50,50,50,1)" stroke-width="2" fill-opacity="1" fill="#ffffff"></path><g id="SvgjsG1338"><text id="SvgjsText1339" font-family="微软雅黑" text-anchor="middle" font-size="13px" width="51px" fill="#323232" font-weight="700" align="middle" lineHeight="125%" anchor="middle" family="微软雅黑" size="13px" weight="700" font-style="" opacity="1" y="0.3750000000000009" transform="rotate(0)"></text></g></g><g id="SvgjsG1340"><path id="SvgjsPath1341" d="M29 147.765625L701.5 147.765625L701.5 147.765625L1374 147.765625" stroke-dasharray="8,5" stroke="#323232" stroke-width="1" fill="none"></path></g><g id="SvgjsG1342"><path id="SvgjsPath1343" d="M26 217.265625L700.5 217.265625L700.5 217.265625L1375 217.265625" stroke-dasharray="8,5" stroke="#323232" stroke-width="1" fill="none"></path></g><g id="SvgjsG1344"><path id="SvgjsPath1345" d="M25 286.765625L700.5 286.765625L700.5 286.765625L1376 286.765625" stroke-dasharray="8,5" stroke="#323232" stroke-width="1" fill="none"></path></g><g id="SvgjsG1346" transform="translate(365.2941558772843,194.88889390479062)"><path id="SvgjsPath1347" d="M 0 6.6000000000000005L 112.20584412271569 6.6000000000000005L 112.20584412271569 0L 122.20584412271569 10L 112.20584412271569 20L 112.20584412271569 13.4L 0 13.4L 0 6.6000000000000005Z" stroke="rgba(50,50,50,1)" stroke-width="2" fill-opacity="1" fill="#ffffff"></path><g id="SvgjsG1348"><text id="SvgjsText1349" font-family="微软雅黑" text-anchor="middle" font-size="13px" width="123px" fill="#323232" font-weight="400" align="middle" lineHeight="125%" anchor="middle" family="微软雅黑" size="13px" weight="400" font-style="" opacity="1" y="0.3750000000000009" transform="rotate(0)"></text></g></g><g id="SvgjsG1350" transform="translate(366.39707793864216,161.88889390479062)"><path id="SvgjsPath1351" d="M 0 0L 120 0L 120 40L 0 40Z" stroke="none" fill="none"></path><g id="SvgjsG1352"><text id="SvgjsText1353" font-family="微软雅黑" text-anchor="middle" font-size="13px" width="120px" fill="#323232" font-weight="400" align="middle" lineHeight="125%" anchor="middle" family="微软雅黑" size="13px" weight="400" font-style="" opacity="1" y="10.375" transform="rotate(0)"><tspan id="SvgjsTspan1354" dy="16" x="60"><tspan id="SvgjsTspan1355" style="text-decoration:;font-weight: bold;">以R为支点，右旋</tspan></tspan></text></g></g><g id="SvgjsG1356" transform="translate(51.7396070891852,238.765625)"><path id="SvgjsPath1357" d="M 37.5 0L 75 45L 0 45Z" stroke-dasharray="10,6" stroke="rgba(50,50,50,1)" stroke-width="2" fill-opacity="1" fill="#bbdefb"></path><g id="SvgjsG1358"><text id="SvgjsText1359" font-family="微软雅黑" text-anchor="middle" font-size="13px" width="55px" fill="#323232" font-weight="700" align="middle" lineHeight="125%" anchor="middle" family="微软雅黑" size="13px" weight="700" font-style="" opacity="1" y="18.5" transform="rotate(0)"><tspan id="SvgjsTspan1360" dy="16" x="37.5"><tspan id="SvgjsTspan1361" style="text-decoration:;font-weight: bold;">Y1</tspan></tspan></text></g></g><g id="SvgjsG1362"><path id="SvgjsPath1363" d="M130.39469473598473 209.32593237921424L89.2396070891852 238.765625" stroke="#323232" stroke-width="2" fill="none"></path></g><g id="SvgjsG1364" transform="matrix(0.7071067811865476,0.7071067811865475,-0.7071067811865475,0.7071067811865476,144.5931621552417,169.16333426787756)"><path id="SvgjsPath1365" d="M 0 18C 0 -6 35 -6 35 18C 35 42 0 42 0 18Z" stroke="rgba(0,0,0,1)" stroke-width="2" fill-opacity="1" fill="#bbdefb"></path><g id="SvgjsG1366"><text id="SvgjsText1367" font-family="微软雅黑" text-anchor="middle" font-size="16px" width="15px" fill="#000000" font-weight="700" align="middle" lineHeight="125%" anchor="middle" family="微软雅黑" size="16px" weight="700" font-style="" opacity="1" y="6" transform="rotate(0)"></text></g></g><g id="SvgjsG1368" transform="translate(126.7396070891852,176.265625)"><path id="SvgjsPath1369" d="M 0 0L 35 0L 35 36L 0 36Z" stroke="none" fill="none"></path><g id="SvgjsG1370"><text id="SvgjsText1371" font-family="微软雅黑" text-anchor="middle" font-size="16px" width="35px" fill="#000000" font-weight="700" align="middle" lineHeight="125%" anchor="middle" family="微软雅黑" size="16px" weight="700" font-style="" opacity="1" y="6" transform="rotate(0)"><tspan id="SvgjsTspan1372" dy="20" x="17.5"><tspan id="SvgjsTspan1373" style="text-decoration:;">RL</tspan></tspan></text></g></g><g id="SvgjsG1374"><path id="SvgjsPath1375" d="M161.27533934136295 209.1228373903134L199.23960708918514 238.765625" stroke="#323232" stroke-width="2" fill="none"></path></g><g id="SvgjsG1376" transform="translate(366.39707793864216,232.38889390479062)"><path id="SvgjsPath1377" d="M 0 0L 120 0L 120 40L 0 40Z" stroke="none" fill="none"></path><g id="SvgjsG1378"><text id="SvgjsText1379" font-family="微软雅黑" text-anchor="middle" font-size="13px" width="120px" fill="#323232" font-weight="400" align="middle" lineHeight="125%" anchor="middle" family="微软雅黑" size="13px" weight="400" font-style="" opacity="1" y="-5.625" transform="rotate(0)"><tspan id="SvgjsTspan1380" dy="16" x="60"><tspan id="SvgjsTspan1381" style="text-decoration:;font-weight: bold;">把内部的高度差</tspan></tspan><tspan id="SvgjsTspan1382" dy="16" x="60"><tspan id="SvgjsTspan1383" style="text-decoration:;font-weight: bold;">转换为</tspan></tspan><tspan id="SvgjsTspan1384" dy="16" x="60"><tspan id="SvgjsTspan1385" style="text-decoration:;font-weight: bold;">边上的高度差</tspan></tspan></text></g></g><g id="SvgjsG1386" transform="matrix(0.7071067811865476,0.7071067811865475,-0.7071067811865475,0.7071067811865476,219.5931621552417,97.66333426787756)"><path id="SvgjsPath1387" d="M 0 18C 0 -6 35 -6 35 18C 35 42 0 42 0 18Z" stroke="rgba(0,0,0,1)" stroke-width="2" fill-opacity="1" fill="#e1bee7"></path><g id="SvgjsG1388"><text id="SvgjsText1389" font-family="微软雅黑" text-anchor="middle" font-size="16px" width="15px" fill="#000000" font-weight="700" align="middle" lineHeight="125%" anchor="middle" family="微软雅黑" size="16px" weight="700" font-style="" opacity="1" y="6" transform="rotate(0)"></text></g></g><g id="SvgjsG1390" transform="translate(201.73960708918514,104.765625)"><path id="SvgjsPath1391" d="M 0 0L 35 0L 35 36L 0 36Z" stroke="none" fill="none"></path><g id="SvgjsG1392"><text id="SvgjsText1393" font-family="微软雅黑" text-anchor="middle" font-size="16px" width="35px" fill="#000000" font-weight="700" align="middle" lineHeight="125%" anchor="middle" family="微软雅黑" size="16px" weight="700" font-style="" opacity="1" y="6" transform="rotate(0)"><tspan id="SvgjsTspan1394" dy="20" x="17.5"><tspan id="SvgjsTspan1395" style="text-decoration:;">R</tspan></tspan></text></g></g><g id="SvgjsG1396"><path id="SvgjsPath1397" d="M235.1753583806975 135.36791573212247L281.84189782130755 169.88889390479062" stroke="#323232" stroke-width="2" fill="none"></path></g><g id="SvgjsG1398"><path id="SvgjsPath1399" d="M205.70427025700337 136.7996991737109L159.04138378448192 183.765625" stroke="#323232" stroke-width="2" fill="none"></path></g><g id="SvgjsG1400" transform="matrix(0.7071067811865476,0.7071067811865475,-0.7071067811865475,0.7071067811865476,585.7539440155932,25.00483741118811)"><path id="SvgjsPath1401" d="M 0 18C 0 -6 35 -6 35 18C 35 42 0 42 0 18Z" stroke="rgba(0,0,0,1)" stroke-width="2" fill-opacity="1" fill="#c8e6c9"></path><g id="SvgjsG1402"><text id="SvgjsText1403" font-family="微软雅黑" text-anchor="middle" font-size="16px" width="15px" fill="#000000" font-weight="700" align="middle" lineHeight="125%" anchor="middle" family="微软雅黑" size="16px" weight="700" font-style="" opacity="1" y="6" transform="rotate(0)"></text></g></g><g id="SvgjsG1404" transform="translate(567.9004148507215,32.10712676725865)"><path id="SvgjsPath1405" d="M 0 0L 35 0L 35 36L 0 36Z" stroke="none" fill="none"></path><g id="SvgjsG1406"><text id="SvgjsText1407" font-family="微软雅黑" text-anchor="middle" font-size="16px" width="35px" fill="#000000" font-weight="700" align="middle" lineHeight="125%" anchor="middle" family="微软雅黑" size="16px" weight="700" font-style="" opacity="1" y="6" transform="rotate(0)"><tspan id="SvgjsTspan1408" dy="20" x="17.5"><tspan id="SvgjsTspan1409" style="text-decoration:;">N</tspan></tspan></text></g></g><g id="SvgjsG1410"><path id="SvgjsPath1411" d="M571.7424349940471 64.16743414647271L527.1979076400853 100.265625" stroke="#000000" stroke-width="2" fill="none"></path></g><g id="SvgjsG1412" transform="translate(773.8964466094068,238.765625)"><path id="SvgjsPath1413" d="M 37.5 0L 75 45L 0 45Z" stroke="rgba(50,50,50,1)" stroke-width="2" fill-opacity="1" fill="#ffe0b2"></path><g id="SvgjsG1414"><text id="SvgjsText1415" font-family="微软雅黑" text-anchor="middle" font-size="13px" width="55px" fill="#323232" font-weight="700" align="middle" lineHeight="125%" anchor="middle" family="微软雅黑" size="13px" weight="700" font-style="" opacity="1" y="10.5" transform="rotate(0)"><tspan id="SvgjsTspan1416" dy="16" x="37.5"><tspan id="SvgjsTspan1417" style="text-decoration:;">Z</tspan></tspan><tspan id="SvgjsTspan1418" dy="16" x="37.5"><tspan id="SvgjsTspan1419" style="text-decoration:;">Z&gt;N</tspan></tspan></text></g></g><g id="SvgjsG1420" transform="translate(656.2941558772843,238.765625)"><path id="SvgjsPath1421" d="M 37.5 0L 75 45L 0 45Z" stroke-dasharray="10,6" stroke="rgba(50,50,50,1)" stroke-width="2" fill-opacity="1" fill="#bbdefb"></path><g id="SvgjsG1422"><text id="SvgjsText1423" font-family="微软雅黑" text-anchor="middle" font-size="13px" width="55px" fill="#323232" font-weight="700" align="middle" lineHeight="125%" anchor="middle" family="微软雅黑" size="13px" weight="700" font-style="" opacity="1" y="18.5" transform="rotate(0)"><tspan id="SvgjsTspan1424" dy="16" x="37.5"><tspan id="SvgjsTspan1425" style="text-decoration:;font-weight: bold;">Y2</tspan></tspan></text></g></g><g id="SvgjsG1426" transform="translate(489.6979076400853,100.265625)"><path id="SvgjsPath1427" d="M 37.5 0L 75 45L 0 45Z" stroke="rgba(50,50,50,1)" stroke-width="2" fill-opacity="1" fill="#ffcdd2"></path><g id="SvgjsG1428"><text id="SvgjsText1429" font-family="微软雅黑" text-anchor="middle" font-size="13px" width="55px" fill="#323232" font-weight="700" align="middle" lineHeight="125%" anchor="middle" family="微软雅黑" size="13px" weight="700" font-style="" opacity="1" y="10.5" transform="rotate(0)"><tspan id="SvgjsTspan1430" dy="16" x="37.5"><tspan id="SvgjsTspan1431" style="text-decoration:;">X</tspan></tspan><tspan id="SvgjsTspan1432" dy="16" x="37.5"><tspan id="SvgjsTspan1433" style="text-decoration:;">X &lt; L</tspan></tspan></text></g></g><g id="SvgjsG1434"><path id="SvgjsPath1435" d="M602.9004148507214 58.93050325812146L656.8637033051563 108.80090118041005" stroke="#323232" stroke-width="2" fill="none"></path></g><g id="SvgjsG1436" transform="matrix(0.7660444431189778,-0.6427876096865396,0.6427876096865396,0.7660444431189778,507.27180154657674,81.06807994953644)"><path id="SvgjsPath1437" d="M 0 10L 10 0L 10 6.6000000000000005L 54.818948278124765 6.6000000000000005L 54.818948278124765 13.4L 10 13.4L 10 20L 0 10Z" stroke="rgba(50,50,50,1)" stroke-width="2" fill-opacity="1" fill="#ffffff"></path><g id="SvgjsG1438"><text id="SvgjsText1439" font-family="微软雅黑" text-anchor="middle" font-size="13px" width="55px" fill="#323232" font-weight="700" align="middle" lineHeight="125%" anchor="middle" family="微软雅黑" size="13px" weight="700" font-style="" opacity="1" y="0.3750000000000009" transform="rotate(0)"></text></g></g><g id="SvgjsG1440" transform="matrix(0.7071067811865476,0.7071067811865475,-0.7071067811865475,0.7071067811865476,633.4836892068696,47.440255247340936)"><path id="SvgjsPath1441" d="M 0 10L 10 0L 10 6.6000000000000005L 50.27854119063852 6.6000000000000005L 50.27854119063852 13.4L 10 13.4L 10 20L 0 10Z" stroke="rgba(50,50,50,1)" stroke-width="2" fill-opacity="1" fill="#ffffff"></path><g id="SvgjsG1442"><text id="SvgjsText1443" font-family="微软雅黑" text-anchor="middle" font-size="13px" width="51px" fill="#323232" font-weight="700" align="middle" lineHeight="125%" anchor="middle" family="微软雅黑" size="13px" weight="700" font-style="" opacity="1" y="0.3750000000000009" transform="rotate(0)"></text></g></g><g id="SvgjsG1444" transform="translate(590.2440561548478,169.88889390479062)"><path id="SvgjsPath1445" d="M 37.5 0L 75 45L 0 45Z" stroke-dasharray="10,6" stroke="rgba(50,50,50,1)" stroke-width="2" fill-opacity="1" fill="#bbdefb"></path><g id="SvgjsG1446"><text id="SvgjsText1447" font-family="微软雅黑" text-anchor="middle" font-size="13px" width="55px" fill="#323232" font-weight="700" align="middle" lineHeight="125%" anchor="middle" family="微软雅黑" size="13px" weight="700" font-style="" opacity="1" y="18.5" transform="rotate(0)"><tspan id="SvgjsTspan1448" dy="16" x="37.5"><tspan id="SvgjsTspan1449" style="text-decoration:;font-weight: bold;">Y1</tspan></tspan></text></g></g><g id="SvgjsG1450"><path id="SvgjsPath1451" d="M659.5926023760699 137.82593237921424L627.7440561548478 169.88889390479062" stroke="#323232" stroke-width="2" fill="none"></path></g><g id="SvgjsG1452" transform="matrix(0.7071067811865476,0.7071067811865475,-0.7071067811865475,0.7071067811865476,673.7910533905932,97.66333426787756)"><path id="SvgjsPath1453" d="M 0 18C 0 -6 35 -6 35 18C 35 42 0 42 0 18Z" stroke="rgba(0,0,0,1)" stroke-width="2" fill-opacity="1" fill="#bbdefb"></path><g id="SvgjsG1454"><text id="SvgjsText1455" font-family="微软雅黑" text-anchor="middle" font-size="16px" width="15px" fill="#000000" font-weight="700" align="middle" lineHeight="125%" anchor="middle" family="微软雅黑" size="16px" weight="700" font-style="" opacity="1" y="6" transform="rotate(0)"></text></g></g><g id="SvgjsG1456" transform="translate(655.9375147292703,104.765625)"><path id="SvgjsPath1457" d="M 0 0L 35 0L 35 36L 0 36Z" stroke="none" fill="none"></path><g id="SvgjsG1458"><text id="SvgjsText1459" font-family="微软雅黑" text-anchor="middle" font-size="16px" width="35px" fill="#000000" font-weight="700" align="middle" lineHeight="125%" anchor="middle" family="微软雅黑" size="16px" weight="700" font-style="" opacity="1" y="6" transform="rotate(0)"><tspan id="SvgjsTspan1460" dy="20" x="17.5"><tspan id="SvgjsTspan1461" style="text-decoration:;">RL</tspan></tspan></text></g></g><g id="SvgjsG1462"><path id="SvgjsPath1463" d="M739.4196825562216 206.78660317266815L693.7941558772844 238.765625" stroke="#323232" stroke-width="2" fill="none"></path></g><g id="SvgjsG1464" transform="matrix(0.7071067811865476,0.7071067811865475,-0.7071067811865475,0.7071067811865476,749.147681808562,167.2866100247135)"><path id="SvgjsPath1465" d="M 0 18C 0 -6 35 -6 35 18C 35 42 0 42 0 18Z" stroke="rgba(0,0,0,1)" stroke-width="2" fill-opacity="1" fill="#e1bee7"></path><g id="SvgjsG1466"><text id="SvgjsText1467" font-family="微软雅黑" text-anchor="middle" font-size="16px" width="15px" fill="#000000" font-weight="700" align="middle" lineHeight="125%" anchor="middle" family="微软雅黑" size="16px" weight="700" font-style="" opacity="1" y="6" transform="rotate(0)"></text></g></g><g id="SvgjsG1468" transform="translate(731.2941558772843,174.38889390479062)"><path id="SvgjsPath1469" d="M 0 0L 35 0L 35 36L 0 36Z" stroke="none" fill="none"></path><g id="SvgjsG1470"><text id="SvgjsText1471" font-family="微软雅黑" text-anchor="middle" font-size="16px" width="35px" fill="#000000" font-weight="700" align="middle" lineHeight="125%" anchor="middle" family="微软雅黑" size="16px" weight="700" font-style="" opacity="1" y="6" transform="rotate(0)"><tspan id="SvgjsTspan1472" dy="20" x="17.5"><tspan id="SvgjsTspan1473" style="text-decoration:;">R</tspan></tspan></text></g></g><g id="SvgjsG1474"><path id="SvgjsPath1475" d="M764.7299071687967 204.99118463691298L811.3964466094068 238.765625" stroke="#323232" stroke-width="2" fill="none"></path></g><g id="SvgjsG1476"><path id="SvgjsPath1477" d="M690.180847955711 137.192048563649L732.095760221445 174.63350718175525" stroke="#323232" stroke-width="2" fill="none"></path></g><g id="SvgjsG1478" transform="translate(517.2968614601283,234.265625)"><path id="SvgjsPath1479" d="M 0 0L 101.20584412271569 0L 117.20584412271569 16L 117.20584412271569 54L 0 54L 0 0Z" stroke="none" fill-opacity="1" fill="#64b5f6"></path><path id="SvgjsPath1480" d="M 101.20584412271569 0L 101.20584412271569 16L 117.20584412271569 16Z" stroke="none" fill-opacity="1" fill="#cdcdcd"></path><path id="SvgjsPath1481" d="M 0 0L 101.20584412271569 0L 117.20584412271569 16L 117.20584412271569 54L 0 54L 0 0Z" stroke="none" fill="none"></path><g id="SvgjsG1482"><text id="SvgjsText1483" font-family="微软雅黑" text-anchor="middle" font-size="13px" width="98px" fill="#323232" font-weight="400" align="middle" lineHeight="125%" anchor="middle" family="微软雅黑" size="13px" weight="400" font-style="" opacity="1" y="17.375" transform="rotate(0)"><tspan id="SvgjsTspan1484" dy="16" x="59"><tspan id="SvgjsTspan1485" style="text-decoration:;font-weight: bold;">结点Y2过继给R</tspan></tspan></text></g></g><g id="SvgjsG1486"><path id="SvgjsPath1487" d="M634.502705582844 261.265625C 650.7192857006202 261.265625 662.6215347916682 250.84180822880444 675.0441558772843 261.265625" stroke-dasharray="3,3" stroke="#323232" stroke-width="2" fill="none" marker-end="url(#SvgjsMarker1488)"></path></g><g id="SvgjsG1490" transform="translate(879.5,197.4911846369131)"><path id="SvgjsPath1491" d="M 0 6.6000000000000005L 112.20584412271569 6.6000000000000005L 112.20584412271569 0L 122.20584412271569 10L 112.20584412271569 20L 112.20584412271569 13.4L 0 13.4L 0 6.6000000000000005Z" stroke="rgba(50,50,50,1)" stroke-width="2" fill-opacity="1" fill="#ffffff"></path><g id="SvgjsG1492"><text id="SvgjsText1493" font-family="微软雅黑" text-anchor="middle" font-size="13px" width="123px" fill="#323232" font-weight="400" align="middle" lineHeight="125%" anchor="middle" family="微软雅黑" size="13px" weight="400" font-style="" opacity="1" y="0.3750000000000009" transform="rotate(0)"></text></g></g><g id="SvgjsG1494" transform="translate(879.7058441227157,164.4911846369131)"><path id="SvgjsPath1495" d="M 0 0L 120 0L 120 40L 0 40Z" stroke="none" fill="none"></path><g id="SvgjsG1496"><text id="SvgjsText1497" font-family="微软雅黑" text-anchor="middle" font-size="13px" width="120px" fill="#323232" font-weight="400" align="middle" lineHeight="125%" anchor="middle" family="微软雅黑" size="13px" weight="400" font-style="" opacity="1" y="10.375" transform="rotate(0)"><tspan id="SvgjsTspan1498" dy="16" x="60"><tspan id="SvgjsTspan1499" style="text-decoration:;font-weight: bold;">以N为支点，左旋</tspan></tspan></text></g></g><g id="SvgjsG1500" transform="matrix(0.7071067811865476,0.7071067811865475,-0.7071067811865475,0.7071067811865476,1101.7539440155933,97.66333426787756)"><path id="SvgjsPath1501" d="M 0 18C 0 -6 35 -6 35 18C 35 42 0 42 0 18Z" stroke="rgba(0,0,0,1)" stroke-width="2" fill-opacity="1" fill="#c8e6c9"></path><g id="SvgjsG1502"><text id="SvgjsText1503" font-family="微软雅黑" text-anchor="middle" font-size="16px" width="15px" fill="#000000" font-weight="700" align="middle" lineHeight="125%" anchor="middle" family="微软雅黑" size="16px" weight="700" font-style="" opacity="1" y="6" transform="rotate(0)"></text></g></g><g id="SvgjsG1504" transform="translate(1083.9004148507215,104.765625)"><path id="SvgjsPath1505" d="M 0 0L 35 0L 35 36L 0 36Z" stroke="none" fill="none"></path><g id="SvgjsG1506"><text id="SvgjsText1507" font-family="微软雅黑" text-anchor="middle" font-size="16px" width="35px" fill="#000000" font-weight="700" align="middle" lineHeight="125%" anchor="middle" family="微软雅黑" size="16px" weight="700" font-style="" opacity="1" y="6" transform="rotate(0)"><tspan id="SvgjsTspan1508" dy="20" x="17.5"><tspan id="SvgjsTspan1509" style="text-decoration:;">N</tspan></tspan></text></g></g><g id="SvgjsG1510"><path id="SvgjsPath1511" d="M1087.742434994047 136.825932379214L1053.7981241185992 169.88889390479062" stroke="#000000" stroke-width="2" fill="none"></path></g><g id="SvgjsG1512" transform="translate(1325.4418121263482,169.88889390479062)"><path id="SvgjsPath1513" d="M 37.5 0L 75 45L 0 45Z" stroke="rgba(50,50,50,1)" stroke-width="2" fill-opacity="1" fill="#ffe0b2"></path><g id="SvgjsG1514"><text id="SvgjsText1515" font-family="微软雅黑" text-anchor="middle" font-size="13px" width="55px" fill="#323232" font-weight="700" align="middle" lineHeight="125%" anchor="middle" family="微软雅黑" size="13px" weight="700" font-style="" opacity="1" y="10.5" transform="rotate(0)"><tspan id="SvgjsTspan1516" dy="16" x="37.5"><tspan id="SvgjsTspan1517" style="text-decoration:;">Z</tspan></tspan><tspan id="SvgjsTspan1518" dy="16" x="37.5"><tspan id="SvgjsTspan1519" style="text-decoration:;">Z&gt;N</tspan></tspan></text></g></g><g id="SvgjsG1520" transform="translate(1207.8395213942256,169.88889390479062)"><path id="SvgjsPath1521" d="M 37.5 0L 75 45L 0 45Z" stroke-dasharray="10,6" stroke="rgba(50,50,50,1)" stroke-width="2" fill-opacity="1" fill="#bbdefb"></path><g id="SvgjsG1522"><text id="SvgjsText1523" font-family="微软雅黑" text-anchor="middle" font-size="13px" width="55px" fill="#323232" font-weight="700" align="middle" lineHeight="125%" anchor="middle" family="微软雅黑" size="13px" weight="700" font-style="" opacity="1" y="18.5" transform="rotate(0)"><tspan id="SvgjsTspan1524" dy="16" x="37.5"><tspan id="SvgjsTspan1525" style="text-decoration:;font-weight: bold;">Y2</tspan></tspan></text></g></g><g id="SvgjsG1526" transform="translate(1016.2981241185992,169.88889390479062)"><path id="SvgjsPath1527" d="M 37.5 0L 75 45L 0 45Z" stroke="rgba(50,50,50,1)" stroke-width="2" fill-opacity="1" fill="#ffcdd2"></path><g id="SvgjsG1528"><text id="SvgjsText1529" font-family="微软雅黑" text-anchor="middle" font-size="13px" width="55px" fill="#323232" font-weight="700" align="middle" lineHeight="125%" anchor="middle" family="微软雅黑" size="13px" weight="700" font-style="" opacity="1" y="10.5" transform="rotate(0)"><tspan id="SvgjsTspan1530" dy="16" x="37.5"><tspan id="SvgjsTspan1531" style="text-decoration:;">X</tspan></tspan><tspan id="SvgjsTspan1532" dy="16" x="37.5"><tspan id="SvgjsTspan1533" style="text-decoration:;">X &lt; L</tspan></tspan></text></g></g><g id="SvgjsG1534"><path id="SvgjsPath1535" d="M1116.6022907321224 110.765625L1182.560378194225 61.04489569094687" stroke="#323232" stroke-width="2" fill="none"></path></g><g id="SvgjsG1536" transform="translate(1126.2981241185992,169.88889390479062)"><path id="SvgjsPath1537" d="M 37.5 0L 75 45L 0 45Z" stroke-dasharray="10,6" stroke="rgba(50,50,50,1)" stroke-width="2" fill-opacity="1" fill="#bbdefb"></path><g id="SvgjsG1538"><text id="SvgjsText1539" font-family="微软雅黑" text-anchor="middle" font-size="13px" width="55px" fill="#323232" font-weight="700" align="middle" lineHeight="125%" anchor="middle" family="微软雅黑" size="13px" weight="700" font-style="" opacity="1" y="18.5" transform="rotate(0)"><tspan id="SvgjsTspan1540" dy="16" x="37.5"><tspan id="SvgjsTspan1541" style="text-decoration:;font-weight: bold;">Y1</tspan></tspan></text></g></g><g id="SvgjsG1542"><path id="SvgjsPath1543" d="M1118.3041574027654 138.83726217094033L1163.7981241185992 169.88889390479062" stroke="#323232" stroke-width="2" fill="none"></path></g><g id="SvgjsG1544" transform="matrix(0.7071067811865476,0.7071067811865475,-0.7071067811865475,0.7071067811865476,1200.2004772187183,25.00483741118811)"><path id="SvgjsPath1545" d="M 0 18C 0 -6 35 -6 35 18C 35 42 0 42 0 18Z" stroke="rgba(0,0,0,1)" stroke-width="2" fill-opacity="1" fill="#bbdefb"></path><g id="SvgjsG1546"><text id="SvgjsText1547" font-family="微软雅黑" text-anchor="middle" font-size="16px" width="15px" fill="#000000" font-weight="700" align="middle" lineHeight="125%" anchor="middle" family="微软雅黑" size="16px" weight="700" font-style="" opacity="1" y="6" transform="rotate(0)"></text></g></g><g id="SvgjsG1548" transform="translate(1182.3469782162058,32.107126767258706)"><path id="SvgjsPath1549" d="M 0 0L 35 0L 35 36L 0 36Z" stroke="none" fill="none"></path><g id="SvgjsG1550"><text id="SvgjsText1551" font-family="微软雅黑" text-anchor="middle" font-size="16px" width="35px" fill="#000000" font-weight="700" align="middle" lineHeight="125%" anchor="middle" family="微软雅黑" size="16px" weight="700" font-style="" opacity="1" y="6" transform="rotate(0)"><tspan id="SvgjsTspan1552" dy="20" x="17.5"><tspan id="SvgjsTspan1553" style="text-decoration:;">RL</tspan></tspan></text></g></g><g id="SvgjsG1554"><path id="SvgjsPath1555" d="M1290.9650480731627 137.90987207745866L1245.3395213942256 169.88889390479062" stroke="#323232" stroke-width="2" fill="none"></path></g><g id="SvgjsG1556" transform="matrix(0.7071067811865476,0.7071067811865475,-0.7071067811865475,0.7071067811865476,1300.6930309296558,98.40987052276037)"><path id="SvgjsPath1557" d="M 0 18C 0 -6 35 -6 35 18C 35 42 0 42 0 18Z" stroke="rgba(0,0,0,1)" stroke-width="2" fill-opacity="1" fill="#e1bee7"></path><g id="SvgjsG1558"><text id="SvgjsText1559" font-family="微软雅黑" text-anchor="middle" font-size="16px" width="15px" fill="#000000" font-weight="700" align="middle" lineHeight="125%" anchor="middle" family="微软雅黑" size="16px" weight="700" font-style="" opacity="1" y="6" transform="rotate(0)"></text></g></g><g id="SvgjsG1560" transform="translate(1282.8395213942256,105.51216280958124)"><path id="SvgjsPath1561" d="M 0 0L 35 0L 35 36L 0 36Z" stroke="none" fill="none"></path><g id="SvgjsG1562"><text id="SvgjsText1563" font-family="微软雅黑" text-anchor="middle" font-size="16px" width="35px" fill="#000000" font-weight="700" align="middle" lineHeight="125%" anchor="middle" family="微软雅黑" size="16px" weight="700" font-style="" opacity="1" y="6" transform="rotate(0)"><tspan id="SvgjsTspan1564" dy="20" x="17.5"><tspan id="SvgjsTspan1565" style="text-decoration:;">R</tspan></tspan></text></g></g><g id="SvgjsG1566"><path id="SvgjsPath1567" d="M1316.2752726857382 136.1144535417036L1362.9418121263482 169.88889390479062" stroke="#323232" stroke-width="2" fill="none"></path></g><g id="SvgjsG1568"><path id="SvgjsPath1569" d="M1216.5903114426462 64.5335503309077L1283.6411257383863 105.75677608654587" stroke="#323232" stroke-width="2" fill="none"></path></g><g id="SvgjsG1570" transform="translate(1241.7365993328679,234.265625)"><path id="SvgjsPath1571" d="M 0 0L 101.20584412271569 0L 117.20584412271569 16L 117.20584412271569 54L 0 54L 0 0Z" stroke="none" fill-opacity="1" fill="#64b5f6"></path><path id="SvgjsPath1572" d="M 101.20584412271569 0L 101.20584412271569 16L 117.20584412271569 16Z" stroke="none" fill-opacity="1" fill="#cdcdcd"></path><path id="SvgjsPath1573" d="M 0 0L 101.20584412271569 0L 117.20584412271569 16L 117.20584412271569 54L 0 54L 0 0Z" stroke="none" fill="none"></path><g id="SvgjsG1574"><text id="SvgjsText1575" font-family="微软雅黑" text-anchor="middle" font-size="13px" width="98px" fill="#323232" font-weight="400" align="middle" lineHeight="125%" anchor="middle" family="微软雅黑" size="13px" weight="400" font-style="" opacity="1" y="17.375" transform="rotate(0)"><tspan id="SvgjsTspan1576" dy="16" x="59"><tspan id="SvgjsTspan1577" style="text-decoration:;font-weight: bold;">结点Y1过继给N</tspan></tspan></text></g></g><g id="SvgjsG1578"><path id="SvgjsPath1579" d="M1241.7365993328679 261.265625C 1205.4594283168087 261.265625 1163.7981241185992 251.16606492084986 1163.7981241185992 214.88889390479062" stroke-dasharray="3,3" stroke="#323232" stroke-width="2" fill="none" marker-end="url(#SvgjsMarker1580)"></path></g></svg>