<svg id="SvgjsSvg1006" width="683.625" height="304.5" xmlns="http://www.w3.org/2000/svg" version="1.1" xmlns:xlink="http://www.w3.org/1999/xlink" xmlns:svgjs="http://svgjs.com/svgjs"><defs id="SvgjsDefs1007"></defs><g id="SvgjsG1008" transform="matrix(0.7071067811865476,0.7071067811865475,-0.7071067811865475,0.7071067811865476,256.0808410644531,95.50202636068272)"><path id="SvgjsPath1009" d="M 0 18C 0 -6 36 -6 36 18C 36 42 0 42 0 18Z" stroke="rgba(0,0,0,1)" stroke-width="2" fill-opacity="1" fill="#ffffff"></path><g id="SvgjsG1010"><text id="SvgjsText1011" font-family="微软雅黑" text-anchor="middle" font-size="16px" width="16px" fill="#000000" font-weight="700" align="middle" lineHeight="125%" anchor="middle" family="微软雅黑" size="16px" weight="700" font-style="" opacity="1" y="6" transform="rotate(0)"></text></g></g><g id="SvgjsG1012" transform="translate(240.5808441227157,106.45787350913724)"><path id="SvgjsPath1013" d="M 0 0L 31 0L 31 29L 0 29Z" stroke="none" fill="none"></path><g id="SvgjsG1014"><text id="SvgjsText1015" font-family="微软雅黑" text-anchor="middle" font-size="16px" width="31px" fill="#000000" font-weight="700" align="middle" lineHeight="125%" anchor="middle" family="微软雅黑" size="16px" weight="700" font-style="" opacity="1" y="2.5" transform="rotate(0)"><tspan id="SvgjsTspan1016" dy="20" x="15.5"><tspan id="SvgjsTspan1017" style="text-decoration:;">8</tspan></tspan></text></g></g><g id="SvgjsG1018" transform="matrix(0.7071067811865476,0.7071067811865475,-0.7071067811865475,0.7071067811865476,172.16915893554688,25.002030175379993)"><path id="SvgjsPath1019" d="M 0 18C 0 -6 36 -6 36 18C 36 42 0 42 0 18Z" stroke="rgba(0,0,0,1)" stroke-width="2" fill-opacity="1" fill="#ffffff"></path><g id="SvgjsG1020"><text id="SvgjsText1021" font-family="微软雅黑" text-anchor="middle" font-size="16px" width="16px" fill="#000000" font-weight="700" align="middle" lineHeight="125%" anchor="middle" family="微软雅黑" size="16px" weight="700" font-style="" opacity="1" y="6" transform="rotate(0)"></text></g></g><g id="SvgjsG1022" transform="translate(155.4191558772843,33.457873509137244)"><path id="SvgjsPath1023" d="M 0 0L 33.5 0L 33.5 35L 0 35Z" stroke="none" fill="none"></path><g id="SvgjsG1024"><text id="SvgjsText1025" font-family="微软雅黑" text-anchor="middle" font-size="16px" width="34px" fill="#000000" font-weight="700" align="middle" lineHeight="125%" anchor="middle" family="微软雅黑" size="16px" weight="700" font-style="" opacity="1" y="5.5" transform="rotate(0)"><tspan id="SvgjsTspan1026" dy="20" x="17"><tspan id="SvgjsTspan1027" style="text-decoration:;">5</tspan></tspan></text></g></g><g id="SvgjsG1028"><path id="SvgjsPath1029" d="M187.6590741737109 60.52243095489746L240.80160434416064 107.14913218175525" stroke="#000000" stroke-width="2" fill="none"></path></g><g id="SvgjsG1030" transform="matrix(0.7071067811865476,0.7071067811865475,-0.7071067811865475,0.7071067811865476,93.91915893554688,95.50202636068272)"><path id="SvgjsPath1031" d="M 0 18C 0 -6 36 -6 36 18C 36 42 0 42 0 18Z" stroke="rgba(0,0,0,1)" stroke-width="2" fill-opacity="1" fill="#ffffff"></path><g id="SvgjsG1032"><text id="SvgjsText1033" font-family="微软雅黑" text-anchor="middle" font-size="16px" width="16px" fill="#000000" font-weight="700" align="middle" lineHeight="125%" anchor="middle" family="微软雅黑" size="16px" weight="700" font-style="" opacity="1" y="6" transform="rotate(0)"></text></g></g><g id="SvgjsG1034" transform="translate(77.16915587728431,103.95787350913724)"><path id="SvgjsPath1035" d="M 0 0L 33.5 0L 33.5 35L 0 35Z" stroke="none" fill="none"></path><g id="SvgjsG1036"><text id="SvgjsText1037" font-family="微软雅黑" text-anchor="middle" font-size="16px" width="34px" fill="#000000" font-weight="700" align="middle" lineHeight="125%" anchor="middle" family="微软雅黑" size="16px" weight="700" font-style="" opacity="1" y="5.5" transform="rotate(0)"><tspan id="SvgjsTspan1038" dy="20" x="17"><tspan id="SvgjsTspan1039" style="text-decoration:;">2</tspan></tspan></text></g></g><g id="SvgjsG1040" transform="matrix(0.7071067811865476,0.7071067811865475,-0.7071067811865475,0.7071067811865476,50.46331024169922,159.50202636068272)"><path id="SvgjsPath1041" d="M 0 18C 0 -6 36 -6 36 18C 36 42 0 42 0 18Z" stroke="rgba(0,0,0,1)" stroke-width="2" fill-opacity="1" fill="#ffffff"></path><g id="SvgjsG1042"><text id="SvgjsText1043" font-family="微软雅黑" text-anchor="middle" font-size="16px" width="16px" fill="#000000" font-weight="700" align="middle" lineHeight="125%" anchor="middle" family="微软雅黑" size="16px" weight="700" font-style="" opacity="1" y="6" transform="rotate(0)"></text></g></g><g id="SvgjsG1044" transform="translate(33.71331175456862,167.95787350913724)"><path id="SvgjsPath1045" d="M 0 0L 33.5 0L 33.5 35L 0 35Z" stroke="none" fill="none"></path><g id="SvgjsG1046"><text id="SvgjsText1047" font-family="微软雅黑" text-anchor="middle" font-size="16px" width="34px" fill="#000000" font-weight="700" align="middle" lineHeight="125%" anchor="middle" family="微软雅黑" size="16px" weight="700" font-style="" opacity="1" y="5.5" transform="rotate(0)"><tspan id="SvgjsTspan1048" dy="20" x="17"><tspan id="SvgjsTspan1049" style="text-decoration:;">1</tspan></tspan></text></g></g><g id="SvgjsG1050" transform="matrix(0.7071067811865476,0.7071067811865475,-0.7071067811865475,0.7071067811865476,150.375,159.50202636068272)"><path id="SvgjsPath1051" d="M 0 18C 0 -6 36 -6 36 18C 36 42 0 42 0 18Z" stroke="rgba(0,0,0,1)" stroke-width="2" fill-opacity="1" fill="#ffffff"></path><g id="SvgjsG1052"><text id="SvgjsText1053" font-family="微软雅黑" text-anchor="middle" font-size="16px" width="16px" fill="#000000" font-weight="700" align="middle" lineHeight="125%" anchor="middle" family="微软雅黑" size="16px" weight="700" font-style="" opacity="1" y="6" transform="rotate(0)"></text></g></g><g id="SvgjsG1054" transform="translate(133.625,167.95787350913724)"><path id="SvgjsPath1055" d="M 0 0L 33.5 0L 33.5 35L 0 35Z" stroke="none" fill="none"></path><g id="SvgjsG1056"><text id="SvgjsText1057" font-family="微软雅黑" text-anchor="middle" font-size="16px" width="34px" fill="#000000" font-weight="700" align="middle" lineHeight="125%" anchor="middle" family="微软雅黑" size="16px" weight="700" font-style="" opacity="1" y="5.5" transform="rotate(0)"><tspan id="SvgjsTspan1058" dy="20" x="17"><tspan id="SvgjsTspan1059" style="text-decoration:;">4</tspan></tspan></text></g></g><g id="SvgjsG1060"><path id="SvgjsPath1061" d="M158.96702014332567 64.84155737921412L110.0397706357125 104.46529028665134" stroke="#000000" stroke-width="2" fill="none"></path></g><g id="SvgjsG1062"><path id="SvgjsPath1063" d="M82.46331175456862 137.95787350913724L60.46331175456862 168.60987005455956" stroke="#000000" stroke-width="2" fill="none"></path></g><g id="SvgjsG1064"><path id="SvgjsPath1065" d="M109.82052414488203 138.19182906601827L133.82800239535754 170.4556066978546" stroke="#000000" stroke-width="2" fill="none"></path></g><g id="SvgjsG1066" transform="matrix(0.7071067811865476,0.7071067811865475,-0.7071067811865475,0.7071067811865476,202.625,159.50202636068272)"><path id="SvgjsPath1067" d="M 0 18C 0 -6 36 -6 36 18C 36 42 0 42 0 18Z" stroke="rgba(0,0,0,1)" stroke-width="2" fill-opacity="1" fill="#ffffff"></path><g id="SvgjsG1068"><text id="SvgjsText1069" font-family="微软雅黑" text-anchor="middle" font-size="16px" width="16px" fill="#000000" font-weight="700" align="middle" lineHeight="125%" anchor="middle" family="微软雅黑" size="16px" weight="700" font-style="" opacity="1" y="6" transform="rotate(0)"></text></g></g><g id="SvgjsG1070" transform="translate(185.875,167.95787350913724)"><path id="SvgjsPath1071" d="M 0 0L 33.5 0L 33.5 35L 0 35Z" stroke="none" fill="none"></path><g id="SvgjsG1072"><text id="SvgjsText1073" font-family="微软雅黑" text-anchor="middle" font-size="16px" width="34px" fill="#000000" font-weight="700" align="middle" lineHeight="125%" anchor="middle" family="微软雅黑" size="16px" weight="700" font-style="" opacity="1" y="5.5" transform="rotate(0)"><tspan id="SvgjsTspan1074" dy="20" x="17"><tspan id="SvgjsTspan1075" style="text-decoration:;">7</tspan></tspan></text></g></g><g id="SvgjsG1076"><path id="SvgjsPath1077" d="M240.625 134.0491991924311L214.2626888981672 168.28076326780575" stroke="#000000" stroke-width="2" fill="none"></path></g><g id="SvgjsG1078" transform="matrix(0.7071067811865476,0.7071067811865475,-0.7071067811865475,0.7071067811865476,101.375,227.50202636068272)"><path id="SvgjsPath1079" d="M 0 18C 0 -6 36 -6 36 18C 36 42 0 42 0 18Z" stroke="rgba(0,0,0,1)" stroke-width="2" fill-opacity="1" fill="#ffffff"></path><g id="SvgjsG1080"><text id="SvgjsText1081" font-family="微软雅黑" text-anchor="middle" font-size="16px" width="16px" fill="#000000" font-weight="700" align="middle" lineHeight="125%" anchor="middle" family="微软雅黑" size="16px" weight="700" font-style="" opacity="1" y="6" transform="rotate(0)"></text></g></g><g id="SvgjsG1082" transform="translate(84.625,235.95787350913724)"><path id="SvgjsPath1083" d="M 0 0L 33.5 0L 33.5 35L 0 35Z" stroke="none" fill="none"></path><g id="SvgjsG1084"><text id="SvgjsText1085" font-family="微软雅黑" text-anchor="middle" font-size="16px" width="34px" fill="#000000" font-weight="700" align="middle" lineHeight="125%" anchor="middle" family="微软雅黑" size="16px" weight="700" font-style="" opacity="1" y="5.5" transform="rotate(0)"><tspan id="SvgjsTspan1086" dy="20" x="17"><tspan id="SvgjsTspan1087" style="text-decoration:;">3</tspan></tspan></text></g></g><g id="SvgjsG1088"><path id="SvgjsPath1089" d="M135.7986481776669 202.7964422469878L112.86690607428301 236.61147221559492" stroke="#000000" stroke-width="2" fill="none"></path></g><g id="SvgjsG1090" transform="matrix(0.7071067811865476,0.7071067811865475,-0.7071067811865475,0.7071067811865476,633.0808715820312,96.50202636068272)"><path id="SvgjsPath1091" d="M 0 18C 0 -6 36 -6 36 18C 36 42 0 42 0 18Z" stroke="rgba(0,0,0,1)" stroke-width="2" fill-opacity="1" fill="#ffffff"></path><g id="SvgjsG1092"><text id="SvgjsText1093" font-family="微软雅黑" text-anchor="middle" font-size="16px" width="16px" fill="#000000" font-weight="700" align="middle" lineHeight="125%" anchor="middle" family="微软雅黑" size="16px" weight="700" font-style="" opacity="1" y="6" transform="rotate(0)"></text></g></g><g id="SvgjsG1094" transform="translate(617.5808441227157,107.45787350913724)"><path id="SvgjsPath1095" d="M 0 0L 31 0L 31 29L 0 29Z" stroke="none" fill="none"></path><g id="SvgjsG1096"><text id="SvgjsText1097" font-family="微软雅黑" text-anchor="middle" font-size="16px" width="31px" fill="#000000" font-weight="700" align="middle" lineHeight="125%" anchor="middle" family="微软雅黑" size="16px" weight="700" font-style="" opacity="1" y="2.5" transform="rotate(0)"><tspan id="SvgjsTspan1098" dy="20" x="15.5"><tspan id="SvgjsTspan1099" style="text-decoration:;">8</tspan></tspan></text></g></g><g id="SvgjsG1100" transform="matrix(0.7071067811865476,0.7071067811865475,-0.7071067811865475,0.7071067811865476,549.1691284179688,26.002030175379993)"><path id="SvgjsPath1101" d="M 0 18C 0 -6 36 -6 36 18C 36 42 0 42 0 18Z" stroke="rgba(0,0,0,1)" stroke-width="2" fill-opacity="1" fill="#ffffff"></path><g id="SvgjsG1102"><text id="SvgjsText1103" font-family="微软雅黑" text-anchor="middle" font-size="16px" width="16px" fill="#000000" font-weight="700" align="middle" lineHeight="125%" anchor="middle" family="微软雅黑" size="16px" weight="700" font-style="" opacity="1" y="6" transform="rotate(0)"></text></g></g><g id="SvgjsG1104" transform="translate(532.4191558772843,34.457873509137244)"><path id="SvgjsPath1105" d="M 0 0L 33.5 0L 33.5 35L 0 35Z" stroke="none" fill="none"></path><g id="SvgjsG1106"><text id="SvgjsText1107" font-family="微软雅黑" text-anchor="middle" font-size="16px" width="34px" fill="#000000" font-weight="700" align="middle" lineHeight="125%" anchor="middle" family="微软雅黑" size="16px" weight="700" font-style="" opacity="1" y="5.5" transform="rotate(0)"><tspan id="SvgjsTspan1108" dy="20" x="17"><tspan id="SvgjsTspan1109" style="text-decoration:;">7</tspan></tspan></text></g></g><g id="SvgjsG1110"><path id="SvgjsPath1111" d="M564.6590741737109 61.52243095489746L617.8016043441606 108.14913218175525" stroke="#000000" stroke-width="2" fill="none"></path></g><g id="SvgjsG1112" transform="matrix(0.7071067811865476,0.7071067811865475,-0.7071067811865475,0.7071067811865476,470.9191589355469,96.50202636068272)"><path id="SvgjsPath1113" d="M 0 18C 0 -6 36 -6 36 18C 36 42 0 42 0 18Z" stroke="rgba(0,0,0,1)" stroke-width="2" fill-opacity="1" fill="#ffffff"></path><g id="SvgjsG1114"><text id="SvgjsText1115" font-family="微软雅黑" text-anchor="middle" font-size="16px" width="16px" fill="#000000" font-weight="700" align="middle" lineHeight="125%" anchor="middle" family="微软雅黑" size="16px" weight="700" font-style="" opacity="1" y="6" transform="rotate(0)"></text></g></g><g id="SvgjsG1116" transform="translate(454.1691558772843,104.95787350913724)"><path id="SvgjsPath1117" d="M 0 0L 33.5 0L 33.5 35L 0 35Z" stroke="none" fill="none"></path><g id="SvgjsG1118"><text id="SvgjsText1119" font-family="微软雅黑" text-anchor="middle" font-size="16px" width="34px" fill="#000000" font-weight="700" align="middle" lineHeight="125%" anchor="middle" family="微软雅黑" size="16px" weight="700" font-style="" opacity="1" y="5.5" transform="rotate(0)"><tspan id="SvgjsTspan1120" dy="20" x="17"><tspan id="SvgjsTspan1121" style="text-decoration:;">2</tspan></tspan></text></g></g><g id="SvgjsG1122" transform="matrix(0.7071067811865476,0.7071067811865475,-0.7071067811865475,0.7071067811865476,427.46331787109375,160.50202636068272)"><path id="SvgjsPath1123" d="M 0 18C 0 -6 36 -6 36 18C 36 42 0 42 0 18Z" stroke="rgba(0,0,0,1)" stroke-width="2" fill-opacity="1" fill="#ffffff"></path><g id="SvgjsG1124"><text id="SvgjsText1125" font-family="微软雅黑" text-anchor="middle" font-size="16px" width="16px" fill="#000000" font-weight="700" align="middle" lineHeight="125%" anchor="middle" family="微软雅黑" size="16px" weight="700" font-style="" opacity="1" y="6" transform="rotate(0)"></text></g></g><g id="SvgjsG1126" transform="translate(410.7133117545686,168.95787350913724)"><path id="SvgjsPath1127" d="M 0 0L 33.5 0L 33.5 35L 0 35Z" stroke="none" fill="none"></path><g id="SvgjsG1128"><text id="SvgjsText1129" font-family="微软雅黑" text-anchor="middle" font-size="16px" width="34px" fill="#000000" font-weight="700" align="middle" lineHeight="125%" anchor="middle" family="微软雅黑" size="16px" weight="700" font-style="" opacity="1" y="5.5" transform="rotate(0)"><tspan id="SvgjsTspan1130" dy="20" x="17"><tspan id="SvgjsTspan1131" style="text-decoration:;">1</tspan></tspan></text></g></g><g id="SvgjsG1132" transform="matrix(0.7071067811865476,0.7071067811865475,-0.7071067811865475,0.7071067811865476,527.375,160.50202636068272)"><path id="SvgjsPath1133" d="M 0 18C 0 -6 36 -6 36 18C 36 42 0 42 0 18Z" stroke="rgba(0,0,0,1)" stroke-width="2" fill-opacity="1" fill="#ffffff"></path><g id="SvgjsG1134"><text id="SvgjsText1135" font-family="微软雅黑" text-anchor="middle" font-size="16px" width="16px" fill="#000000" font-weight="700" align="middle" lineHeight="125%" anchor="middle" family="微软雅黑" size="16px" weight="700" font-style="" opacity="1" y="6" transform="rotate(0)"></text></g></g><g id="SvgjsG1136" transform="translate(510.625,168.95787350913724)"><path id="SvgjsPath1137" d="M 0 0L 33.5 0L 33.5 35L 0 35Z" stroke="none" fill="none"></path><g id="SvgjsG1138"><text id="SvgjsText1139" font-family="微软雅黑" text-anchor="middle" font-size="16px" width="34px" fill="#000000" font-weight="700" align="middle" lineHeight="125%" anchor="middle" family="微软雅黑" size="16px" weight="700" font-style="" opacity="1" y="5.5" transform="rotate(0)"><tspan id="SvgjsTspan1140" dy="20" x="17"><tspan id="SvgjsTspan1141" style="text-decoration:;">4</tspan></tspan></text></g></g><g id="SvgjsG1142"><path id="SvgjsPath1143" d="M535.9670201433257 65.84155737921412L487.03977063571256 105.46529028665134" stroke="#000000" stroke-width="2" fill="none"></path></g><g id="SvgjsG1144"><path id="SvgjsPath1145" d="M459.4633117545686 138.95787350913724L437.4633117545686 169.60987005455956" stroke="#000000" stroke-width="2" fill="none"></path></g><g id="SvgjsG1146"><path id="SvgjsPath1147" d="M486.82052414488203 139.19182906601827L510.82800239535754 171.4556066978546" stroke="#000000" stroke-width="2" fill="none"></path></g><g id="SvgjsG1148" transform="matrix(0.7071067811865476,0.7071067811865475,-0.7071067811865475,0.7071067811865476,577.625,228.50202636068272)"><path id="SvgjsPath1149" d="M 0 18C 0 -6 36 -6 36 18C 36 42 0 42 0 18Z" stroke="rgba(0,0,0,1)" stroke-width="2" fill-opacity="1" fill="#ffffff"></path><g id="SvgjsG1150"><text id="SvgjsText1151" font-family="微软雅黑" text-anchor="middle" font-size="16px" width="16px" fill="#000000" font-weight="700" align="middle" lineHeight="125%" anchor="middle" family="微软雅黑" size="16px" weight="700" font-style="" opacity="1" y="6" transform="rotate(0)"></text></g></g><g id="SvgjsG1152" transform="translate(560.875,236.95787350913724)"><path id="SvgjsPath1153" d="M 0 0L 33.5 0L 33.5 35L 0 35Z" stroke="none" fill="none"></path><g id="SvgjsG1154"><text id="SvgjsText1155" font-family="微软雅黑" text-anchor="middle" font-size="16px" width="34px" fill="#000000" font-weight="700" align="middle" lineHeight="125%" anchor="middle" family="微软雅黑" size="16px" weight="700" font-style="" opacity="1" y="5.5" transform="rotate(0)"><tspan id="SvgjsTspan1156" dy="20" x="17"><tspan id="SvgjsTspan1157" style="text-decoration:;">5</tspan></tspan></text></g></g><g id="SvgjsG1158" transform="matrix(0.7071067811865476,0.7071067811865475,-0.7071067811865475,0.7071067811865476,478.375,228.50202636068272)"><path id="SvgjsPath1159" d="M 0 18C 0 -6 36 -6 36 18C 36 42 0 42 0 18Z" stroke="rgba(0,0,0,1)" stroke-width="2" fill-opacity="1" fill="#ffffff"></path><g id="SvgjsG1160"><text id="SvgjsText1161" font-family="微软雅黑" text-anchor="middle" font-size="16px" width="16px" fill="#000000" font-weight="700" align="middle" lineHeight="125%" anchor="middle" family="微软雅黑" size="16px" weight="700" font-style="" opacity="1" y="6" transform="rotate(0)"></text></g></g><g id="SvgjsG1162" transform="translate(461.625,236.95787350913724)"><path id="SvgjsPath1163" d="M 0 0L 33.5 0L 33.5 35L 0 35Z" stroke="none" fill="none"></path><g id="SvgjsG1164"><text id="SvgjsText1165" font-family="微软雅黑" text-anchor="middle" font-size="16px" width="34px" fill="#000000" font-weight="700" align="middle" lineHeight="125%" anchor="middle" family="微软雅黑" size="16px" weight="700" font-style="" opacity="1" y="5.5" transform="rotate(0)"><tspan id="SvgjsTspan1166" dy="20" x="17"><tspan id="SvgjsTspan1167" style="text-decoration:;">3</tspan></tspan></text></g></g><g id="SvgjsG1168"><path id="SvgjsPath1169" d="M512.7986481776669 203.7964422469878L489.86690607428295 237.61147221559486" stroke="#000000" stroke-width="2" fill="none"></path></g><g id="SvgjsG1170"><path id="SvgjsPath1171" d="M538.625 203.78125L561.1565389351832 238.89434130870347" stroke="#323232" stroke-width="2" fill="none"></path></g></svg>