<svg id="SvgjsSvg1640" width="689" height="405.25" xmlns="http://www.w3.org/2000/svg" version="1.1" xmlns:xlink="http://www.w3.org/1999/xlink" xmlns:svgjs="http://svgjs.com/svgjs"><defs id="SvgjsDefs1641"><marker id="SvgjsMarker1676" markerWidth="16" markerHeight="12" refX="16" refY="6" viewBox="0 0 16 12" orient="auto" markerUnits="userSpaceOnUse" stroke-dasharray="0,0"><path id="SvgjsPath1677" d="M0,2 L14,6 L0,11 L0,2" fill="#323232" stroke="#323232" stroke-width="2"></path></marker><marker id="SvgjsMarker1680" markerWidth="16" markerHeight="12" refX="16" refY="6" viewBox="0 0 16 12" orient="auto" markerUnits="userSpaceOnUse" stroke-dasharray="0,0"><path id="SvgjsPath1681" d="M0,2 L14,6 L0,11 L0,2" fill="#323232" stroke="#323232" stroke-width="2"></path></marker><marker id="SvgjsMarker1684" markerWidth="16" markerHeight="12" refX="16" refY="6" viewBox="0 0 16 12" orient="auto" markerUnits="userSpaceOnUse" stroke-dasharray="0,0"><path id="SvgjsPath1685" d="M0,2 L14,6 L0,11 L0,2" fill="#323232" stroke="#323232" stroke-width="2"></path></marker><marker id="SvgjsMarker1718" markerWidth="16" markerHeight="12" refX="16" refY="6" viewBox="0 0 16 12" orient="auto" markerUnits="userSpaceOnUse" stroke-dasharray="0,0"><path id="SvgjsPath1719" d="M0,2 L14,6 L0,11 L0,2" fill="#323232" stroke="#323232" stroke-width="2"></path></marker><marker id="SvgjsMarker1722" markerWidth="16" markerHeight="12" refX="16" refY="6" viewBox="0 0 16 12" orient="auto" markerUnits="userSpaceOnUse" stroke-dasharray="0,0"><path id="SvgjsPath1723" d="M0,2 L14,6 L0,11 L0,2" fill="#323232" stroke="#323232" stroke-width="2"></path></marker><marker id="SvgjsMarker1750" markerWidth="16" markerHeight="12" refX="16" refY="6" viewBox="0 0 16 12" orient="auto" markerUnits="userSpaceOnUse" stroke-dasharray="0,0"><path id="SvgjsPath1751" d="M0,2 L14,6 L0,11 L0,2" fill="#323232" stroke="#323232" stroke-width="2"></path></marker><marker id="SvgjsMarker1754" markerWidth="16" markerHeight="12" refX="16" refY="6" viewBox="0 0 16 12" orient="auto" markerUnits="userSpaceOnUse" stroke-dasharray="0,0"><path id="SvgjsPath1755" d="M0,2 L14,6 L0,11 L0,2" fill="#323232" stroke="#323232" stroke-width="2"></path></marker><marker id="SvgjsMarker1758" markerWidth="16" markerHeight="12" refX="16" refY="6" viewBox="0 0 16 12" orient="auto" markerUnits="userSpaceOnUse" stroke-dasharray="0,0"><path id="SvgjsPath1759" d="M0,2 L14,6 L0,11 L0,2" fill="#323232" stroke="#323232" stroke-width="2"></path></marker><marker id="SvgjsMarker1762" markerWidth="16" markerHeight="12" refX="16" refY="6" viewBox="0 0 16 12" orient="auto" markerUnits="userSpaceOnUse" stroke-dasharray="0,0"><path id="SvgjsPath1763" d="M0,2 L14,6 L0,11 L0,2" fill="#323232" stroke="#323232" stroke-width="2"></path></marker><marker id="SvgjsMarker1766" markerWidth="16" markerHeight="12" refX="16" refY="6" viewBox="0 0 16 12" orient="auto" markerUnits="userSpaceOnUse" stroke-dasharray="0,0"><path id="SvgjsPath1767" d="M0,2 L14,6 L0,11 L0,2" fill="#323232" stroke="#323232" stroke-width="2"></path></marker><marker id="SvgjsMarker1770" markerWidth="16" markerHeight="12" refX="16" refY="6" viewBox="0 0 16 12" orient="auto" markerUnits="userSpaceOnUse" stroke-dasharray="0,0"><path id="SvgjsPath1771" d="M0,2 L14,6 L0,11 L0,2" fill="#323232" stroke="#323232" stroke-width="2"></path></marker></defs><g id="SvgjsG1642" transform="translate(149,327.2560975609756)"><path id="SvgjsPath1643" d="M 0 0L 73 0L 73 53.743902439024396L 0 53.743902439024396Z" stroke="rgba(50,50,50,1)" stroke-width="2" fill-opacity="1" fill="#ffffff"></path><g id="SvgjsG1644"><text id="SvgjsText1645" font-family="微软雅黑" text-anchor="middle" font-size="13px" width="53px" fill="#323232" font-weight="700" align="middle" lineHeight="125%" anchor="middle" family="微软雅黑" size="13px" weight="700" font-style="" opacity="1" y="9.246951219512198" transform="rotate(0)"><tspan id="SvgjsTspan1646" dy="16" x="36.5"><tspan id="SvgjsTspan1647" style="text-decoration:;">以太网</tspan></tspan><tspan id="SvgjsTspan1648" dy="16" x="36.5"><tspan id="SvgjsTspan1649" style="text-decoration:;">驱动程序</tspan></tspan></text></g></g><g id="SvgjsG1650" transform="translate(148,235.5)"><path id="SvgjsPath1651" d="M 0 0L 74 0L 74 31.98780487804879L 0 31.98780487804879Z" stroke="rgba(50,50,50,1)" stroke-width="2" fill-opacity="1" fill="#ffffff"></path><g id="SvgjsG1652"><text id="SvgjsText1653" font-family="微软雅黑" text-anchor="middle" font-size="13px" width="54px" fill="#323232" font-weight="700" align="middle" lineHeight="125%" anchor="middle" family="微软雅黑" size="13px" weight="700" font-style="" opacity="1" y="6.368902439024396" transform="rotate(0)"><tspan id="SvgjsTspan1654" dy="16" x="37"><tspan id="SvgjsTspan1655" style="text-decoration:;">IP</tspan></tspan></text></g></g><g id="SvgjsG1656" transform="translate(25,256.5)"><path id="SvgjsPath1657" d="M 0 0L 74 0L 74 31.98780487804879L 0 31.98780487804879Z" stroke="rgba(50,50,50,1)" stroke-width="2" fill-opacity="1" fill="#ffffff"></path><g id="SvgjsG1658"><text id="SvgjsText1659" font-family="微软雅黑" text-anchor="middle" font-size="13px" width="54px" fill="#323232" font-weight="700" align="middle" lineHeight="125%" anchor="middle" family="微软雅黑" size="13px" weight="700" font-style="" opacity="1" y="6.368902439024396" transform="rotate(0)"><tspan id="SvgjsTspan1660" dy="16" x="37"><tspan id="SvgjsTspan1661" style="text-decoration:;">ARP</tspan></tspan></text></g></g><g id="SvgjsG1662" transform="translate(25,142.0121951219512)"><path id="SvgjsPath1663" d="M 0 0L 74 0L 74 31.98780487804879L 0 31.98780487804879Z" stroke="rgba(50,50,50,1)" stroke-width="2" fill-opacity="1" fill="#ffffff"></path><g id="SvgjsG1664"><text id="SvgjsText1665" font-family="微软雅黑" text-anchor="middle" font-size="13px" width="54px" fill="#323232" font-weight="700" align="middle" lineHeight="125%" anchor="middle" family="微软雅黑" size="13px" weight="700" font-style="" opacity="1" y="6.368902439024396" transform="rotate(0)"><tspan id="SvgjsTspan1666" dy="16" x="37"><tspan id="SvgjsTspan1667" style="text-decoration:;">ICMP</tspan></tspan></text></g></g><g id="SvgjsG1668" transform="translate(271,256.5)"><path id="SvgjsPath1669" d="M 0 0L 74 0L 74 31.98780487804879L 0 31.98780487804879Z" stroke="rgba(50,50,50,1)" stroke-width="2" fill-opacity="1" fill="#ffffff"></path><g id="SvgjsG1670"><text id="SvgjsText1671" font-family="微软雅黑" text-anchor="middle" font-size="13px" width="54px" fill="#323232" font-weight="700" align="middle" lineHeight="125%" anchor="middle" family="微软雅黑" size="13px" weight="700" font-style="" opacity="1" y="6.368902439024396" transform="rotate(0)"><tspan id="SvgjsTspan1672" dy="16" x="37"><tspan id="SvgjsTspan1673" style="text-decoration:;">RARP</tspan></tspan></text></g></g><g id="SvgjsG1674"><path id="SvgjsPath1675" d="M204 327.5L308 288.4878048780488" stroke="#323232" stroke-width="2" fill="none" marker-end="url(#SvgjsMarker1676)"></path></g><g id="SvgjsG1678"><path id="SvgjsPath1679" d="M166 327.5L62 288.4878048780488" stroke="#323232" stroke-width="2" fill="none" marker-end="url(#SvgjsMarker1680)"></path></g><g id="SvgjsG1682"><path id="SvgjsPath1683" d="M185.5 327.2560975609756L185 267.4878048780488" stroke="#323232" stroke-width="2" fill="none" marker-end="url(#SvgjsMarker1684)"></path></g><g id="SvgjsG1686" transform="translate(110,142.0121951219512)"><path id="SvgjsPath1687" d="M 0 0L 74 0L 74 31.98780487804879L 0 31.98780487804879Z" stroke="rgba(50,50,50,1)" stroke-width="2" fill-opacity="1" fill="#ffffff"></path><g id="SvgjsG1688"><text id="SvgjsText1689" font-family="微软雅黑" text-anchor="middle" font-size="13px" width="54px" fill="#323232" font-weight="700" align="middle" lineHeight="125%" anchor="middle" family="微软雅黑" size="13px" weight="700" font-style="" opacity="1" y="6.368902439024396" transform="rotate(0)"><tspan id="SvgjsTspan1690" dy="16" x="37"><tspan id="SvgjsTspan1691" style="text-decoration:;">IGMP</tspan></tspan></text></g></g><g id="SvgjsG1692" transform="translate(197,115.01219512195121)"><path id="SvgjsPath1693" d="M 0 0L 74 0L 74 31.98780487804879L 0 31.98780487804879Z" stroke="rgba(50,50,50,1)" stroke-width="2" fill-opacity="1" fill="#ffffff"></path><g id="SvgjsG1694"><text id="SvgjsText1695" font-family="微软雅黑" text-anchor="middle" font-size="13px" width="54px" fill="#323232" font-weight="700" align="middle" lineHeight="125%" anchor="middle" family="微软雅黑" size="13px" weight="700" font-style="" opacity="1" y="6.368902439024396" transform="rotate(0)"><tspan id="SvgjsTspan1696" dy="16" x="37"><tspan id="SvgjsTspan1697" style="text-decoration:;">TCP</tspan></tspan></text></g></g><g id="SvgjsG1698" transform="translate(143.5,25.01219512195121)"><path id="SvgjsPath1699" d="M 0 0L 74 0L 74 31.98780487804879L 0 31.98780487804879Z" stroke="rgba(50,50,50,1)" stroke-width="2" fill-opacity="1" fill="#ffffff"></path><g id="SvgjsG1700"><text id="SvgjsText1701" font-family="微软雅黑" text-anchor="middle" font-size="13px" width="54px" fill="#323232" font-weight="700" align="middle" lineHeight="125%" anchor="middle" family="微软雅黑" size="13px" weight="700" font-style="" opacity="1" y="6.368902439024396" transform="rotate(0)"><tspan id="SvgjsTspan1702" dy="16" x="37"><tspan id="SvgjsTspan1703" style="text-decoration:;">应用程序</tspan></tspan></text></g></g><g id="SvgjsG1704" transform="translate(250.5,25.01219512195121)"><path id="SvgjsPath1705" d="M 0 0L 74 0L 74 31.98780487804879L 0 31.98780487804879Z" stroke="rgba(50,50,50,1)" stroke-width="2" fill-opacity="1" fill="#ffffff"></path><g id="SvgjsG1706"><text id="SvgjsText1707" font-family="微软雅黑" text-anchor="middle" font-size="13px" width="54px" fill="#323232" font-weight="700" align="middle" lineHeight="125%" anchor="middle" family="微软雅黑" size="13px" weight="700" font-style="" opacity="1" y="6.368902439024396" transform="rotate(0)"><tspan id="SvgjsTspan1708" dy="16" x="37"><tspan id="SvgjsTspan1709" style="text-decoration:;">应用程序</tspan></tspan></text></g></g><g id="SvgjsG1710" transform="translate(213.5,26.756097560975604)"><path id="SvgjsPath1711" d="M 0 0L 40 0L 40 20L 0 20Z" stroke="none" fill="none"></path><g id="SvgjsG1712"><text id="SvgjsText1713" font-family="微软雅黑" text-anchor="middle" font-size="17px" width="40px" fill="#323232" font-weight="400" align="middle" lineHeight="125%" anchor="middle" family="微软雅黑" size="17px" weight="400" font-style="" opacity="1" y="-2.625" transform="rotate(0)"><tspan id="SvgjsTspan1714" dy="21" x="20"><tspan id="SvgjsTspan1715" style="text-decoration:;font-weight: bold;">...</tspan></tspan></text></g></g><g id="SvgjsG1716"><path id="SvgjsPath1717" d="M214 115.5L180.5 57" stroke="#323232" stroke-width="2" fill="none" marker-end="url(#SvgjsMarker1718)"></path></g><g id="SvgjsG1720"><path id="SvgjsPath1721" d="M254 115.5L287.5 57" stroke="#323232" stroke-width="2" fill="none" marker-end="url(#SvgjsMarker1722)"></path></g><g id="SvgjsG1724" transform="translate(398.5,115.01219512195121)"><path id="SvgjsPath1725" d="M 0 0L 74 0L 74 31.98780487804879L 0 31.98780487804879Z" stroke="rgba(50,50,50,1)" stroke-width="2" fill-opacity="1" fill="#ffffff"></path><g id="SvgjsG1726"><text id="SvgjsText1727" font-family="微软雅黑" text-anchor="middle" font-size="13px" width="54px" fill="#323232" font-weight="700" align="middle" lineHeight="125%" anchor="middle" family="微软雅黑" size="13px" weight="700" font-style="" opacity="1" y="6.368902439024396" transform="rotate(0)"><tspan id="SvgjsTspan1728" dy="16" x="37"><tspan id="SvgjsTspan1729" style="text-decoration:;">UCP</tspan></tspan></text></g></g><g id="SvgjsG1730" transform="translate(345,25.01219512195121)"><path id="SvgjsPath1731" d="M 0 0L 74 0L 74 31.98780487804879L 0 31.98780487804879Z" stroke="rgba(50,50,50,1)" stroke-width="2" fill-opacity="1" fill="#ffffff"></path><g id="SvgjsG1732"><text id="SvgjsText1733" font-family="微软雅黑" text-anchor="middle" font-size="13px" width="54px" fill="#323232" font-weight="700" align="middle" lineHeight="125%" anchor="middle" family="微软雅黑" size="13px" weight="700" font-style="" opacity="1" y="6.368902439024396" transform="rotate(0)"><tspan id="SvgjsTspan1734" dy="16" x="37"><tspan id="SvgjsTspan1735" style="text-decoration:;">应用程序</tspan></tspan></text></g></g><g id="SvgjsG1736" transform="translate(452,25.01219512195121)"><path id="SvgjsPath1737" d="M 0 0L 74 0L 74 31.98780487804879L 0 31.98780487804879Z" stroke="rgba(50,50,50,1)" stroke-width="2" fill-opacity="1" fill="#ffffff"></path><g id="SvgjsG1738"><text id="SvgjsText1739" font-family="微软雅黑" text-anchor="middle" font-size="13px" width="54px" fill="#323232" font-weight="700" align="middle" lineHeight="125%" anchor="middle" family="微软雅黑" size="13px" weight="700" font-style="" opacity="1" y="6.368902439024396" transform="rotate(0)"><tspan id="SvgjsTspan1740" dy="16" x="37"><tspan id="SvgjsTspan1741" style="text-decoration:;">应用程序</tspan></tspan></text></g></g><g id="SvgjsG1742" transform="translate(415,26.756097560975604)"><path id="SvgjsPath1743" d="M 0 0L 40 0L 40 20L 0 20Z" stroke="none" fill="none"></path><g id="SvgjsG1744"><text id="SvgjsText1745" font-family="微软雅黑" text-anchor="middle" font-size="17px" width="40px" fill="#323232" font-weight="400" align="middle" lineHeight="125%" anchor="middle" family="微软雅黑" size="17px" weight="400" font-style="" opacity="1" y="-2.625" transform="rotate(0)"><tspan id="SvgjsTspan1746" dy="21" x="20"><tspan id="SvgjsTspan1747" style="text-decoration:;font-weight: bold;">...</tspan></tspan></text></g></g><g id="SvgjsG1748"><path id="SvgjsPath1749" d="M415.5 115.5L382 57" stroke="#323232" stroke-width="2" fill="none" marker-end="url(#SvgjsMarker1750)"></path></g><g id="SvgjsG1752"><path id="SvgjsPath1753" d="M455.5 115.5L489 57" stroke="#323232" stroke-width="2" fill="none" marker-end="url(#SvgjsMarker1754)"></path></g><g id="SvgjsG1756"><path id="SvgjsPath1757" d="M156 235.5L62 174" stroke="#323232" stroke-width="2" fill="none" marker-end="url(#SvgjsMarker1758)"></path></g><g id="SvgjsG1760"><path id="SvgjsPath1761" d="M169 235.5L147 174" stroke="#323232" stroke-width="2" fill="none" marker-end="url(#SvgjsMarker1762)"></path></g><g id="SvgjsG1764"><path id="SvgjsPath1765" d="M198 235.5L234 147" stroke="#323232" stroke-width="2" fill="none" marker-end="url(#SvgjsMarker1766)"></path></g><g id="SvgjsG1768"><path id="SvgjsPath1769" d="M212 235.5L435.5 147" stroke="#323232" stroke-width="2" fill="none" marker-end="url(#SvgjsMarker1770)"></path></g><g id="SvgjsG1772" transform="translate(383,288.4878048780488)"><path id="SvgjsPath1773" d="M 0 38.76829268292681Q 9 38.76829268292681 9 34.89146341463413L 9 23.260975609756088Q 9 19.384146341463406 22 19.384146341463406Q 9 19.384146341463406 9 15.507317073170725L 9 3.8768292682926813Q 9 0 0 0" stroke="rgba(50,50,50,1)" stroke-width="2" fill="none"></path><path id="SvgjsPath1774" d="M 0 0L 182 0L 182 38.76829268292681L 0 38.76829268292681Z" stroke="none" fill="none"></path><g id="SvgjsG1775"><text id="SvgjsText1776" font-family="微软雅黑" text-anchor="start" font-size="13px" width="155px" fill="#323232" font-weight="400" align="middle" lineHeight="125%" anchor="start" family="微软雅黑" size="13px" weight="400" font-style="" opacity="1" y="1.7591463414634063" transform="rotate(0)"><tspan id="SvgjsTspan1777" dy="16" x="27"><tspan id="SvgjsTspan1778" style="text-decoration:;font-weight: bold;">根据以太网首部中的</tspan></tspan><tspan id="SvgjsTspan1779" dy="16" x="27"><tspan id="SvgjsTspan1780" style="text-decoration:;font-weight: bold;">桢类型进行分用</tspan></tspan></text></g></g><g id="SvgjsG1781" transform="translate(478,158.5)"><path id="SvgjsPath1782" d="M 0 77Q 9 77 9 69.3L 9 46.2Q 9 38.5 22 38.5Q 9 38.5 9 30.8L 9 7.7Q 9 0 0 0" stroke="rgba(50,50,50,1)" stroke-width="2" fill="none"></path><path id="SvgjsPath1783" d="M 0 0L 181.5 0L 181.5 77L 0 77Z" stroke="none" fill="none"></path><g id="SvgjsG1784"><text id="SvgjsText1785" font-family="微软雅黑" text-anchor="start" font-size="13px" width="155px" fill="#323232" font-weight="400" align="middle" lineHeight="125%" anchor="start" family="微软雅黑" size="13px" weight="400" font-style="" opacity="1" y="20.875" transform="rotate(0)"><tspan id="SvgjsTspan1786" dy="16" x="27"><tspan id="SvgjsTspan1787" style="text-decoration:;font-weight: bold;">根据IP首部中的</tspan></tspan><tspan id="SvgjsTspan1788" dy="16" x="27"><tspan id="SvgjsTspan1789" style="text-decoration:;font-weight: bold;">协议值进行分用</tspan></tspan></text></g></g><g id="SvgjsG1790" transform="translate(495,65)"><path id="SvgjsPath1791" d="M 0 50.01219512195121Q 9 50.01219512195121 9 45.01097560975609L 9 30.007317073170725Q 9 25.006097560975604 22 25.006097560975604Q 9 25.006097560975604 9 20.004878048780483L 9 5.001219512195121Q 9 0 0 0" stroke="rgba(50,50,50,1)" stroke-width="2" fill="none"></path><path id="SvgjsPath1792" d="M 0 0L 169 0L 169 50.01219512195121L 0 50.01219512195121Z" stroke="none" fill="none"></path><g id="SvgjsG1793"><text id="SvgjsText1794" font-family="微软雅黑" text-anchor="start" font-size="13px" width="142px" fill="#323232" font-weight="400" align="middle" lineHeight="125%" anchor="start" family="微软雅黑" size="13px" weight="400" font-style="" opacity="1" y="7.381097560975604" transform="rotate(0)"><tspan id="SvgjsTspan1795" dy="16" x="27"><tspan id="SvgjsTspan1796" style="text-decoration:;font-weight: bold;">根据TCP/UDP首部中的</tspan></tspan><tspan id="SvgjsTspan1797" dy="16" x="27"><tspan id="SvgjsTspan1798" style="text-decoration:;font-weight: bold;">端口号进行分用</tspan></tspan></text></g></g></svg>