<svg id="SvgjsSvg1006" width="794.921875" height="642.71875" xmlns="http://www.w3.org/2000/svg" version="1.1" xmlns:xlink="http://www.w3.org/1999/xlink" xmlns:svgjs="http://svgjs.com/svgjs"><defs id="SvgjsDefs1007"><marker id="SvgjsMarker1020" markerWidth="16" markerHeight="12" refX="16" refY="6" viewBox="0 0 16 12" orient="auto" markerUnits="userSpaceOnUse" stroke-dasharray="0,0"><path id="SvgjsPath1021" d="M0,2 L14,6 L0,11 L0,2" fill="#323232" stroke="#323232" stroke-width="2"></path></marker><marker id="SvgjsMarker1114" markerWidth="16" markerHeight="12" refX="16" refY="6" viewBox="0 0 16 12" orient="auto" markerUnits="userSpaceOnUse" stroke-dasharray="0,0"><path id="SvgjsPath1115" d="M0,2 L14,6 L0,11 L0,2" fill="#323232" stroke="#323232" stroke-width="2"></path></marker><marker id="SvgjsMarker1196" markerWidth="16" markerHeight="12" refX="16" refY="6" viewBox="0 0 16 12" orient="auto" markerUnits="userSpaceOnUse" stroke-dasharray="0,0"><path id="SvgjsPath1197" d="M0,2 L14,6 L0,11 L0,2" fill="#323232" stroke="#323232" stroke-width="2"></path></marker><marker id="SvgjsMarker1210" markerWidth="16" markerHeight="12" refX="16" refY="6" viewBox="0 0 16 12" orient="auto" markerUnits="userSpaceOnUse" stroke-dasharray="0,0"><path id="SvgjsPath1211" d="M0,2 L14,6 L0,11 L0,2" fill="#323232" stroke="#323232" stroke-width="2"></path></marker><marker id="SvgjsMarker1372" markerWidth="16" markerHeight="12" refX="16" refY="6" viewBox="0 0 16 12" orient="auto" markerUnits="userSpaceOnUse" stroke-dasharray="0,0"><path id="SvgjsPath1373" d="M0,2 L14,6 L0,11 L0,2" fill="#323232" stroke="#323232" stroke-width="2"></path></marker></defs><g id="SvgjsG1008" transform="translate(25.01290587728431,234.05706175456862)"><path id="SvgjsPath1009" d="M 0 0L 89 0L 105 16L 105 50.91168824543138L 0 50.91168824543138L 0 0Z" stroke="none" fill-opacity="1" fill="#64b5f6"></path><path id="SvgjsPath1010" d="M 89 0L 89 16L 105 16Z" stroke="none" fill-opacity="1" fill="#cdcdcd"></path><path id="SvgjsPath1011" d="M 0 0L 89 0L 105 16L 105 50.91168824543138L 0 50.91168824543138L 0 0Z" stroke="none" fill="none"></path><g id="SvgjsG1012"><text id="SvgjsText1013" font-family="微软雅黑" text-anchor="middle" font-size="13px" width="85px" fill="#323232" font-weight="400" align="middle" lineHeight="125%" anchor="middle" family="微软雅黑" size="13px" weight="400" font-style="" opacity="1" y="7.830844122715689" transform="rotate(0)"><tspan id="SvgjsTspan1014" dy="16" x="52.5"><tspan id="SvgjsTspan1015" style="text-decoration:;font-weight: bold;">待平衡的</tspan></tspan><tspan id="SvgjsTspan1016" dy="16" x="52.5"><tspan id="SvgjsTspan1017" style="text-decoration:;font-weight: bold;">结点N</tspan></tspan></text></g></g><g id="SvgjsG1018"><path id="SvgjsPath1019" d="M77.51290587728431 234.05706175456862C 77.51290587728431 213.16655501286158 87.80446351448632 195.5544593602346 108.37759651807323 191.92686093399846" stroke-dasharray="3,3" stroke="#323232" stroke-width="2" fill="none" marker-end="url(#SvgjsMarker1020)"></path></g><g id="SvgjsG1022" transform="matrix(0.7071067811865476,0.7071067811865475,-0.7071067811865475,0.7071067811865476,126.01290893554688,167.51290587728428)"><path id="SvgjsPath1023" d="M 0 18C 0 -6 36 -6 36 18C 36 42 0 42 0 18Z" stroke="rgba(0,0,0,1)" stroke-width="5" fill-opacity="1" fill="#000000"></path><g id="SvgjsG1024"><text id="SvgjsText1025" font-family="微软雅黑" text-anchor="middle" font-size="16px" width="16px" fill="#ffffff" font-weight="700" align="middle" lineHeight="125%" anchor="middle" family="微软雅黑" size="16px" weight="700" font-style="" opacity="1" y="6" transform="rotate(0)"></text></g></g><g id="SvgjsG1026" transform="translate(110.51290587728431,178.46875)"><path id="SvgjsPath1027" d="M 0 0L 31 0L 31 29L 0 29Z" stroke="none" fill="none"></path><g id="SvgjsG1028"><text id="SvgjsText1029" font-family="微软雅黑" text-anchor="middle" font-size="16px" width="31px" fill="#ffffff" font-weight="700" align="middle" lineHeight="125%" anchor="middle" family="微软雅黑" size="16px" weight="700" font-style="" opacity="1" y="2.5" transform="rotate(0)"><tspan id="SvgjsTspan1030" dy="20" x="15.5"><tspan id="SvgjsTspan1031" style="text-decoration:;">N</tspan></tspan></text></g></g><g id="SvgjsG1032" transform="matrix(0.7071067811865476,0.7071067811865475,-0.7071067811865475,0.7071067811865476,183.01290893554688,93.51290587728428)"><path id="SvgjsPath1033" d="M 0 18C 0 -6 36 -6 36 18C 36 42 0 42 0 18Z" stroke="rgba(0,0,0,1)" stroke-width="5" fill-opacity="1" fill="#000000"></path><g id="SvgjsG1034"><text id="SvgjsText1035" font-family="微软雅黑" text-anchor="middle" font-size="16px" width="16px" fill="#ffffff" font-weight="700" align="middle" lineHeight="125%" anchor="middle" family="微软雅黑" size="16px" weight="700" font-style="" opacity="1" y="6" transform="rotate(0)"></text></g></g><g id="SvgjsG1036" transform="translate(166.2629058772843,101.96875)"><path id="SvgjsPath1037" d="M 0 0L 33.5 0L 33.5 35L 0 35Z" stroke="none" fill="none"></path><g id="SvgjsG1038"><text id="SvgjsText1039" font-family="微软雅黑" text-anchor="middle" font-size="16px" width="34px" fill="#ffffff" font-weight="700" align="middle" lineHeight="125%" anchor="middle" family="微软雅黑" size="16px" weight="700" font-style="" opacity="1" y="5.5" transform="rotate(0)"><tspan id="SvgjsTspan1040" dy="20" x="17"><tspan id="SvgjsTspan1041" style="text-decoration:;">P</tspan></tspan></text></g></g><g id="SvgjsG1042"><path id="SvgjsPath1043" d="M169.27172492238685 135.0028241737109L134.45999160666918 178.76430495773434" stroke="#000000" stroke-width="2" fill="none"></path></g><g id="SvgjsG1044" transform="matrix(0.7071067811865476,0.7071067811865475,-0.7071067811865475,0.7071067811865476,244.46875,167.51290587728428)"><path id="SvgjsPath1045" d="M 0 18C 0 -6 36 -6 36 18C 36 42 0 42 0 18Z" stroke="rgba(0,0,0,1)" stroke-width="5" fill-opacity="1" fill="#000000"></path><g id="SvgjsG1046"><text id="SvgjsText1047" font-family="微软雅黑" text-anchor="middle" font-size="16px" width="16px" fill="#ffffff" font-weight="700" align="middle" lineHeight="125%" anchor="middle" family="微软雅黑" size="16px" weight="700" font-style="" opacity="1" y="6" transform="rotate(0)"></text></g></g><g id="SvgjsG1048" transform="translate(227.71875,175.96875)"><path id="SvgjsPath1049" d="M 0 0L 33.5 0L 33.5 35L 0 35Z" stroke="none" fill="none"></path><g id="SvgjsG1050"><text id="SvgjsText1051" font-family="微软雅黑" text-anchor="middle" font-size="16px" width="34px" fill="#ffffff" font-weight="700" align="middle" lineHeight="125%" anchor="middle" family="微软雅黑" size="16px" weight="700" font-style="" opacity="1" y="5.5" transform="rotate(0)"><tspan id="SvgjsTspan1052" dy="20" x="17"><tspan id="SvgjsTspan1053" style="text-decoration:;">S</tspan></tspan></text></g></g><g id="SvgjsG1054" transform="matrix(0.7071067811865476,0.7071067811865475,-0.7071067811865475,0.7071067811865476,201.01290893554688,234.05706481283116)"><path id="SvgjsPath1055" d="M 0 18C 0 -6 36 -6 36 18C 36 42 0 42 0 18Z" stroke="rgba(0,0,0,1)" stroke-width="5" fill-opacity="1" fill="#000000"></path><g id="SvgjsG1056"><text id="SvgjsText1057" font-family="微软雅黑" text-anchor="middle" font-size="16px" width="16px" fill="#ffffff" font-weight="700" align="middle" lineHeight="125%" anchor="middle" family="微软雅黑" size="16px" weight="700" font-style="" opacity="1" y="6" transform="rotate(0)"></text></g></g><g id="SvgjsG1058" transform="translate(184.2629058772843,242.5129058772843)"><path id="SvgjsPath1059" d="M 0 0L 33.5 0L 33.5 35L 0 35Z" stroke="none" fill="none"></path><g id="SvgjsG1060"><text id="SvgjsText1061" font-family="微软雅黑" text-anchor="middle" font-size="16px" width="34px" fill="#ffffff" font-weight="700" align="middle" lineHeight="125%" anchor="middle" family="微软雅黑" size="16px" weight="700" font-style="" opacity="1" y="5.5" transform="rotate(0)"><tspan id="SvgjsTspan1062" dy="20" x="17"><tspan id="SvgjsTspan1063" style="text-decoration:;">SL</tspan></tspan></text></g></g><g id="SvgjsG1064" transform="matrix(0.7071067811865476,0.7071067811865475,-0.7071067811865475,0.7071067811865476,297.46875,234.05706481283116)"><path id="SvgjsPath1065" d="M 0 18C 0 -6 36 -6 36 18C 36 42 0 42 0 18Z" stroke="rgba(0,0,0,1)" stroke-width="5" fill-opacity="1" fill="#000000"></path><g id="SvgjsG1066"><text id="SvgjsText1067" font-family="微软雅黑" text-anchor="middle" font-size="16px" width="16px" fill="#ffffff" font-weight="700" align="middle" lineHeight="125%" anchor="middle" family="微软雅黑" size="16px" weight="700" font-style="" opacity="1" y="6" transform="rotate(0)"></text></g></g><g id="SvgjsG1068" transform="translate(280.71875,242.5129058772843)"><path id="SvgjsPath1069" d="M 0 0L 33.5 0L 33.5 35L 0 35Z" stroke="none" fill="none"></path><g id="SvgjsG1070"><text id="SvgjsText1071" font-family="微软雅黑" text-anchor="middle" font-size="16px" width="34px" fill="#ffffff" font-weight="700" align="middle" lineHeight="125%" anchor="middle" family="微软雅黑" size="16px" weight="700" font-style="" opacity="1" y="5.5" transform="rotate(0)"><tspan id="SvgjsTspan1072" dy="20" x="17"><tspan id="SvgjsTspan1073" style="text-decoration:;">SR</tspan></tspan></text></g></g><g id="SvgjsG1074" transform="matrix(0.7071067811865476,0.7071067811865475,-0.7071067811865475,0.7071067811865476,183.01290893554688,25.01290587728429)"><path id="SvgjsPath1075" d="M 0 18C 0 -6 36 -6 36 18C 36 42 0 42 0 18Z" stroke="rgba(0,0,0,1)" stroke-width="2" fill-opacity="1" fill="#ffffff"></path><g id="SvgjsG1076"><text id="SvgjsText1077" font-family="微软雅黑" text-anchor="middle" font-size="16px" width="16px" fill="#000000" font-weight="700" align="middle" lineHeight="125%" anchor="middle" family="微软雅黑" size="16px" weight="700" font-style="" opacity="1" y="6" transform="rotate(0)"></text></g></g><g id="SvgjsG1078" transform="translate(166.2629058772843,33.46875)"><path id="SvgjsPath1079" d="M 0 0L 33.5 0L 33.5 35L 0 35Z" stroke="none" fill="none"></path><g id="SvgjsG1080"><text id="SvgjsText1081" font-family="微软雅黑" text-anchor="middle" font-size="16px" width="34px" fill="#000000" font-weight="700" align="middle" lineHeight="125%" anchor="middle" family="微软雅黑" size="16px" weight="700" font-style="" opacity="1" y="5.5" transform="rotate(0)"><tspan id="SvgjsTspan1082" dy="20" x="17"><tspan id="SvgjsTspan1083" style="text-decoration:;">G</tspan></tspan></text></g></g><g id="SvgjsG1084"><path id="SvgjsPath1085" d="M183.0129058772843 68.46875L183.0129058772843 85.21875L183.0129058772843 85.21875L183.0129058772843 101.96875" stroke="#323232" stroke-width="2" fill="none"></path></g><g id="SvgjsG1086"><path id="SvgjsPath1087" d="M199.28085506971547 132.96875L228.46875 179.96875" stroke="#323232" stroke-width="2" fill="none"></path></g><g id="SvgjsG1088"><path id="SvgjsPath1089" d="M233.0129058772843 209.96875L211.0129058772843 243.16490242270663" stroke="#323232" stroke-width="2" fill="none"></path></g><g id="SvgjsG1090"><path id="SvgjsPath1091" d="M260.3701182675977 210.20270555688103L280.92175239535754 245.01063906600166" stroke="#323232" stroke-width="2" fill="none"></path></g><g id="SvgjsG1092" transform="matrix(-1,1.2246467991473532e-16,-1.2246467991473532e-16,-1,425.46875,170.96875)"><path id="SvgjsPath1093" d="M 0 10L 10 0L 10 6.6000000000000005L 108 6.6000000000000005L 108 13.4L 10 13.4L 10 20L 0 10Z" stroke="rgba(50,50,50,1)" stroke-width="2" fill-opacity="1" fill="#ffffff"></path><g id="SvgjsG1094"><text id="SvgjsText1095" font-family="微软雅黑" text-anchor="middle" font-size="13px" width="108px" fill="#323232" font-weight="400" align="middle" lineHeight="125%" anchor="middle" family="微软雅黑" size="13px" weight="400" font-style="" opacity="1" y="0.3750000000000009" transform="rotate(0)"></text></g></g><g id="SvgjsG1096" transform="translate(307.46875,113.88043824543138)"><path id="SvgjsPath1097" d="M 0 0L 120 0L 120 40L 0 40Z" stroke="none" fill="none"></path><g id="SvgjsG1098"><text id="SvgjsText1099" font-family="微软雅黑" text-anchor="middle" font-size="13px" width="120px" fill="#323232" font-weight="400" align="middle" lineHeight="125%" anchor="middle" family="微软雅黑" size="13px" weight="400" font-style="" opacity="1" y="10.375" transform="rotate(0)"><tspan id="SvgjsTspan1100" dy="16" x="60"><tspan id="SvgjsTspan1101" style="text-decoration:;font-weight: bold;">S着红色</tspan></tspan></text></g></g><g id="SvgjsG1102" transform="translate(664.9245941227157,51.05706175456865)"><path id="SvgjsPath1103" d="M 0 0L 89 0L 105 16L 105 50.91168824543138L 0 50.91168824543138L 0 0Z" stroke="none" fill-opacity="1" fill="#64b5f6"></path><path id="SvgjsPath1104" d="M 89 0L 89 16L 105 16Z" stroke="none" fill-opacity="1" fill="#cdcdcd"></path><path id="SvgjsPath1105" d="M 0 0L 89 0L 105 16L 105 50.91168824543138L 0 50.91168824543138L 0 0Z" stroke="none" fill="none"></path><g id="SvgjsG1106"><text id="SvgjsText1107" font-family="微软雅黑" text-anchor="middle" font-size="13px" width="85px" fill="#323232" font-weight="400" align="middle" lineHeight="125%" anchor="middle" family="微软雅黑" size="13px" weight="400" font-style="" opacity="1" y="7.830844122715689" transform="rotate(0)"><tspan id="SvgjsTspan1108" dy="16" x="52.5"><tspan id="SvgjsTspan1109" style="text-decoration:;font-weight: bold;">新的需平衡</tspan></tspan><tspan id="SvgjsTspan1110" dy="16" x="52.5"><tspan id="SvgjsTspan1111" style="text-decoration:;font-weight: bold;">结点N</tspan></tspan></text></g></g><g id="SvgjsG1112"><path id="SvgjsPath1113" d="M664.9245941227157 76.51290587728431C 626.6496635422654 76.51290587728431 612.7436805804502 107.71875000000006 574.46875 107.71875" stroke-dasharray="3,3" stroke="#323232" stroke-width="2" fill="none" marker-end="url(#SvgjsMarker1114)"></path></g><g id="SvgjsG1116" transform="matrix(0.7071067811865476,0.7071067811865475,-0.7071067811865475,0.7071067811865476,500.9245910644531,167.51290587728428)"><path id="SvgjsPath1117" d="M 0 18C 0 -6 36 -6 36 18C 36 42 0 42 0 18Z" stroke="rgba(0,0,0,1)" stroke-width="5" fill-opacity="1" fill="#000000"></path><g id="SvgjsG1118"><text id="SvgjsText1119" font-family="微软雅黑" text-anchor="middle" font-size="16px" width="16px" fill="#ffffff" font-weight="700" align="middle" lineHeight="125%" anchor="middle" family="微软雅黑" size="16px" weight="700" font-style="" opacity="1" y="6" transform="rotate(0)"></text></g></g><g id="SvgjsG1120" transform="translate(485.4245941227157,178.46875)"><path id="SvgjsPath1121" d="M 0 0L 31 0L 31 29L 0 29Z" stroke="none" fill="none"></path><g id="SvgjsG1122"><text id="SvgjsText1123" font-family="微软雅黑" text-anchor="middle" font-size="16px" width="31px" fill="#ffffff" font-weight="700" align="middle" lineHeight="125%" anchor="middle" family="微软雅黑" size="16px" weight="700" font-style="" opacity="1" y="2.5" transform="rotate(0)"><tspan id="SvgjsTspan1124" dy="20" x="15.5"><tspan id="SvgjsTspan1125" style="text-decoration:;">N</tspan></tspan></text></g></g><g id="SvgjsG1126" transform="matrix(0.7071067811865476,0.7071067811865475,-0.7071067811865475,0.7071067811865476,557.9246215820312,93.51290587728428)"><path id="SvgjsPath1127" d="M 0 18C 0 -6 36 -6 36 18C 36 42 0 42 0 18Z" stroke="rgba(0,0,0,1)" stroke-width="5" fill-opacity="1" fill="#000000"></path><g id="SvgjsG1128"><text id="SvgjsText1129" font-family="微软雅黑" text-anchor="middle" font-size="16px" width="16px" fill="#ffffff" font-weight="700" align="middle" lineHeight="125%" anchor="middle" family="微软雅黑" size="16px" weight="700" font-style="" opacity="1" y="6" transform="rotate(0)"></text></g></g><g id="SvgjsG1130" transform="translate(541.1745941227157,101.96875)"><path id="SvgjsPath1131" d="M 0 0L 33.5 0L 33.5 35L 0 35Z" stroke="none" fill="none"></path><g id="SvgjsG1132"><text id="SvgjsText1133" font-family="微软雅黑" text-anchor="middle" font-size="16px" width="34px" fill="#ffffff" font-weight="700" align="middle" lineHeight="125%" anchor="middle" family="微软雅黑" size="16px" weight="700" font-style="" opacity="1" y="5.5" transform="rotate(0)"><tspan id="SvgjsTspan1134" dy="20" x="17"><tspan id="SvgjsTspan1135" style="text-decoration:;">P</tspan></tspan></text></g></g><g id="SvgjsG1136"><path id="SvgjsPath1137" d="M544.1834131678182 135.0028241737109L509.37167985210056 178.76430495773434" stroke="#000000" stroke-width="2" fill="none"></path></g><g id="SvgjsG1138" transform="matrix(0.7071067811865476,0.7071067811865475,-0.7071067811865475,0.7071067811865476,619.3804321289062,167.51290587728428)"><path id="SvgjsPath1139" d="M 0 18C 0 -6 36 -6 36 18C 36 42 0 42 0 18Z" stroke="rgba(211,47,47,1)" stroke-width="5" fill-opacity="1" fill="#d32f2f"></path><g id="SvgjsG1140"><text id="SvgjsText1141" font-family="微软雅黑" text-anchor="middle" font-size="16px" width="16px" fill="#ffffff" font-weight="700" align="middle" lineHeight="125%" anchor="middle" family="微软雅黑" size="16px" weight="700" font-style="" opacity="1" y="6" transform="rotate(0)"></text></g></g><g id="SvgjsG1142" transform="translate(602.6304382454314,175.96875)"><path id="SvgjsPath1143" d="M 0 0L 33.5 0L 33.5 35L 0 35Z" stroke="none" fill="none"></path><g id="SvgjsG1144"><text id="SvgjsText1145" font-family="微软雅黑" text-anchor="middle" font-size="16px" width="34px" fill="#ffffff" font-weight="700" align="middle" lineHeight="125%" anchor="middle" family="微软雅黑" size="16px" weight="700" font-style="" opacity="1" y="5.5" transform="rotate(0)"><tspan id="SvgjsTspan1146" dy="20" x="17"><tspan id="SvgjsTspan1147" style="text-decoration:;">S</tspan></tspan></text></g></g><g id="SvgjsG1148" transform="matrix(0.7071067811865476,0.7071067811865475,-0.7071067811865475,0.7071067811865476,575.9246215820312,234.05706481283116)"><path id="SvgjsPath1149" d="M 0 18C 0 -6 36 -6 36 18C 36 42 0 42 0 18Z" stroke="rgba(0,0,0,1)" stroke-width="5" fill-opacity="1" fill="#000000"></path><g id="SvgjsG1150"><text id="SvgjsText1151" font-family="微软雅黑" text-anchor="middle" font-size="16px" width="16px" fill="#ffffff" font-weight="700" align="middle" lineHeight="125%" anchor="middle" family="微软雅黑" size="16px" weight="700" font-style="" opacity="1" y="6" transform="rotate(0)"></text></g></g><g id="SvgjsG1152" transform="translate(559.1745941227157,242.5129058772843)"><path id="SvgjsPath1153" d="M 0 0L 33.5 0L 33.5 35L 0 35Z" stroke="none" fill="none"></path><g id="SvgjsG1154"><text id="SvgjsText1155" font-family="微软雅黑" text-anchor="middle" font-size="16px" width="34px" fill="#ffffff" font-weight="700" align="middle" lineHeight="125%" anchor="middle" family="微软雅黑" size="16px" weight="700" font-style="" opacity="1" y="5.5" transform="rotate(0)"><tspan id="SvgjsTspan1156" dy="20" x="17"><tspan id="SvgjsTspan1157" style="text-decoration:;">SL</tspan></tspan></text></g></g><g id="SvgjsG1158" transform="matrix(0.7071067811865476,0.7071067811865475,-0.7071067811865475,0.7071067811865476,672.3804321289062,234.05706481283116)"><path id="SvgjsPath1159" d="M 0 18C 0 -6 36 -6 36 18C 36 42 0 42 0 18Z" stroke="rgba(0,0,0,1)" stroke-width="5" fill-opacity="1" fill="#000000"></path><g id="SvgjsG1160"><text id="SvgjsText1161" font-family="微软雅黑" text-anchor="middle" font-size="16px" width="16px" fill="#ffffff" font-weight="700" align="middle" lineHeight="125%" anchor="middle" family="微软雅黑" size="16px" weight="700" font-style="" opacity="1" y="6" transform="rotate(0)"></text></g></g><g id="SvgjsG1162" transform="translate(655.6304382454314,242.5129058772843)"><path id="SvgjsPath1163" d="M 0 0L 33.5 0L 33.5 35L 0 35Z" stroke="none" fill="none"></path><g id="SvgjsG1164"><text id="SvgjsText1165" font-family="微软雅黑" text-anchor="middle" font-size="16px" width="34px" fill="#ffffff" font-weight="700" align="middle" lineHeight="125%" anchor="middle" family="微软雅黑" size="16px" weight="700" font-style="" opacity="1" y="5.5" transform="rotate(0)"><tspan id="SvgjsTspan1166" dy="20" x="17"><tspan id="SvgjsTspan1167" style="text-decoration:;">SR</tspan></tspan></text></g></g><g id="SvgjsG1168" transform="matrix(0.7071067811865476,0.7071067811865475,-0.7071067811865475,0.7071067811865476,557.9246215820312,25.01290587728429)"><path id="SvgjsPath1169" d="M 0 18C 0 -6 36 -6 36 18C 36 42 0 42 0 18Z" stroke="rgba(0,0,0,1)" stroke-width="2" fill-opacity="1" fill="#ffffff"></path><g id="SvgjsG1170"><text id="SvgjsText1171" font-family="微软雅黑" text-anchor="middle" font-size="16px" width="16px" fill="#000000" font-weight="700" align="middle" lineHeight="125%" anchor="middle" family="微软雅黑" size="16px" weight="700" font-style="" opacity="1" y="6" transform="rotate(0)"></text></g></g><g id="SvgjsG1172" transform="translate(541.1745941227157,33.46875000000003)"><path id="SvgjsPath1173" d="M 0 0L 33.5 0L 33.5 35L 0 35Z" stroke="none" fill="none"></path><g id="SvgjsG1174"><text id="SvgjsText1175" font-family="微软雅黑" text-anchor="middle" font-size="16px" width="34px" fill="#000000" font-weight="700" align="middle" lineHeight="125%" anchor="middle" family="微软雅黑" size="16px" weight="700" font-style="" opacity="1" y="5.5" transform="rotate(0)"><tspan id="SvgjsTspan1176" dy="20" x="17"><tspan id="SvgjsTspan1177" style="text-decoration:;">G</tspan></tspan></text></g></g><g id="SvgjsG1178"><path id="SvgjsPath1179" d="M557.9245941227157 68.46875L557.9245941227157 85.21875L557.9245941227157 85.21875L557.9245941227157 101.96875" stroke="#323232" stroke-width="2" fill="none"></path></g><g id="SvgjsG1180"><path id="SvgjsPath1181" d="M574.1925433151468 132.96875L603.3804382454314 179.96875" stroke="#323232" stroke-width="2" fill="none"></path></g><g id="SvgjsG1182"><path id="SvgjsPath1183" d="M607.9245941227157 209.96875L585.9245941227157 243.16490242270663" stroke="#323232" stroke-width="2" fill="none"></path></g><g id="SvgjsG1184"><path id="SvgjsPath1185" d="M635.2818065130291 210.20270555688103L655.8334406407889 245.01063906600166" stroke="#323232" stroke-width="2" fill="none"></path></g><g id="SvgjsG1186" transform="translate(233.0129058772843,42.60121763185293)"><path id="SvgjsPath1187" d="M 0 0L 89 0L 105 16L 105 50.91168824543138L 0 50.91168824543138L 0 0Z" stroke="none" fill-opacity="1" fill="#64b5f6"></path><path id="SvgjsPath1188" d="M 89 0L 89 16L 105 16Z" stroke="none" fill-opacity="1" fill="#cdcdcd"></path><path id="SvgjsPath1189" d="M 0 0L 89 0L 105 16L 105 50.91168824543138L 0 50.91168824543138L 0 0Z" stroke="none" fill="none"></path><g id="SvgjsG1190"><text id="SvgjsText1191" font-family="微软雅黑" text-anchor="middle" font-size="13px" width="85px" fill="#323232" font-weight="400" align="middle" lineHeight="125%" anchor="middle" family="微软雅黑" size="13px" weight="400" font-style="" opacity="1" y="15.830844122715689" transform="rotate(0)"><tspan id="SvgjsTspan1192" dy="16" x="52.5"><tspan id="SvgjsTspan1193" style="text-decoration:;font-weight: bold;">P为黑</tspan></tspan></text></g></g><g id="SvgjsG1194"><path id="SvgjsPath1195" d="M233.0129058772843 68.05706175456862C 208.522175587657 68.05706175456862 224.25363616691163 119.46875 199.7629058772843 119.46875" stroke-dasharray="3,3" stroke="#323232" stroke-width="2" fill="none" marker-end="url(#SvgjsMarker1196)"></path></g><g id="SvgjsG1198" transform="translate(25.01290587728431,566.7336852637059)"><path id="SvgjsPath1199" d="M 0 0L 89 0L 105 16L 105 50.91168824543138L 0 50.91168824543138L 0 0Z" stroke="none" fill-opacity="1" fill="#64b5f6"></path><path id="SvgjsPath1200" d="M 89 0L 89 16L 105 16Z" stroke="none" fill-opacity="1" fill="#cdcdcd"></path><path id="SvgjsPath1201" d="M 0 0L 89 0L 105 16L 105 50.91168824543138L 0 50.91168824543138L 0 0Z" stroke="none" fill="none"></path><g id="SvgjsG1202"><text id="SvgjsText1203" font-family="微软雅黑" text-anchor="middle" font-size="13px" width="85px" fill="#323232" font-weight="400" align="middle" lineHeight="125%" anchor="middle" family="微软雅黑" size="13px" weight="400" font-style="" opacity="1" y="7.830844122715689" transform="rotate(0)"><tspan id="SvgjsTspan1204" dy="16" x="52.5"><tspan id="SvgjsTspan1205" style="text-decoration:;font-weight: bold;">待平衡的</tspan></tspan><tspan id="SvgjsTspan1206" dy="16" x="52.5"><tspan id="SvgjsTspan1207" style="text-decoration:;font-weight: bold;">结点N</tspan></tspan></text></g></g><g id="SvgjsG1208"><path id="SvgjsPath1209" d="M77.51290587728431 566.7336852637059C 77.51290587728431 545.8431785219989 87.80446351448632 528.2310828693719 108.37759651807323 524.6034844431357" stroke-dasharray="3,3" stroke="#323232" stroke-width="2" fill="none" marker-end="url(#SvgjsMarker1210)"></path></g><g id="SvgjsG1212" transform="matrix(0.7071067811865476,0.7071067811865475,-0.7071067811865475,0.7071067811865476,126.01290893554688,500.1895416194718)"><path id="SvgjsPath1213" d="M 0 18C 0 -6 36 -6 36 18C 36 42 0 42 0 18Z" stroke="rgba(0,0,0,1)" stroke-width="5" fill-opacity="1" fill="#000000"></path><g id="SvgjsG1214"><text id="SvgjsText1215" font-family="微软雅黑" text-anchor="middle" font-size="16px" width="16px" fill="#ffffff" font-weight="700" align="middle" lineHeight="125%" anchor="middle" family="微软雅黑" size="16px" weight="700" font-style="" opacity="1" y="6" transform="rotate(0)"></text></g></g><g id="SvgjsG1216" transform="translate(110.51290587728431,511.14537350913724)"><path id="SvgjsPath1217" d="M 0 0L 31 0L 31 29L 0 29Z" stroke="none" fill="none"></path><g id="SvgjsG1218"><text id="SvgjsText1219" font-family="微软雅黑" text-anchor="middle" font-size="16px" width="31px" fill="#ffffff" font-weight="700" align="middle" lineHeight="125%" anchor="middle" family="微软雅黑" size="16px" weight="700" font-style="" opacity="1" y="2.5" transform="rotate(0)"><tspan id="SvgjsTspan1220" dy="20" x="15.5"><tspan id="SvgjsTspan1221" style="text-decoration:;">N</tspan></tspan></text></g></g><g id="SvgjsG1222" transform="matrix(0.7071067811865476,0.7071067811865475,-0.7071067811865475,0.7071067811865476,183.01290893554688,426.1895416194718)"><path id="SvgjsPath1223" d="M 0 18C 0 -6 36 -6 36 18C 36 42 0 42 0 18Z" stroke="rgba(211,47,47,1)" stroke-width="5" fill-opacity="1" fill="#d32f2f"></path><g id="SvgjsG1224"><text id="SvgjsText1225" font-family="微软雅黑" text-anchor="middle" font-size="16px" width="16px" fill="#ffffff" font-weight="700" align="middle" lineHeight="125%" anchor="middle" family="微软雅黑" size="16px" weight="700" font-style="" opacity="1" y="6" transform="rotate(0)"></text></g></g><g id="SvgjsG1226" transform="translate(166.2629058772843,434.64537350913724)"><path id="SvgjsPath1227" d="M 0 0L 33.5 0L 33.5 35L 0 35Z" stroke="none" fill="none"></path><g id="SvgjsG1228"><text id="SvgjsText1229" font-family="微软雅黑" text-anchor="middle" font-size="16px" width="34px" fill="#ffffff" font-weight="700" align="middle" lineHeight="125%" anchor="middle" family="微软雅黑" size="16px" weight="700" font-style="" opacity="1" y="5.5" transform="rotate(0)"><tspan id="SvgjsTspan1230" dy="20" x="17"><tspan id="SvgjsTspan1231" style="text-decoration:;">P</tspan></tspan></text></g></g><g id="SvgjsG1232"><path id="SvgjsPath1233" d="M169.27172492238685 467.67944768284815L134.45999160666918 511.4409284668716" stroke="#000000" stroke-width="2" fill="none"></path></g><g id="SvgjsG1234" transform="matrix(0.7071067811865476,0.7071067811865475,-0.7071067811865475,0.7071067811865476,244.46875,500.1895416194718)"><path id="SvgjsPath1235" d="M 0 18C 0 -6 36 -6 36 18C 36 42 0 42 0 18Z" stroke="rgba(0,0,0,1)" stroke-width="5" fill-opacity="1" fill="#000000"></path><g id="SvgjsG1236"><text id="SvgjsText1237" font-family="微软雅黑" text-anchor="middle" font-size="16px" width="16px" fill="#ffffff" font-weight="700" align="middle" lineHeight="125%" anchor="middle" family="微软雅黑" size="16px" weight="700" font-style="" opacity="1" y="6" transform="rotate(0)"></text></g></g><g id="SvgjsG1238" transform="translate(227.71875,508.64537350913724)"><path id="SvgjsPath1239" d="M 0 0L 33.5 0L 33.5 35L 0 35Z" stroke="none" fill="none"></path><g id="SvgjsG1240"><text id="SvgjsText1241" font-family="微软雅黑" text-anchor="middle" font-size="16px" width="34px" fill="#ffffff" font-weight="700" align="middle" lineHeight="125%" anchor="middle" family="微软雅黑" size="16px" weight="700" font-style="" opacity="1" y="5.5" transform="rotate(0)"><tspan id="SvgjsTspan1242" dy="20" x="17"><tspan id="SvgjsTspan1243" style="text-decoration:;">S</tspan></tspan></text></g></g><g id="SvgjsG1244" transform="matrix(0.7071067811865476,0.7071067811865475,-0.7071067811865475,0.7071067811865476,201.01290893554688,566.7336700374406)"><path id="SvgjsPath1245" d="M 0 18C 0 -6 36 -6 36 18C 36 42 0 42 0 18Z" stroke="rgba(0,0,0,1)" stroke-width="5" fill-opacity="1" fill="#000000"></path><g id="SvgjsG1246"><text id="SvgjsText1247" font-family="微软雅黑" text-anchor="middle" font-size="16px" width="16px" fill="#ffffff" font-weight="700" align="middle" lineHeight="125%" anchor="middle" family="微软雅黑" size="16px" weight="700" font-style="" opacity="1" y="6" transform="rotate(0)"></text></g></g><g id="SvgjsG1248" transform="translate(184.2629058772843,575.1895293864216)"><path id="SvgjsPath1249" d="M 0 0L 33.5 0L 33.5 35L 0 35Z" stroke="none" fill="none"></path><g id="SvgjsG1250"><text id="SvgjsText1251" font-family="微软雅黑" text-anchor="middle" font-size="16px" width="34px" fill="#ffffff" font-weight="700" align="middle" lineHeight="125%" anchor="middle" family="微软雅黑" size="16px" weight="700" font-style="" opacity="1" y="5.5" transform="rotate(0)"><tspan id="SvgjsTspan1252" dy="20" x="17"><tspan id="SvgjsTspan1253" style="text-decoration:;">SL</tspan></tspan></text></g></g><g id="SvgjsG1254" transform="matrix(0.7071067811865476,0.7071067811865475,-0.7071067811865475,0.7071067811865476,297.46875,566.7336700374406)"><path id="SvgjsPath1255" d="M 0 18C 0 -6 36 -6 36 18C 36 42 0 42 0 18Z" stroke="rgba(0,0,0,1)" stroke-width="5" fill-opacity="1" fill="#000000"></path><g id="SvgjsG1256"><text id="SvgjsText1257" font-family="微软雅黑" text-anchor="middle" font-size="16px" width="16px" fill="#ffffff" font-weight="700" align="middle" lineHeight="125%" anchor="middle" family="微软雅黑" size="16px" weight="700" font-style="" opacity="1" y="6" transform="rotate(0)"></text></g></g><g id="SvgjsG1258" transform="translate(280.71875,575.1895293864216)"><path id="SvgjsPath1259" d="M 0 0L 33.5 0L 33.5 35L 0 35Z" stroke="none" fill="none"></path><g id="SvgjsG1260"><text id="SvgjsText1261" font-family="微软雅黑" text-anchor="middle" font-size="16px" width="34px" fill="#ffffff" font-weight="700" align="middle" lineHeight="125%" anchor="middle" family="微软雅黑" size="16px" weight="700" font-style="" opacity="1" y="5.5" transform="rotate(0)"><tspan id="SvgjsTspan1262" dy="20" x="17"><tspan id="SvgjsTspan1263" style="text-decoration:;">SR</tspan></tspan></text></g></g><g id="SvgjsG1264" transform="matrix(0.7071067811865476,0.7071067811865475,-0.7071067811865475,0.7071067811865476,183.01290893554688,357.6895416194718)"><path id="SvgjsPath1265" d="M 0 18C 0 -6 36 -6 36 18C 36 42 0 42 0 18Z" stroke="rgba(0,0,0,1)" stroke-width="2" fill-opacity="1" fill="#ffffff"></path><g id="SvgjsG1266"><text id="SvgjsText1267" font-family="微软雅黑" text-anchor="middle" font-size="16px" width="16px" fill="#000000" font-weight="700" align="middle" lineHeight="125%" anchor="middle" family="微软雅黑" size="16px" weight="700" font-style="" opacity="1" y="6" transform="rotate(0)"></text></g></g><g id="SvgjsG1268" transform="translate(166.2629058772843,366.14537350913724)"><path id="SvgjsPath1269" d="M 0 0L 33.5 0L 33.5 35L 0 35Z" stroke="none" fill="none"></path><g id="SvgjsG1270"><text id="SvgjsText1271" font-family="微软雅黑" text-anchor="middle" font-size="16px" width="34px" fill="#000000" font-weight="700" align="middle" lineHeight="125%" anchor="middle" family="微软雅黑" size="16px" weight="700" font-style="" opacity="1" y="5.5" transform="rotate(0)"><tspan id="SvgjsTspan1272" dy="20" x="17"><tspan id="SvgjsTspan1273" style="text-decoration:;">G</tspan></tspan></text></g></g><g id="SvgjsG1274"><path id="SvgjsPath1275" d="M183.0129058772843 401.14537350913724L183.0129058772843 417.89537350913724L183.0129058772843 417.89537350913724L183.0129058772843 434.64537350913724" stroke="#323232" stroke-width="2" fill="none"></path></g><g id="SvgjsG1276"><path id="SvgjsPath1277" d="M199.28085506971547 465.64537350913724L228.46875 512.6453735091372" stroke="#323232" stroke-width="2" fill="none"></path></g><g id="SvgjsG1278"><path id="SvgjsPath1279" d="M233.0129058772843 542.6453735091372L211.0129058772843 575.8415259318439" stroke="#323232" stroke-width="2" fill="none"></path></g><g id="SvgjsG1280"><path id="SvgjsPath1281" d="M260.3701182675977 542.8793290660183L280.92175239535754 577.6872625751389" stroke="#323232" stroke-width="2" fill="none"></path></g><g id="SvgjsG1282" transform="matrix(-1,1.2246467991473532e-16,-1.2246467991473532e-16,-1,425.46875,503.6453857421875)"><path id="SvgjsPath1283" d="M 0 10L 10 0L 10 6.6000000000000005L 108 6.6000000000000005L 108 13.4L 10 13.4L 10 20L 0 10Z" stroke="rgba(50,50,50,1)" stroke-width="2" fill-opacity="1" fill="#ffffff"></path><g id="SvgjsG1284"><text id="SvgjsText1285" font-family="微软雅黑" text-anchor="middle" font-size="13px" width="108px" fill="#323232" font-weight="400" align="middle" lineHeight="125%" anchor="middle" family="微软雅黑" size="13px" weight="400" font-style="" opacity="1" y="0.3750000000000009" transform="rotate(0)"></text></g></g><g id="SvgjsG1286" transform="translate(307.46875,446.5570617545686)"><path id="SvgjsPath1287" d="M 0 0L 120 0L 120 40L 0 40Z" stroke="none" fill="none"></path><g id="SvgjsG1288"><text id="SvgjsText1289" font-family="微软雅黑" text-anchor="middle" font-size="13px" width="120px" fill="#323232" font-weight="400" align="middle" lineHeight="125%" anchor="middle" family="微软雅黑" size="13px" weight="400" font-style="" opacity="1" y="10.375" transform="rotate(0)"><tspan id="SvgjsTspan1290" dy="16" x="60"><tspan id="SvgjsTspan1291" style="text-decoration:;font-weight: bold;">交换P、S的着色</tspan></tspan></text></g></g><g id="SvgjsG1292" transform="matrix(0.7071067811865476,0.7071067811865475,-0.7071067811865475,0.7071067811865476,500.9245910644531,500.1895416194718)"><path id="SvgjsPath1293" d="M 0 18C 0 -6 36 -6 36 18C 36 42 0 42 0 18Z" stroke="rgba(0,0,0,1)" stroke-width="5" fill-opacity="1" fill="#000000"></path><g id="SvgjsG1294"><text id="SvgjsText1295" font-family="微软雅黑" text-anchor="middle" font-size="16px" width="16px" fill="#ffffff" font-weight="700" align="middle" lineHeight="125%" anchor="middle" family="微软雅黑" size="16px" weight="700" font-style="" opacity="1" y="6" transform="rotate(0)"></text></g></g><g id="SvgjsG1296" transform="translate(485.4245941227157,511.14537350913724)"><path id="SvgjsPath1297" d="M 0 0L 31 0L 31 29L 0 29Z" stroke="none" fill="none"></path><g id="SvgjsG1298"><text id="SvgjsText1299" font-family="微软雅黑" text-anchor="middle" font-size="16px" width="31px" fill="#ffffff" font-weight="700" align="middle" lineHeight="125%" anchor="middle" family="微软雅黑" size="16px" weight="700" font-style="" opacity="1" y="2.5" transform="rotate(0)"><tspan id="SvgjsTspan1300" dy="20" x="15.5"><tspan id="SvgjsTspan1301" style="text-decoration:;">N</tspan></tspan></text></g></g><g id="SvgjsG1302" transform="matrix(0.7071067811865476,0.7071067811865475,-0.7071067811865475,0.7071067811865476,557.9246215820312,426.1895416194718)"><path id="SvgjsPath1303" d="M 0 18C 0 -6 36 -6 36 18C 36 42 0 42 0 18Z" stroke="rgba(0,0,0,1)" stroke-width="5" fill-opacity="1" fill="#000000"></path><g id="SvgjsG1304"><text id="SvgjsText1305" font-family="微软雅黑" text-anchor="middle" font-size="16px" width="16px" fill="#ffffff" font-weight="700" align="middle" lineHeight="125%" anchor="middle" family="微软雅黑" size="16px" weight="700" font-style="" opacity="1" y="6" transform="rotate(0)"></text></g></g><g id="SvgjsG1306" transform="translate(541.1745941227157,434.64537350913724)"><path id="SvgjsPath1307" d="M 0 0L 33.5 0L 33.5 35L 0 35Z" stroke="none" fill="none"></path><g id="SvgjsG1308"><text id="SvgjsText1309" font-family="微软雅黑" text-anchor="middle" font-size="16px" width="34px" fill="#ffffff" font-weight="700" align="middle" lineHeight="125%" anchor="middle" family="微软雅黑" size="16px" weight="700" font-style="" opacity="1" y="5.5" transform="rotate(0)"><tspan id="SvgjsTspan1310" dy="20" x="17"><tspan id="SvgjsTspan1311" style="text-decoration:;">P</tspan></tspan></text></g></g><g id="SvgjsG1312"><path id="SvgjsPath1313" d="M544.1834131678182 467.67944768284815L509.37167985210056 511.4409284668716" stroke="#000000" stroke-width="2" fill="none"></path></g><g id="SvgjsG1314" transform="matrix(0.7071067811865476,0.7071067811865475,-0.7071067811865475,0.7071067811865476,619.3804321289062,500.1895416194718)"><path id="SvgjsPath1315" d="M 0 18C 0 -6 36 -6 36 18C 36 42 0 42 0 18Z" stroke="rgba(211,47,47,1)" stroke-width="5" fill-opacity="1" fill="#d32f2f"></path><g id="SvgjsG1316"><text id="SvgjsText1317" font-family="微软雅黑" text-anchor="middle" font-size="16px" width="16px" fill="#ffffff" font-weight="700" align="middle" lineHeight="125%" anchor="middle" family="微软雅黑" size="16px" weight="700" font-style="" opacity="1" y="6" transform="rotate(0)"></text></g></g><g id="SvgjsG1318" transform="translate(602.6304382454314,508.64537350913724)"><path id="SvgjsPath1319" d="M 0 0L 33.5 0L 33.5 35L 0 35Z" stroke="none" fill="none"></path><g id="SvgjsG1320"><text id="SvgjsText1321" font-family="微软雅黑" text-anchor="middle" font-size="16px" width="34px" fill="#ffffff" font-weight="700" align="middle" lineHeight="125%" anchor="middle" family="微软雅黑" size="16px" weight="700" font-style="" opacity="1" y="5.5" transform="rotate(0)"><tspan id="SvgjsTspan1322" dy="20" x="17"><tspan id="SvgjsTspan1323" style="text-decoration:;">S</tspan></tspan></text></g></g><g id="SvgjsG1324" transform="matrix(0.7071067811865476,0.7071067811865475,-0.7071067811865475,0.7071067811865476,575.9246215820312,566.7336700374406)"><path id="SvgjsPath1325" d="M 0 18C 0 -6 36 -6 36 18C 36 42 0 42 0 18Z" stroke="rgba(0,0,0,1)" stroke-width="5" fill-opacity="1" fill="#000000"></path><g id="SvgjsG1326"><text id="SvgjsText1327" font-family="微软雅黑" text-anchor="middle" font-size="16px" width="16px" fill="#ffffff" font-weight="700" align="middle" lineHeight="125%" anchor="middle" family="微软雅黑" size="16px" weight="700" font-style="" opacity="1" y="6" transform="rotate(0)"></text></g></g><g id="SvgjsG1328" transform="translate(559.1745941227157,575.1895293864216)"><path id="SvgjsPath1329" d="M 0 0L 33.5 0L 33.5 35L 0 35Z" stroke="none" fill="none"></path><g id="SvgjsG1330"><text id="SvgjsText1331" font-family="微软雅黑" text-anchor="middle" font-size="16px" width="34px" fill="#ffffff" font-weight="700" align="middle" lineHeight="125%" anchor="middle" family="微软雅黑" size="16px" weight="700" font-style="" opacity="1" y="5.5" transform="rotate(0)"><tspan id="SvgjsTspan1332" dy="20" x="17"><tspan id="SvgjsTspan1333" style="text-decoration:;">SL</tspan></tspan></text></g></g><g id="SvgjsG1334" transform="matrix(0.7071067811865476,0.7071067811865475,-0.7071067811865475,0.7071067811865476,672.3804321289062,566.7336700374406)"><path id="SvgjsPath1335" d="M 0 18C 0 -6 36 -6 36 18C 36 42 0 42 0 18Z" stroke="rgba(0,0,0,1)" stroke-width="5" fill-opacity="1" fill="#000000"></path><g id="SvgjsG1336"><text id="SvgjsText1337" font-family="微软雅黑" text-anchor="middle" font-size="16px" width="16px" fill="#ffffff" font-weight="700" align="middle" lineHeight="125%" anchor="middle" family="微软雅黑" size="16px" weight="700" font-style="" opacity="1" y="6" transform="rotate(0)"></text></g></g><g id="SvgjsG1338" transform="translate(655.6304382454314,575.1895293864216)"><path id="SvgjsPath1339" d="M 0 0L 33.5 0L 33.5 35L 0 35Z" stroke="none" fill="none"></path><g id="SvgjsG1340"><text id="SvgjsText1341" font-family="微软雅黑" text-anchor="middle" font-size="16px" width="34px" fill="#ffffff" font-weight="700" align="middle" lineHeight="125%" anchor="middle" family="微软雅黑" size="16px" weight="700" font-style="" opacity="1" y="5.5" transform="rotate(0)"><tspan id="SvgjsTspan1342" dy="20" x="17"><tspan id="SvgjsTspan1343" style="text-decoration:;">SR</tspan></tspan></text></g></g><g id="SvgjsG1344" transform="matrix(0.7071067811865476,0.7071067811865475,-0.7071067811865475,0.7071067811865476,557.9246215820312,357.6895416194718)"><path id="SvgjsPath1345" d="M 0 18C 0 -6 36 -6 36 18C 36 42 0 42 0 18Z" stroke="rgba(0,0,0,1)" stroke-width="2" fill-opacity="1" fill="#ffffff"></path><g id="SvgjsG1346"><text id="SvgjsText1347" font-family="微软雅黑" text-anchor="middle" font-size="16px" width="16px" fill="#000000" font-weight="700" align="middle" lineHeight="125%" anchor="middle" family="微软雅黑" size="16px" weight="700" font-style="" opacity="1" y="6" transform="rotate(0)"></text></g></g><g id="SvgjsG1348" transform="translate(541.1745941227157,366.14537350913724)"><path id="SvgjsPath1349" d="M 0 0L 33.5 0L 33.5 35L 0 35Z" stroke="none" fill="none"></path><g id="SvgjsG1350"><text id="SvgjsText1351" font-family="微软雅黑" text-anchor="middle" font-size="16px" width="34px" fill="#000000" font-weight="700" align="middle" lineHeight="125%" anchor="middle" family="微软雅黑" size="16px" weight="700" font-style="" opacity="1" y="5.5" transform="rotate(0)"><tspan id="SvgjsTspan1352" dy="20" x="17"><tspan id="SvgjsTspan1353" style="text-decoration:;">G</tspan></tspan></text></g></g><g id="SvgjsG1354"><path id="SvgjsPath1355" d="M557.9245941227157 401.14537350913724L557.9245941227157 417.89537350913724L557.9245941227157 417.89537350913724L557.9245941227157 434.64537350913724" stroke="#323232" stroke-width="2" fill="none"></path></g><g id="SvgjsG1356"><path id="SvgjsPath1357" d="M574.1925433151468 465.64537350913724L603.3804382454314 512.6453735091372" stroke="#323232" stroke-width="2" fill="none"></path></g><g id="SvgjsG1358"><path id="SvgjsPath1359" d="M607.9245941227157 542.6453735091372L585.9245941227157 575.8415259318439" stroke="#323232" stroke-width="2" fill="none"></path></g><g id="SvgjsG1360"><path id="SvgjsPath1361" d="M635.2818065130291 542.8793290660183L655.8334406407889 577.6872625751389" stroke="#323232" stroke-width="2" fill="none"></path></g><g id="SvgjsG1362" transform="translate(233.0129058772843,375.2778411409902)"><path id="SvgjsPath1363" d="M 0 0L 89 0L 105 16L 105 50.91168824543138L 0 50.91168824543138L 0 0Z" stroke="none" fill-opacity="1" fill="#64b5f6"></path><path id="SvgjsPath1364" d="M 89 0L 89 16L 105 16Z" stroke="none" fill-opacity="1" fill="#cdcdcd"></path><path id="SvgjsPath1365" d="M 0 0L 89 0L 105 16L 105 50.91168824543138L 0 50.91168824543138L 0 0Z" stroke="none" fill="none"></path><g id="SvgjsG1366"><text id="SvgjsText1367" font-family="微软雅黑" text-anchor="middle" font-size="13px" width="85px" fill="#323232" font-weight="400" align="middle" lineHeight="125%" anchor="middle" family="微软雅黑" size="13px" weight="400" font-style="" opacity="1" y="15.830844122715689" transform="rotate(0)"><tspan id="SvgjsTspan1368" dy="16" x="52.5"><tspan id="SvgjsTspan1369" style="text-decoration:;font-weight: bold;">P为红</tspan></tspan></text></g></g><g id="SvgjsG1370"><path id="SvgjsPath1371" d="M233.0129058772843 400.73368526370587C 208.522175587657 400.73368526370587 224.25363616691163 452.14537350913724 199.7629058772843 452.14537350913724" stroke-dasharray="3,3" stroke="#323232" stroke-width="2" fill="none" marker-end="url(#SvgjsMarker1372)"></path></g></svg>