<svg id="SvgjsSvg1006" width="467.46875" height="265.03125" xmlns="http://www.w3.org/2000/svg" version="1.1" xmlns:xlink="http://www.w3.org/1999/xlink" xmlns:svgjs="http://svgjs.com/svgjs"><defs id="SvgjsDefs1007"><marker id="SvgjsMarker1092" markerWidth="16" markerHeight="12" refX="16" refY="6" viewBox="0 0 16 12" orient="auto" markerUnits="userSpaceOnUse" stroke-dasharray="0,0"><path id="SvgjsPath1093" d="M0,2 L14,6 L0,11 L0,2" fill="#323232" stroke="#323232" stroke-width="2"></path></marker></defs><g id="SvgjsG1008" transform="matrix(0.7071067811865476,0.7071067811865475,-0.7071067811865475,0.7071067811865476,102.46875,124.04415587728428)"><path id="SvgjsPath1009" d="M 0 18C 0 -6 36 -6 36 18C 36 42 0 42 0 18Z" stroke="rgba(0,0,0,1)" stroke-width="5" fill-opacity="1" fill="#000000"></path><g id="SvgjsG1010"><text id="SvgjsText1011" font-family="微软雅黑" text-anchor="middle" font-size="16px" width="16px" fill="#ffffff" font-weight="700" align="middle" lineHeight="125%" anchor="middle" family="微软雅黑" size="16px" weight="700" font-style="" opacity="1" y="6" transform="rotate(0)"></text></g></g><g id="SvgjsG1012" transform="translate(86.96875,135)"><path id="SvgjsPath1013" d="M 0 0L 31 0L 31 29L 0 29Z" stroke="none" fill="none"></path><g id="SvgjsG1014"><text id="SvgjsText1015" font-family="微软雅黑" text-anchor="middle" font-size="16px" width="31px" fill="#ffffff" font-weight="700" align="middle" lineHeight="125%" anchor="middle" family="微软雅黑" size="16px" weight="700" font-style="" opacity="1" y="2.5" transform="rotate(0)"><tspan id="SvgjsTspan1016" dy="20" x="15.5"><tspan id="SvgjsTspan1017" style="text-decoration:;">D</tspan></tspan></text></g></g><g id="SvgjsG1018" transform="matrix(0.7071067811865476,0.7071067811865475,-0.7071067811865475,0.7071067811865476,50.46875,190.04415587728428)"><path id="SvgjsPath1019" d="M 0 18C 0 -6 36 -6 36 18C 36 42 0 42 0 18Z" stroke-dasharray="3,4" stroke="rgba(0,0,0,1)" stroke-width="5" fill-opacity="1" fill="#000000"></path><g id="SvgjsG1020"><text id="SvgjsText1021" font-family="微软雅黑" text-anchor="middle" font-size="16px" width="16px" fill="#ffffff" font-weight="700" align="middle" lineHeight="125%" anchor="middle" family="微软雅黑" size="16px" weight="700" font-style="" opacity="1" y="6" transform="rotate(0)"></text></g></g><g id="SvgjsG1022" transform="translate(34.96875,201)"><path id="SvgjsPath1023" d="M 0 0L 31 0L 31 29L 0 29Z" stroke="none" fill="none"></path><g id="SvgjsG1024"><text id="SvgjsText1025" font-family="微软雅黑" text-anchor="middle" font-size="16px" width="31px" fill="#ffffff" font-weight="700" align="middle" lineHeight="125%" anchor="middle" family="微软雅黑" size="16px" weight="700" font-style="" opacity="1" y="2.5" transform="rotate(0)"><tspan id="SvgjsTspan1026" dy="20" x="15.5"><tspan id="SvgjsTspan1027" style="text-decoration:;">NIL</tspan></tspan></text></g></g><g id="SvgjsG1028" transform="matrix(0.7071067811865476,0.7071067811865475,-0.7071067811865475,0.7071067811865476,153.46875,190.04415587728428)"><path id="SvgjsPath1029" d="M 0 18C 0 -6 36 -6 36 18C 36 42 0 42 0 18Z" stroke-dasharray="3,4" stroke="rgba(0,0,0,1)" stroke-width="5" fill-opacity="1" fill="#000000"></path><g id="SvgjsG1030"><text id="SvgjsText1031" font-family="微软雅黑" text-anchor="middle" font-size="16px" width="16px" fill="#ffffff" font-weight="700" align="middle" lineHeight="125%" anchor="middle" family="微软雅黑" size="16px" weight="700" font-style="" opacity="1" y="6" transform="rotate(0)"></text></g></g><g id="SvgjsG1032" transform="translate(137.96875,201)"><path id="SvgjsPath1033" d="M 0 0L 31 0L 31 29L 0 29Z" stroke="none" fill="none"></path><g id="SvgjsG1034"><text id="SvgjsText1035" font-family="微软雅黑" text-anchor="middle" font-size="16px" width="31px" fill="#ffffff" font-weight="700" align="middle" lineHeight="125%" anchor="middle" family="微软雅黑" size="16px" weight="700" font-style="" opacity="1" y="2.5" transform="rotate(0)"><tspan id="SvgjsTspan1036" dy="20" x="15.5"><tspan id="SvgjsTspan1037" style="text-decoration:;">NIL</tspan></tspan></text></g></g><g id="SvgjsG1038" transform="matrix(0.7071067811865476,0.7071067811865475,-0.7071067811865475,0.7071067811865476,102.46875,50.04415587728429)"><path id="SvgjsPath1039" d="M 0 18C 0 -6 36 -6 36 18C 36 42 0 42 0 18Z" stroke="rgba(0,0,0,1)" stroke-width="2" fill-opacity="1" fill="#ffffff"></path><g id="SvgjsG1040"><text id="SvgjsText1041" font-family="微软雅黑" text-anchor="middle" font-size="16px" width="16px" fill="#000000" font-weight="700" align="middle" lineHeight="125%" anchor="middle" family="微软雅黑" size="16px" weight="700" font-style="" opacity="1" y="6" transform="rotate(0)"></text></g></g><g id="SvgjsG1042" transform="translate(86.96875,61)"><path id="SvgjsPath1043" d="M 0 0L 31 0L 31 29L 0 29Z" stroke="none" fill="none"></path><g id="SvgjsG1044"><text id="SvgjsText1045" font-family="微软雅黑" text-anchor="middle" font-size="16px" width="31px" fill="#000000" font-weight="700" align="middle" lineHeight="125%" anchor="middle" family="微软雅黑" size="16px" weight="700" font-style="" opacity="1" y="2.5" transform="rotate(0)"><tspan id="SvgjsTspan1046" dy="20" x="15.5"><tspan id="SvgjsTspan1047" style="text-decoration:;">P</tspan></tspan></text></g></g><g id="SvgjsG1048"><path id="SvgjsPath1049" d="M61.967137989848766 201L89.14306148549531 164" stroke="#000000" stroke-width="2" fill="none"></path></g><g id="SvgjsG1050"><path id="SvgjsPath1051" d="M114.088879897737 160.68376618407353L137.96875 204.23230125802326" stroke="#000000" stroke-width="2" fill="none"></path></g><g id="SvgjsG1052"><path id="SvgjsPath1053" d="M102.12012702900938 90L102.12012702900938 131.5" stroke="#000000" stroke-width="2" fill="none"></path></g><g id="SvgjsG1054" transform="matrix(-1,1.2246467991473532e-16,-1.2246467991473532e-16,-1,275.46875,163.9558441227157)"><path id="SvgjsPath1055" d="M 0 14.727922061357845L 14.727922061357845 0L 14.727922061357845 9.720428560496178L 90 9.720428560496178L 90 19.73541556221951L 14.727922061357845 19.73541556221951L 14.727922061357845 29.45584412271569L 0 14.727922061357845Z" stroke="rgba(50,50,50,1)" stroke-width="2" fill-opacity="1" fill="#ffffff"></path><g id="SvgjsG1056"><text id="SvgjsText1057" font-family="微软雅黑" text-anchor="middle" font-size="13px" width="90px" fill="#323232" font-weight="400" align="middle" lineHeight="125%" anchor="middle" family="微软雅黑" size="13px" weight="400" font-style="" opacity="1" y="5.102922061357845" transform="rotate(0)"></text></g></g><g id="SvgjsG1058" transform="matrix(0.7071067811865476,0.7071067811865475,-0.7071067811865475,0.7071067811865476,336.46875,120.49999694173741)"><path id="SvgjsPath1059" d="M 0 18C 0 -6 36 -6 36 18C 36 42 0 42 0 18Z" stroke-dasharray="3,4" stroke="rgba(0,0,0,1)" stroke-width="5" fill-opacity="1" fill="#000000"></path><g id="SvgjsG1060"><text id="SvgjsText1061" font-family="微软雅黑" text-anchor="middle" font-size="16px" width="16px" fill="#ffffff" font-weight="700" align="middle" lineHeight="125%" anchor="middle" family="微软雅黑" size="16px" weight="700" font-style="" opacity="1" y="6" transform="rotate(0)"></text></g></g><g id="SvgjsG1062" transform="translate(320.96875,131.4558441227157)"><path id="SvgjsPath1063" d="M 0 0L 31 0L 31 29L 0 29Z" stroke="none" fill="none"></path><g id="SvgjsG1064"><text id="SvgjsText1065" font-family="微软雅黑" text-anchor="middle" font-size="16px" width="31px" fill="#ffffff" font-weight="700" align="middle" lineHeight="125%" anchor="middle" family="微软雅黑" size="16px" weight="700" font-style="" opacity="1" y="2.5" transform="rotate(0)"><tspan id="SvgjsTspan1066" dy="20" x="15.5"><tspan id="SvgjsTspan1067" style="text-decoration:;">NIL</tspan></tspan></text></g></g><g id="SvgjsG1068" transform="matrix(0.7071067811865476,0.7071067811865475,-0.7071067811865475,0.7071067811865476,336.46875,43.27207640951085)"><path id="SvgjsPath1069" d="M 0 18C 0 -6 36 -6 36 18C 36 42 0 42 0 18Z" stroke="rgba(0,0,0,1)" stroke-width="2" fill-opacity="1" fill="#ffffff"></path><g id="SvgjsG1070"><text id="SvgjsText1071" font-family="微软雅黑" text-anchor="middle" font-size="16px" width="16px" fill="#000000" font-weight="700" align="middle" lineHeight="125%" anchor="middle" family="微软雅黑" size="16px" weight="700" font-style="" opacity="1" y="6" transform="rotate(0)"></text></g></g><g id="SvgjsG1072" transform="translate(320.96875,54.227922061357845)"><path id="SvgjsPath1073" d="M 0 0L 31 0L 31 29L 0 29Z" stroke="none" fill="none"></path><g id="SvgjsG1074"><text id="SvgjsText1075" font-family="微软雅黑" text-anchor="middle" font-size="16px" width="31px" fill="#000000" font-weight="700" align="middle" lineHeight="125%" anchor="middle" family="微软雅黑" size="16px" weight="700" font-style="" opacity="1" y="2.5" transform="rotate(0)"><tspan id="SvgjsTspan1076" dy="20" x="15.5"><tspan id="SvgjsTspan1077" style="text-decoration:;">P</tspan></tspan></text></g></g><g id="SvgjsG1078"><path id="SvgjsPath1079" d="M336.1201270290094 83.22792206135784L336.1201270290094 127.95584412271569" stroke="#000000" stroke-width="2" fill="none"></path></g><g id="SvgjsG1080" transform="translate(337.46875,179.08831175456862)"><path id="SvgjsPath1081" d="M 0 0L 89 0L 105 16L 105 50.91168824543138L 0 50.91168824543138L 0 0Z" stroke="none" fill-opacity="1" fill="#64b5f6"></path><path id="SvgjsPath1082" d="M 89 0L 89 16L 105 16Z" stroke="none" fill-opacity="1" fill="#cdcdcd"></path><path id="SvgjsPath1083" d="M 0 0L 89 0L 105 16L 105 50.91168824543138L 0 50.91168824543138L 0 0Z" stroke="none" fill="none"></path><g id="SvgjsG1084"><text id="SvgjsText1085" font-family="微软雅黑" text-anchor="middle" font-size="13px" width="85px" fill="#323232" font-weight="400" align="middle" lineHeight="125%" anchor="middle" family="微软雅黑" size="13px" weight="400" font-style="" opacity="1" y="7.830844122715689" transform="rotate(0)"><tspan id="SvgjsTspan1086" dy="16" x="52.5"><tspan id="SvgjsTspan1087" style="text-decoration:;font-weight: bold;">待平衡的</tspan></tspan><tspan id="SvgjsTspan1088" dy="16" x="52.5"><tspan id="SvgjsTspan1089" style="text-decoration:;font-weight: bold;">结点N</tspan></tspan></text></g></g><g id="SvgjsG1090"><path id="SvgjsPath1091" d="M389.96875 179.08831175456862C 389.96875 165.19351588600995 374.66875000000005 164.93532470182743 364.46875 155.5" stroke-dasharray="3,3" stroke="#323232" stroke-width="2" fill="none" marker-end="url(#SvgjsMarker1092)"></path></g><g id="SvgjsG1094" transform="translate(157.9245941227157,25)"><path id="SvgjsPath1095" d="M 0 0L 207 0L 207 139L 0 139Z" stroke="none" fill="none"></path><g id="SvgjsG1096"><text id="SvgjsText1097" font-family="微软雅黑" text-anchor="start" font-size="13px" width="207px" fill="#323232" font-weight="400" align="middle" lineHeight="125%" anchor="start" family="微软雅黑" size="13px" weight="400" font-style="" opacity="1" y="35.875" transform="rotate(0)"><tspan id="SvgjsTspan1098" dy="16" x="0"><tspan id="SvgjsTspan1099" style="text-decoration:;font-weight: bold;">黑色D删除，会导致</tspan></tspan><tspan id="SvgjsTspan1100" dy="16" x="0"><tspan id="SvgjsTspan1101" style="text-decoration:;font-weight: bold;">P-&gt;D-&gt;NIL 比 </tspan></tspan><tspan id="SvgjsTspan1102" dy="16" x="0"><tspan id="SvgjsTspan1103" style="text-decoration:;font-weight: bold;">P-&gt;另外儿子-&gt;NIL</tspan></tspan><tspan id="SvgjsTspan1104" dy="16" x="0"><tspan id="SvgjsTspan1105" style="text-decoration:;font-weight: bold;">的</tspan><tspan id="SvgjsTspan1106" style="text-decoration:;font-size: inherit; font-weight: bold;">黑色结点少少1，不平衡</tspan></tspan></text></g></g></svg>