<svg id="SvgjsSvg1006" width="796.75" height="650.03125" xmlns="http://www.w3.org/2000/svg" version="1.1" xmlns:xlink="http://www.w3.org/1999/xlink" xmlns:svgjs="http://svgjs.com/svgjs"><defs id="SvgjsDefs1007"><marker id="SvgjsMarker1020" markerWidth="16" markerHeight="12" refX="16" refY="6" viewBox="0 0 16 12" orient="auto" markerUnits="userSpaceOnUse" stroke-dasharray="0,0"><path id="SvgjsPath1021" d="M0,2 L14,6 L0,11 L0,2" fill="#323232" stroke="#323232" stroke-width="2"></path></marker><marker id="SvgjsMarker1184" markerWidth="16" markerHeight="12" refX="16" refY="6" viewBox="0 0 16 12" orient="auto" markerUnits="userSpaceOnUse" stroke-dasharray="0,0"><path id="SvgjsPath1185" d="M0,2 L14,6 L0,11 L0,2" fill="#323232" stroke="#323232" stroke-width="2"></path></marker><marker id="SvgjsMarker1188" markerWidth="16" markerHeight="12" refX="16" refY="6" viewBox="0 0 16 12" orient="auto" markerUnits="userSpaceOnUse" stroke-dasharray="0,0"><path id="SvgjsPath1189" d="M0,2 L14,6 L0,11 L0,2" fill="#323232" stroke="#323232" stroke-width="2"></path></marker><marker id="SvgjsMarker1200" markerWidth="16" markerHeight="12" refX="16" refY="6" viewBox="0 0 16 12" orient="auto" markerUnits="userSpaceOnUse" stroke-dasharray="0,0"><path id="SvgjsPath1201" d="M0,2 L14,6 L0,11 L0,2" fill="#323232" stroke="#323232" stroke-width="2"></path></marker><marker id="SvgjsMarker1214" markerWidth="16" markerHeight="12" refX="16" refY="6" viewBox="0 0 16 12" orient="auto" markerUnits="userSpaceOnUse" stroke-dasharray="0,0"><path id="SvgjsPath1215" d="M0,2 L14,6 L0,11 L0,2" fill="#323232" stroke="#323232" stroke-width="2"></path></marker><marker id="SvgjsMarker1366" markerWidth="16" markerHeight="12" refX="16" refY="6" viewBox="0 0 16 12" orient="auto" markerUnits="userSpaceOnUse" stroke-dasharray="0,0"><path id="SvgjsPath1367" d="M0,2 L14,6 L0,11 L0,2" fill="#323232" stroke="#323232" stroke-width="2"></path></marker><marker id="SvgjsMarker1378" markerWidth="16" markerHeight="12" refX="16" refY="6" viewBox="0 0 16 12" orient="auto" markerUnits="userSpaceOnUse" stroke-dasharray="0,0"><path id="SvgjsPath1379" d="M0,2 L14,6 L0,11 L0,2" fill="#323232" stroke="#323232" stroke-width="2"></path></marker><marker id="SvgjsMarker1382" markerWidth="16" markerHeight="12" refX="16" refY="6" viewBox="0 0 16 12" orient="auto" markerUnits="userSpaceOnUse" stroke-dasharray="0,0"><path id="SvgjsPath1383" d="M0,2 L14,6 L0,11 L0,2" fill="#323232" stroke="#323232" stroke-width="2"></path></marker></defs><g id="SvgjsG1008" transform="translate(283.0129058772843,226.04618526370587)"><path id="SvgjsPath1009" d="M 0 0L 89 0L 105 16L 105 50.91168824543138L 0 50.91168824543138L 0 0Z" stroke="none" fill-opacity="1" fill="#64b5f6"></path><path id="SvgjsPath1010" d="M 89 0L 89 16L 105 16Z" stroke="none" fill-opacity="1" fill="#cdcdcd"></path><path id="SvgjsPath1011" d="M 0 0L 89 0L 105 16L 105 50.91168824543138L 0 50.91168824543138L 0 0Z" stroke="none" fill="none"></path><g id="SvgjsG1012"><text id="SvgjsText1013" font-family="微软雅黑" text-anchor="middle" font-size="13px" width="85px" fill="#323232" font-weight="400" align="middle" lineHeight="125%" anchor="middle" family="微软雅黑" size="13px" weight="400" font-style="" opacity="1" y="7.830844122715689" transform="rotate(0)"><tspan id="SvgjsTspan1014" dy="16" x="52.5"><tspan id="SvgjsTspan1015" style="text-decoration:;font-weight: bold;">待平衡的</tspan></tspan><tspan id="SvgjsTspan1016" dy="16" x="52.5"><tspan id="SvgjsTspan1017" style="text-decoration:;font-weight: bold;">结点N</tspan></tspan></text></g></g><g id="SvgjsG1018"><path id="SvgjsPath1019" d="M335.5129058772843 226.04618526370587C 335.5129058772843 195.47649213493975 297.4134431287662 192.50202938642155 266.84375 192.50202938642155" stroke-dasharray="3,3" stroke="#323232" stroke-width="2" fill="none" marker-end="url(#SvgjsMarker1020)"></path></g><g id="SvgjsG1022" transform="matrix(0.7071067811865476,0.7071067811865475,-0.7071067811865475,0.7071067811865476,251.34375,167.0461852962296)"><path id="SvgjsPath1023" d="M 0 18C 0 -6 36 -6 36 18C 36 42 0 42 0 18Z" stroke="rgba(0,0,0,1)" stroke-width="5" fill-opacity="1" fill="#000000"></path><g id="SvgjsG1024"><text id="SvgjsText1025" font-family="微软雅黑" text-anchor="middle" font-size="16px" width="16px" fill="#ffffff" font-weight="700" align="middle" lineHeight="125%" anchor="middle" family="微软雅黑" size="16px" weight="700" font-style="" opacity="1" y="6" transform="rotate(0)"></text></g></g><g id="SvgjsG1026" transform="translate(235.84375,178.00202938642155)"><path id="SvgjsPath1027" d="M 0 0L 31 0L 31 29L 0 29Z" stroke="none" fill="none"></path><g id="SvgjsG1028"><text id="SvgjsText1029" font-family="微软雅黑" text-anchor="middle" font-size="16px" width="31px" fill="#ffffff" font-weight="700" align="middle" lineHeight="125%" anchor="middle" family="微软雅黑" size="16px" weight="700" font-style="" opacity="1" y="2.5" transform="rotate(0)"><tspan id="SvgjsTspan1030" dy="20" x="15.5"><tspan id="SvgjsTspan1031" style="text-decoration:;">N</tspan></tspan></text></g></g><g id="SvgjsG1032" transform="matrix(0.7071067811865476,0.7071067811865475,-0.7071067811865475,0.7071067811865476,198.51290893554688,93.50202636068272)"><path id="SvgjsPath1033" d="M 0 18C 0 -6 36 -6 36 18C 36 42 0 42 0 18Z" stroke="rgba(0,0,0,1)" stroke-width="2" fill-opacity="1" fill="#e0e0e0"></path><g id="SvgjsG1034"><text id="SvgjsText1035" font-family="微软雅黑" text-anchor="middle" font-size="16px" width="16px" fill="#000000" font-weight="700" align="middle" lineHeight="125%" anchor="middle" family="微软雅黑" size="16px" weight="700" font-style="" opacity="1" y="6" transform="rotate(0)"></text></g></g><g id="SvgjsG1036" transform="translate(181.7629058772843,101.95787350913724)"><path id="SvgjsPath1037" d="M 0 0L 33.5 0L 33.5 35L 0 35Z" stroke="none" fill="none"></path><g id="SvgjsG1038"><text id="SvgjsText1039" font-family="微软雅黑" text-anchor="middle" font-size="16px" width="34px" fill="#000000" font-weight="700" align="middle" lineHeight="125%" anchor="middle" family="微软雅黑" size="16px" weight="700" font-style="" opacity="1" y="5.5" transform="rotate(0)"><tspan id="SvgjsTspan1040" dy="20" x="17"><tspan id="SvgjsTspan1041" style="text-decoration:;">P</tspan></tspan></text></g></g><g id="SvgjsG1042"><path id="SvgjsPath1043" d="M214.0028241737109 129.02243095489746L236.06451022144495 178.69328805903956" stroke="#000000" stroke-width="2" fill="none"></path></g><g id="SvgjsG1044" transform="matrix(0.7071067811865476,0.7071067811865475,-0.7071067811865475,0.7071067811865476,144.26290893554688,167.0461852962296)"><path id="SvgjsPath1045" d="M 0 18C 0 -6 36 -6 36 18C 36 42 0 42 0 18Z" stroke="rgba(0,0,0,1)" stroke-width="5" fill-opacity="1" fill="#000000"></path><g id="SvgjsG1046"><text id="SvgjsText1047" font-family="微软雅黑" text-anchor="middle" font-size="16px" width="16px" fill="#ffffff" font-weight="700" align="middle" lineHeight="125%" anchor="middle" family="微软雅黑" size="16px" weight="700" font-style="" opacity="1" y="6" transform="rotate(0)"></text></g></g><g id="SvgjsG1048" transform="translate(127.51290587728431,175.50202938642155)"><path id="SvgjsPath1049" d="M 0 0L 33.5 0L 33.5 35L 0 35Z" stroke="none" fill="none"></path><g id="SvgjsG1050"><text id="SvgjsText1051" font-family="微软雅黑" text-anchor="middle" font-size="16px" width="34px" fill="#ffffff" font-weight="700" align="middle" lineHeight="125%" anchor="middle" family="微软雅黑" size="16px" weight="700" font-style="" opacity="1" y="5.5" transform="rotate(0)"><tspan id="SvgjsTspan1052" dy="20" x="17"><tspan id="SvgjsTspan1053" style="text-decoration:;">S</tspan></tspan></text></g></g><g id="SvgjsG1054" transform="matrix(0.7071067811865476,0.7071067811865475,-0.7071067811865475,0.7071067811865476,100.80706024169922,241.0461852962296)"><path id="SvgjsPath1055" d="M 0 18C 0 -6 36 -6 36 18C 36 42 0 42 0 18Z" stroke="rgba(211,47,47,1)" stroke-width="5" fill-opacity="1" fill="#d32f2f"></path><g id="SvgjsG1056"><text id="SvgjsText1057" font-family="微软雅黑" text-anchor="middle" font-size="16px" width="16px" fill="#ffffff" font-weight="700" align="middle" lineHeight="125%" anchor="middle" family="微软雅黑" size="16px" weight="700" font-style="" opacity="1" y="6" transform="rotate(0)"></text></g></g><g id="SvgjsG1058" transform="translate(84.05706175456862,249.50202938642155)"><path id="SvgjsPath1059" d="M 0 0L 33.5 0L 33.5 35L 0 35Z" stroke="none" fill="none"></path><g id="SvgjsG1060"><text id="SvgjsText1061" font-family="微软雅黑" text-anchor="middle" font-size="16px" width="34px" fill="#ffffff" font-weight="700" align="middle" lineHeight="125%" anchor="middle" family="微软雅黑" size="16px" weight="700" font-style="" opacity="1" y="5.5" transform="rotate(0)"><tspan id="SvgjsTspan1062" dy="20" x="17"><tspan id="SvgjsTspan1063" style="text-decoration:;">SL</tspan></tspan></text></g></g><g id="SvgjsG1064" transform="matrix(0.7071067811865476,0.7071067811865475,-0.7071067811865475,0.7071067811865476,197.26290893554688,241.0461852962296)"><path id="SvgjsPath1065" d="M 0 18C 0 -6 36 -6 36 18C 36 42 0 42 0 18Z" stroke="rgba(0,0,0,1)" stroke-width="2" fill-opacity="1" fill="#ffffff"></path><g id="SvgjsG1066"><text id="SvgjsText1067" font-family="微软雅黑" text-anchor="middle" font-size="16px" width="16px" fill="#000000" font-weight="700" align="middle" lineHeight="125%" anchor="middle" family="微软雅黑" size="16px" weight="700" font-style="" opacity="1" y="6" transform="rotate(0)"></text></g></g><g id="SvgjsG1068" transform="translate(180.5129058772843,249.50202938642155)"><path id="SvgjsPath1069" d="M 0 0L 33.5 0L 33.5 35L 0 35Z" stroke="none" fill="none"></path><g id="SvgjsG1070"><text id="SvgjsText1071" font-family="微软雅黑" text-anchor="middle" font-size="16px" width="34px" fill="#000000" font-weight="700" align="middle" lineHeight="125%" anchor="middle" family="微软雅黑" size="16px" weight="700" font-style="" opacity="1" y="5.5" transform="rotate(0)"><tspan id="SvgjsTspan1072" dy="20" x="17"><tspan id="SvgjsTspan1073" style="text-decoration:;">SR</tspan></tspan></text></g></g><g id="SvgjsG1074" transform="matrix(0.7071067811865476,0.7071067811865475,-0.7071067811865475,0.7071067811865476,198.51290893554688,25.002030175379993)"><path id="SvgjsPath1075" d="M 0 18C 0 -6 36 -6 36 18C 36 42 0 42 0 18Z" stroke="rgba(0,0,0,1)" stroke-width="2" fill-opacity="1" fill="#ffffff"></path><g id="SvgjsG1076"><text id="SvgjsText1077" font-family="微软雅黑" text-anchor="middle" font-size="16px" width="16px" fill="#000000" font-weight="700" align="middle" lineHeight="125%" anchor="middle" family="微软雅黑" size="16px" weight="700" font-style="" opacity="1" y="6" transform="rotate(0)"></text></g></g><g id="SvgjsG1078" transform="translate(181.7629058772843,33.457873509137244)"><path id="SvgjsPath1079" d="M 0 0L 33.5 0L 33.5 35L 0 35Z" stroke="none" fill="none"></path><g id="SvgjsG1080"><text id="SvgjsText1081" font-family="微软雅黑" text-anchor="middle" font-size="16px" width="34px" fill="#000000" font-weight="700" align="middle" lineHeight="125%" anchor="middle" family="微软雅黑" size="16px" weight="700" font-style="" opacity="1" y="5.5" transform="rotate(0)"><tspan id="SvgjsTspan1082" dy="20" x="17"><tspan id="SvgjsTspan1083" style="text-decoration:;">G</tspan></tspan></text></g></g><g id="SvgjsG1084"><path id="SvgjsPath1085" d="M198.5129058772843 68.45787350913724L198.5129058772843 85.20787350913724L198.5129058772843 85.20787350913724L198.5129058772843 101.95787350913724" stroke="#323232" stroke-width="2" fill="none"></path></g><g id="SvgjsG1086"><path id="SvgjsPath1087" d="M185.31077014332567 133.34155737921412L160.3835206357125 176.00944616393565" stroke="#323232" stroke-width="2" fill="none"></path></g><g id="SvgjsG1088"><path id="SvgjsPath1089" d="M132.80706175456862 209.50202938642155L110.80706175456862 250.15402593184388" stroke="#323232" stroke-width="2" fill="none"></path></g><g id="SvgjsG1090"><path id="SvgjsPath1091" d="M160.16427414488203 209.73598494330258L180.71590827264185 251.9997625751389" stroke="#323232" stroke-width="2" fill="none"></path></g><g id="SvgjsG1092" transform="matrix(-1,1.2246467991473532e-16,-1.2246467991473532e-16,-1,440.96875,170.95787048339844)"><path id="SvgjsPath1093" d="M 0 10L 10 0L 10 6.6000000000000005L 108 6.6000000000000005L 108 13.4L 10 13.4L 10 20L 0 10Z" stroke="rgba(50,50,50,1)" stroke-width="2" fill-opacity="1" fill="#ffffff"></path><g id="SvgjsG1094"><text id="SvgjsText1095" font-family="微软雅黑" text-anchor="middle" font-size="13px" width="108px" fill="#323232" font-weight="400" align="middle" lineHeight="125%" anchor="middle" family="微软雅黑" size="13px" weight="400" font-style="" opacity="1" y="0.3750000000000009" transform="rotate(0)"></text></g></g><g id="SvgjsG1096" transform="translate(315.96875,112.28125)"><path id="SvgjsPath1097" d="M 0 0L 142 0L 142 41.58831175456862L 0 41.58831175456862Z" stroke="none" fill="none"></path><g id="SvgjsG1098"><text id="SvgjsText1099" font-family="微软雅黑" text-anchor="middle" font-size="13px" width="142px" fill="#323232" font-weight="400" align="middle" lineHeight="125%" anchor="middle" family="微软雅黑" size="13px" weight="400" font-style="" opacity="1" y="3.169155877284311" transform="rotate(0)"><tspan id="SvgjsTspan1100" dy="16" x="71"><tspan id="SvgjsTspan1101" style="text-decoration:;font-weight: bold;">以P支点右旋</tspan></tspan><tspan id="SvgjsTspan1102" dy="16" x="71"><tspan id="SvgjsTspan1103" style="text-decoration:;font-weight: bold;">交换P、S着色，SL着黑</tspan></tspan></text></g></g><g id="SvgjsG1104" transform="translate(665.5129058772843,86.04618526370587)"><path id="SvgjsPath1105" d="M 0 0L 89 0L 105 16L 105 50.91168824543138L 0 50.91168824543138L 0 0Z" stroke="none" fill-opacity="1" fill="#64b5f6"></path><path id="SvgjsPath1106" d="M 89 0L 89 16L 105 16Z" stroke="none" fill-opacity="1" fill="#cdcdcd"></path><path id="SvgjsPath1107" d="M 0 0L 89 0L 105 16L 105 50.91168824543138L 0 50.91168824543138L 0 0Z" stroke="none" fill="none"></path><g id="SvgjsG1108"><text id="SvgjsText1109" font-family="微软雅黑" text-anchor="middle" font-size="13px" width="85px" fill="#323232" font-weight="400" align="middle" lineHeight="125%" anchor="middle" family="微软雅黑" size="13px" weight="400" font-style="" opacity="1" y="15.830844122715689" transform="rotate(0)"><tspan id="SvgjsTspan1110" dy="16" x="52.5"><tspan id="SvgjsTspan1111" style="text-decoration:;font-weight: bold;">交换着色</tspan></tspan></text></g></g><g id="SvgjsG1112" transform="matrix(0.7071067811865476,0.7071067811865475,-0.7071067811865475,0.7071067811865476,628.34375,167.0461852962296)"><path id="SvgjsPath1113" d="M 0 18C 0 -6 36 -6 36 18C 36 42 0 42 0 18Z" stroke="rgba(0,0,0,1)" stroke-width="5" fill-opacity="1" fill="#000000"></path><g id="SvgjsG1114"><text id="SvgjsText1115" font-family="微软雅黑" text-anchor="middle" font-size="16px" width="16px" fill="#ffffff" font-weight="700" align="middle" lineHeight="125%" anchor="middle" family="微软雅黑" size="16px" weight="700" font-style="" opacity="1" y="6" transform="rotate(0)"></text></g></g><g id="SvgjsG1116" transform="translate(612.84375,178.00202938642155)"><path id="SvgjsPath1117" d="M 0 0L 31 0L 31 29L 0 29Z" stroke="none" fill="none"></path><g id="SvgjsG1118"><text id="SvgjsText1119" font-family="微软雅黑" text-anchor="middle" font-size="16px" width="31px" fill="#ffffff" font-weight="700" align="middle" lineHeight="125%" anchor="middle" family="微软雅黑" size="16px" weight="700" font-style="" opacity="1" y="2.5" transform="rotate(0)"><tspan id="SvgjsTspan1120" dy="20" x="15.5"><tspan id="SvgjsTspan1121" style="text-decoration:;">P</tspan></tspan></text></g></g><g id="SvgjsG1122" transform="matrix(0.7071067811865476,0.7071067811865475,-0.7071067811865475,0.7071067811865476,575.5128784179688,93.50202636068272)"><path id="SvgjsPath1123" d="M 0 18C 0 -6 36 -6 36 18C 36 42 0 42 0 18Z" stroke="rgba(0,0,0,1)" stroke-width="2" fill-opacity="1" fill="#e0e0e0"></path><g id="SvgjsG1124"><text id="SvgjsText1125" font-family="微软雅黑" text-anchor="middle" font-size="16px" width="16px" fill="#000000" font-weight="700" align="middle" lineHeight="125%" anchor="middle" family="微软雅黑" size="16px" weight="700" font-style="" opacity="1" y="6" transform="rotate(0)"></text></g></g><g id="SvgjsG1126" transform="translate(558.7629058772843,101.95787350913724)"><path id="SvgjsPath1127" d="M 0 0L 33.5 0L 33.5 35L 0 35Z" stroke="none" fill="none"></path><g id="SvgjsG1128"><text id="SvgjsText1129" font-family="微软雅黑" text-anchor="middle" font-size="16px" width="34px" fill="#000000" font-weight="700" align="middle" lineHeight="125%" anchor="middle" family="微软雅黑" size="16px" weight="700" font-style="" opacity="1" y="5.5" transform="rotate(0)"><tspan id="SvgjsTspan1130" dy="20" x="17"><tspan id="SvgjsTspan1131" style="text-decoration:;">S</tspan></tspan></text></g></g><g id="SvgjsG1132"><path id="SvgjsPath1133" d="M591.0028241737109 129.02243095489746L613.064510221445 178.69328805903956" stroke="#000000" stroke-width="2" fill="none"></path></g><g id="SvgjsG1134" transform="matrix(0.7071067811865476,0.7071067811865475,-0.7071067811865475,0.7071067811865476,521.2629089355469,167.0461852962296)"><path id="SvgjsPath1135" d="M 0 18C 0 -6 36 -6 36 18C 36 42 0 42 0 18Z" stroke="rgba(0,0,0,1)" stroke-width="5" fill-opacity="1" fill="#000000"></path><g id="SvgjsG1136"><text id="SvgjsText1137" font-family="微软雅黑" text-anchor="middle" font-size="16px" width="16px" fill="#ffffff" font-weight="700" align="middle" lineHeight="125%" anchor="middle" family="微软雅黑" size="16px" weight="700" font-style="" opacity="1" y="6" transform="rotate(0)"></text></g></g><g id="SvgjsG1138" transform="translate(504.5129058772843,175.50202938642155)"><path id="SvgjsPath1139" d="M 0 0L 33.5 0L 33.5 35L 0 35Z" stroke="none" fill="none"></path><g id="SvgjsG1140"><text id="SvgjsText1141" font-family="微软雅黑" text-anchor="middle" font-size="16px" width="34px" fill="#ffffff" font-weight="700" align="middle" lineHeight="125%" anchor="middle" family="微软雅黑" size="16px" weight="700" font-style="" opacity="1" y="5.5" transform="rotate(0)"><tspan id="SvgjsTspan1142" dy="20" x="17"><tspan id="SvgjsTspan1143" style="text-decoration:;">SL</tspan></tspan></text></g></g><g id="SvgjsG1144" transform="matrix(0.7071067811865476,0.7071067811865475,-0.7071067811865475,0.7071067811865476,574.2628784179688,241.0461852962296)"><path id="SvgjsPath1145" d="M 0 18C 0 -6 36 -6 36 18C 36 42 0 42 0 18Z" stroke="rgba(0,0,0,1)" stroke-width="2" fill-opacity="1" fill="#ffffff"></path><g id="SvgjsG1146"><text id="SvgjsText1147" font-family="微软雅黑" text-anchor="middle" font-size="16px" width="16px" fill="#000000" font-weight="700" align="middle" lineHeight="125%" anchor="middle" family="微软雅黑" size="16px" weight="700" font-style="" opacity="1" y="6" transform="rotate(0)"></text></g></g><g id="SvgjsG1148" transform="translate(557.5129058772843,249.50202938642155)"><path id="SvgjsPath1149" d="M 0 0L 33.5 0L 33.5 35L 0 35Z" stroke="none" fill="none"></path><g id="SvgjsG1150"><text id="SvgjsText1151" font-family="微软雅黑" text-anchor="middle" font-size="16px" width="34px" fill="#000000" font-weight="700" align="middle" lineHeight="125%" anchor="middle" family="微软雅黑" size="16px" weight="700" font-style="" opacity="1" y="5.5" transform="rotate(0)"><tspan id="SvgjsTspan1152" dy="20" x="17"><tspan id="SvgjsTspan1153" style="text-decoration:;">SR</tspan></tspan></text></g></g><g id="SvgjsG1154" transform="matrix(0.7071067811865476,0.7071067811865475,-0.7071067811865475,0.7071067811865476,575.5128784179688,25.002030175379993)"><path id="SvgjsPath1155" d="M 0 18C 0 -6 36 -6 36 18C 36 42 0 42 0 18Z" stroke="rgba(0,0,0,1)" stroke-width="2" fill-opacity="1" fill="#ffffff"></path><g id="SvgjsG1156"><text id="SvgjsText1157" font-family="微软雅黑" text-anchor="middle" font-size="16px" width="16px" fill="#000000" font-weight="700" align="middle" lineHeight="125%" anchor="middle" family="微软雅黑" size="16px" weight="700" font-style="" opacity="1" y="6" transform="rotate(0)"></text></g></g><g id="SvgjsG1158" transform="translate(558.7629058772843,33.457873509137244)"><path id="SvgjsPath1159" d="M 0 0L 33.5 0L 33.5 35L 0 35Z" stroke="none" fill="none"></path><g id="SvgjsG1160"><text id="SvgjsText1161" font-family="微软雅黑" text-anchor="middle" font-size="16px" width="34px" fill="#000000" font-weight="700" align="middle" lineHeight="125%" anchor="middle" family="微软雅黑" size="16px" weight="700" font-style="" opacity="1" y="5.5" transform="rotate(0)"><tspan id="SvgjsTspan1162" dy="20" x="17"><tspan id="SvgjsTspan1163" style="text-decoration:;">G</tspan></tspan></text></g></g><g id="SvgjsG1164"><path id="SvgjsPath1165" d="M575.5129058772843 68.45787350913724L575.5129058772843 85.20787350913724L575.5129058772843 85.20787350913724L575.5129058772843 101.95787350913724" stroke="#323232" stroke-width="2" fill="none"></path></g><g id="SvgjsG1166"><path id="SvgjsPath1167" d="M562.3107701433257 133.34155737921412L537.3835206357124 176.00944616393565" stroke="#323232" stroke-width="2" fill="none"></path></g><g id="SvgjsG1168"><path id="SvgjsPath1169" d="M613.3173729709906 206.29647120763303L590.96875 252.28125" stroke="#323232" stroke-width="2" fill="none"></path></g><g id="SvgjsG1170" transform="matrix(0.7071067811865476,0.7071067811865475,-0.7071067811865475,0.7071067811865476,682.2628784179688,241.0461852962296)"><path id="SvgjsPath1171" d="M 0 18C 0 -6 36 -6 36 18C 36 42 0 42 0 18Z" stroke="rgba(0,0,0,1)" stroke-width="5" fill-opacity="1" fill="#000000"></path><g id="SvgjsG1172"><text id="SvgjsText1173" font-family="微软雅黑" text-anchor="middle" font-size="16px" width="16px" fill="#ffffff" font-weight="700" align="middle" lineHeight="125%" anchor="middle" family="微软雅黑" size="16px" weight="700" font-style="" opacity="1" y="6" transform="rotate(0)"></text></g></g><g id="SvgjsG1174" transform="translate(665.5129058772843,249.50202938642155)"><path id="SvgjsPath1175" d="M 0 0L 33.5 0L 33.5 35L 0 35Z" stroke="none" fill="none"></path><g id="SvgjsG1176"><text id="SvgjsText1177" font-family="微软雅黑" text-anchor="middle" font-size="16px" width="34px" fill="#ffffff" font-weight="700" align="middle" lineHeight="125%" anchor="middle" family="微软雅黑" size="16px" weight="700" font-style="" opacity="1" y="5.5" transform="rotate(0)"><tspan id="SvgjsTspan1178" dy="20" x="17"><tspan id="SvgjsTspan1179" style="text-decoration:;">N</tspan></tspan></text></g></g><g id="SvgjsG1180"><path id="SvgjsPath1181" d="M641.0716720613578 205.2299514477794L665.7983791314454 251.5753452255126" stroke="#323232" stroke-width="2" fill="none"></path></g><g id="SvgjsG1182"><path id="SvgjsPath1183" d="M665.5129058772843 111.50202938642155C 636.061516472824 111.50202938642155 621.7142952817446 118.95787350913724 592.2629058772843 118.95787350913724" stroke-dasharray="3,3" stroke="#323232" stroke-width="2" fill="none" marker-end="url(#SvgjsMarker1184)"></path></g><g id="SvgjsG1186"><path id="SvgjsPath1187" d="M665.5129058772843 111.50202938642155C 635.0398459098184 111.50202938642155 628.34375 147.52896941895557 628.34375 178.00202938642155" stroke-dasharray="3,3" stroke="#323232" stroke-width="2" fill="none" marker-end="url(#SvgjsMarker1188)"></path></g><g id="SvgjsG1190" transform="translate(433.0129058772843,42.590341140990176)"><path id="SvgjsPath1191" d="M 0 0L 89 0L 105 16L 105 50.91168824543138L 0 50.91168824543138L 0 0Z" stroke="none" fill-opacity="1" fill="#64b5f6"></path><path id="SvgjsPath1192" d="M 89 0L 89 16L 105 16Z" stroke="none" fill-opacity="1" fill="#cdcdcd"></path><path id="SvgjsPath1193" d="M 0 0L 89 0L 105 16L 105 50.91168824543138L 0 50.91168824543138L 0 0Z" stroke="none" fill="none"></path><g id="SvgjsG1194"><text id="SvgjsText1195" font-family="微软雅黑" text-anchor="middle" font-size="13px" width="85px" fill="#323232" font-weight="400" align="middle" lineHeight="125%" anchor="middle" family="微软雅黑" size="13px" weight="400" font-style="" opacity="1" y="15.830844122715689" transform="rotate(0)"><tspan id="SvgjsTspan1196" dy="16" x="52.5"><tspan id="SvgjsTspan1197" style="text-decoration:;font-weight: bold;">着黑色</tspan></tspan></text></g></g><g id="SvgjsG1198"><path id="SvgjsPath1199" d="M485.5129058772843 93.50202938642155C 485.5129058772843 129.28372861940937 521.2629058772843 139.72033015343374 521.2629058772843 175.50202938642155" stroke-dasharray="3,3" stroke="#323232" stroke-width="2" fill="none" marker-end="url(#SvgjsMarker1200)"></path></g><g id="SvgjsG1202" transform="translate(25.01290587728431,555.0461852637059)"><path id="SvgjsPath1203" d="M 0 0L 89 0L 105 16L 105 50.91168824543138L 0 50.91168824543138L 0 0Z" stroke="none" fill-opacity="1" fill="#64b5f6"></path><path id="SvgjsPath1204" d="M 89 0L 89 16L 105 16Z" stroke="none" fill-opacity="1" fill="#cdcdcd"></path><path id="SvgjsPath1205" d="M 0 0L 89 0L 105 16L 105 50.91168824543138L 0 50.91168824543138L 0 0Z" stroke="none" fill="none"></path><g id="SvgjsG1206"><text id="SvgjsText1207" font-family="微软雅黑" text-anchor="middle" font-size="13px" width="85px" fill="#323232" font-weight="400" align="middle" lineHeight="125%" anchor="middle" family="微软雅黑" size="13px" weight="400" font-style="" opacity="1" y="7.830844122715689" transform="rotate(0)"><tspan id="SvgjsTspan1208" dy="16" x="52.5"><tspan id="SvgjsTspan1209" style="text-decoration:;font-weight: bold;">待平衡的</tspan></tspan><tspan id="SvgjsTspan1210" dy="16" x="52.5"><tspan id="SvgjsTspan1211" style="text-decoration:;font-weight: bold;">结点N</tspan></tspan></text></g></g><g id="SvgjsG1212"><path id="SvgjsPath1213" d="M77.51290587728431 555.0461852637059C 77.51290587728431 531.5706657255031 105.0886943502307 530.8042472795481 127.7643049577344 524.7283357293849" stroke-dasharray="3,3" stroke="#323232" stroke-width="2" fill="none" marker-end="url(#SvgjsMarker1214)"></path></g><g id="SvgjsG1216" transform="matrix(0.7071067811865476,0.7071067811865475,-0.7071067811865475,0.7071067811865476,145.51290893554688,500.04617003744056)"><path id="SvgjsPath1217" d="M 0 18C 0 -6 36 -6 36 18C 36 42 0 42 0 18Z" stroke="rgba(0,0,0,1)" stroke-width="5" fill-opacity="1" fill="#000000"></path><g id="SvgjsG1218"><text id="SvgjsText1219" font-family="微软雅黑" text-anchor="middle" font-size="16px" width="16px" fill="#ffffff" font-weight="700" align="middle" lineHeight="125%" anchor="middle" family="微软雅黑" size="16px" weight="700" font-style="" opacity="1" y="6" transform="rotate(0)"></text></g></g><g id="SvgjsG1220" transform="translate(130.0129058772843,511.00202938642155)"><path id="SvgjsPath1221" d="M 0 0L 31 0L 31 29L 0 29Z" stroke="none" fill="none"></path><g id="SvgjsG1222"><text id="SvgjsText1223" font-family="微软雅黑" text-anchor="middle" font-size="16px" width="31px" fill="#ffffff" font-weight="700" align="middle" lineHeight="125%" anchor="middle" family="微软雅黑" size="16px" weight="700" font-style="" opacity="1" y="2.5" transform="rotate(0)"><tspan id="SvgjsTspan1224" dy="20" x="15.5"><tspan id="SvgjsTspan1225" style="text-decoration:;">N</tspan></tspan></text></g></g><g id="SvgjsG1226" transform="matrix(0.7071067811865476,0.7071067811865475,-0.7071067811865475,0.7071067811865476,199.76290893554688,426.5020416194718)"><path id="SvgjsPath1227" d="M 0 18C 0 -6 36 -6 36 18C 36 42 0 42 0 18Z" stroke="rgba(0,0,0,1)" stroke-width="2" fill-opacity="1" fill="#e0e0e0"></path><g id="SvgjsG1228"><text id="SvgjsText1229" font-family="微软雅黑" text-anchor="middle" font-size="16px" width="16px" fill="#000000" font-weight="700" align="middle" lineHeight="125%" anchor="middle" family="微软雅黑" size="16px" weight="700" font-style="" opacity="1" y="6" transform="rotate(0)"></text></g></g><g id="SvgjsG1230" transform="translate(183.0129058772843,434.95787350913724)"><path id="SvgjsPath1231" d="M 0 0L 33.5 0L 33.5 35L 0 35Z" stroke="none" fill="none"></path><g id="SvgjsG1232"><text id="SvgjsText1233" font-family="微软雅黑" text-anchor="middle" font-size="16px" width="34px" fill="#000000" font-weight="700" align="middle" lineHeight="125%" anchor="middle" family="微软雅黑" size="16px" weight="700" font-style="" opacity="1" y="5.5" transform="rotate(0)"><tspan id="SvgjsTspan1234" dy="20" x="17"><tspan id="SvgjsTspan1235" style="text-decoration:;">P</tspan></tspan></text></g></g><g id="SvgjsG1236"><path id="SvgjsPath1237" d="M184.46875 466.4152245962156L156.77259757729337 511.28125" stroke="#000000" stroke-width="2" fill="none"></path></g><g id="SvgjsG1238" transform="matrix(0.7071067811865476,0.7071067811865475,-0.7071067811865475,0.7071067811865476,251.34375,500.04617003744056)"><path id="SvgjsPath1239" d="M 0 18C 0 -6 36 -6 36 18C 36 42 0 42 0 18Z" stroke="rgba(0,0,0,1)" stroke-width="5" fill-opacity="1" fill="#000000"></path><g id="SvgjsG1240"><text id="SvgjsText1241" font-family="微软雅黑" text-anchor="middle" font-size="16px" width="16px" fill="#ffffff" font-weight="700" align="middle" lineHeight="125%" anchor="middle" family="微软雅黑" size="16px" weight="700" font-style="" opacity="1" y="6" transform="rotate(0)"></text></g></g><g id="SvgjsG1242" transform="translate(234.59375,508.50202938642155)"><path id="SvgjsPath1243" d="M 0 0L 33.5 0L 33.5 35L 0 35Z" stroke="none" fill="none"></path><g id="SvgjsG1244"><text id="SvgjsText1245" font-family="微软雅黑" text-anchor="middle" font-size="16px" width="34px" fill="#ffffff" font-weight="700" align="middle" lineHeight="125%" anchor="middle" family="微软雅黑" size="16px" weight="700" font-style="" opacity="1" y="5.5" transform="rotate(0)"><tspan id="SvgjsTspan1246" dy="20" x="17"><tspan id="SvgjsTspan1247" style="text-decoration:;">S</tspan></tspan></text></g></g><g id="SvgjsG1248" transform="matrix(0.7071067811865476,0.7071067811865475,-0.7071067811865475,0.7071067811865476,301.0129089355469,566.5903594905656)"><path id="SvgjsPath1249" d="M 0 18C 0 -6 36 -6 36 18C 36 42 0 42 0 18Z" stroke="rgba(211,47,47,1)" stroke-width="5" fill-opacity="1" fill="#d32f2f"></path><g id="SvgjsG1250"><text id="SvgjsText1251" font-family="微软雅黑" text-anchor="middle" font-size="16px" width="16px" fill="#ffffff" font-weight="700" align="middle" lineHeight="125%" anchor="middle" family="微软雅黑" size="16px" weight="700" font-style="" opacity="1" y="6" transform="rotate(0)"></text></g></g><g id="SvgjsG1252" transform="translate(284.2629058772843,575.0461852637059)"><path id="SvgjsPath1253" d="M 0 0L 33.5 0L 33.5 35L 0 35Z" stroke="none" fill="none"></path><g id="SvgjsG1254"><text id="SvgjsText1255" font-family="微软雅黑" text-anchor="middle" font-size="16px" width="34px" fill="#ffffff" font-weight="700" align="middle" lineHeight="125%" anchor="middle" family="微软雅黑" size="16px" weight="700" font-style="" opacity="1" y="5.5" transform="rotate(0)"><tspan id="SvgjsTspan1256" dy="20" x="17"><tspan id="SvgjsTspan1257" style="text-decoration:;">SR</tspan></tspan></text></g></g><g id="SvgjsG1258" transform="matrix(0.7071067811865476,0.7071067811865475,-0.7071067811865475,0.7071067811865476,207.88790893554688,566.5903594905656)"><path id="SvgjsPath1259" d="M 0 18C 0 -6 36 -6 36 18C 36 42 0 42 0 18Z" stroke="rgba(0,0,0,1)" stroke-width="2" fill-opacity="1" fill="#ffffff"></path><g id="SvgjsG1260"><text id="SvgjsText1261" font-family="微软雅黑" text-anchor="middle" font-size="16px" width="16px" fill="#000000" font-weight="700" align="middle" lineHeight="125%" anchor="middle" family="微软雅黑" size="16px" weight="700" font-style="" opacity="1" y="6" transform="rotate(0)"></text></g></g><g id="SvgjsG1262" transform="translate(191.1379058772843,575.0461852637059)"><path id="SvgjsPath1263" d="M 0 0L 33.5 0L 33.5 35L 0 35Z" stroke="none" fill="none"></path><g id="SvgjsG1264"><text id="SvgjsText1265" font-family="微软雅黑" text-anchor="middle" font-size="16px" width="34px" fill="#000000" font-weight="700" align="middle" lineHeight="125%" anchor="middle" family="微软雅黑" size="16px" weight="700" font-style="" opacity="1" y="5.5" transform="rotate(0)"><tspan id="SvgjsTspan1266" dy="20" x="17"><tspan id="SvgjsTspan1267" style="text-decoration:;">SL</tspan></tspan></text></g></g><g id="SvgjsG1268" transform="matrix(0.7071067811865476,0.7071067811865475,-0.7071067811865475,0.7071067811865476,199.76290893554688,358.0020416194718)"><path id="SvgjsPath1269" d="M 0 18C 0 -6 36 -6 36 18C 36 42 0 42 0 18Z" stroke="rgba(0,0,0,1)" stroke-width="2" fill-opacity="1" fill="#ffffff"></path><g id="SvgjsG1270"><text id="SvgjsText1271" font-family="微软雅黑" text-anchor="middle" font-size="16px" width="16px" fill="#000000" font-weight="700" align="middle" lineHeight="125%" anchor="middle" family="微软雅黑" size="16px" weight="700" font-style="" opacity="1" y="6" transform="rotate(0)"></text></g></g><g id="SvgjsG1272" transform="translate(183.0129058772843,366.45787350913724)"><path id="SvgjsPath1273" d="M 0 0L 33.5 0L 33.5 35L 0 35Z" stroke="none" fill="none"></path><g id="SvgjsG1274"><text id="SvgjsText1275" font-family="微软雅黑" text-anchor="middle" font-size="16px" width="34px" fill="#000000" font-weight="700" align="middle" lineHeight="125%" anchor="middle" family="微软雅黑" size="16px" weight="700" font-style="" opacity="1" y="5.5" transform="rotate(0)"><tspan id="SvgjsTspan1276" dy="20" x="17"><tspan id="SvgjsTspan1277" style="text-decoration:;">G</tspan></tspan></text></g></g><g id="SvgjsG1278"><path id="SvgjsPath1279" d="M199.7629058772843 401.45787350913724L199.7629058772843 418.20787350913724L199.7629058772843 418.20787350913724L199.7629058772843 434.95787350913724" stroke="#323232" stroke-width="2" fill="none"></path></g><g id="SvgjsG1280"><path id="SvgjsPath1281" d="M214.3259623903134 468.515205556881L235.4328516151378 510.28125" stroke="#323232" stroke-width="2" fill="none"></path></g><g id="SvgjsG1282"><path id="SvgjsPath1283" d="M267.149597955711 539.707673563649L284.4613689812138 576.9913507166283" stroke="#323232" stroke-width="2" fill="none"></path></g><g id="SvgjsG1284"><path id="SvgjsPath1285" d="M239.96875 543.28125L223.29698005099522 577.0842249223869" stroke="#323232" stroke-width="2" fill="none"></path></g><g id="SvgjsG1286" transform="matrix(-1,1.2246467991473532e-16,-1.2246467991473532e-16,-1,442.21875,503.9578857421875)"><path id="SvgjsPath1287" d="M 0 10L 10 0L 10 6.6000000000000005L 108 6.6000000000000005L 108 13.4L 10 13.4L 10 20L 0 10Z" stroke="rgba(50,50,50,1)" stroke-width="2" fill-opacity="1" fill="#ffffff"></path><g id="SvgjsG1288"><text id="SvgjsText1289" font-family="微软雅黑" text-anchor="middle" font-size="13px" width="108px" fill="#323232" font-weight="400" align="middle" lineHeight="125%" anchor="middle" family="微软雅黑" size="13px" weight="400" font-style="" opacity="1" y="0.3750000000000009" transform="rotate(0)"></text></g></g><g id="SvgjsG1290" transform="translate(317.21875,445.28125)"><path id="SvgjsPath1291" d="M 0 0L 142 0L 142 41.58831175456862L 0 41.58831175456862Z" stroke="none" fill="none"></path><g id="SvgjsG1292"><text id="SvgjsText1293" font-family="微软雅黑" text-anchor="middle" font-size="13px" width="142px" fill="#323232" font-weight="400" align="middle" lineHeight="125%" anchor="middle" family="微软雅黑" size="13px" weight="400" font-style="" opacity="1" y="3.169155877284311" transform="rotate(0)"><tspan id="SvgjsTspan1294" dy="16" x="71"><tspan id="SvgjsTspan1295" style="text-decoration:;font-weight: bold;">以P支点左旋</tspan></tspan><tspan id="SvgjsTspan1296" dy="16" x="71"><tspan id="SvgjsTspan1297" style="text-decoration:;font-weight: bold;">交换P、S着色，SR着黑</tspan></tspan></text></g></g><g id="SvgjsG1298" transform="translate(666.7629058772843,419.04618526370587)"><path id="SvgjsPath1299" d="M 0 0L 89 0L 105 16L 105 50.91168824543138L 0 50.91168824543138L 0 0Z" stroke="none" fill-opacity="1" fill="#64b5f6"></path><path id="SvgjsPath1300" d="M 89 0L 89 16L 105 16Z" stroke="none" fill-opacity="1" fill="#cdcdcd"></path><path id="SvgjsPath1301" d="M 0 0L 89 0L 105 16L 105 50.91168824543138L 0 50.91168824543138L 0 0Z" stroke="none" fill="none"></path><g id="SvgjsG1302"><text id="SvgjsText1303" font-family="微软雅黑" text-anchor="middle" font-size="13px" width="85px" fill="#323232" font-weight="400" align="middle" lineHeight="125%" anchor="middle" family="微软雅黑" size="13px" weight="400" font-style="" opacity="1" y="15.830844122715689" transform="rotate(0)"><tspan id="SvgjsTspan1304" dy="16" x="52.5"><tspan id="SvgjsTspan1305" style="text-decoration:;font-weight: bold;">着黑色</tspan></tspan></text></g></g><g id="SvgjsG1306" transform="matrix(0.7071067811865476,0.7071067811865475,-0.7071067811865475,0.7071067811865476,629.59375,500.04617003744056)"><path id="SvgjsPath1307" d="M 0 18C 0 -6 36 -6 36 18C 36 42 0 42 0 18Z" stroke="rgba(0,0,0,1)" stroke-width="5" fill-opacity="1" fill="#000000"></path><g id="SvgjsG1308"><text id="SvgjsText1309" font-family="微软雅黑" text-anchor="middle" font-size="16px" width="16px" fill="#ffffff" font-weight="700" align="middle" lineHeight="125%" anchor="middle" family="微软雅黑" size="16px" weight="700" font-style="" opacity="1" y="6" transform="rotate(0)"></text></g></g><g id="SvgjsG1310" transform="translate(614.09375,511.00202938642155)"><path id="SvgjsPath1311" d="M 0 0L 31 0L 31 29L 0 29Z" stroke="none" fill="none"></path><g id="SvgjsG1312"><text id="SvgjsText1313" font-family="微软雅黑" text-anchor="middle" font-size="16px" width="31px" fill="#ffffff" font-weight="700" align="middle" lineHeight="125%" anchor="middle" family="微软雅黑" size="16px" weight="700" font-style="" opacity="1" y="2.5" transform="rotate(0)"><tspan id="SvgjsTspan1314" dy="20" x="15.5"><tspan id="SvgjsTspan1315" style="text-decoration:;">SR</tspan></tspan></text></g></g><g id="SvgjsG1316" transform="matrix(0.7071067811865476,0.7071067811865475,-0.7071067811865475,0.7071067811865476,576.7628784179688,426.5020416194718)"><path id="SvgjsPath1317" d="M 0 18C 0 -6 36 -6 36 18C 36 42 0 42 0 18Z" stroke="rgba(0,0,0,1)" stroke-width="2" fill-opacity="1" fill="#e0e0e0"></path><g id="SvgjsG1318"><text id="SvgjsText1319" font-family="微软雅黑" text-anchor="middle" font-size="16px" width="16px" fill="#000000" font-weight="700" align="middle" lineHeight="125%" anchor="middle" family="微软雅黑" size="16px" weight="700" font-style="" opacity="1" y="6" transform="rotate(0)"></text></g></g><g id="SvgjsG1320" transform="translate(560.0129058772843,434.95787350913724)"><path id="SvgjsPath1321" d="M 0 0L 33.5 0L 33.5 35L 0 35Z" stroke="none" fill="none"></path><g id="SvgjsG1322"><text id="SvgjsText1323" font-family="微软雅黑" text-anchor="middle" font-size="16px" width="34px" fill="#000000" font-weight="700" align="middle" lineHeight="125%" anchor="middle" family="微软雅黑" size="16px" weight="700" font-style="" opacity="1" y="5.5" transform="rotate(0)"><tspan id="SvgjsTspan1324" dy="20" x="17"><tspan id="SvgjsTspan1325" style="text-decoration:;">S</tspan></tspan></text></g></g><g id="SvgjsG1326"><path id="SvgjsPath1327" d="M592.2528241737109 462.02243095489746L613.064510221445 511.69328805903956" stroke="#000000" stroke-width="2" fill="none"></path></g><g id="SvgjsG1328" transform="matrix(0.7071067811865476,0.7071067811865475,-0.7071067811865475,0.7071067811865476,522.5129089355469,500.04617003744056)"><path id="SvgjsPath1329" d="M 0 18C 0 -6 36 -6 36 18C 36 42 0 42 0 18Z" stroke="rgba(0,0,0,1)" stroke-width="5" fill-opacity="1" fill="#000000"></path><g id="SvgjsG1330"><text id="SvgjsText1331" font-family="微软雅黑" text-anchor="middle" font-size="16px" width="16px" fill="#ffffff" font-weight="700" align="middle" lineHeight="125%" anchor="middle" family="微软雅黑" size="16px" weight="700" font-style="" opacity="1" y="6" transform="rotate(0)"></text></g></g><g id="SvgjsG1332" transform="translate(505.7629058772843,508.50202938642155)"><path id="SvgjsPath1333" d="M 0 0L 33.5 0L 33.5 35L 0 35Z" stroke="none" fill="none"></path><g id="SvgjsG1334"><text id="SvgjsText1335" font-family="微软雅黑" text-anchor="middle" font-size="16px" width="34px" fill="#ffffff" font-weight="700" align="middle" lineHeight="125%" anchor="middle" family="微软雅黑" size="16px" weight="700" font-style="" opacity="1" y="5.5" transform="rotate(0)"><tspan id="SvgjsTspan1336" dy="20" x="17"><tspan id="SvgjsTspan1337" style="text-decoration:;">P</tspan></tspan></text></g></g><g id="SvgjsG1338" transform="matrix(0.7071067811865476,0.7071067811865475,-0.7071067811865475,0.7071067811865476,576.7628784179688,574.0461700374406)"><path id="SvgjsPath1339" d="M 0 18C 0 -6 36 -6 36 18C 36 42 0 42 0 18Z" stroke="rgba(0,0,0,1)" stroke-width="2" fill-opacity="1" fill="#ffffff"></path><g id="SvgjsG1340"><text id="SvgjsText1341" font-family="微软雅黑" text-anchor="middle" font-size="16px" width="16px" fill="#000000" font-weight="700" align="middle" lineHeight="125%" anchor="middle" family="微软雅黑" size="16px" weight="700" font-style="" opacity="1" y="6" transform="rotate(0)"></text></g></g><g id="SvgjsG1342" transform="translate(560.0129058772843,582.5020293864216)"><path id="SvgjsPath1343" d="M 0 0L 33.5 0L 33.5 35L 0 35Z" stroke="none" fill="none"></path><g id="SvgjsG1344"><text id="SvgjsText1345" font-family="微软雅黑" text-anchor="middle" font-size="16px" width="34px" fill="#000000" font-weight="700" align="middle" lineHeight="125%" anchor="middle" family="微软雅黑" size="16px" weight="700" font-style="" opacity="1" y="5.5" transform="rotate(0)"><tspan id="SvgjsTspan1346" dy="20" x="17"><tspan id="SvgjsTspan1347" style="text-decoration:;">SL</tspan></tspan></text></g></g><g id="SvgjsG1348" transform="matrix(0.7071067811865476,0.7071067811865475,-0.7071067811865475,0.7071067811865476,576.7628784179688,358.0020416194718)"><path id="SvgjsPath1349" d="M 0 18C 0 -6 36 -6 36 18C 36 42 0 42 0 18Z" stroke="rgba(0,0,0,1)" stroke-width="2" fill-opacity="1" fill="#ffffff"></path><g id="SvgjsG1350"><text id="SvgjsText1351" font-family="微软雅黑" text-anchor="middle" font-size="16px" width="16px" fill="#000000" font-weight="700" align="middle" lineHeight="125%" anchor="middle" family="微软雅黑" size="16px" weight="700" font-style="" opacity="1" y="6" transform="rotate(0)"></text></g></g><g id="SvgjsG1352" transform="translate(560.0129058772843,366.45787350913724)"><path id="SvgjsPath1353" d="M 0 0L 33.5 0L 33.5 35L 0 35Z" stroke="none" fill="none"></path><g id="SvgjsG1354"><text id="SvgjsText1355" font-family="微软雅黑" text-anchor="middle" font-size="16px" width="34px" fill="#000000" font-weight="700" align="middle" lineHeight="125%" anchor="middle" family="微软雅黑" size="16px" weight="700" font-style="" opacity="1" y="5.5" transform="rotate(0)"><tspan id="SvgjsTspan1356" dy="20" x="17"><tspan id="SvgjsTspan1357" style="text-decoration:;">G</tspan></tspan></text></g></g><g id="SvgjsG1358"><path id="SvgjsPath1359" d="M576.7629058772843 401.45787350913724L576.7629058772843 418.20787350913724L576.7629058772843 418.20787350913724L576.7629058772843 434.95787350913724" stroke="#323232" stroke-width="2" fill="none"></path></g><g id="SvgjsG1360"><path id="SvgjsPath1361" d="M563.5607701433257 466.3415573792141L538.6335206357124 509.00944616393565" stroke="#323232" stroke-width="2" fill="none"></path></g><g id="SvgjsG1362"><path id="SvgjsPath1363" d="M535.395173563649 540.462097955711L560.1165274788672 586.0577071353075" stroke="#323232" stroke-width="2" fill="none"></path></g><g id="SvgjsG1364"><path id="SvgjsPath1365" d="M666.7629058772843 444.50202938642155C 636.0427977047584 444.50202938642155 628.34375 480.28192121389566 628.34375 511.00202938642155" stroke-dasharray="3,3" stroke="#323232" stroke-width="2" fill="none" marker-end="url(#SvgjsMarker1366)"></path></g><g id="SvgjsG1368" transform="translate(434.2629058772843,375.5903411409902)"><path id="SvgjsPath1369" d="M 0 0L 89 0L 105 16L 105 50.91168824543138L 0 50.91168824543138L 0 0Z" stroke="none" fill-opacity="1" fill="#64b5f6"></path><path id="SvgjsPath1370" d="M 89 0L 89 16L 105 16Z" stroke="none" fill-opacity="1" fill="#cdcdcd"></path><path id="SvgjsPath1371" d="M 0 0L 89 0L 105 16L 105 50.91168824543138L 0 50.91168824543138L 0 0Z" stroke="none" fill="none"></path><g id="SvgjsG1372"><text id="SvgjsText1373" font-family="微软雅黑" text-anchor="middle" font-size="13px" width="85px" fill="#323232" font-weight="400" align="middle" lineHeight="125%" anchor="middle" family="微软雅黑" size="13px" weight="400" font-style="" opacity="1" y="15.830844122715689" transform="rotate(0)"><tspan id="SvgjsTspan1374" dy="16" x="52.5"><tspan id="SvgjsTspan1375" style="text-decoration:;font-weight: bold;">交换颜色</tspan></tspan></text></g></g><g id="SvgjsG1376"><path id="SvgjsPath1377" d="M486.7629058772843 426.50202938642155C 486.7629058772843 462.28372861940943 522.5129058772843 472.7203301534337 522.5129058772843 508.50202938642155" stroke-dasharray="3,3" stroke="#323232" stroke-width="2" fill="none" marker-end="url(#SvgjsMarker1378)"></path></g><g id="SvgjsG1380"><path id="SvgjsPath1381" d="M486.7629058772843 426.50202938642155C 486.7629058772843 457.5871212321864 528.9278140315195 452.45787350913724 560.0129058772843 452.45787350913724" stroke-dasharray="3,3" stroke="#323232" stroke-width="2" fill="none" marker-end="url(#SvgjsMarker1382)"></path></g><g id="SvgjsG1384" transform="matrix(0.7071067811865476,0.7071067811865475,-0.7071067811865475,0.7071067811865476,475.96875,574.0461700374406)"><path id="SvgjsPath1385" d="M 0 18C 0 -6 36 -6 36 18C 36 42 0 42 0 18Z" stroke="rgba(0,0,0,1)" stroke-width="5" fill-opacity="1" fill="#000000"></path><g id="SvgjsG1386"><text id="SvgjsText1387" font-family="微软雅黑" text-anchor="middle" font-size="16px" width="16px" fill="#ffffff" font-weight="700" align="middle" lineHeight="125%" anchor="middle" family="微软雅黑" size="16px" weight="700" font-style="" opacity="1" y="6" transform="rotate(0)"></text></g></g><g id="SvgjsG1388" transform="translate(460.46875,585.0020293864216)"><path id="SvgjsPath1389" d="M 0 0L 31 0L 31 29L 0 29Z" stroke="none" fill="none"></path><g id="SvgjsG1390"><text id="SvgjsText1391" font-family="微软雅黑" text-anchor="middle" font-size="16px" width="31px" fill="#ffffff" font-weight="700" align="middle" lineHeight="125%" anchor="middle" family="微软雅黑" size="16px" weight="700" font-style="" opacity="1" y="2.5" transform="rotate(0)"><tspan id="SvgjsTspan1392" dy="20" x="15.5"><tspan id="SvgjsTspan1393" style="text-decoration:;">N</tspan></tspan></text></g></g><g id="SvgjsG1394"><path id="SvgjsPath1395" d="M485.01255606367613 585.377010221445L506.3913682617407 542.3749422129633" stroke="#323232" stroke-width="2" fill="none"></path></g></svg>