<svg id="SvgjsSvg1006" width="919.5" height="542.03125" xmlns="http://www.w3.org/2000/svg" version="1.1" xmlns:xlink="http://www.w3.org/1999/xlink" xmlns:svgjs="http://svgjs.com/svgjs"><defs id="SvgjsDefs1007"><marker id="SvgjsMarker1074" markerWidth="16" markerHeight="12" refX="16" refY="6" viewBox="0 0 16 12" orient="auto" markerUnits="userSpaceOnUse" stroke-dasharray="0,0"><path id="SvgjsPath1075" d="M0,2 L14,6 L0,11 L0,2" fill="#323232" stroke="#323232" stroke-width="2"></path></marker><marker id="SvgjsMarker1142" markerWidth="16" markerHeight="12" refX="16" refY="6" viewBox="0 0 16 12" orient="auto" markerUnits="userSpaceOnUse" stroke-dasharray="0,0"><path id="SvgjsPath1143" d="M0,2 L14,6 L0,11 L0,2" fill="#323232" stroke="#323232" stroke-width="2"></path></marker><marker id="SvgjsMarker1298" markerWidth="16" markerHeight="12" refX="16" refY="6" viewBox="0 0 16 12" orient="auto" markerUnits="userSpaceOnUse" stroke-dasharray="0,0"><path id="SvgjsPath1299" d="M0,2 L14,6 L0,11 L0,2" fill="#323232" stroke="#323232" stroke-width="2"></path></marker><marker id="SvgjsMarker1302" markerWidth="16" markerHeight="12" refX="16" refY="6" viewBox="0 0 16 12" orient="auto" markerUnits="userSpaceOnUse" stroke-dasharray="0,0"><path id="SvgjsPath1303" d="M0,2 L14,6 L0,11 L0,2" fill="#323232" stroke="#323232" stroke-width="2"></path></marker></defs><g id="SvgjsG1008" transform="translate(25,160.96875)"><path id="SvgjsPath1009" d="M 42 0L 84 41L 0 41Z" stroke="rgba(50,50,50,1)" stroke-width="2" fill-opacity="1" fill="#ffffff"></path><g id="SvgjsG1010"><text id="SvgjsText1011" font-family="微软雅黑" text-anchor="middle" font-size="13px" width="64px" fill="#323232" font-weight="700" align="middle" lineHeight="125%" anchor="middle" family="微软雅黑" size="13px" weight="700" font-style="" opacity="1" y="16" transform="rotate(0)"><tspan id="SvgjsTspan1012" dy="16" x="42"><tspan id="SvgjsTspan1013" style="text-decoration:;">A</tspan></tspan></text></g></g><g id="SvgjsG1014" transform="matrix(0.7071067811865476,0.7071067811865475,-0.7071067811865475,0.7071067811865476,144,85.01290587728428)"><path id="SvgjsPath1015" d="M 0 18C 0 -6 36 -6 36 18C 36 42 0 42 0 18Z" stroke="rgba(211,47,47,1)" stroke-width="5" fill-opacity="1" fill="#d32f2f"></path><g id="SvgjsG1016"><text id="SvgjsText1017" font-family="微软雅黑" text-anchor="middle" font-size="16px" width="16px" fill="#ffffff" font-weight="700" align="middle" lineHeight="125%" anchor="middle" family="微软雅黑" size="16px" weight="700" font-style="" opacity="1" y="6" transform="rotate(0)"></text></g></g><g id="SvgjsG1018" transform="translate(128.5,95.96875)"><path id="SvgjsPath1019" d="M 0 0L 31 0L 31 29L 0 29Z" stroke="none" fill="none"></path><g id="SvgjsG1020"><text id="SvgjsText1021" font-family="微软雅黑" text-anchor="middle" font-size="16px" width="31px" fill="#ffffff" font-weight="700" align="middle" lineHeight="125%" anchor="middle" family="微软雅黑" size="16px" weight="700" font-style="" opacity="1" y="2.5" transform="rotate(0)"><tspan id="SvgjsTspan1022" dy="20" x="15.5"><tspan id="SvgjsTspan1023" style="text-decoration:;">P</tspan></tspan></text></g></g><g id="SvgjsG1024" transform="matrix(0.7071067811865476,0.7071067811865475,-0.7071067811865475,0.7071067811865476,235,25.01290587728429)"><path id="SvgjsPath1025" d="M 0 18C 0 -6 36 -6 36 18C 36 42 0 42 0 18Z" stroke="rgba(0,0,0,1)" stroke-width="5" fill-opacity="1" fill="#000000"></path><g id="SvgjsG1026"><text id="SvgjsText1027" font-family="微软雅黑" text-anchor="middle" font-size="16px" width="16px" fill="#ffffff" font-weight="700" align="middle" lineHeight="125%" anchor="middle" family="微软雅黑" size="16px" weight="700" font-style="" opacity="1" y="6" transform="rotate(0)"></text></g></g><g id="SvgjsG1028" transform="translate(219.5,35.96875)"><path id="SvgjsPath1029" d="M 0 0L 31 0L 31 29L 0 29Z" stroke="none" fill="none"></path><g id="SvgjsG1030"><text id="SvgjsText1031" font-family="微软雅黑" text-anchor="middle" font-size="16px" width="31px" fill="#ffffff" font-weight="700" align="middle" lineHeight="125%" anchor="middle" family="微软雅黑" size="16px" weight="700" font-style="" opacity="1" y="2.5" transform="rotate(0)"><tspan id="SvgjsTspan1032" dy="20" x="15.5"><tspan id="SvgjsTspan1033" style="text-decoration:;">G</tspan></tspan></text></g></g><g id="SvgjsG1034" transform="matrix(0.7071067811865476,0.7071067811865475,-0.7071067811865475,0.7071067811865476,67,133.01290587728428)"><path id="SvgjsPath1035" d="M 0 18C 0 -6 36 -6 36 18C 36 42 0 42 0 18Z" stroke="rgba(211,47,47,1)" stroke-width="5" fill-opacity="1" fill="#d32f2f"></path><g id="SvgjsG1036"><text id="SvgjsText1037" font-family="微软雅黑" text-anchor="middle" font-size="16px" width="16px" fill="#ffffff" font-weight="700" align="middle" lineHeight="125%" anchor="middle" family="微软雅黑" size="16px" weight="700" font-style="" opacity="1" y="6" transform="rotate(0)"></text></g></g><g id="SvgjsG1038" transform="translate(51.5,143.96875)"><path id="SvgjsPath1039" d="M 0 0L 31 0L 31 29L 0 29Z" stroke="none" fill="none"></path><g id="SvgjsG1040"><text id="SvgjsText1041" font-family="微软雅黑" text-anchor="middle" font-size="16px" width="31px" fill="#ffffff" font-weight="700" align="middle" lineHeight="125%" anchor="middle" family="微软雅黑" size="16px" weight="700" font-style="" opacity="1" y="2.5" transform="rotate(0)"><tspan id="SvgjsTspan1042" dy="20" x="15.5"><tspan id="SvgjsTspan1043" style="text-decoration:;">X</tspan></tspan></text></g></g><g id="SvgjsG1044"><path id="SvgjsPath1045" d="M128.5 121.43721106481678L82.5 148.4245941227157" stroke="#323232" stroke-width="2" fill="none"></path></g><g id="SvgjsG1046"><path id="SvgjsPath1047" d="M158.06030737921412 95.96875L219.5 63.52905737921412" stroke="#323232" stroke-width="2" fill="none"></path></g><g id="SvgjsG1048"><path id="SvgjsPath1049" d="M250.5 64.83044591142203L314.5 96.9512027578483" stroke="#323232" stroke-width="2" fill="none"></path></g><g id="SvgjsG1050" transform="translate(173.91168824543138,137.96875)"><path id="SvgjsPath1051" d="M 42 0L 84 41L 0 41Z" stroke="rgba(50,50,50,1)" stroke-width="2" fill-opacity="1" fill="#ffffff"></path><g id="SvgjsG1052"><text id="SvgjsText1053" font-family="微软雅黑" text-anchor="middle" font-size="13px" width="64px" fill="#323232" font-weight="700" align="middle" lineHeight="125%" anchor="middle" family="微软雅黑" size="13px" weight="700" font-style="" opacity="1" y="16" transform="rotate(0)"><tspan id="SvgjsTspan1054" dy="16" x="42"><tspan id="SvgjsTspan1055" style="text-decoration:;">B</tspan></tspan></text></g></g><g id="SvgjsG1056" transform="translate(288,118.96875)"><path id="SvgjsPath1057" d="M 42 0L 84 41L 0 41Z" stroke="rgba(0,0,0,1)" stroke-width="2" fill-opacity="1" fill="#ffffff"></path><g id="SvgjsG1058"><text id="SvgjsText1059" font-family="微软雅黑" text-anchor="middle" font-size="13px" width="64px" fill="#323232" font-weight="700" align="middle" lineHeight="125%" anchor="middle" family="微软雅黑" size="13px" weight="700" font-style="" opacity="1" y="16" transform="rotate(0)"><tspan id="SvgjsTspan1060" dy="16" x="42"><tspan id="SvgjsTspan1061" style="text-decoration:;">C</tspan></tspan></text></g></g><g id="SvgjsG1062" transform="matrix(0.7071067811865476,0.7071067811865475,-0.7071067811865475,0.7071067811865476,330,85.01290587728428)"><path id="SvgjsPath1063" d="M 0 18C 0 -6 36 -6 36 18C 36 42 0 42 0 18Z" stroke="rgba(211,47,47,1)" stroke-width="5" fill-opacity="1" fill="#d32f2f"></path><g id="SvgjsG1064"><text id="SvgjsText1065" font-family="微软雅黑" text-anchor="middle" font-size="16px" width="16px" fill="#ffffff" font-weight="700" align="middle" lineHeight="125%" anchor="middle" family="微软雅黑" size="16px" weight="700" font-style="" opacity="1" y="6" transform="rotate(0)"></text></g></g><g id="SvgjsG1066" transform="translate(314.5,95.96875)"><path id="SvgjsPath1067" d="M 0 0L 31 0L 31 29L 0 29Z" stroke="none" fill="none"></path><g id="SvgjsG1068"><text id="SvgjsText1069" font-family="微软雅黑" text-anchor="middle" font-size="16px" width="31px" fill="#ffffff" font-weight="700" align="middle" lineHeight="125%" anchor="middle" family="微软雅黑" size="16px" weight="700" font-style="" opacity="1" y="2.5" transform="rotate(0)"><tspan id="SvgjsTspan1070" dy="20" x="15.5"><tspan id="SvgjsTspan1071" style="text-decoration:;">S</tspan></tspan></text></g></g><g id="SvgjsG1072"><path id="SvgjsPath1073" d="M161.18376618407353 118.69667206135784L215.91168824543138 137.96875" stroke="#323232" stroke-width="2" fill="none" marker-end="url(#SvgjsMarker1074)"></path></g><g id="SvgjsG1076" transform="translate(472,118.96875)"><path id="SvgjsPath1077" d="M 42 0L 84 41L 0 41Z" stroke="rgba(0,0,0,1)" stroke-width="2" fill-opacity="1" fill="#ffffff"></path><g id="SvgjsG1078"><text id="SvgjsText1079" font-family="微软雅黑" text-anchor="middle" font-size="13px" width="64px" fill="#323232" font-weight="700" align="middle" lineHeight="125%" anchor="middle" family="微软雅黑" size="13px" weight="700" font-style="" opacity="1" y="16" transform="rotate(0)"><tspan id="SvgjsTspan1080" dy="16" x="42"><tspan id="SvgjsTspan1081" style="text-decoration:;">A</tspan></tspan></text></g></g><g id="SvgjsG1082" transform="matrix(0.7071067811865476,0.7071067811865475,-0.7071067811865475,0.7071067811865476,612,25.01290587728429)"><path id="SvgjsPath1083" d="M 0 18C 0 -6 36 -6 36 18C 36 42 0 42 0 18Z" stroke="rgba(211,47,47,1)" stroke-width="5" fill-opacity="1" fill="#d32f2f"></path><g id="SvgjsG1084"><text id="SvgjsText1085" font-family="微软雅黑" text-anchor="middle" font-size="16px" width="16px" fill="#ffffff" font-weight="700" align="middle" lineHeight="125%" anchor="middle" family="微软雅黑" size="16px" weight="700" font-style="" opacity="1" y="6" transform="rotate(0)"></text></g></g><g id="SvgjsG1086" transform="translate(596.5,35.96875)"><path id="SvgjsPath1087" d="M 0 0L 31 0L 31 29L 0 29Z" stroke="none" fill="none"></path><g id="SvgjsG1088"><text id="SvgjsText1089" font-family="微软雅黑" text-anchor="middle" font-size="16px" width="31px" fill="#ffffff" font-weight="700" align="middle" lineHeight="125%" anchor="middle" family="微软雅黑" size="16px" weight="700" font-style="" opacity="1" y="2.5" transform="rotate(0)"><tspan id="SvgjsTspan1090" dy="20" x="15.5"><tspan id="SvgjsTspan1091" style="text-decoration:;">P</tspan></tspan></text></g></g><g id="SvgjsG1092" transform="matrix(0.7071067811865476,0.7071067811865475,-0.7071067811865475,0.7071067811865476,705,85.01290587728428)"><path id="SvgjsPath1093" d="M 0 18C 0 -6 36 -6 36 18C 36 42 0 42 0 18Z" stroke="rgba(0,0,0,1)" stroke-width="5" fill-opacity="1" fill="#000000"></path><g id="SvgjsG1094"><text id="SvgjsText1095" font-family="微软雅黑" text-anchor="middle" font-size="16px" width="16px" fill="#ffffff" font-weight="700" align="middle" lineHeight="125%" anchor="middle" family="微软雅黑" size="16px" weight="700" font-style="" opacity="1" y="6" transform="rotate(0)"></text></g></g><g id="SvgjsG1096" transform="translate(689.5,95.96875)"><path id="SvgjsPath1097" d="M 0 0L 31 0L 31 29L 0 29Z" stroke="none" fill="none"></path><g id="SvgjsG1098"><text id="SvgjsText1099" font-family="微软雅黑" text-anchor="middle" font-size="16px" width="31px" fill="#ffffff" font-weight="700" align="middle" lineHeight="125%" anchor="middle" family="微软雅黑" size="16px" weight="700" font-style="" opacity="1" y="2.5" transform="rotate(0)"><tspan id="SvgjsTspan1100" dy="20" x="15.5"><tspan id="SvgjsTspan1101" style="text-decoration:;">G</tspan></tspan></text></g></g><g id="SvgjsG1102" transform="matrix(0.7071067811865476,0.7071067811865475,-0.7071067811865475,0.7071067811865476,514,85.01290587728428)"><path id="SvgjsPath1103" d="M 0 18C 0 -6 36 -6 36 18C 36 42 0 42 0 18Z" stroke="rgba(0,0,0,1)" stroke-width="5" fill-opacity="1" fill="#000000"></path><g id="SvgjsG1104"><text id="SvgjsText1105" font-family="微软雅黑" text-anchor="middle" font-size="16px" width="16px" fill="#ffffff" font-weight="700" align="middle" lineHeight="125%" anchor="middle" family="微软雅黑" size="16px" weight="700" font-style="" opacity="1" y="6" transform="rotate(0)"></text></g></g><g id="SvgjsG1106" transform="translate(498.5,95.96875)"><path id="SvgjsPath1107" d="M 0 0L 31 0L 31 29L 0 29Z" stroke="none" fill="none"></path><g id="SvgjsG1108"><text id="SvgjsText1109" font-family="微软雅黑" text-anchor="middle" font-size="16px" width="31px" fill="#ffffff" font-weight="700" align="middle" lineHeight="125%" anchor="middle" family="微软雅黑" size="16px" weight="700" font-style="" opacity="1" y="2.5" transform="rotate(0)"><tspan id="SvgjsTspan1110" dy="20" x="15.5"><tspan id="SvgjsTspan1111" style="text-decoration:;">X</tspan></tspan></text></g></g><g id="SvgjsG1112"><path id="SvgjsPath1113" d="M596.5 61.43721106481678L529.5 100.42459412271569" stroke="#323232" stroke-width="2" fill="none"></path></g><g id="SvgjsG1114"><path id="SvgjsPath1115" d="M627.5 62.78180651302915L689.5 97.97123370946917" stroke="#323232" stroke-width="2" fill="none"></path></g><g id="SvgjsG1116"><path id="SvgjsPath1117" d="M720.5 124.83044591142198L752.5 144.95120275784825" stroke="#323232" stroke-width="2" fill="none"></path></g><g id="SvgjsG1118" transform="translate(584,143.79212649086276)"><path id="SvgjsPath1119" d="M 42 0L 84 41L 0 41Z" stroke="rgba(50,50,50,1)" stroke-width="2" fill-opacity="1" fill="#ffffff"></path><g id="SvgjsG1120"><text id="SvgjsText1121" font-family="微软雅黑" text-anchor="middle" font-size="13px" width="64px" fill="#323232" font-weight="700" align="middle" lineHeight="125%" anchor="middle" family="微软雅黑" size="13px" weight="700" font-style="" opacity="1" y="16" transform="rotate(0)"><tspan id="SvgjsTspan1122" dy="16" x="42"><tspan id="SvgjsTspan1123" style="text-decoration:;">B</tspan></tspan></text></g></g><g id="SvgjsG1124" transform="translate(726,160.96875)"><path id="SvgjsPath1125" d="M 42 0L 84 41L 0 41Z" stroke="rgba(0,0,0,1)" stroke-width="2" fill-opacity="1" fill="#ffffff"></path><g id="SvgjsG1126"><text id="SvgjsText1127" font-family="微软雅黑" text-anchor="middle" font-size="13px" width="64px" fill="#323232" font-weight="700" align="middle" lineHeight="125%" anchor="middle" family="微软雅黑" size="13px" weight="700" font-style="" opacity="1" y="16" transform="rotate(0)"><tspan id="SvgjsTspan1128" dy="16" x="42"><tspan id="SvgjsTspan1129" style="text-decoration:;">C</tspan></tspan></text></g></g><g id="SvgjsG1130" transform="matrix(0.7071067811865476,0.7071067811865475,-0.7071067811865475,0.7071067811865476,768,133.01290587728428)"><path id="SvgjsPath1131" d="M 0 18C 0 -6 36 -6 36 18C 36 42 0 42 0 18Z" stroke="rgba(211,47,47,1)" stroke-width="5" fill-opacity="1" fill="#d32f2f"></path><g id="SvgjsG1132"><text id="SvgjsText1133" font-family="微软雅黑" text-anchor="middle" font-size="16px" width="16px" fill="#ffffff" font-weight="700" align="middle" lineHeight="125%" anchor="middle" family="微软雅黑" size="16px" weight="700" font-style="" opacity="1" y="6" transform="rotate(0)"></text></g></g><g id="SvgjsG1134" transform="translate(752.5,143.96875)"><path id="SvgjsPath1135" d="M 0 0L 31 0L 31 29L 0 29Z" stroke="none" fill="none"></path><g id="SvgjsG1136"><text id="SvgjsText1137" font-family="微软雅黑" text-anchor="middle" font-size="16px" width="31px" fill="#ffffff" font-weight="700" align="middle" lineHeight="125%" anchor="middle" family="微软雅黑" size="16px" weight="700" font-style="" opacity="1" y="2.5" transform="rotate(0)"><tspan id="SvgjsTspan1138" dy="20" x="15.5"><tspan id="SvgjsTspan1139" style="text-decoration:;">S</tspan></tspan></text></g></g><g id="SvgjsG1140"><path id="SvgjsPath1141" d="M689.5 119.87248334128611L625.9999999999995 143.79212649086276" stroke="#323232" stroke-width="2" fill="none" marker-end="url(#SvgjsMarker1142)"></path></g><g id="SvgjsG1144" transform="translate(25,422.96875)"><path id="SvgjsPath1145" d="M 42 0L 84 41L 0 41Z" stroke="rgba(50,50,50,1)" stroke-width="2" fill-opacity="1" fill="#ffffff"></path><g id="SvgjsG1146"><text id="SvgjsText1147" font-family="微软雅黑" text-anchor="middle" font-size="13px" width="64px" fill="#323232" font-weight="700" align="middle" lineHeight="125%" anchor="middle" family="微软雅黑" size="13px" weight="700" font-style="" opacity="1" y="16" transform="rotate(0)"><tspan id="SvgjsTspan1148" dy="16" x="42"><tspan id="SvgjsTspan1149" style="text-decoration:;">A</tspan></tspan></text></g></g><g id="SvgjsG1150" transform="matrix(0.7071067811865476,0.7071067811865475,-0.7071067811865475,0.7071067811865476,144,350.0129058772843)"><path id="SvgjsPath1151" d="M 0 18C 0 -6 36 -6 36 18C 36 42 0 42 0 18Z" stroke="rgba(211,47,47,1)" stroke-width="5" fill-opacity="1" fill="#d32f2f"></path><g id="SvgjsG1152"><text id="SvgjsText1153" font-family="微软雅黑" text-anchor="middle" font-size="16px" width="16px" fill="#ffffff" font-weight="700" align="middle" lineHeight="125%" anchor="middle" family="微软雅黑" size="16px" weight="700" font-style="" opacity="1" y="6" transform="rotate(0)"></text></g></g><g id="SvgjsG1154" transform="translate(128.5,360.96875)"><path id="SvgjsPath1155" d="M 0 0L 31 0L 31 29L 0 29Z" stroke="none" fill="none"></path><g id="SvgjsG1156"><text id="SvgjsText1157" font-family="微软雅黑" text-anchor="middle" font-size="16px" width="31px" fill="#ffffff" font-weight="700" align="middle" lineHeight="125%" anchor="middle" family="微软雅黑" size="16px" weight="700" font-style="" opacity="1" y="2.5" transform="rotate(0)"><tspan id="SvgjsTspan1158" dy="20" x="15.5"><tspan id="SvgjsTspan1159" style="text-decoration:;">P</tspan></tspan></text></g></g><g id="SvgjsG1160" transform="matrix(0.7071067811865476,0.7071067811865475,-0.7071067811865475,0.7071067811865476,239.91168212890625,302.0129058772843)"><path id="SvgjsPath1161" d="M 0 18C 0 -6 36 -6 36 18C 36 42 0 42 0 18Z" stroke="rgba(0,0,0,1)" stroke-width="5" fill-opacity="1" fill="#000000"></path><g id="SvgjsG1162"><text id="SvgjsText1163" font-family="微软雅黑" text-anchor="middle" font-size="16px" width="16px" fill="#ffffff" font-weight="700" align="middle" lineHeight="125%" anchor="middle" family="微软雅黑" size="16px" weight="700" font-style="" opacity="1" y="6" transform="rotate(0)"></text></g></g><g id="SvgjsG1164" transform="translate(224.41168824543138,312.96875)"><path id="SvgjsPath1165" d="M 0 0L 31 0L 31 29L 0 29Z" stroke="none" fill="none"></path><g id="SvgjsG1166"><text id="SvgjsText1167" font-family="微软雅黑" text-anchor="middle" font-size="16px" width="31px" fill="#ffffff" font-weight="700" align="middle" lineHeight="125%" anchor="middle" family="微软雅黑" size="16px" weight="700" font-style="" opacity="1" y="2.5" transform="rotate(0)"><tspan id="SvgjsTspan1168" dy="20" x="15.5"><tspan id="SvgjsTspan1169" style="text-decoration:;">G</tspan></tspan></text></g></g><g id="SvgjsG1170" transform="matrix(0.7071067811865476,0.7071067811865475,-0.7071067811865475,0.7071067811865476,198,404.0129058772843)"><path id="SvgjsPath1171" d="M 0 18C 0 -6 36 -6 36 18C 36 42 0 42 0 18Z" stroke="rgba(211,47,47,1)" stroke-width="5" fill-opacity="1" fill="#d32f2f"></path><g id="SvgjsG1172"><text id="SvgjsText1173" font-family="微软雅黑" text-anchor="middle" font-size="16px" width="16px" fill="#ffffff" font-weight="700" align="middle" lineHeight="125%" anchor="middle" family="微软雅黑" size="16px" weight="700" font-style="" opacity="1" y="6" transform="rotate(0)"></text></g></g><g id="SvgjsG1174" transform="translate(182.5,414.96875)"><path id="SvgjsPath1175" d="M 0 0L 31 0L 31 29L 0 29Z" stroke="none" fill="none"></path><g id="SvgjsG1176"><text id="SvgjsText1177" font-family="微软雅黑" text-anchor="middle" font-size="16px" width="31px" fill="#ffffff" font-weight="700" align="middle" lineHeight="125%" anchor="middle" family="微软雅黑" size="16px" weight="700" font-style="" opacity="1" y="2.5" transform="rotate(0)"><tspan id="SvgjsTspan1178" dy="20" x="15.5"><tspan id="SvgjsTspan1179" style="text-decoration:;">X</tspan></tspan></text></g></g><g id="SvgjsG1180"><path id="SvgjsPath1181" d="M156.67938698740818 389.96875L182.5 419.00402618041005" stroke="#323232" stroke-width="2" fill="none"></path></g><g id="SvgjsG1182"><path id="SvgjsPath1183" d="M158.06030737921412 360.96875L224.41168824543138 340.5290573792141" stroke="#323232" stroke-width="2" fill="none"></path></g><g id="SvgjsG1184"><path id="SvgjsPath1185" d="M255.41168824543138 341.830445911422L314.5 361.95120275784825" stroke="#323232" stroke-width="2" fill="none"></path></g><g id="SvgjsG1186" transform="translate(288,383.96875)"><path id="SvgjsPath1187" d="M 42 0L 84 41L 0 41Z" stroke="rgba(0,0,0,1)" stroke-width="2" fill-opacity="1" fill="#ffffff"></path><g id="SvgjsG1188"><text id="SvgjsText1189" font-family="微软雅黑" text-anchor="middle" font-size="13px" width="64px" fill="#323232" font-weight="700" align="middle" lineHeight="125%" anchor="middle" family="微软雅黑" size="13px" weight="700" font-style="" opacity="1" y="16" transform="rotate(0)"><tspan id="SvgjsTspan1190" dy="16" x="42"><tspan id="SvgjsTspan1191" style="text-decoration:;">C</tspan></tspan></text></g></g><g id="SvgjsG1192" transform="matrix(0.7071067811865476,0.7071067811865475,-0.7071067811865475,0.7071067811865476,330,350.0129058772843)"><path id="SvgjsPath1193" d="M 0 18C 0 -6 36 -6 36 18C 36 42 0 42 0 18Z" stroke="rgba(211,47,47,1)" stroke-width="5" fill-opacity="1" fill="#d32f2f"></path><g id="SvgjsG1194"><text id="SvgjsText1195" font-family="微软雅黑" text-anchor="middle" font-size="16px" width="16px" fill="#ffffff" font-weight="700" align="middle" lineHeight="125%" anchor="middle" family="微软雅黑" size="16px" weight="700" font-style="" opacity="1" y="6" transform="rotate(0)"></text></g></g><g id="SvgjsG1196" transform="translate(314.5,360.96875)"><path id="SvgjsPath1197" d="M 0 0L 31 0L 31 29L 0 29Z" stroke="none" fill="none"></path><g id="SvgjsG1198"><text id="SvgjsText1199" font-family="微软雅黑" text-anchor="middle" font-size="16px" width="31px" fill="#ffffff" font-weight="700" align="middle" lineHeight="125%" anchor="middle" family="微软雅黑" size="16px" weight="700" font-style="" opacity="1" y="2.5" transform="rotate(0)"><tspan id="SvgjsTspan1200" dy="20" x="15.5"><tspan id="SvgjsTspan1201" style="text-decoration:;">S</tspan></tspan></text></g></g><g id="SvgjsG1202"><path id="SvgjsPath1203" d="M128.68376618407353 388.19667206135784L67 422.96875" stroke="#323232" stroke-width="2" fill="none"></path></g><g id="SvgjsG1204" transform="translate(102,472.96875)"><path id="SvgjsPath1205" d="M 42 0L 84 41L 0 41Z" stroke="rgba(50,50,50,1)" stroke-width="2" fill-opacity="1" fill="#ffffff"></path><g id="SvgjsG1206"><text id="SvgjsText1207" font-family="微软雅黑" text-anchor="middle" font-size="13px" width="64px" fill="#323232" font-weight="700" align="middle" lineHeight="125%" anchor="middle" family="微软雅黑" size="13px" weight="700" font-style="" opacity="1" y="16" transform="rotate(0)"><tspan id="SvgjsTspan1208" dy="16" x="42"><tspan id="SvgjsTspan1209" style="text-decoration:;">B1</tspan></tspan></text></g></g><g id="SvgjsG1210" transform="translate(213.4558441227157,472.96875)"><path id="SvgjsPath1211" d="M 42 0L 84 41L 0 41Z" stroke="rgba(50,50,50,1)" stroke-width="2" fill-opacity="1" fill="#ffffff"></path><g id="SvgjsG1212"><text id="SvgjsText1213" font-family="微软雅黑" text-anchor="middle" font-size="13px" width="64px" fill="#323232" font-weight="700" align="middle" lineHeight="125%" anchor="middle" family="微软雅黑" size="13px" weight="700" font-style="" opacity="1" y="16" transform="rotate(0)"><tspan id="SvgjsTspan1214" dy="16" x="42"><tspan id="SvgjsTspan1215" style="text-decoration:;">B2</tspan></tspan></text></g></g><g id="SvgjsG1216"><path id="SvgjsPath1217" d="M183.8044670937063 443.96875L144 472.96875" stroke="#323232" stroke-width="2" fill="none"></path></g><g id="SvgjsG1218"><path id="SvgjsPath1219" d="M213.5 442.5986923149112L255.4558441227157 472.96875" stroke="#323232" stroke-width="2" fill="none"></path></g><g id="SvgjsG1220" transform="translate(484,448.96875)"><path id="SvgjsPath1221" d="M 42 0L 84 41L 0 41Z" stroke="rgba(50,50,50,1)" stroke-width="2" fill-opacity="1" fill="#ffffff"></path><g id="SvgjsG1222"><text id="SvgjsText1223" font-family="微软雅黑" text-anchor="middle" font-size="13px" width="64px" fill="#323232" font-weight="700" align="middle" lineHeight="125%" anchor="middle" family="微软雅黑" size="13px" weight="700" font-style="" opacity="1" y="16" transform="rotate(0)"><tspan id="SvgjsTspan1224" dy="16" x="42"><tspan id="SvgjsTspan1225" style="text-decoration:;">A</tspan></tspan></text></g></g><g id="SvgjsG1226" transform="matrix(0.7071067811865476,0.7071067811865475,-0.7071067811865475,0.7071067811865476,584,379.0129058772843)"><path id="SvgjsPath1227" d="M 0 18C 0 -6 36 -6 36 18C 36 42 0 42 0 18Z" stroke="rgba(0,0,0,1)" stroke-width="5" fill-opacity="1" fill="#000000"></path><g id="SvgjsG1228"><text id="SvgjsText1229" font-family="微软雅黑" text-anchor="middle" font-size="16px" width="16px" fill="#ffffff" font-weight="700" align="middle" lineHeight="125%" anchor="middle" family="微软雅黑" size="16px" weight="700" font-style="" opacity="1" y="6" transform="rotate(0)"></text></g></g><g id="SvgjsG1230" transform="translate(568.5,389.96875)"><path id="SvgjsPath1231" d="M 0 0L 31 0L 31 29L 0 29Z" stroke="none" fill="none"></path><g id="SvgjsG1232"><text id="SvgjsText1233" font-family="微软雅黑" text-anchor="middle" font-size="16px" width="31px" fill="#ffffff" font-weight="700" align="middle" lineHeight="125%" anchor="middle" family="微软雅黑" size="16px" weight="700" font-style="" opacity="1" y="2.5" transform="rotate(0)"><tspan id="SvgjsTspan1234" dy="20" x="15.5"><tspan id="SvgjsTspan1235" style="text-decoration:;">P</tspan></tspan></text></g></g><g id="SvgjsG1236" transform="matrix(0.7071067811865476,0.7071067811865475,-0.7071067811865475,0.7071067811865476,780,379.0129058772843)"><path id="SvgjsPath1237" d="M 0 18C 0 -6 36 -6 36 18C 36 42 0 42 0 18Z" stroke="rgba(0,0,0,1)" stroke-width="5" fill-opacity="1" fill="#000000"></path><g id="SvgjsG1238"><text id="SvgjsText1239" font-family="微软雅黑" text-anchor="middle" font-size="16px" width="16px" fill="#ffffff" font-weight="700" align="middle" lineHeight="125%" anchor="middle" family="微软雅黑" size="16px" weight="700" font-style="" opacity="1" y="6" transform="rotate(0)"></text></g></g><g id="SvgjsG1240" transform="translate(764.5,389.96875)"><path id="SvgjsPath1241" d="M 0 0L 31 0L 31 29L 0 29Z" stroke="none" fill="none"></path><g id="SvgjsG1242"><text id="SvgjsText1243" font-family="微软雅黑" text-anchor="middle" font-size="16px" width="31px" fill="#ffffff" font-weight="700" align="middle" lineHeight="125%" anchor="middle" family="微软雅黑" size="16px" weight="700" font-style="" opacity="1" y="2.5" transform="rotate(0)"><tspan id="SvgjsTspan1244" dy="20" x="15.5"><tspan id="SvgjsTspan1245" style="text-decoration:;">G</tspan></tspan></text></g></g><g id="SvgjsG1246" transform="matrix(0.7071067811865476,0.7071067811865475,-0.7071067811865475,0.7071067811865476,677,325.0129058772843)"><path id="SvgjsPath1247" d="M 0 18C 0 -6 36 -6 36 18C 36 42 0 42 0 18Z" stroke="rgba(211,47,47,1)" stroke-width="5" fill-opacity="1" fill="#d32f2f"></path><g id="SvgjsG1248"><text id="SvgjsText1249" font-family="微软雅黑" text-anchor="middle" font-size="16px" width="16px" fill="#ffffff" font-weight="700" align="middle" lineHeight="125%" anchor="middle" family="微软雅黑" size="16px" weight="700" font-style="" opacity="1" y="6" transform="rotate(0)"></text></g></g><g id="SvgjsG1250" transform="translate(661.5,335.96875)"><path id="SvgjsPath1251" d="M 0 0L 31 0L 31 29L 0 29Z" stroke="none" fill="none"></path><g id="SvgjsG1252"><text id="SvgjsText1253" font-family="微软雅黑" text-anchor="middle" font-size="16px" width="31px" fill="#ffffff" font-weight="700" align="middle" lineHeight="125%" anchor="middle" family="微软雅黑" size="16px" weight="700" font-style="" opacity="1" y="2.5" transform="rotate(0)"><tspan id="SvgjsTspan1254" dy="20" x="15.5"><tspan id="SvgjsTspan1255" style="text-decoration:;">X</tspan></tspan></text></g></g><g id="SvgjsG1256"><path id="SvgjsPath1257" d="M597.6339745962155 389.96875L661.5 363.2099795168564" stroke="#323232" stroke-width="2" fill="none"></path></g><g id="SvgjsG1258"><path id="SvgjsPath1259" d="M692.5 363.44175543853817L764.5 390.76305574540413" stroke="#323232" stroke-width="2" fill="none"></path></g><g id="SvgjsG1260"><path id="SvgjsPath1261" d="M795.5 418.830445911422L837 459.02035480213726" stroke="#323232" stroke-width="2" fill="none"></path></g><g id="SvgjsG1262" transform="translate(810.5,476.037902044289)"><path id="SvgjsPath1263" d="M 42 0L 84 41L 0 41Z" stroke="rgba(0,0,0,1)" stroke-width="2" fill-opacity="1" fill="#ffffff"></path><g id="SvgjsG1264"><text id="SvgjsText1265" font-family="微软雅黑" text-anchor="middle" font-size="13px" width="64px" fill="#323232" font-weight="700" align="middle" lineHeight="125%" anchor="middle" family="微软雅黑" size="13px" weight="700" font-style="" opacity="1" y="16" transform="rotate(0)"><tspan id="SvgjsTspan1266" dy="16" x="42"><tspan id="SvgjsTspan1267" style="text-decoration:;">C</tspan></tspan></text></g></g><g id="SvgjsG1268" transform="matrix(0.7071067811865476,0.7071067811865475,-0.7071067811865475,0.7071067811865476,852.5,447.08205870931556)"><path id="SvgjsPath1269" d="M 0 18C 0 -6 36 -6 36 18C 36 42 0 42 0 18Z" stroke="rgba(211,47,47,1)" stroke-width="5" fill-opacity="1" fill="#d32f2f"></path><g id="SvgjsG1270"><text id="SvgjsText1271" font-family="微软雅黑" text-anchor="middle" font-size="16px" width="16px" fill="#ffffff" font-weight="700" align="middle" lineHeight="125%" anchor="middle" family="微软雅黑" size="16px" weight="700" font-style="" opacity="1" y="6" transform="rotate(0)"></text></g></g><g id="SvgjsG1272" transform="translate(837,458.037902044289)"><path id="SvgjsPath1273" d="M 0 0L 31 0L 31 29L 0 29Z" stroke="none" fill="none"></path><g id="SvgjsG1274"><text id="SvgjsText1275" font-family="微软雅黑" text-anchor="middle" font-size="16px" width="31px" fill="#ffffff" font-weight="700" align="middle" lineHeight="125%" anchor="middle" family="微软雅黑" size="16px" weight="700" font-style="" opacity="1" y="2.5" transform="rotate(0)"><tspan id="SvgjsTspan1276" dy="20" x="15.5"><tspan id="SvgjsTspan1277" style="text-decoration:;">S</tspan></tspan></text></g></g><g id="SvgjsG1278"><path id="SvgjsPath1279" d="M570.772077938642 414.19667206135784L526 448.96875" stroke="#323232" stroke-width="2" fill="none"></path></g><g id="SvgjsG1280" transform="translate(584,448.96875)"><path id="SvgjsPath1281" d="M 42 0L 84 41L 0 41Z" stroke="rgba(50,50,50,1)" stroke-width="2" fill-opacity="1" fill="#ffffff"></path><g id="SvgjsG1282"><text id="SvgjsText1283" font-family="微软雅黑" text-anchor="middle" font-size="13px" width="64px" fill="#323232" font-weight="700" align="middle" lineHeight="125%" anchor="middle" family="微软雅黑" size="13px" weight="700" font-style="" opacity="1" y="16" transform="rotate(0)"><tspan id="SvgjsTspan1284" dy="16" x="42"><tspan id="SvgjsTspan1285" style="text-decoration:;">B1</tspan></tspan></text></g></g><g id="SvgjsG1286" transform="translate(694.0441558772839,448.96875)"><path id="SvgjsPath1287" d="M 42 0L 84 41L 0 41Z" stroke="rgba(50,50,50,1)" stroke-width="2" fill-opacity="1" fill="#ffffff"></path><g id="SvgjsG1288"><text id="SvgjsText1289" font-family="微软雅黑" text-anchor="middle" font-size="13px" width="64px" fill="#323232" font-weight="700" align="middle" lineHeight="125%" anchor="middle" family="微软雅黑" size="13px" weight="700" font-style="" opacity="1" y="16" transform="rotate(0)"><tspan id="SvgjsTspan1290" dy="16" x="42"><tspan id="SvgjsTspan1291" style="text-decoration:;">B2</tspan></tspan></text></g></g><g id="SvgjsG1292"><path id="SvgjsPath1293" d="M598.5 418.96875L626 448.96875" stroke="#323232" stroke-width="2" fill="none"></path></g><g id="SvgjsG1294"><path id="SvgjsPath1295" d="M764.5 415.8706737886466L736.0441558772839 448.96875" stroke="#323232" stroke-width="2" fill="none"></path></g><g id="SvgjsG1296"><path id="SvgjsPath1297" d="M400 118.46875L424.5 118.46875L424.5 118.46875L449 118.46875" stroke="#323232" stroke-width="2" fill="none" marker-end="url(#SvgjsMarker1298)"></path></g><g id="SvgjsG1300"><path id="SvgjsPath1301" d="M401 430.46875L423.5 430.46875L423.5 430.46875L446 430.46875" stroke="#323232" stroke-width="2" fill="none" marker-end="url(#SvgjsMarker1302)"></path></g></svg>