<svg id="SvgjsSvg1304" width="905" height="538.96875" xmlns="http://www.w3.org/2000/svg" version="1.1" xmlns:xlink="http://www.w3.org/1999/xlink" xmlns:svgjs="http://svgjs.com/svgjs"><defs id="SvgjsDefs1305"><marker id="SvgjsMarker1372" markerWidth="16" markerHeight="12" refX="16" refY="6" viewBox="0 0 16 12" orient="auto" markerUnits="userSpaceOnUse" stroke-dasharray="0,0"><path id="SvgjsPath1373" d="M0,2 L14,6 L0,11 L0,2" fill="#323232" stroke="#323232" stroke-width="2"></path></marker><marker id="SvgjsMarker1440" markerWidth="16" markerHeight="12" refX="16" refY="6" viewBox="0 0 16 12" orient="auto" markerUnits="userSpaceOnUse" stroke-dasharray="0,0"><path id="SvgjsPath1441" d="M0,2 L14,6 L0,11 L0,2" fill="#323232" stroke="#323232" stroke-width="2"></path></marker><marker id="SvgjsMarker1596" markerWidth="16" markerHeight="12" refX="16" refY="6" viewBox="0 0 16 12" orient="auto" markerUnits="userSpaceOnUse" stroke-dasharray="0,0"><path id="SvgjsPath1597" d="M0,2 L14,6 L0,11 L0,2" fill="#323232" stroke="#323232" stroke-width="2"></path></marker><marker id="SvgjsMarker1600" markerWidth="16" markerHeight="12" refX="16" refY="6" viewBox="0 0 16 12" orient="auto" markerUnits="userSpaceOnUse" stroke-dasharray="0,0"><path id="SvgjsPath1601" d="M0,2 L14,6 L0,11 L0,2" fill="#323232" stroke="#323232" stroke-width="2"></path></marker></defs><g id="SvgjsG1306" transform="translate(25,160.96875)"><path id="SvgjsPath1307" d="M 42 0L 84 41L 0 41Z" stroke="rgba(50,50,50,1)" stroke-width="2" fill-opacity="1" fill="#ffffff"></path><g id="SvgjsG1308"><text id="SvgjsText1309" font-family="微软雅黑" text-anchor="middle" font-size="13px" width="64px" fill="#323232" font-weight="700" align="middle" lineHeight="125%" anchor="middle" family="微软雅黑" size="13px" weight="700" font-style="" opacity="1" y="16" transform="rotate(0)"><tspan id="SvgjsTspan1310" dy="16" x="42"><tspan id="SvgjsTspan1311" style="text-decoration:;">A</tspan></tspan></text></g></g><g id="SvgjsG1312" transform="matrix(0.7071067811865476,0.7071067811865475,-0.7071067811865475,0.7071067811865476,144,85.01290587728428)"><path id="SvgjsPath1313" d="M 0 18C 0 -6 36 -6 36 18C 36 42 0 42 0 18Z" stroke="rgba(211,47,47,1)" stroke-width="5" fill-opacity="1" fill="#d32f2f"></path><g id="SvgjsG1314"><text id="SvgjsText1315" font-family="微软雅黑" text-anchor="middle" font-size="16px" width="16px" fill="#ffffff" font-weight="700" align="middle" lineHeight="125%" anchor="middle" family="微软雅黑" size="16px" weight="700" font-style="" opacity="1" y="6" transform="rotate(0)"></text></g></g><g id="SvgjsG1316" transform="translate(128.5,95.96875)"><path id="SvgjsPath1317" d="M 0 0L 31 0L 31 29L 0 29Z" stroke="none" fill="none"></path><g id="SvgjsG1318"><text id="SvgjsText1319" font-family="微软雅黑" text-anchor="middle" font-size="16px" width="31px" fill="#ffffff" font-weight="700" align="middle" lineHeight="125%" anchor="middle" family="微软雅黑" size="16px" weight="700" font-style="" opacity="1" y="2.5" transform="rotate(0)"><tspan id="SvgjsTspan1320" dy="20" x="15.5"><tspan id="SvgjsTspan1321" style="text-decoration:;">P</tspan></tspan></text></g></g><g id="SvgjsG1322" transform="matrix(0.7071067811865476,0.7071067811865475,-0.7071067811865475,0.7071067811865476,235,25.01290587728429)"><path id="SvgjsPath1323" d="M 0 18C 0 -6 36 -6 36 18C 36 42 0 42 0 18Z" stroke="rgba(0,0,0,1)" stroke-width="5" fill-opacity="1" fill="#000000"></path><g id="SvgjsG1324"><text id="SvgjsText1325" font-family="微软雅黑" text-anchor="middle" font-size="16px" width="16px" fill="#ffffff" font-weight="700" align="middle" lineHeight="125%" anchor="middle" family="微软雅黑" size="16px" weight="700" font-style="" opacity="1" y="6" transform="rotate(0)"></text></g></g><g id="SvgjsG1326" transform="translate(219.5,35.96875)"><path id="SvgjsPath1327" d="M 0 0L 31 0L 31 29L 0 29Z" stroke="none" fill="none"></path><g id="SvgjsG1328"><text id="SvgjsText1329" font-family="微软雅黑" text-anchor="middle" font-size="16px" width="31px" fill="#ffffff" font-weight="700" align="middle" lineHeight="125%" anchor="middle" family="微软雅黑" size="16px" weight="700" font-style="" opacity="1" y="2.5" transform="rotate(0)"><tspan id="SvgjsTspan1330" dy="20" x="15.5"><tspan id="SvgjsTspan1331" style="text-decoration:;">G</tspan></tspan></text></g></g><g id="SvgjsG1332" transform="matrix(0.7071067811865476,0.7071067811865475,-0.7071067811865475,0.7071067811865476,67,133.01290587728428)"><path id="SvgjsPath1333" d="M 0 18C 0 -6 36 -6 36 18C 36 42 0 42 0 18Z" stroke="rgba(211,47,47,1)" stroke-width="5" fill-opacity="1" fill="#d32f2f"></path><g id="SvgjsG1334"><text id="SvgjsText1335" font-family="微软雅黑" text-anchor="middle" font-size="13px" width="16px" fill="#323232" font-weight="700" align="middle" lineHeight="125%" anchor="middle" family="微软雅黑" size="13px" weight="700" font-style="" opacity="1" y="8.375" transform="rotate(0)"></text></g></g><g id="SvgjsG1336" transform="translate(51.5,143.96875)"><path id="SvgjsPath1337" d="M 0 0L 31 0L 31 29L 0 29Z" stroke="none" fill="none"></path><g id="SvgjsG1338"><text id="SvgjsText1339" font-family="微软雅黑" text-anchor="middle" font-size="16px" width="31px" fill="#ffffff" font-weight="700" align="middle" lineHeight="125%" anchor="middle" family="微软雅黑" size="16px" weight="700" font-style="" opacity="1" y="2.5" transform="rotate(0)"><tspan id="SvgjsTspan1340" dy="20" x="15.5"><tspan id="SvgjsTspan1341" style="text-decoration:;">X</tspan></tspan></text></g></g><g id="SvgjsG1342"><path id="SvgjsPath1343" d="M128.5 121.43721106481678L82.5 148.4245941227157" stroke="#323232" stroke-width="2" fill="none"></path></g><g id="SvgjsG1344"><path id="SvgjsPath1345" d="M158.06030737921412 95.96875L219.5 63.52905737921412" stroke="#323232" stroke-width="2" fill="none"></path></g><g id="SvgjsG1346"><path id="SvgjsPath1347" d="M250.5 64.83044591142203L314.5 96.9512027578483" stroke="#323232" stroke-width="2" fill="none"></path></g><g id="SvgjsG1348" transform="translate(173.91168824543138,137.96875)"><path id="SvgjsPath1349" d="M 42 0L 84 41L 0 41Z" stroke="rgba(50,50,50,1)" stroke-width="2" fill-opacity="1" fill="#ffffff"></path><g id="SvgjsG1350"><text id="SvgjsText1351" font-family="微软雅黑" text-anchor="middle" font-size="13px" width="64px" fill="#323232" font-weight="700" align="middle" lineHeight="125%" anchor="middle" family="微软雅黑" size="13px" weight="700" font-style="" opacity="1" y="16" transform="rotate(0)"><tspan id="SvgjsTspan1352" dy="16" x="42"><tspan id="SvgjsTspan1353" style="text-decoration:;">B</tspan></tspan></text></g></g><g id="SvgjsG1354" transform="translate(288,118.96875)"><path id="SvgjsPath1355" d="M 42 0L 84 41L 0 41Z" stroke="rgba(0,0,0,1)" stroke-width="2" fill-opacity="1" fill="#ffffff"></path><g id="SvgjsG1356"><text id="SvgjsText1357" font-family="微软雅黑" text-anchor="middle" font-size="13px" width="64px" fill="#323232" font-weight="700" align="middle" lineHeight="125%" anchor="middle" family="微软雅黑" size="13px" weight="700" font-style="" opacity="1" y="16" transform="rotate(0)"><tspan id="SvgjsTspan1358" dy="16" x="42"><tspan id="SvgjsTspan1359" style="text-decoration:;">C</tspan></tspan></text></g></g><g id="SvgjsG1360" transform="matrix(0.7071067811865476,0.7071067811865475,-0.7071067811865475,0.7071067811865476,330,85.01290587728428)"><path id="SvgjsPath1361" d="M 0 18C 0 -6 36 -6 36 18C 36 42 0 42 0 18Z" stroke="rgba(0,0,0,1)" stroke-width="5" fill-opacity="1" fill="#000000"></path><g id="SvgjsG1362"><text id="SvgjsText1363" font-family="微软雅黑" text-anchor="middle" font-size="16px" width="16px" fill="#ffffff" font-weight="700" align="middle" lineHeight="125%" anchor="middle" family="微软雅黑" size="16px" weight="700" font-style="" opacity="1" y="6" transform="rotate(0)"></text></g></g><g id="SvgjsG1364" transform="translate(314.5,95.96875)"><path id="SvgjsPath1365" d="M 0 0L 31 0L 31 29L 0 29Z" stroke="none" fill="none"></path><g id="SvgjsG1366"><text id="SvgjsText1367" font-family="微软雅黑" text-anchor="middle" font-size="16px" width="31px" fill="#ffffff" font-weight="700" align="middle" lineHeight="125%" anchor="middle" family="微软雅黑" size="16px" weight="700" font-style="" opacity="1" y="2.5" transform="rotate(0)"><tspan id="SvgjsTspan1368" dy="20" x="15.5"><tspan id="SvgjsTspan1369" style="text-decoration:;">S</tspan></tspan></text></g></g><g id="SvgjsG1370"><path id="SvgjsPath1371" d="M161.18376618407353 118.69667206135784L215.91168824543138 137.96875" stroke="#323232" stroke-width="2" fill="none" marker-end="url(#SvgjsMarker1372)"></path></g><g id="SvgjsG1374" transform="translate(472,118.96875)"><path id="SvgjsPath1375" d="M 42 0L 84 41L 0 41Z" stroke="rgba(50,50,50,1)" stroke-width="2" fill-opacity="1" fill="#ffffff"></path><g id="SvgjsG1376"><text id="SvgjsText1377" font-family="微软雅黑" text-anchor="middle" font-size="13px" width="64px" fill="#323232" font-weight="700" align="middle" lineHeight="125%" anchor="middle" family="微软雅黑" size="13px" weight="700" font-style="" opacity="1" y="16" transform="rotate(0)"><tspan id="SvgjsTspan1378" dy="16" x="42"><tspan id="SvgjsTspan1379" style="text-decoration:;">A</tspan></tspan></text></g></g><g id="SvgjsG1380" transform="matrix(0.7071067811865476,0.7071067811865475,-0.7071067811865475,0.7071067811865476,612,25.01290587728429)"><path id="SvgjsPath1381" d="M 0 18C 0 -6 36 -6 36 18C 36 42 0 42 0 18Z" stroke="rgba(211,47,47,1)" stroke-width="5" fill-opacity="1" fill="#d32f2f"></path><g id="SvgjsG1382"><text id="SvgjsText1383" font-family="微软雅黑" text-anchor="middle" font-size="16px" width="16px" fill="#ffffff" font-weight="700" align="middle" lineHeight="125%" anchor="middle" family="微软雅黑" size="16px" weight="700" font-style="" opacity="1" y="6" transform="rotate(0)"></text></g></g><g id="SvgjsG1384" transform="translate(596.5,35.96875)"><path id="SvgjsPath1385" d="M 0 0L 31 0L 31 29L 0 29Z" stroke="none" fill="none"></path><g id="SvgjsG1386"><text id="SvgjsText1387" font-family="微软雅黑" text-anchor="middle" font-size="16px" width="31px" fill="#ffffff" font-weight="700" align="middle" lineHeight="125%" anchor="middle" family="微软雅黑" size="16px" weight="700" font-style="" opacity="1" y="2.5" transform="rotate(0)"><tspan id="SvgjsTspan1388" dy="20" x="15.5"><tspan id="SvgjsTspan1389" style="text-decoration:;">P</tspan></tspan></text></g></g><g id="SvgjsG1390" transform="matrix(0.7071067811865476,0.7071067811865475,-0.7071067811865475,0.7071067811865476,705,85.01290587728428)"><path id="SvgjsPath1391" d="M 0 18C 0 -6 36 -6 36 18C 36 42 0 42 0 18Z" stroke="rgba(0,0,0,1)" stroke-width="5" fill-opacity="1" fill="#000000"></path><g id="SvgjsG1392"><text id="SvgjsText1393" font-family="微软雅黑" text-anchor="middle" font-size="16px" width="16px" fill="#ffffff" font-weight="700" align="middle" lineHeight="125%" anchor="middle" family="微软雅黑" size="16px" weight="700" font-style="" opacity="1" y="6" transform="rotate(0)"></text></g></g><g id="SvgjsG1394" transform="translate(689.5,95.96875)"><path id="SvgjsPath1395" d="M 0 0L 31 0L 31 29L 0 29Z" stroke="none" fill="none"></path><g id="SvgjsG1396"><text id="SvgjsText1397" font-family="微软雅黑" text-anchor="middle" font-size="16px" width="31px" fill="#ffffff" font-weight="700" align="middle" lineHeight="125%" anchor="middle" family="微软雅黑" size="16px" weight="700" font-style="" opacity="1" y="2.5" transform="rotate(0)"><tspan id="SvgjsTspan1398" dy="20" x="15.5"><tspan id="SvgjsTspan1399" style="text-decoration:;">G</tspan></tspan></text></g></g><g id="SvgjsG1400" transform="matrix(0.7071067811865476,0.7071067811865475,-0.7071067811865475,0.7071067811865476,514,85.01290587728428)"><path id="SvgjsPath1401" d="M 0 18C 0 -6 36 -6 36 18C 36 42 0 42 0 18Z" stroke="rgba(211,47,47,1)" stroke-width="5" fill-opacity="1" fill="#d32f2f"></path><g id="SvgjsG1402"><text id="SvgjsText1403" font-family="微软雅黑" text-anchor="middle" font-size="16px" width="16px" fill="#ffffff" font-weight="700" align="middle" lineHeight="125%" anchor="middle" family="微软雅黑" size="16px" weight="700" font-style="" opacity="1" y="6" transform="rotate(0)"></text></g></g><g id="SvgjsG1404" transform="translate(498.5,95.96875)"><path id="SvgjsPath1405" d="M 0 0L 31 0L 31 29L 0 29Z" stroke="none" fill="none"></path><g id="SvgjsG1406"><text id="SvgjsText1407" font-family="微软雅黑" text-anchor="middle" font-size="16px" width="31px" fill="#ffffff" font-weight="700" align="middle" lineHeight="125%" anchor="middle" family="微软雅黑" size="16px" weight="700" font-style="" opacity="1" y="2.5" transform="rotate(0)"><tspan id="SvgjsTspan1408" dy="20" x="15.5"><tspan id="SvgjsTspan1409" style="text-decoration:;">X</tspan></tspan></text></g></g><g id="SvgjsG1410"><path id="SvgjsPath1411" d="M596.5 61.43721106481678L529.5 100.42459412271569" stroke="#323232" stroke-width="2" fill="none"></path></g><g id="SvgjsG1412"><path id="SvgjsPath1413" d="M627.5 62.78180651302915L689.5 97.97123370946917" stroke="#323232" stroke-width="2" fill="none"></path></g><g id="SvgjsG1414"><path id="SvgjsPath1415" d="M720.5 124.83044591142198L752.5 144.95120275784825" stroke="#323232" stroke-width="2" fill="none"></path></g><g id="SvgjsG1416" transform="translate(584,143.79212649086276)"><path id="SvgjsPath1417" d="M 42 0L 84 41L 0 41Z" stroke="rgba(50,50,50,1)" stroke-width="2" fill-opacity="1" fill="#ffffff"></path><g id="SvgjsG1418"><text id="SvgjsText1419" font-family="微软雅黑" text-anchor="middle" font-size="13px" width="64px" fill="#323232" font-weight="700" align="middle" lineHeight="125%" anchor="middle" family="微软雅黑" size="13px" weight="700" font-style="" opacity="1" y="16" transform="rotate(0)"><tspan id="SvgjsTspan1420" dy="16" x="42"><tspan id="SvgjsTspan1421" style="text-decoration:;">B</tspan></tspan></text></g></g><g id="SvgjsG1422" transform="translate(726,160.96875)"><path id="SvgjsPath1423" d="M 42 0L 84 41L 0 41Z" stroke="rgba(0,0,0,1)" stroke-width="2" fill-opacity="1" fill="#ffffff"></path><g id="SvgjsG1424"><text id="SvgjsText1425" font-family="微软雅黑" text-anchor="middle" font-size="13px" width="64px" fill="#323232" font-weight="700" align="middle" lineHeight="125%" anchor="middle" family="微软雅黑" size="13px" weight="700" font-style="" opacity="1" y="16" transform="rotate(0)"><tspan id="SvgjsTspan1426" dy="16" x="42"><tspan id="SvgjsTspan1427" style="text-decoration:;">C</tspan></tspan></text></g></g><g id="SvgjsG1428" transform="matrix(0.7071067811865476,0.7071067811865475,-0.7071067811865475,0.7071067811865476,768,133.01290587728428)"><path id="SvgjsPath1429" d="M 0 18C 0 -6 36 -6 36 18C 36 42 0 42 0 18Z" stroke="rgba(0,0,0,1)" stroke-width="5" fill-opacity="1" fill="#000000"></path><g id="SvgjsG1430"><text id="SvgjsText1431" font-family="微软雅黑" text-anchor="middle" font-size="13px" width="16px" fill="#323232" font-weight="700" align="middle" lineHeight="125%" anchor="middle" family="微软雅黑" size="13px" weight="700" font-style="" opacity="1" y="8.375" transform="rotate(0)"></text></g></g><g id="SvgjsG1432" transform="translate(752.5,143.96875)"><path id="SvgjsPath1433" d="M 0 0L 31 0L 31 29L 0 29Z" stroke="none" fill="none"></path><g id="SvgjsG1434"><text id="SvgjsText1435" font-family="微软雅黑" text-anchor="middle" font-size="16px" width="31px" fill="#ffffff" font-weight="700" align="middle" lineHeight="125%" anchor="middle" family="微软雅黑" size="16px" weight="700" font-style="" opacity="1" y="2.5" transform="rotate(0)"><tspan id="SvgjsTspan1436" dy="20" x="15.5"><tspan id="SvgjsTspan1437" style="text-decoration:;">S</tspan></tspan></text></g></g><g id="SvgjsG1438"><path id="SvgjsPath1439" d="M689.5 119.87248334128611L625.9999999999995 143.79212649086276" stroke="#323232" stroke-width="2" fill="none" marker-end="url(#SvgjsMarker1440)"></path></g><g id="SvgjsG1442" transform="translate(25,422.96875)"><path id="SvgjsPath1443" d="M 42 0L 84 41L 0 41Z" stroke="rgba(50,50,50,1)" stroke-width="2" fill-opacity="1" fill="#ffffff"></path><g id="SvgjsG1444"><text id="SvgjsText1445" font-family="微软雅黑" text-anchor="middle" font-size="13px" width="64px" fill="#323232" font-weight="700" align="middle" lineHeight="125%" anchor="middle" family="微软雅黑" size="13px" weight="700" font-style="" opacity="1" y="16" transform="rotate(0)"><tspan id="SvgjsTspan1446" dy="16" x="42"><tspan id="SvgjsTspan1447" style="text-decoration:;">A</tspan></tspan></text></g></g><g id="SvgjsG1448" transform="matrix(0.7071067811865476,0.7071067811865475,-0.7071067811865475,0.7071067811865476,144,350.0129058772843)"><path id="SvgjsPath1449" d="M 0 18C 0 -6 36 -6 36 18C 36 42 0 42 0 18Z" stroke="rgba(211,47,47,1)" stroke-width="5" fill-opacity="1" fill="#d32f2f"></path><g id="SvgjsG1450"><text id="SvgjsText1451" font-family="微软雅黑" text-anchor="middle" font-size="16px" width="16px" fill="#ffffff" font-weight="700" align="middle" lineHeight="125%" anchor="middle" family="微软雅黑" size="16px" weight="700" font-style="" opacity="1" y="6" transform="rotate(0)"></text></g></g><g id="SvgjsG1452" transform="translate(128.5,360.96875)"><path id="SvgjsPath1453" d="M 0 0L 31 0L 31 29L 0 29Z" stroke="none" fill="none"></path><g id="SvgjsG1454"><text id="SvgjsText1455" font-family="微软雅黑" text-anchor="middle" font-size="16px" width="31px" fill="#ffffff" font-weight="700" align="middle" lineHeight="125%" anchor="middle" family="微软雅黑" size="16px" weight="700" font-style="" opacity="1" y="2.5" transform="rotate(0)"><tspan id="SvgjsTspan1456" dy="20" x="15.5"><tspan id="SvgjsTspan1457" style="text-decoration:;">P</tspan></tspan></text></g></g><g id="SvgjsG1458" transform="matrix(0.7071067811865476,0.7071067811865475,-0.7071067811865475,0.7071067811865476,235,307.0129058772843)"><path id="SvgjsPath1459" d="M 0 18C 0 -6 36 -6 36 18C 36 42 0 42 0 18Z" stroke="rgba(0,0,0,1)" stroke-width="5" fill-opacity="1" fill="#000000"></path><g id="SvgjsG1460"><text id="SvgjsText1461" font-family="微软雅黑" text-anchor="middle" font-size="16px" width="16px" fill="#ffffff" font-weight="700" align="middle" lineHeight="125%" anchor="middle" family="微软雅黑" size="16px" weight="700" font-style="" opacity="1" y="6" transform="rotate(0)"></text></g></g><g id="SvgjsG1462" transform="translate(219.5,317.96875)"><path id="SvgjsPath1463" d="M 0 0L 31 0L 31 29L 0 29Z" stroke="none" fill="none"></path><g id="SvgjsG1464"><text id="SvgjsText1465" font-family="微软雅黑" text-anchor="middle" font-size="16px" width="31px" fill="#ffffff" font-weight="700" align="middle" lineHeight="125%" anchor="middle" family="微软雅黑" size="16px" weight="700" font-style="" opacity="1" y="2.5" transform="rotate(0)"><tspan id="SvgjsTspan1466" dy="20" x="15.5"><tspan id="SvgjsTspan1467" style="text-decoration:;">G</tspan></tspan></text></g></g><g id="SvgjsG1468" transform="matrix(0.7071067811865476,0.7071067811865475,-0.7071067811865475,0.7071067811865476,198,404.0129058772843)"><path id="SvgjsPath1469" d="M 0 18C 0 -6 36 -6 36 18C 36 42 0 42 0 18Z" stroke="rgba(211,47,47,1)" stroke-width="5" fill-opacity="1" fill="#d32f2f"></path><g id="SvgjsG1470"><text id="SvgjsText1471" font-family="微软雅黑" text-anchor="middle" font-size="16px" width="16px" fill="#ffffff" font-weight="700" align="middle" lineHeight="125%" anchor="middle" family="微软雅黑" size="16px" weight="700" font-style="" opacity="1" y="6" transform="rotate(0)"></text></g></g><g id="SvgjsG1472" transform="translate(182.5,414.96875)"><path id="SvgjsPath1473" d="M 0 0L 31 0L 31 29L 0 29Z" stroke="none" fill="none"></path><g id="SvgjsG1474"><text id="SvgjsText1475" font-family="微软雅黑" text-anchor="middle" font-size="16px" width="31px" fill="#ffffff" font-weight="700" align="middle" lineHeight="125%" anchor="middle" family="微软雅黑" size="16px" weight="700" font-style="" opacity="1" y="2.5" transform="rotate(0)"><tspan id="SvgjsTspan1476" dy="20" x="15.5"><tspan id="SvgjsTspan1477" style="text-decoration:;">X</tspan></tspan></text></g></g><g id="SvgjsG1478"><path id="SvgjsPath1479" d="M156.67938698740818 389.96875L182.5 419.00402618041005" stroke="#323232" stroke-width="2" fill="none"></path></g><g id="SvgjsG1480"><path id="SvgjsPath1481" d="M158.06030737921412 360.96875L219.5 345.5290573792141" stroke="#323232" stroke-width="2" fill="none"></path></g><g id="SvgjsG1482"><path id="SvgjsPath1483" d="M250.5 346.830445911422L314.5 361.95120275784825" stroke="#323232" stroke-width="2" fill="none"></path></g><g id="SvgjsG1484" transform="translate(288,383.96875)"><path id="SvgjsPath1485" d="M 42 0L 84 41L 0 41Z" stroke="rgba(0,0,0,1)" stroke-width="2" fill-opacity="1" fill="#ffffff"></path><g id="SvgjsG1486"><text id="SvgjsText1487" font-family="微软雅黑" text-anchor="middle" font-size="13px" width="64px" fill="#323232" font-weight="700" align="middle" lineHeight="125%" anchor="middle" family="微软雅黑" size="13px" weight="700" font-style="" opacity="1" y="16" transform="rotate(0)"><tspan id="SvgjsTspan1488" dy="16" x="42"><tspan id="SvgjsTspan1489" style="text-decoration:;">C</tspan></tspan></text></g></g><g id="SvgjsG1490" transform="matrix(0.7071067811865476,0.7071067811865475,-0.7071067811865475,0.7071067811865476,330,350.0129058772843)"><path id="SvgjsPath1491" d="M 0 18C 0 -6 36 -6 36 18C 36 42 0 42 0 18Z" stroke="rgba(0,0,0,1)" stroke-width="5" fill-opacity="1" fill="#000000"></path><g id="SvgjsG1492"><text id="SvgjsText1493" font-family="微软雅黑" text-anchor="middle" font-size="16px" width="16px" fill="#ffffff" font-weight="700" align="middle" lineHeight="125%" anchor="middle" family="微软雅黑" size="16px" weight="700" font-style="" opacity="1" y="6" transform="rotate(0)"></text></g></g><g id="SvgjsG1494" transform="translate(314.5,360.96875)"><path id="SvgjsPath1495" d="M 0 0L 31 0L 31 29L 0 29Z" stroke="none" fill="none"></path><g id="SvgjsG1496"><text id="SvgjsText1497" font-family="微软雅黑" text-anchor="middle" font-size="16px" width="31px" fill="#ffffff" font-weight="700" align="middle" lineHeight="125%" anchor="middle" family="微软雅黑" size="16px" weight="700" font-style="" opacity="1" y="2.5" transform="rotate(0)"><tspan id="SvgjsTspan1498" dy="20" x="15.5"><tspan id="SvgjsTspan1499" style="text-decoration:;">S</tspan></tspan></text></g></g><g id="SvgjsG1500"><path id="SvgjsPath1501" d="M128.68376618407353 388.19667206135784L67 422.96875" stroke="#323232" stroke-width="2" fill="none"></path></g><g id="SvgjsG1502" transform="translate(102,472.96875)"><path id="SvgjsPath1503" d="M 42 0L 84 41L 0 41Z" stroke="rgba(50,50,50,1)" stroke-width="2" fill-opacity="1" fill="#ffffff"></path><g id="SvgjsG1504"><text id="SvgjsText1505" font-family="微软雅黑" text-anchor="middle" font-size="13px" width="64px" fill="#323232" font-weight="700" align="middle" lineHeight="125%" anchor="middle" family="微软雅黑" size="13px" weight="700" font-style="" opacity="1" y="16" transform="rotate(0)"><tspan id="SvgjsTspan1506" dy="16" x="42"><tspan id="SvgjsTspan1507" style="text-decoration:;">B1</tspan></tspan></text></g></g><g id="SvgjsG1508" transform="translate(213.4558441227157,472.96875)"><path id="SvgjsPath1509" d="M 42 0L 84 41L 0 41Z" stroke="rgba(50,50,50,1)" stroke-width="2" fill-opacity="1" fill="#ffffff"></path><g id="SvgjsG1510"><text id="SvgjsText1511" font-family="微软雅黑" text-anchor="middle" font-size="13px" width="64px" fill="#323232" font-weight="700" align="middle" lineHeight="125%" anchor="middle" family="微软雅黑" size="13px" weight="700" font-style="" opacity="1" y="16" transform="rotate(0)"><tspan id="SvgjsTspan1512" dy="16" x="42"><tspan id="SvgjsTspan1513" style="text-decoration:;">B2</tspan></tspan></text></g></g><g id="SvgjsG1514"><path id="SvgjsPath1515" d="M183.8044670937063 443.96875L144 472.96875" stroke="#323232" stroke-width="2" fill="none"></path></g><g id="SvgjsG1516"><path id="SvgjsPath1517" d="M213.5 442.5986923149112L255.4558441227157 472.96875" stroke="#323232" stroke-width="2" fill="none"></path></g><g id="SvgjsG1518" transform="translate(484,448.96875)"><path id="SvgjsPath1519" d="M 42 0L 84 41L 0 41Z" stroke="rgba(50,50,50,1)" stroke-width="2" fill-opacity="1" fill="#ffffff"></path><g id="SvgjsG1520"><text id="SvgjsText1521" font-family="微软雅黑" text-anchor="middle" font-size="13px" width="64px" fill="#323232" font-weight="700" align="middle" lineHeight="125%" anchor="middle" family="微软雅黑" size="13px" weight="700" font-style="" opacity="1" y="16" transform="rotate(0)"><tspan id="SvgjsTspan1522" dy="16" x="42"><tspan id="SvgjsTspan1523" style="text-decoration:;">A</tspan></tspan></text></g></g><g id="SvgjsG1524" transform="matrix(0.7071067811865476,0.7071067811865475,-0.7071067811865475,0.7071067811865476,584,379.0129058772843)"><path id="SvgjsPath1525" d="M 0 18C 0 -6 36 -6 36 18C 36 42 0 42 0 18Z" stroke="rgba(211,47,47,1)" stroke-width="5" fill-opacity="1" fill="#d32f2f"></path><g id="SvgjsG1526"><text id="SvgjsText1527" font-family="微软雅黑" text-anchor="middle" font-size="16px" width="16px" fill="#ffffff" font-weight="700" align="middle" lineHeight="125%" anchor="middle" family="微软雅黑" size="16px" weight="700" font-style="" opacity="1" y="6" transform="rotate(0)"></text></g></g><g id="SvgjsG1528" transform="translate(568.5,389.96875)"><path id="SvgjsPath1529" d="M 0 0L 31 0L 31 29L 0 29Z" stroke="none" fill="none"></path><g id="SvgjsG1530"><text id="SvgjsText1531" font-family="微软雅黑" text-anchor="middle" font-size="16px" width="31px" fill="#ffffff" font-weight="700" align="middle" lineHeight="125%" anchor="middle" family="微软雅黑" size="16px" weight="700" font-style="" opacity="1" y="2.5" transform="rotate(0)"><tspan id="SvgjsTspan1532" dy="20" x="15.5"><tspan id="SvgjsTspan1533" style="text-decoration:;">P</tspan></tspan></text></g></g><g id="SvgjsG1534" transform="matrix(0.7071067811865476,0.7071067811865475,-0.7071067811865475,0.7071067811865476,780,379.0129058772843)"><path id="SvgjsPath1535" d="M 0 18C 0 -6 36 -6 36 18C 36 42 0 42 0 18Z" stroke="rgba(211,47,47,1)" stroke-width="5" fill-opacity="1" fill="#d32f2f"></path><g id="SvgjsG1536"><text id="SvgjsText1537" font-family="微软雅黑" text-anchor="middle" font-size="16px" width="16px" fill="#ffffff" font-weight="700" align="middle" lineHeight="125%" anchor="middle" family="微软雅黑" size="16px" weight="700" font-style="" opacity="1" y="6" transform="rotate(0)"></text></g></g><g id="SvgjsG1538" transform="translate(764.5,389.96875)"><path id="SvgjsPath1539" d="M 0 0L 31 0L 31 29L 0 29Z" stroke="none" fill="none"></path><g id="SvgjsG1540"><text id="SvgjsText1541" font-family="微软雅黑" text-anchor="middle" font-size="16px" width="31px" fill="#ffffff" font-weight="700" align="middle" lineHeight="125%" anchor="middle" family="微软雅黑" size="16px" weight="700" font-style="" opacity="1" y="2.5" transform="rotate(0)"><tspan id="SvgjsTspan1542" dy="20" x="15.5"><tspan id="SvgjsTspan1543" style="text-decoration:;">G</tspan></tspan></text></g></g><g id="SvgjsG1544" transform="matrix(0.7071067811865476,0.7071067811865475,-0.7071067811865475,0.7071067811865476,677,325.0129058772843)"><path id="SvgjsPath1545" d="M 0 18C 0 -6 36 -6 36 18C 36 42 0 42 0 18Z" stroke="rgba(0,0,0,1)" stroke-width="5" fill-opacity="1" fill="#000000"></path><g id="SvgjsG1546"><text id="SvgjsText1547" font-family="微软雅黑" text-anchor="middle" font-size="16px" width="16px" fill="#ffffff" font-weight="700" align="middle" lineHeight="125%" anchor="middle" family="微软雅黑" size="16px" weight="700" font-style="" opacity="1" y="6" transform="rotate(0)"></text></g></g><g id="SvgjsG1548" transform="translate(661.5,335.96875)"><path id="SvgjsPath1549" d="M 0 0L 31 0L 31 29L 0 29Z" stroke="none" fill="none"></path><g id="SvgjsG1550"><text id="SvgjsText1551" font-family="微软雅黑" text-anchor="middle" font-size="16px" width="31px" fill="#ffffff" font-weight="700" align="middle" lineHeight="125%" anchor="middle" family="微软雅黑" size="16px" weight="700" font-style="" opacity="1" y="2.5" transform="rotate(0)"><tspan id="SvgjsTspan1552" dy="20" x="15.5"><tspan id="SvgjsTspan1553" style="text-decoration:;">X</tspan></tspan></text></g></g><g id="SvgjsG1554"><path id="SvgjsPath1555" d="M597.6339745962155 389.96875L661.5 363.2099795168564" stroke="#323232" stroke-width="2" fill="none"></path></g><g id="SvgjsG1556"><path id="SvgjsPath1557" d="M692.5 363.44175543853817L764.5 390.76305574540413" stroke="#323232" stroke-width="2" fill="none"></path></g><g id="SvgjsG1558"><path id="SvgjsPath1559" d="M795.5 418.830445911422L822.5 455.95120275784825" stroke="#323232" stroke-width="2" fill="none"></path></g><g id="SvgjsG1560" transform="translate(796,472.96875)"><path id="SvgjsPath1561" d="M 42 0L 84 41L 0 41Z" stroke="rgba(0,0,0,1)" stroke-width="2" fill-opacity="1" fill="#ffffff"></path><g id="SvgjsG1562"><text id="SvgjsText1563" font-family="微软雅黑" text-anchor="middle" font-size="13px" width="64px" fill="#323232" font-weight="700" align="middle" lineHeight="125%" anchor="middle" family="微软雅黑" size="13px" weight="700" font-style="" opacity="1" y="16" transform="rotate(0)"><tspan id="SvgjsTspan1564" dy="16" x="42"><tspan id="SvgjsTspan1565" style="text-decoration:;">C</tspan></tspan></text></g></g><g id="SvgjsG1566" transform="matrix(0.7071067811865476,0.7071067811865475,-0.7071067811865475,0.7071067811865476,838,444.0129058772843)"><path id="SvgjsPath1567" d="M 0 18C 0 -6 36 -6 36 18C 36 42 0 42 0 18Z" stroke="rgba(0,0,0,1)" stroke-width="5" fill-opacity="1" fill="#000000"></path><g id="SvgjsG1568"><text id="SvgjsText1569" font-family="微软雅黑" text-anchor="middle" font-size="13px" width="16px" fill="#323232" font-weight="700" align="middle" lineHeight="125%" anchor="middle" family="微软雅黑" size="13px" weight="700" font-style="" opacity="1" y="8.375" transform="rotate(0)"></text></g></g><g id="SvgjsG1570" transform="translate(822.5,454.96875)"><path id="SvgjsPath1571" d="M 0 0L 31 0L 31 29L 0 29Z" stroke="none" fill="none"></path><g id="SvgjsG1572"><text id="SvgjsText1573" font-family="微软雅黑" text-anchor="middle" font-size="16px" width="31px" fill="#ffffff" font-weight="700" align="middle" lineHeight="125%" anchor="middle" family="微软雅黑" size="16px" weight="700" font-style="" opacity="1" y="2.5" transform="rotate(0)"><tspan id="SvgjsTspan1574" dy="20" x="15.5"><tspan id="SvgjsTspan1575" style="text-decoration:;">S</tspan></tspan></text></g></g><g id="SvgjsG1576"><path id="SvgjsPath1577" d="M570.772077938642 414.19667206135784L526 448.96875" stroke="#323232" stroke-width="2" fill="none"></path></g><g id="SvgjsG1578" transform="translate(584,448.96875)"><path id="SvgjsPath1579" d="M 42 0L 84 41L 0 41Z" stroke="rgba(50,50,50,1)" stroke-width="2" fill-opacity="1" fill="#ffffff"></path><g id="SvgjsG1580"><text id="SvgjsText1581" font-family="微软雅黑" text-anchor="middle" font-size="13px" width="64px" fill="#323232" font-weight="700" align="middle" lineHeight="125%" anchor="middle" family="微软雅黑" size="13px" weight="700" font-style="" opacity="1" y="16" transform="rotate(0)"><tspan id="SvgjsTspan1582" dy="16" x="42"><tspan id="SvgjsTspan1583" style="text-decoration:;">B1</tspan></tspan></text></g></g><g id="SvgjsG1584" transform="translate(694.0441558772839,448.96875)"><path id="SvgjsPath1585" d="M 42 0L 84 41L 0 41Z" stroke="rgba(50,50,50,1)" stroke-width="2" fill-opacity="1" fill="#ffffff"></path><g id="SvgjsG1586"><text id="SvgjsText1587" font-family="微软雅黑" text-anchor="middle" font-size="13px" width="64px" fill="#323232" font-weight="700" align="middle" lineHeight="125%" anchor="middle" family="微软雅黑" size="13px" weight="700" font-style="" opacity="1" y="16" transform="rotate(0)"><tspan id="SvgjsTspan1588" dy="16" x="42"><tspan id="SvgjsTspan1589" style="text-decoration:;">B2</tspan></tspan></text></g></g><g id="SvgjsG1590"><path id="SvgjsPath1591" d="M598.5 418.96875L626 448.96875" stroke="#323232" stroke-width="2" fill="none"></path></g><g id="SvgjsG1592"><path id="SvgjsPath1593" d="M764.5 415.8706737886466L736.0441558772839 448.96875" stroke="#323232" stroke-width="2" fill="none"></path></g><g id="SvgjsG1594"><path id="SvgjsPath1595" d="M400 118.46875L422.5 118.46875L422.5 118.46875L445 118.46875" stroke="#323232" stroke-width="2" fill="none" marker-end="url(#SvgjsMarker1596)"></path></g><g id="SvgjsG1598"><path id="SvgjsPath1599" d="M401 430.46875L423.5 430.46875L423.5 430.46875L446 430.46875" stroke="#323232" stroke-width="2" fill="none" marker-end="url(#SvgjsMarker1600)"></path></g></svg>