<svg id="SvgjsSvg1239" width="933.625" height="511.9375" xmlns="http://www.w3.org/2000/svg" version="1.1" xmlns:xlink="http://www.w3.org/1999/xlink" xmlns:svgjs="http://svgjs.com/svgjs"><defs id="SvgjsDefs1240"><marker id="SvgjsMarker1263" markerWidth="16" markerHeight="12" refX="16" refY="6" viewBox="0 0 16 12" orient="auto" markerUnits="userSpaceOnUse" stroke-dasharray="0,0"><path id="SvgjsPath1264" d="M0,2 L14,6 L0,11 L0,2" fill="#323232" stroke="#323232" stroke-width="2"></path></marker><marker id="SvgjsMarker1267" markerWidth="16" markerHeight="12" refX="16" refY="6" viewBox="0 0 16 12" orient="auto" markerUnits="userSpaceOnUse" stroke-dasharray="0,0"><path id="SvgjsPath1268" d="M0,2 L14,6 L0,11 L0,2" fill="#323232" stroke="#323232" stroke-width="2"></path></marker><marker id="SvgjsMarker1343" markerWidth="16" markerHeight="12" refX="16" refY="6" viewBox="0 0 16 12" orient="auto" markerUnits="userSpaceOnUse" stroke-dasharray="0,0"><path id="SvgjsPath1344" d="M0,2 L14,6 L0,11 L0,2" fill="#323232" stroke="#323232" stroke-width="2"></path></marker><marker id="SvgjsMarker1347" markerWidth="16" markerHeight="12" refX="16" refY="6" viewBox="0 0 16 12" orient="auto" markerUnits="userSpaceOnUse" stroke-dasharray="0,0"><path id="SvgjsPath1348" d="M0,2 L14,6 L0,11 L0,2" fill="#323232" stroke="#323232" stroke-width="2"></path></marker><marker id="SvgjsMarker1351" markerWidth="16" markerHeight="12" refX="16" refY="6" viewBox="0 0 16 12" orient="auto" markerUnits="userSpaceOnUse" stroke-dasharray="0,0"><path id="SvgjsPath1352" d="M0,2 L14,6 L0,11 L0,2" fill="#323232" stroke="#323232" stroke-width="2"></path></marker><marker id="SvgjsMarker1355" markerWidth="16" markerHeight="12" refX="16" refY="6" viewBox="0 0 16 12" orient="auto" markerUnits="userSpaceOnUse" stroke-dasharray="0,0"><path id="SvgjsPath1356" d="M0,2 L14,6 L0,11 L0,2" fill="#323232" stroke="#323232" stroke-width="2"></path></marker><marker id="SvgjsMarker1359" markerWidth="16" markerHeight="12" refX="16" refY="6" viewBox="0 0 16 12" orient="auto" markerUnits="userSpaceOnUse" stroke-dasharray="0,0"><path id="SvgjsPath1360" d="M0,2 L14,6 L0,11 L0,2" fill="#323232" stroke="#323232" stroke-width="2"></path></marker><marker id="SvgjsMarker1363" markerWidth="16" markerHeight="12" refX="16" refY="6" viewBox="0 0 16 12" orient="auto" markerUnits="userSpaceOnUse" stroke-dasharray="0,0"><path id="SvgjsPath1364" d="M0,2 L14,6 L0,11 L0,2" fill="#323232" stroke="#323232" stroke-width="2"></path></marker><marker id="SvgjsMarker1367" markerWidth="16" markerHeight="12" refX="16" refY="6" viewBox="0 0 16 12" orient="auto" markerUnits="userSpaceOnUse" stroke-dasharray="0,0"><path id="SvgjsPath1368" d="M0,2 L14,6 L0,11 L0,2" fill="#323232" stroke="#323232" stroke-width="2"></path></marker><marker id="SvgjsMarker1371" markerWidth="16" markerHeight="12" refX="16" refY="6" viewBox="0 0 16 12" orient="auto" markerUnits="userSpaceOnUse" stroke-dasharray="0,0"><path id="SvgjsPath1372" d="M0,2 L14,6 L0,11 L0,2" fill="#323232" stroke="#323232" stroke-width="2"></path></marker><marker id="SvgjsMarker1375" markerWidth="16" markerHeight="12" refX="16" refY="6" viewBox="0 0 16 12" orient="auto" markerUnits="userSpaceOnUse" stroke-dasharray="0,0"><path id="SvgjsPath1376" d="M0,2 L14,6 L0,11 L0,2" fill="#323232" stroke="#323232" stroke-width="2"></path></marker><marker id="SvgjsMarker1379" markerWidth="16" markerHeight="12" refX="16" refY="6" viewBox="0 0 16 12" orient="auto" markerUnits="userSpaceOnUse" stroke-dasharray="0,0"><path id="SvgjsPath1380" d="M0,2 L14,6 L0,11 L0,2" fill="#323232" stroke="#323232" stroke-width="2"></path></marker><marker id="SvgjsMarker1383" markerWidth="16" markerHeight="12" refX="16" refY="6" viewBox="0 0 16 12" orient="auto" markerUnits="userSpaceOnUse" stroke-dasharray="0,0"><path id="SvgjsPath1384" d="M0,2 L14,6 L0,11 L0,2" fill="#323232" stroke="#323232" stroke-width="2"></path></marker><marker id="SvgjsMarker1387" markerWidth="16" markerHeight="12" refX="16" refY="6" viewBox="0 0 16 12" orient="auto" markerUnits="userSpaceOnUse" stroke-dasharray="0,0"><path id="SvgjsPath1388" d="M0,2 L14,6 L0,11 L0,2" fill="#323232" stroke="#323232" stroke-width="2"></path></marker><marker id="SvgjsMarker1391" markerWidth="16" markerHeight="12" refX="16" refY="6" viewBox="0 0 16 12" orient="auto" markerUnits="userSpaceOnUse" stroke-dasharray="0,0"><path id="SvgjsPath1392" d="M0,2 L14,6 L0,11 L0,2" fill="#323232" stroke="#323232" stroke-width="2"></path></marker><marker id="SvgjsMarker1395" markerWidth="16" markerHeight="12" refX="16" refY="6" viewBox="0 0 16 12" orient="auto" markerUnits="userSpaceOnUse" stroke-dasharray="0,0"><path id="SvgjsPath1396" d="M0,2 L14,6 L0,11 L0,2" fill="#323232" stroke="#323232" stroke-width="2"></path></marker><marker id="SvgjsMarker1399" markerWidth="16" markerHeight="12" refX="16" refY="6" viewBox="0 0 16 12" orient="auto" markerUnits="userSpaceOnUse" stroke-dasharray="0,0"><path id="SvgjsPath1400" d="M0,2 L14,6 L0,11 L0,2" fill="#323232" stroke="#323232" stroke-width="2"></path></marker><marker id="SvgjsMarker1403" markerWidth="16" markerHeight="12" refX="16" refY="6" viewBox="0 0 16 12" orient="auto" markerUnits="userSpaceOnUse" stroke-dasharray="0,0"><path id="SvgjsPath1404" d="M0,2 L14,6 L0,11 L0,2" fill="#323232" stroke="#323232" stroke-width="2"></path></marker><marker id="SvgjsMarker1464" markerWidth="16" markerHeight="12" refX="16" refY="6" viewBox="0 0 16 12" orient="auto" markerUnits="userSpaceOnUse" stroke-dasharray="0,0"><path id="SvgjsPath1465" d="M0,2 L14,6 L0,11 L0,2" fill="#323232" stroke="#323232" stroke-width="2"></path></marker></defs><g id="SvgjsG1241" transform="translate(314.0625,91.9375)"><path id="SvgjsPath1242" d="M 0 0L 172.9375 0L 172.9375 84L 0 84Z" stroke="rgba(255,224,178,1)" stroke-width="2" fill-opacity="1" fill="#ffe0b2"></path><g id="SvgjsG1243"><text id="SvgjsText1244" font-family="微软雅黑" text-anchor="middle" font-size="13px" width="153px" fill="#323232" font-weight="400" align="middle" lineHeight="125%" anchor="middle" family="微软雅黑" size="13px" weight="400" font-style="" opacity="1" y="32.375" transform="rotate(0)"></text></g></g><g id="SvgjsG1245" transform="translate(452.1875,66.125)"><path id="SvgjsPath1246" d="M 0 25.40625C 0 -8.46875 50.8125 -8.46875 50.8125 25.40625C 50.8125 59.28125 0 59.28125 0 25.40625Z" stroke-dasharray="10,6" stroke="rgba(0,0,0,1)" stroke-width="1" fill-opacity="1" fill="#e57373"></path><g id="SvgjsG1247"><text id="SvgjsText1248" font-family="微软雅黑" text-anchor="middle" font-size="13px" width="31px" fill="#323232" font-weight="400" align="middle" lineHeight="125%" anchor="middle" family="微软雅黑" size="13px" weight="400" font-style="" opacity="1" y="15.78125" transform="rotate(0)"></text></g></g><g id="SvgjsG1249" transform="translate(682.0625,197.9375)"><path id="SvgjsPath1250" d="M 0 0L 172.9375 0L 172.9375 84L 0 84Z" stroke="rgba(255,224,178,1)" stroke-width="2" fill-opacity="1" fill="#ffe0b2"></path><g id="SvgjsG1251"><text id="SvgjsText1252" font-family="微软雅黑" text-anchor="middle" font-size="13px" width="153px" fill="#323232" font-weight="400" align="middle" lineHeight="125%" anchor="middle" family="微软雅黑" size="13px" weight="400" font-style="" opacity="1" y="32.375" transform="rotate(0)"></text></g></g><g id="SvgjsG1253" transform="translate(520.0625,280.9375)"><path id="SvgjsPath1254" d="M 0 0L 160.75 0L 160.75 206L 0 206Z" stroke="rgba(187,222,251,1)" stroke-width="2" fill-opacity="1" fill="#bbdefb"></path><g id="SvgjsG1255"><text id="SvgjsText1256" font-family="微软雅黑" text-anchor="middle" font-size="13px" width="141px" fill="#323232" font-weight="400" align="middle" lineHeight="125%" anchor="middle" family="微软雅黑" size="13px" weight="400" font-style="" opacity="1" y="93.375" transform="rotate(0)"></text></g></g><g id="SvgjsG1257" transform="translate(145,175.9375)"><path id="SvgjsPath1258" d="M 0 0L 167.25 0L 167.25 311L 0 311Z" stroke="rgba(187,222,251,1)" stroke-width="2" fill-opacity="1" fill="#bbdefb"></path><g id="SvgjsG1259"><text id="SvgjsText1260" font-family="微软雅黑" text-anchor="middle" font-size="13px" width="148px" fill="#323232" font-weight="400" align="middle" lineHeight="125%" anchor="middle" family="微软雅黑" size="13px" weight="400" font-style="" opacity="1" y="145.875" transform="rotate(0)"></text></g></g><g id="SvgjsG1261"><path id="SvgjsPath1262" d="M147 485.9375L898 485.9375" stroke="#323232" stroke-width="2" fill="none" marker-end="url(#SvgjsMarker1263)"></path></g><g id="SvgjsG1265"><path id="SvgjsPath1266" d="M146 485.9375L146 83.9375" stroke="#323232" stroke-width="2" fill="none" marker-end="url(#SvgjsMarker1267)"></path></g><g id="SvgjsG1269"><path id="SvgjsPath1270" d="M148 175.9375L899 175.9375" stroke-dasharray="3,3" stroke="#323232" stroke-width="2" fill="none"></path></g><g id="SvgjsG1271" transform="translate(136,457.9375)"><path id="SvgjsPath1272" d="M 0 10C 0 -3.3333333333333335 20 -3.3333333333333335 20 10C 20 23.333333333333332 0 23.333333333333332 0 10Z" stroke="none" fill-opacity="1" fill="#323232"></path><g id="SvgjsG1273"><text id="SvgjsText1274" font-family="微软雅黑" text-anchor="middle" font-size="13px" width="60px" fill="#323232" font-weight="400" align="middle" lineHeight="125%" anchor="middle" family="微软雅黑" size="13px" weight="400" font-style="" opacity="1" y="25.375" transform="rotate(0)"></text></g></g><g id="SvgjsG1275" transform="translate(177.3125,437.9375)"><path id="SvgjsPath1276" d="M 0 10C 0 -3.3333333333333335 20 -3.3333333333333335 20 10C 20 23.333333333333332 0 23.333333333333332 0 10Z" stroke="none" fill-opacity="1" fill="#323232"></path><g id="SvgjsG1277"><text id="SvgjsText1278" font-family="微软雅黑" text-anchor="middle" font-size="13px" width="60px" fill="#323232" font-weight="400" align="middle" lineHeight="125%" anchor="middle" family="微软雅黑" size="13px" weight="400" font-style="" opacity="1" y="25.375" transform="rotate(0)"></text></g></g><g id="SvgjsG1279" transform="translate(218.625,390.9375)"><path id="SvgjsPath1280" d="M 0 10C 0 -3.3333333333333335 20 -3.3333333333333335 20 10C 20 23.333333333333332 0 23.333333333333332 0 10Z" stroke="none" fill-opacity="1" fill="#323232"></path><g id="SvgjsG1281"><text id="SvgjsText1282" font-family="微软雅黑" text-anchor="middle" font-size="13px" width="60px" fill="#323232" font-weight="400" align="middle" lineHeight="125%" anchor="middle" family="微软雅黑" size="13px" weight="400" font-style="" opacity="1" y="25.375" transform="rotate(0)"></text></g></g><g id="SvgjsG1283" transform="translate(259.9375,310.9375)"><path id="SvgjsPath1284" d="M 0 10C 0 -3.3333333333333335 20 -3.3333333333333335 20 10C 20 23.333333333333332 0 23.333333333333332 0 10Z" stroke="none" fill-opacity="1" fill="#323232"></path><g id="SvgjsG1285"><text id="SvgjsText1286" font-family="微软雅黑" text-anchor="middle" font-size="13px" width="60px" fill="#323232" font-weight="400" align="middle" lineHeight="125%" anchor="middle" family="微软雅黑" size="13px" weight="400" font-style="" opacity="1" y="25.375" transform="rotate(0)"></text></g></g><g id="SvgjsG1287" transform="translate(301.25,166.9375)"><path id="SvgjsPath1288" d="M 0 10C 0 -3.3333333333333335 20 -3.3333333333333335 20 10C 20 23.333333333333332 0 23.333333333333332 0 10Z" stroke="none" fill-opacity="1" fill="#323232"></path><g id="SvgjsG1289"><text id="SvgjsText1290" font-family="微软雅黑" text-anchor="middle" font-size="13px" width="60px" fill="#323232" font-weight="400" align="middle" lineHeight="125%" anchor="middle" family="微软雅黑" size="13px" weight="400" font-style="" opacity="1" y="25.375" transform="rotate(0)"></text></g></g><g id="SvgjsG1291" transform="translate(342.5625,145.4375)"><path id="SvgjsPath1292" d="M 0 10C 0 -3.3333333333333335 20 -3.3333333333333335 20 10C 20 23.333333333333332 0 23.333333333333332 0 10Z" stroke="none" fill-opacity="1" fill="#323232"></path><g id="SvgjsG1293"><text id="SvgjsText1294" font-family="微软雅黑" text-anchor="middle" font-size="13px" width="60px" fill="#323232" font-weight="400" align="middle" lineHeight="125%" anchor="middle" family="微软雅黑" size="13px" weight="400" font-style="" opacity="1" y="25.375" transform="rotate(0)"></text></g></g><g id="SvgjsG1295" transform="translate(383.875,123.9375)"><path id="SvgjsPath1296" d="M 0 10C 0 -3.3333333333333335 20 -3.3333333333333335 20 10C 20 23.333333333333332 0 23.333333333333332 0 10Z" stroke="none" fill-opacity="1" fill="#323232"></path><g id="SvgjsG1297"><text id="SvgjsText1298" font-family="微软雅黑" text-anchor="middle" font-size="13px" width="60px" fill="#323232" font-weight="400" align="middle" lineHeight="125%" anchor="middle" family="微软雅黑" size="13px" weight="400" font-style="" opacity="1" y="25.375" transform="rotate(0)"></text></g></g><g id="SvgjsG1299" transform="translate(425.1875,102.4375)"><path id="SvgjsPath1300" d="M 0 10C 0 -3.3333333333333335 20 -3.3333333333333335 20 10C 20 23.333333333333332 0 23.333333333333332 0 10Z" stroke="none" fill-opacity="1" fill="#323232"></path><g id="SvgjsG1301"><text id="SvgjsText1302" font-family="微软雅黑" text-anchor="middle" font-size="13px" width="60px" fill="#323232" font-weight="400" align="middle" lineHeight="125%" anchor="middle" family="微软雅黑" size="13px" weight="400" font-style="" opacity="1" y="25.375" transform="rotate(0)"></text></g></g><g id="SvgjsG1303" transform="translate(466.5,80.9375)"><path id="SvgjsPath1304" d="M 0 10C 0 -3.3333333333333335 20 -3.3333333333333335 20 10C 20 23.333333333333332 0 23.333333333333332 0 10Z" stroke="none" fill-opacity="1" fill="#323232"></path><g id="SvgjsG1305"><text id="SvgjsText1306" font-family="微软雅黑" text-anchor="middle" font-size="13px" width="60px" fill="#323232" font-weight="400" align="middle" lineHeight="125%" anchor="middle" family="微软雅黑" size="13px" weight="400" font-style="" opacity="1" y="25.375" transform="rotate(0)"></text></g></g><g id="SvgjsG1307" transform="translate(507.8125,457.9375)"><path id="SvgjsPath1308" d="M 0 10C 0 -3.3333333333333335 20 -3.3333333333333335 20 10C 20 23.333333333333332 0 23.333333333333332 0 10Z" stroke="none" fill-opacity="1" fill="#323232"></path><g id="SvgjsG1309"><text id="SvgjsText1310" font-family="微软雅黑" text-anchor="middle" font-size="13px" width="60px" fill="#323232" font-weight="400" align="middle" lineHeight="125%" anchor="middle" family="微软雅黑" size="13px" weight="400" font-style="" opacity="1" y="25.375" transform="rotate(0)"></text></g></g><g id="SvgjsG1311"><path id="SvgjsPath1312" d="M148 281.9375L897 281.9375" stroke-dasharray="3,3" stroke="#323232" stroke-width="2" fill="none"></path></g><g id="SvgjsG1313" transform="translate(549.125,437.9375)"><path id="SvgjsPath1314" d="M 0 10C 0 -3.3333333333333335 20 -3.3333333333333335 20 10C 20 23.333333333333332 0 23.333333333333332 0 10Z" stroke="none" fill-opacity="1" fill="#323232"></path><g id="SvgjsG1315"><text id="SvgjsText1316" font-family="微软雅黑" text-anchor="middle" font-size="13px" width="60px" fill="#323232" font-weight="400" align="middle" lineHeight="125%" anchor="middle" family="微软雅黑" size="13px" weight="400" font-style="" opacity="1" y="25.375" transform="rotate(0)"></text></g></g><g id="SvgjsG1317" transform="translate(590.4375,390.9375)"><path id="SvgjsPath1318" d="M 0 10C 0 -3.3333333333333335 20 -3.3333333333333335 20 10C 20 23.333333333333332 0 23.333333333333332 0 10Z" stroke="none" fill-opacity="1" fill="#323232"></path><g id="SvgjsG1319"><text id="SvgjsText1320" font-family="微软雅黑" text-anchor="middle" font-size="13px" width="60px" fill="#323232" font-weight="400" align="middle" lineHeight="125%" anchor="middle" family="微软雅黑" size="13px" weight="400" font-style="" opacity="1" y="25.375" transform="rotate(0)"></text></g></g><g id="SvgjsG1321" transform="translate(631.75,310.9375)"><path id="SvgjsPath1322" d="M 0 10C 0 -3.3333333333333335 20 -3.3333333333333335 20 10C 20 23.333333333333332 0 23.333333333333332 0 10Z" stroke="none" fill-opacity="1" fill="#323232"></path><g id="SvgjsG1323"><text id="SvgjsText1324" font-family="微软雅黑" text-anchor="middle" font-size="13px" width="60px" fill="#323232" font-weight="400" align="middle" lineHeight="125%" anchor="middle" family="微软雅黑" size="13px" weight="400" font-style="" opacity="1" y="25.375" transform="rotate(0)"></text></g></g><g id="SvgjsG1325" transform="translate(673.0625,270.9375)"><path id="SvgjsPath1326" d="M 0 10C 0 -3.3333333333333335 20 -3.3333333333333335 20 10C 20 23.333333333333332 0 23.333333333333332 0 10Z" stroke="none" fill-opacity="1" fill="#323232"></path><g id="SvgjsG1327"><text id="SvgjsText1328" font-family="微软雅黑" text-anchor="middle" font-size="13px" width="60px" fill="#323232" font-weight="400" align="middle" lineHeight="125%" anchor="middle" family="微软雅黑" size="13px" weight="400" font-style="" opacity="1" y="25.375" transform="rotate(0)"></text></g></g><g id="SvgjsG1329" transform="translate(714.375,250.9375)"><path id="SvgjsPath1330" d="M 0 10C 0 -3.3333333333333335 20 -3.3333333333333335 20 10C 20 23.333333333333332 0 23.333333333333332 0 10Z" stroke="none" fill-opacity="1" fill="#323232"></path><g id="SvgjsG1331"><text id="SvgjsText1332" font-family="微软雅黑" text-anchor="middle" font-size="13px" width="60px" fill="#323232" font-weight="400" align="middle" lineHeight="125%" anchor="middle" family="微软雅黑" size="13px" weight="400" font-style="" opacity="1" y="25.375" transform="rotate(0)"></text></g></g><g id="SvgjsG1333" transform="translate(755.6875,230.9375)"><path id="SvgjsPath1334" d="M 0 10C 0 -3.3333333333333335 20 -3.3333333333333335 20 10C 20 23.333333333333332 0 23.333333333333332 0 10Z" stroke="none" fill-opacity="1" fill="#323232"></path><g id="SvgjsG1335"><text id="SvgjsText1336" font-family="微软雅黑" text-anchor="middle" font-size="13px" width="60px" fill="#323232" font-weight="400" align="middle" lineHeight="125%" anchor="middle" family="微软雅黑" size="13px" weight="400" font-style="" opacity="1" y="25.375" transform="rotate(0)"></text></g></g><g id="SvgjsG1337" transform="translate(797,210.9375)"><path id="SvgjsPath1338" d="M 0 10C 0 -3.3333333333333335 20 -3.3333333333333335 20 10C 20 23.333333333333332 0 23.333333333333332 0 10Z" stroke="none" fill-opacity="1" fill="#323232"></path><g id="SvgjsG1339"><text id="SvgjsText1340" font-family="微软雅黑" text-anchor="middle" font-size="13px" width="60px" fill="#323232" font-weight="400" align="middle" lineHeight="125%" anchor="middle" family="微软雅黑" size="13px" weight="400" font-style="" opacity="1" y="25.375" transform="rotate(0)"></text></g></g><g id="SvgjsG1341"><path id="SvgjsPath1342" d="M156 467.9375L179.86788218175522 453.84173977855505" stroke="#323232" stroke-width="2" fill="none" marker-end="url(#SvgjsMarker1343)"></path></g><g id="SvgjsG1345"><path id="SvgjsPath1346" d="M194.24122951685638 441.3055805733027L222.36808057330268 408.1787295168564" stroke="#323232" stroke-width="2" fill="none" marker-end="url(#SvgjsMarker1347)"></path></g><g id="SvgjsG1349"><path id="SvgjsPath1350" d="M234.65584549074345 392.89582783218486L269.9375 330.9375" stroke="#323232" stroke-width="2" fill="none" marker-end="url(#SvgjsMarker1351)"></path></g><g id="SvgjsG1353"><path id="SvgjsPath1354" d="M275.72339182284406 313.2318057454042L311.25 186.9375" stroke="#323232" stroke-width="2" fill="none" marker-end="url(#SvgjsMarker1355)"></path></g><g id="SvgjsG1357"><path id="SvgjsPath1358" d="M321.25 176.9375L345 162.2054491924311" stroke="#323232" stroke-width="2" fill="none" marker-end="url(#SvgjsMarker1359)"></path></g><g id="SvgjsG1361"><path id="SvgjsPath1362" d="M362.5625 155.4375L386.2943057454042 139.660891822844" stroke="#323232" stroke-width="2" fill="none" marker-end="url(#SvgjsMarker1363)"></path></g><g id="SvgjsG1365"><path id="SvgjsPath1366" d="M403.875 133.9375L427.2139380484327 117.10727778440508" stroke="#323232" stroke-width="2" fill="none" marker-end="url(#SvgjsMarker1367)"></path></g><g id="SvgjsG1369"><path id="SvgjsPath1370" d="M445.1875 112.4375L468.86788218175525 96.84173977855505" stroke="#323232" stroke-width="2" fill="none" marker-end="url(#SvgjsMarker1371)"></path></g><g id="SvgjsG1373"><path id="SvgjsPath1374" d="M476.5 100.9375L517.8125 457.9375" stroke="#323232" stroke-width="2" fill="none" marker-end="url(#SvgjsMarker1375)"></path></g><g id="SvgjsG1377"><path id="SvgjsPath1378" d="M527.8125 467.9375L551.5 454.3394237886466" stroke="#323232" stroke-width="2" fill="none" marker-end="url(#SvgjsMarker1379)"></path></g><g id="SvgjsG1381"><path id="SvgjsPath1382" d="M566.28107663889 441.2053547852221L593 407.4733983848622" stroke="#323232" stroke-width="2" fill="none" marker-end="url(#SvgjsMarker1383)"></path></g><g id="SvgjsG1385"><path id="SvgjsPath1386" d="M607.1809221376423 393.96356042997695L641.75 330.9375" stroke="#323232" stroke-width="2" fill="none" marker-end="url(#SvgjsMarker1387)"></path></g><g id="SvgjsG1389"><path id="SvgjsPath1390" d="M648.1339745962156 313.4375L676 287.2054491924311" stroke="#323232" stroke-width="2" fill="none" marker-end="url(#SvgjsMarker1391)"></path></g><g id="SvgjsG1393"><path id="SvgjsPath1394" d="M693.0625 280.9375L717.5 267.3394237886467" stroke="#323232" stroke-width="2" fill="none" marker-end="url(#SvgjsMarker1395)"></path></g><g id="SvgjsG1397"><path id="SvgjsPath1398" d="M734.375 260.9375L757.2943057454041 246.660891822844" stroke="#323232" stroke-width="2" fill="none" marker-end="url(#SvgjsMarker1399)"></path></g><g id="SvgjsG1401"><path id="SvgjsPath1402" d="M775.6875 240.9375L799.8452365234814 228.12488442592672" stroke="#323232" stroke-width="2" fill="none" marker-end="url(#SvgjsMarker1403)"></path></g><g id="SvgjsG1405" transform="translate(25,156.9375)"><path id="SvgjsPath1406" d="M 0 0L 120 0L 120 40L 0 40Z" stroke="none" fill="none"></path><g id="SvgjsG1407"><text id="SvgjsText1408" font-family="微软雅黑" text-anchor="middle" font-size="13px" width="120px" fill="#323232" font-weight="700" align="middle" lineHeight="125%" anchor="middle" family="微软雅黑" size="13px" weight="700" font-style="" opacity="1" y="10.375" transform="rotate(0)"><tspan id="SvgjsTspan1409" dy="16" x="60"><tspan id="SvgjsTspan1410" style="text-decoration:;">假设当前ssthresh</tspan></tspan></text></g></g><g id="SvgjsG1411" transform="translate(25,260.9375)"><path id="SvgjsPath1412" d="M 0 0L 120 0L 120 40L 0 40Z" stroke="none" fill="none"></path><g id="SvgjsG1413"><text id="SvgjsText1414" font-family="微软雅黑" text-anchor="middle" font-size="13px" width="120px" fill="#323232" font-weight="700" align="middle" lineHeight="125%" anchor="middle" family="微软雅黑" size="13px" weight="700" font-style="" opacity="1" y="10.375" transform="rotate(0)"><tspan id="SvgjsTspan1415" dy="16" x="60"><tspan id="SvgjsTspan1416" style="text-decoration:;">更新后的ssthresh</tspan></tspan></text></g></g><g id="SvgjsG1417" transform="translate(317.25,92.4375)"><path id="SvgjsPath1418" d="M 0 0L 82.625 0L 82.625 30L 0 30Z" stroke="none" fill="none"></path><g id="SvgjsG1419"><text id="SvgjsText1420" font-family="微软雅黑" text-anchor="middle" font-size="19px" width="83px" fill="#323232" font-weight="700" align="middle" lineHeight="125%" anchor="middle" family="微软雅黑" size="19px" weight="700" font-style="" opacity="1" y="1.125" transform="rotate(0)"><tspan id="SvgjsTspan1421" dy="23" x="41.5"><tspan id="SvgjsTspan1422" style="text-decoration:;">拥塞避免</tspan></tspan></text></g></g><g id="SvgjsG1423" transform="translate(683.0625,200.9375)"><path id="SvgjsPath1424" d="M 0 0L 82.625 0L 82.625 30L 0 30Z" stroke="none" fill="none"></path><g id="SvgjsG1425"><text id="SvgjsText1426" font-family="微软雅黑" text-anchor="middle" font-size="19px" width="83px" fill="#323232" font-weight="700" align="middle" lineHeight="125%" anchor="middle" family="微软雅黑" size="19px" weight="700" font-style="" opacity="1" y="1.125" transform="rotate(0)"><tspan id="SvgjsTspan1427" dy="23" x="41.5"><tspan id="SvgjsTspan1428" style="text-decoration:;">拥塞避免</tspan></tspan></text></g></g><g id="SvgjsG1429" transform="translate(511.8125,280.9375)"><path id="SvgjsPath1430" d="M 0 0L 82.625 0L 82.625 30L 0 30Z" stroke="none" fill="none"></path><g id="SvgjsG1431"><text id="SvgjsText1432" font-family="微软雅黑" text-anchor="middle" font-size="19px" width="83px" fill="#323232" font-weight="700" align="middle" lineHeight="125%" anchor="middle" family="微软雅黑" size="19px" weight="700" font-style="" opacity="1" y="1.125" transform="rotate(0)"><tspan id="SvgjsTspan1433" dy="23" x="41.5"><tspan id="SvgjsTspan1434" style="text-decoration:;">慢启动</tspan></tspan></text></g></g><g id="SvgjsG1435" transform="translate(140,175.9375)"><path id="SvgjsPath1436" d="M 0 0L 82.625 0L 82.625 30L 0 30Z" stroke="none" fill="none"></path><g id="SvgjsG1437"><text id="SvgjsText1438" font-family="微软雅黑" text-anchor="middle" font-size="19px" width="83px" fill="#323232" font-weight="700" align="middle" lineHeight="125%" anchor="middle" family="微软雅黑" size="19px" weight="700" font-style="" opacity="1" y="1.125" transform="rotate(0)"><tspan id="SvgjsTspan1439" dy="23" x="41.5"><tspan id="SvgjsTspan1440" style="text-decoration:;">慢启动</tspan></tspan></text></g></g><g id="SvgjsG1441" transform="translate(86,51.9375)"><path id="SvgjsPath1442" d="M 0 0L 120 0L 120 40L 0 40Z" stroke="none" fill="none"></path><g id="SvgjsG1443"><text id="SvgjsText1444" font-family="微软雅黑" text-anchor="middle" font-size="15px" width="120px" fill="#323232" font-weight="700" align="middle" lineHeight="125%" anchor="middle" family="微软雅黑" size="15px" weight="700" font-style="" opacity="1" y="9.125" transform="rotate(0)"><tspan id="SvgjsTspan1445" dy="18" x="60"><tspan id="SvgjsTspan1446" style="text-decoration:;">cnwd</tspan></tspan></text></g></g><g id="SvgjsG1447" transform="translate(827.625,446.9375)"><path id="SvgjsPath1448" d="M 0 0L 81.3125 0L 81.3125 40L 0 40Z" stroke="none" fill="none"></path><g id="SvgjsG1449"><text id="SvgjsText1450" font-family="微软雅黑" text-anchor="middle" font-size="15px" width="82px" fill="#323232" font-weight="700" align="middle" lineHeight="125%" anchor="middle" family="微软雅黑" size="15px" weight="700" font-style="" opacity="1" y="9.125" transform="rotate(0)"><tspan id="SvgjsTspan1451" dy="18" x="41"><tspan id="SvgjsTspan1452" style="text-decoration:;">传输</tspan><tspan id="SvgjsTspan1453" style="text-decoration:;font-size: inherit;">轮次</tspan></tspan></text></g></g><g id="SvgjsG1454" transform="translate(591.75,80.9375)"><path id="SvgjsPath1455" d="M 0 0L 85.3125 0L 101.3125 16L 101.3125 54L 0 54L 0 0Z" stroke="none" fill-opacity="1" fill="#e57373"></path><path id="SvgjsPath1456" d="M 85.3125 0L 85.3125 16L 101.3125 16Z" stroke="none" fill-opacity="1" fill="#cdcdcd"></path><path id="SvgjsPath1457" d="M 0 0L 85.3125 0L 101.3125 16L 101.3125 54L 0 54L 0 0Z" stroke="none" fill="none"></path><g id="SvgjsG1458"><text id="SvgjsText1459" font-family="微软雅黑" text-anchor="middle" font-size="13px" width="82px" fill="#ffffff" font-weight="700" align="middle" lineHeight="125%" anchor="middle" family="微软雅黑" size="13px" weight="700" font-style="" opacity="1" y="17.375" transform="rotate(0)"><tspan id="SvgjsTspan1460" dy="16" x="51"><tspan id="SvgjsTspan1461" style="text-decoration:;">发生超时重传</tspan></tspan></text></g></g><g id="SvgjsG1462"><path id="SvgjsPath1463" d="M642.40625 80.9375C 642.40625 25.014223875473817 558.7104711751737 96.40528466751545 503 91.53125" stroke-dasharray="3,3" stroke="#323232" stroke-width="2" fill="none" marker-end="url(#SvgjsMarker1464)"></path></g></svg>