<svg id="SvgjsSvg2663" width="670.96875" height="490" xmlns="http://www.w3.org/2000/svg" version="1.1" xmlns:xlink="http://www.w3.org/1999/xlink" xmlns:svgjs="http://svgjs.com/svgjs"><defs id="SvgjsDefs2664"><marker id="SvgjsMarker2687" markerWidth="16" markerHeight="12" refX="16" refY="6" viewBox="0 0 16 12" orient="auto" markerUnits="userSpaceOnUse" stroke-dasharray="0,0"><path id="SvgjsPath2688" d="M0,2 L14,6 L0,11 L0,2" fill="#323232" stroke="#323232" stroke-width="2"></path></marker><marker id="SvgjsMarker2701" markerWidth="16" markerHeight="12" refX="16" refY="6" viewBox="0 0 16 12" orient="auto" markerUnits="userSpaceOnUse" stroke-dasharray="0,0"><path id="SvgjsPath2702" d="M0,2 L14,6 L0,11 L0,2" fill="#323232" stroke="#323232" stroke-width="2"></path></marker><marker id="SvgjsMarker2715" markerWidth="16" markerHeight="12" refX="16" refY="6" viewBox="0 0 16 12" orient="auto" markerUnits="userSpaceOnUse" stroke-dasharray="0,0"><path id="SvgjsPath2716" d="M0,2 L14,6 L0,11 L0,2" fill="#323232" stroke="#323232" stroke-width="2"></path></marker><marker id="SvgjsMarker2719" markerWidth="16" markerHeight="12" refX="16" refY="6" viewBox="0 0 16 12" orient="auto" markerUnits="userSpaceOnUse" stroke-dasharray="0,0"><path id="SvgjsPath2720" d="M0,2 L14,6 L0,11 L0,2" fill="#323232" stroke="#323232" stroke-width="2"></path></marker><marker id="SvgjsMarker2723" markerWidth="16" markerHeight="12" refX="16" refY="6" viewBox="0 0 16 12" orient="auto" markerUnits="userSpaceOnUse" stroke-dasharray="0,0"><path id="SvgjsPath2724" d="M0,2 L14,6 L0,11 L0,2" fill="#323232" stroke="#323232" stroke-width="2"></path></marker><marker id="SvgjsMarker2764" markerWidth="16" markerHeight="12" refX="16" refY="6" viewBox="0 0 16 12" orient="auto" markerUnits="userSpaceOnUse" stroke-dasharray="0,0"><path id="SvgjsPath2765" d="M0,2 L14,6 L0,11 L0,2" fill="#323232" stroke="#323232" stroke-width="2"></path></marker><marker id="SvgjsMarker2780" markerWidth="16" markerHeight="12" refX="16" refY="6" viewBox="0 0 16 12" orient="auto" markerUnits="userSpaceOnUse" stroke-dasharray="0,0"><path id="SvgjsPath2781" d="M0,2 L14,6 L0,11 L0,2" fill="#323232" stroke="#323232" stroke-width="2"></path></marker><marker id="SvgjsMarker2790" markerWidth="16" markerHeight="12" refX="16" refY="6" viewBox="0 0 16 12" orient="auto" markerUnits="userSpaceOnUse" stroke-dasharray="0,0"><path id="SvgjsPath2791" d="M0,2 L14,6 L0,11 L0,2" fill="#323232" stroke="#323232" stroke-width="2"></path></marker><marker id="SvgjsMarker2806" markerWidth="16" markerHeight="12" refX="16" refY="6" viewBox="0 0 16 12" orient="auto" markerUnits="userSpaceOnUse" stroke-dasharray="0,0"><path id="SvgjsPath2807" d="M0,2 L14,6 L0,11 L0,2" fill="#323232" stroke="#323232" stroke-width="2"></path></marker><marker id="SvgjsMarker2832" markerWidth="16" markerHeight="12" refX="16" refY="6" viewBox="0 0 16 12" orient="auto" markerUnits="userSpaceOnUse" stroke-dasharray="0,0"><path id="SvgjsPath2833" d="M0,2 L14,6 L0,11 L0,2" fill="#323232" stroke="#323232" stroke-width="2"></path></marker><marker id="SvgjsMarker2836" markerWidth="16" markerHeight="12" refX="16" refY="6" viewBox="0 0 16 12" orient="auto" markerUnits="userSpaceOnUse" stroke-dasharray="0,0"><path id="SvgjsPath2837" d="M0,2 L14,6 L0,11 L0,2" fill="#323232" stroke="#323232" stroke-width="2"></path></marker></defs><g id="SvgjsG2665" transform="translate(188.55316197742553,65)"><path id="SvgjsPath2666" d="M 0 0L 20 0L 20 400L 0 400Z" stroke="rgba(50,50,50,1)" stroke-width="2" fill-opacity="1" fill="#ffffff"></path><g id="SvgjsG2667"><text id="SvgjsText2668" font-family="微软雅黑" text-anchor="middle" font-size="13px" width="0px" fill="#323232" font-weight="400" align="middle" lineHeight="125%" anchor="middle" family="微软雅黑" size="13px" weight="400" font-style="" opacity="1" y="190.375" transform="rotate(0)"></text></g></g><g id="SvgjsG2669" transform="translate(141.96875,25)"><path id="SvgjsPath2670" d="M 0 0L 120 0L 120 40L 0 40Z" stroke="none" fill="none"></path><g id="SvgjsG2671"><text id="SvgjsText2672" font-family="微软雅黑" text-anchor="middle" font-size="13px" width="120px" fill="#323232" font-weight="700" align="middle" lineHeight="125%" anchor="middle" family="微软雅黑" size="13px" weight="700" font-style="" opacity="1" y="10.375" transform="rotate(0)"><tspan id="SvgjsTspan2673" dy="16" x="60"><tspan id="SvgjsTspan2674" style="text-decoration:;">SVR-A</tspan></tspan></text></g></g><g id="SvgjsG2675" transform="translate(453.96875,65)"><path id="SvgjsPath2676" d="M 0 0L 18 0L 18 400L 0 400Z" stroke="rgba(50,50,50,1)" stroke-width="2" fill-opacity="1" fill="#ffffff"></path><g id="SvgjsG2677"><text id="SvgjsText2678" font-family="微软雅黑" text-anchor="middle" font-size="13px" width="0" fill="#323232" font-weight="400" align="middle" lineHeight="125%" anchor="middle" family="微软雅黑" size="13px" weight="400" font-style="" opacity="1" y="190.375" transform="rotate(0)"></text></g></g><g id="SvgjsG2679" transform="translate(402.96875,25)"><path id="SvgjsPath2680" d="M 0 0L 120 0L 120 40L 0 40Z" stroke="none" fill="none"></path><g id="SvgjsG2681"><text id="SvgjsText2682" font-family="微软雅黑" text-anchor="middle" font-size="13px" width="120px" fill="#323232" font-weight="700" align="middle" lineHeight="125%" anchor="middle" family="微软雅黑" size="13px" weight="700" font-style="" opacity="1" y="10.375" transform="rotate(0)"><tspan id="SvgjsTspan2683" dy="16" x="60"><tspan id="SvgjsTspan2684" style="text-decoration:;">SVR-B</tspan></tspan></text></g></g><g id="SvgjsG2685"><path id="SvgjsPath2686" d="M209.69058873306886 76.34245197877522L453.96875 108" stroke="#323232" stroke-width="2" fill="none" marker-end="url(#SvgjsMarker2687)"></path></g><g id="SvgjsG2689" transform="translate(29.96875,33)"><path id="SvgjsPath2690" d="M 0 0L 112 0L 128 16L 128 44L 0 44L 0 0Z" stroke="none" fill-opacity="1" fill="#64b5f6"></path><path id="SvgjsPath2691" d="M 112 0L 112 16L 128 16Z" stroke="none" fill-opacity="1" fill="#cdcdcd"></path><path id="SvgjsPath2692" d="M 0 0L 112 0L 128 16L 128 44L 0 44L 0 0Z" stroke="none" fill="none"></path><g id="SvgjsG2693"><text id="SvgjsText2694" font-family="微软雅黑" text-anchor="middle" font-size="13px" width="108px" fill="#ffffff" font-weight="700" align="middle" lineHeight="125%" anchor="middle" family="微软雅黑" size="13px" weight="700" font-style="" opacity="1" y="4.375" transform="rotate(0)"><tspan id="SvgjsTspan2695" dy="16" x="64"><tspan id="SvgjsTspan2696" style="text-decoration:;">主动打开</tspan></tspan><tspan id="SvgjsTspan2697" dy="16" x="64"><tspan id="SvgjsTspan2698" style="text-decoration:;">（active open）</tspan></tspan></text></g></g><g id="SvgjsG2699"><path id="SvgjsPath2700" d="M157.96875 55C 172.94606618147924 55 173.99143381852076 76 188.96875 76" stroke-dasharray="3,3" stroke="#323232" stroke-width="2" fill="none" marker-end="url(#SvgjsMarker2701)"></path></g><g id="SvgjsG2703" transform="translate(517.96875,43)"><path id="SvgjsPath2704" d="M 0 0L 112 0L 128 16L 128 44L 0 44L 0 0Z" stroke="none" fill-opacity="1" fill="#64b5f6"></path><path id="SvgjsPath2705" d="M 112 0L 112 16L 128 16Z" stroke="none" fill-opacity="1" fill="#cdcdcd"></path><path id="SvgjsPath2706" d="M 0 0L 112 0L 128 16L 128 44L 0 44L 0 0Z" stroke="none" fill="none"></path><g id="SvgjsG2707"><text id="SvgjsText2708" font-family="微软雅黑" text-anchor="middle" font-size="13px" width="108px" fill="#ffffff" font-weight="700" align="middle" lineHeight="125%" anchor="middle" family="微软雅黑" size="13px" weight="700" font-style="" opacity="1" y="4.375" transform="rotate(0)"><tspan id="SvgjsTspan2709" dy="16" x="64"><tspan id="SvgjsTspan2710" style="text-decoration:;">被动打开</tspan></tspan><tspan id="SvgjsTspan2711" dy="16" x="64"><tspan id="SvgjsTspan2712" style="text-decoration:;">（passive open）</tspan></tspan></text></g></g><g id="SvgjsG2713"><path id="SvgjsPath2714" d="M517.96875 65C 492.5066212594568 65 497.4308787405432 109.00000000000003 471.96875 109" stroke-dasharray="3,3" stroke="#323232" stroke-width="2" fill="none" marker-end="url(#SvgjsMarker2715)"></path></g><g id="SvgjsG2717"><path id="SvgjsPath2718" d="M453.96875 127L207.96875 153" stroke="#323232" stroke-width="2" fill="none" marker-end="url(#SvgjsMarker2719)"></path></g><g id="SvgjsG2721"><path id="SvgjsPath2722" d="M207.96875 169L453.1423981776669 196.0151922469878" stroke="#323232" stroke-width="2" fill="none" marker-end="url(#SvgjsMarker2723)"></path></g><g id="SvgjsG2725" transform="matrix(0.992546151641322,0.12186934340514748,-0.12186934340514748,0.992546151641322,224.42030564353985,53.91741953650674)"><path id="SvgjsPath2726" d="M 0 0L 200 0L 200 28L 0 28Z" stroke="none" fill="none"></path><g id="SvgjsG2727"><text id="SvgjsText2728" font-family="微软雅黑" text-anchor="middle" font-size="12px" width="200px" fill="#323232" font-weight="700" align="middle" lineHeight="125%" anchor="middle" family="微软雅黑" size="12px" weight="700" font-style="" opacity="1" y="5" transform="rotate(0)"><tspan id="SvgjsTspan2729" dy="15" x="100"><tspan id="SvgjsTspan2730" style="text-decoration:;">SYN 1415531521:1415531521（0）</tspan></tspan></text></g></g><g id="SvgjsG2731" transform="matrix(0.9945218953682733,0.10452846326765346,-0.10452846326765346,0.9945218953682733,279.97995894891983,151.62384713807882)"><path id="SvgjsPath2732" d="M 0 0L 200 0L 200 28L 0 28Z" stroke="none" fill="none"></path><g id="SvgjsG2733"><text id="SvgjsText2734" font-family="微软雅黑" text-anchor="middle" font-size="12px" width="200px" fill="#323232" font-weight="700" align="middle" lineHeight="125%" anchor="middle" family="微软雅黑" size="12px" weight="700" font-style="" opacity="1" y="5" transform="rotate(0)"><tspan id="SvgjsTspan2735" dy="15" x="100"><tspan id="SvgjsTspan2736" style="text-decoration:;">ACK 1823083522</tspan></tspan></text></g></g><g id="SvgjsG2737" transform="matrix(0.9945218953682733,-0.1045284632676543,0.1045284632676543,0.9945218953682733,227.04809324855415,127.21174251379176)"><path id="SvgjsPath2738" d="M 0 0L 216.0932361169422 0L 216.0932361169422 27.941324467062515L 0 27.941324467062515Z" stroke="none" fill="none"></path><g id="SvgjsG2739"><text id="SvgjsText2740" font-family="微软雅黑" text-anchor="middle" font-size="12px" width="217px" fill="#323232" font-weight="700" align="middle" lineHeight="125%" anchor="middle" family="微软雅黑" size="12px" weight="700" font-style="" opacity="1" y="4.970662233531257" transform="rotate(0)"><tspan id="SvgjsTspan2741" dy="15" x="108.5"><tspan id="SvgjsTspan2742" style="text-decoration:;">SYN 18230083521:18230083521（0）</tspan></tspan></text></g></g><g id="SvgjsG2743" transform="matrix(0.992546151641322,0.12186934340514748,-0.12186934340514748,0.992546151641322,203.42030564353985,74.91741953650674)"><path id="SvgjsPath2744" d="M 0 0L 200 0L 200 28L 0 28Z" stroke="none" fill="none"></path><g id="SvgjsG2745"><text id="SvgjsText2746" font-family="微软雅黑" text-anchor="middle" font-size="12px" width="200px" fill="#323232" font-weight="700" align="middle" lineHeight="125%" anchor="middle" family="微软雅黑" size="12px" weight="700" font-style="" opacity="1" y="5" transform="rotate(0)"><tspan id="SvgjsTspan2747" dy="15" x="100"><tspan id="SvgjsTspan2748" style="text-decoration:;">&lt;mss 1024&gt;</tspan></tspan></text></g></g><g id="SvgjsG2749" transform="matrix(0.9961946980917455,-0.08715574274765832,0.08715574274765832,0.9961946980917455,244.1290997923582,144.7688485014814)"><path id="SvgjsPath2750" d="M 0 0L 200 0L 200 28L 0 28Z" stroke="none" fill="none"></path><g id="SvgjsG2751"><text id="SvgjsText2752" font-family="微软雅黑" text-anchor="middle" font-size="12px" width="200px" fill="#323232" font-weight="700" align="middle" lineHeight="125%" anchor="middle" family="微软雅黑" size="12px" weight="700" font-style="" opacity="1" y="5" transform="rotate(0)"><tspan id="SvgjsTspan2753" dy="15" x="100"><tspan id="SvgjsTspan2754" style="text-decoration:;">ACK 1415531522, &lt;mss 1024&gt;</tspan></tspan></text></g></g><g id="SvgjsG2755" transform="translate(489.0531619774255,88.00000000000003)"><path id="SvgjsPath2756" d="M 0 107.99999999999997Q 9 107.99999999999997 9 98.99999999999997L 9 62.999999999999986Q 9 53.999999999999986 22 53.999999999999986Q 9 53.999999999999986 9 44.999999999999986L 9 9Q 9 0 0 0" stroke="rgba(50,50,50,1)" stroke-width="2" fill="none"></path><path id="SvgjsPath2757" d="M 0 0L 99 0L 99 107.99999999999997L 0 107.99999999999997Z" stroke="none" fill="none"></path><g id="SvgjsG2758"><text id="SvgjsText2759" font-family="微软雅黑" text-anchor="start" font-size="13px" width="72px" fill="#323232" font-weight="700" align="middle" lineHeight="125%" anchor="start" family="微软雅黑" size="13px" weight="700" font-style="" opacity="1" y="44.374999999999986" transform="rotate(0)"><tspan id="SvgjsTspan2760" dy="16" x="27"><tspan id="SvgjsTspan2761" style="text-decoration:;">3次握手</tspan></tspan></text></g></g><g id="SvgjsG2762"><path id="SvgjsPath2763" d="M212.05316197742553 257.6238471380789L453.96875 285" stroke="#323232" stroke-width="2" fill="none" marker-end="url(#SvgjsMarker2764)"></path></g><g id="SvgjsG2766" transform="matrix(0.9945218953682733,0.10452846326765346,-0.10452846326765346,0.9945218953682733,214.06437057001358,234.24768747011007)"><path id="SvgjsPath2767" d="M 0 0L 200 0L 200 28L 0 28Z" stroke="none" fill="none"></path><g id="SvgjsG2768"><text id="SvgjsText2769" font-family="微软雅黑" text-anchor="middle" font-size="12px" width="200px" fill="#323232" font-weight="700" align="middle" lineHeight="125%" anchor="middle" family="微软雅黑" size="12px" weight="700" font-style="" opacity="1" y="5" transform="rotate(0)"><tspan id="SvgjsTspan2770" dy="15" x="100"><tspan id="SvgjsTspan2771" style="text-decoration:;">FIN 1415531522:1415531522（0）</tspan></tspan></text></g></g><g id="SvgjsG2772" transform="matrix(0.9945218953682733,0.10452846326765346,-0.10452846326765346,0.9945218953682733,189.97995894891983,253.62384713807882)"><path id="SvgjsPath2773" d="M 0 0L 200 0L 200 28L 0 28Z" stroke="none" fill="none"></path><g id="SvgjsG2774"><text id="SvgjsText2775" font-family="微软雅黑" text-anchor="middle" font-size="12px" width="200px" fill="#323232" font-weight="700" align="middle" lineHeight="125%" anchor="middle" family="微软雅黑" size="12px" weight="700" font-style="" opacity="1" y="5" transform="rotate(0)"><tspan id="SvgjsTspan2776" dy="15" x="100"><tspan id="SvgjsTspan2777" style="text-decoration:;">ACK 1823083522</tspan></tspan></text></g></g><g id="SvgjsG2778"><path id="SvgjsPath2779" d="M452.0531619774256 312L207.96875 339" stroke="#323232" stroke-width="2" fill="none" marker-end="url(#SvgjsMarker2780)"></path></g><g id="SvgjsG2782" transform="matrix(0.992546151641322,-0.12186934340514811,0.12186934340514811,0.992546151641322,244.09237564928947,310.2912882175363)"><path id="SvgjsPath2783" d="M 0 0L 200 0L 200 28L 0 28Z" stroke="none" fill="none"></path><g id="SvgjsG2784"><text id="SvgjsText2785" font-family="微软雅黑" text-anchor="middle" font-size="12px" width="200px" fill="#323232" font-weight="700" align="middle" lineHeight="125%" anchor="middle" family="微软雅黑" size="12px" weight="700" font-style="" opacity="1" y="5" transform="rotate(0)"><tspan id="SvgjsTspan2786" dy="15" x="100"><tspan id="SvgjsTspan2787" style="text-decoration:;">ACK 1415531523</tspan></tspan></text></g></g><g id="SvgjsG2788"><path id="SvgjsPath2789" d="M455.22198593227665 341L211.13757395485106 368" stroke="#323232" stroke-width="2" fill="none" marker-end="url(#SvgjsMarker2790)"></path></g><g id="SvgjsG2792" transform="matrix(0.992546151641322,-0.12186934340514811,0.12186934340514811,0.992546151641322,225.52588122363528,341.9600380007217)"><path id="SvgjsPath2793" d="M 0 0L 221.89855135410505 0L 221.89855135410505 28.250524835592614L 0 28.250524835592614Z" stroke="none" fill="none"></path><g id="SvgjsG2794"><text id="SvgjsText2795" font-family="微软雅黑" text-anchor="middle" font-size="12px" width="222px" fill="#323232" font-weight="700" align="middle" lineHeight="125%" anchor="middle" family="微软雅黑" size="12px" weight="700" font-style="" opacity="1" y="5.125262417796307" transform="rotate(0)"><tspan id="SvgjsTspan2796" dy="15" x="111"><tspan id="SvgjsTspan2797" style="text-decoration:;">FIN 18230083522:18230083522（0）</tspan></tspan></text></g></g><g id="SvgjsG2798" transform="matrix(0.992546151641322,-0.12186934340514811,0.12186934340514811,0.992546151641322,245.09237564928947,360.2912882175363)"><path id="SvgjsPath2799" d="M 0 0L 200 0L 200 28L 0 28Z" stroke="none" fill="none"></path><g id="SvgjsG2800"><text id="SvgjsText2801" font-family="微软雅黑" text-anchor="middle" font-size="12px" width="200px" fill="#323232" font-weight="700" align="middle" lineHeight="125%" anchor="middle" family="微软雅黑" size="12px" weight="700" font-style="" opacity="1" y="5" transform="rotate(0)"><tspan id="SvgjsTspan2802" dy="15" x="100"><tspan id="SvgjsTspan2803" style="text-decoration:;">ACK 1415531523</tspan></tspan></text></g></g><g id="SvgjsG2804"><path id="SvgjsPath2805" d="M209.05316197742553 397.6238471380789L450.96875 425" stroke="#323232" stroke-width="2" fill="none" marker-end="url(#SvgjsMarker2806)"></path></g><g id="SvgjsG2808" transform="matrix(0.9945218953682733,0.10452846326765346,-0.10452846326765346,0.9945218953682733,185.06437057001358,373.24768747011007)"><path id="SvgjsPath2809" d="M 0 0L 200 0L 200 28L 0 28Z" stroke="none" fill="none"></path><g id="SvgjsG2810"><text id="SvgjsText2811" font-family="微软雅黑" text-anchor="middle" font-size="12px" width="200px" fill="#323232" font-weight="700" align="middle" lineHeight="125%" anchor="middle" family="微软雅黑" size="12px" weight="700" font-style="" opacity="1" y="5" transform="rotate(0)"><tspan id="SvgjsTspan2812" dy="15" x="100"><tspan id="SvgjsTspan2813" style="text-decoration:;">ACK 1823083523</tspan></tspan></text></g></g><g id="SvgjsG2814" transform="translate(25.013947949229816,270.9174195365067)"><path id="SvgjsPath2815" d="M 0 0L 112 0L 128 16L 128 44L 0 44L 0 0Z" stroke="none" fill-opacity="1" fill="#64b5f6"></path><path id="SvgjsPath2816" d="M 112 0L 112 16L 128 16Z" stroke="none" fill-opacity="1" fill="#cdcdcd"></path><path id="SvgjsPath2817" d="M 0 0L 112 0L 128 16L 128 44L 0 44L 0 0Z" stroke="none" fill="none"></path><g id="SvgjsG2818"><text id="SvgjsText2819" font-family="微软雅黑" text-anchor="middle" font-size="13px" width="108px" fill="#ffffff" font-weight="700" align="middle" lineHeight="125%" anchor="middle" family="微软雅黑" size="13px" weight="700" font-style="" opacity="1" y="12.375" transform="rotate(0)"><tspan id="SvgjsTspan2820" dy="16" x="64"><tspan id="SvgjsTspan2821" style="text-decoration:;">主动关闭</tspan></tspan></text></g></g><g id="SvgjsG2822" transform="translate(502.0139479492299,294.0825804634933)"><path id="SvgjsPath2823" d="M 0 0L 112 0L 128 16L 128 44L 0 44L 0 0Z" stroke="none" fill-opacity="1" fill="#64b5f6"></path><path id="SvgjsPath2824" d="M 112 0L 112 16L 128 16Z" stroke="none" fill-opacity="1" fill="#cdcdcd"></path><path id="SvgjsPath2825" d="M 0 0L 112 0L 128 16L 128 44L 0 44L 0 0Z" stroke="none" fill="none"></path><g id="SvgjsG2826"><text id="SvgjsText2827" font-family="微软雅黑" text-anchor="middle" font-size="13px" width="108px" fill="#ffffff" font-weight="700" align="middle" lineHeight="125%" anchor="middle" family="微软雅黑" size="13px" weight="700" font-style="" opacity="1" y="12.375" transform="rotate(0)"><tspan id="SvgjsTspan2828" dy="16" x="64"><tspan id="SvgjsTspan2829" style="text-decoration:;">被动关闭</tspan></tspan></text></g></g><g id="SvgjsG2830"><path id="SvgjsPath2831" d="M89.01394794922982 270.9174195365067C 89.01394794922984 230.24710636721898 149.42656253766688 255.06543884718445 189.9421128866422 258.6100901992336" stroke-dasharray="3,3" stroke="#323232" stroke-width="2" fill="none" marker-end="url(#SvgjsMarker2832)"></path></g><g id="SvgjsG2834"><path id="SvgjsPath2835" d="M566.0139479492299 294.0825804634933C 566.0139479492299 255.98672780039482 509.0646026630984 288 470.96875 288" stroke-dasharray="3,3" stroke="#323232" stroke-width="2" fill="none" marker-end="url(#SvgjsMarker2836)"></path></g></svg>