<svg id="SvgjsSvg1006" width="1012" height="309.109375" xmlns="http://www.w3.org/2000/svg" version="1.1" xmlns:xlink="http://www.w3.org/1999/xlink" xmlns:svgjs="http://svgjs.com/svgjs"><defs id="SvgjsDefs1007"><marker id="SvgjsMarker1146" markerWidth="16" markerHeight="12" refX="16" refY="6" viewBox="0 0 16 12" orient="auto" markerUnits="userSpaceOnUse" stroke-dasharray="0,0"><path id="SvgjsPath1147" d="M0,2 L14,6 L0,11 L0,2" fill="#323232" stroke="#323232" stroke-width="2"></path></marker></defs><g id="SvgjsG1008" transform="matrix(0.7071067811865476,0.7071067811865475,-0.7071067811865475,0.7071067811865476,210.9494853974292,25.007084267877563)"><path id="SvgjsPath1009" d="M 0 18C 0 -6 35 -6 35 18C 35 42 0 42 0 18Z" stroke="rgba(0,0,0,1)" stroke-width="2" fill-opacity="1" fill="#c8e6c9"></path><g id="SvgjsG1010"><text id="SvgjsText1011" font-family="微软雅黑" text-anchor="middle" font-size="16px" width="15px" fill="#000000" font-weight="700" align="middle" lineHeight="125%" anchor="middle" family="微软雅黑" size="16px" weight="700" font-style="" opacity="1" y="6" transform="rotate(0)"></text></g></g><g id="SvgjsG1012" transform="translate(193.0959325725808,32.109375)"><path id="SvgjsPath1013" d="M 0 0L 35 0L 35 36L 0 36Z" stroke="none" fill="none"></path><g id="SvgjsG1014"><text id="SvgjsText1015" font-family="微软雅黑" text-anchor="middle" font-size="16px" width="35px" fill="#000000" font-weight="700" align="middle" lineHeight="125%" anchor="middle" family="微软雅黑" size="16px" weight="700" font-style="" opacity="1" y="6" transform="rotate(0)"><tspan id="SvgjsTspan1016" dy="20" x="17.5"><tspan id="SvgjsTspan1017" style="text-decoration:;">N</tspan></tspan></text></g></g><g id="SvgjsG1018"><path id="SvgjsPath1019" d="M193.42435969732713 63.28094787525379L133.89071977910066 100.00708426787753" stroke="#000000" stroke-width="2" fill="none"></path></g><g id="SvgjsG1020" transform="translate(331.2941558772843,188.609375)"><path id="SvgjsPath1021" d="M 37.5 0L 75 90L 0 90Z" stroke="rgba(50,50,50,1)" stroke-width="2" fill-opacity="1" fill="#ffe0b2"></path><g id="SvgjsG1022"><text id="SvgjsText1023" font-family="微软雅黑" text-anchor="middle" font-size="13px" width="55px" fill="#323232" font-weight="700" align="middle" lineHeight="125%" anchor="middle" family="微软雅黑" size="13px" weight="700" font-style="" opacity="1" y="38.625" transform="rotate(0)"><tspan id="SvgjsTspan1024" dy="16" x="37.5"><tspan id="SvgjsTspan1025" style="text-decoration:;">Z</tspan></tspan><tspan id="SvgjsTspan1026" dy="16" x="37.5"><tspan id="SvgjsTspan1027" style="text-decoration:;">Z&gt;N</tspan></tspan></text></g></g><g id="SvgjsG1028" transform="translate(210.890088449865,170.109375)"><path id="SvgjsPath1029" d="M 37.5 0L 75 45L 0 45Z" stroke="rgba(50,50,50,1)" stroke-width="2" fill-opacity="1" fill="#bbdefb"></path><g id="SvgjsG1030"><text id="SvgjsText1031" font-family="微软雅黑" text-anchor="middle" font-size="13px" width="55px" fill="#323232" font-weight="700" align="middle" lineHeight="125%" anchor="middle" family="微软雅黑" size="13px" weight="700" font-style="" opacity="1" y="10.5" transform="rotate(0)"><tspan id="SvgjsTspan1032" dy="16" x="37.5"><tspan id="SvgjsTspan1033" style="text-decoration:;font-weight: bold;">Y</tspan></tspan><tspan id="SvgjsTspan1034" dy="16" x="37.5"><tspan id="SvgjsTspan1035" style="text-decoration:;font-weight: bold;">L&lt;Y&lt;N</tspan></tspan></text></g></g><g id="SvgjsG1036" transform="translate(96.39071977910066,100.00708426787753)"><path id="SvgjsPath1037" d="M 37.5 0L 75 45L 0 45Z" stroke="rgba(50,50,50,1)" stroke-width="2" fill-opacity="1" fill="#ffcdd2"></path><g id="SvgjsG1038"><text id="SvgjsText1039" font-family="微软雅黑" text-anchor="middle" font-size="13px" width="55px" fill="#323232" font-weight="700" align="middle" lineHeight="125%" anchor="middle" family="微软雅黑" size="13px" weight="700" font-style="" opacity="1" y="10.5" transform="rotate(0)"><tspan id="SvgjsTspan1040" dy="16" x="37.5"><tspan id="SvgjsTspan1041" style="text-decoration:;">X</tspan></tspan><tspan id="SvgjsTspan1042" dy="16" x="37.5"><tspan id="SvgjsTspan1043" style="text-decoration:;">X &lt; L</tspan></tspan></text></g></g><g id="SvgjsG1044"><path id="SvgjsPath1045" d="M279.00397745207283 134.4764307066954L248.39008844986506 170.109375" stroke="#323232" stroke-width="2" fill="none"></path></g><g id="SvgjsG1046"><path id="SvgjsPath1047" d="M228.09593257258075 58.932751490862756L279.7058441227159 108.95085205736484" stroke="#323232" stroke-width="2" fill="none"></path></g><g id="SvgjsG1048" transform="matrix(0.8660254037844384,-0.5000000000000004,0.5000000000000004,0.8660254037844384,120.92705701559473,70.6991228627831)"><path id="SvgjsPath1049" d="M 0 10L 10 0L 10 6.6000000000000005L 55.02533719235362 6.6000000000000005L 55.02533719235362 13.4L 10 13.4L 10 20L 0 10Z" stroke="rgba(50,50,50,1)" stroke-width="2" fill-opacity="1" fill="#ffffff"></path><g id="SvgjsG1050"><text id="SvgjsText1051" font-family="微软雅黑" text-anchor="middle" font-size="13px" width="56px" fill="#323232" font-weight="700" align="middle" lineHeight="125%" anchor="middle" family="微软雅黑" size="13px" weight="700" font-style="" opacity="1" y="0.3750000000000009" transform="rotate(0)"></text></g></g><g id="SvgjsG1052" transform="matrix(0.7071067811865476,0.7071067811865475,-0.7071067811865475,0.7071067811865476,253.64068392555373,41.18848104799871)"><path id="SvgjsPath1053" d="M 0 10L 10 0L 10 6.6000000000000005L 50.402719651691086 6.6000000000000005L 50.402719651691086 13.4L 10 13.4L 10 20L 0 10Z" stroke="rgba(50,50,50,1)" stroke-width="2" fill-opacity="1" fill="#ffffff"></path><g id="SvgjsG1054"><text id="SvgjsText1055" font-family="微软雅黑" text-anchor="middle" font-size="13px" width="51px" fill="#323232" font-weight="700" align="middle" lineHeight="125%" anchor="middle" family="微软雅黑" size="13px" weight="700" font-style="" opacity="1" y="0.3750000000000009" transform="rotate(0)"></text></g></g><g id="SvgjsG1056"><path id="SvgjsPath1057" d="M24.999999999999886 145.109375L505.9999999999999 145.109375L505.9999999999999 145.109375L987 145.109375" stroke-dasharray="8,5" stroke="#323232" stroke-width="1" fill="none"></path></g><g id="SvgjsG1058"><path id="SvgjsPath1059" d="M24.999999999999886 214.609375L505.9999999999999 214.609375L505.9999999999999 214.609375L987 214.609375" stroke-dasharray="8,5" stroke="#323232" stroke-width="1" fill="none"></path></g><g id="SvgjsG1060"><path id="SvgjsPath1061" d="M24.999999999999886 284.109375L505.9999999999999 284.109375L505.9999999999999 284.109375L987 284.109375" stroke-dasharray="8,5" stroke="#323232" stroke-width="1" fill="none"></path></g><g id="SvgjsG1062" transform="matrix(0.7071067811865476,0.7071067811865475,-0.7071067811865475,0.7071067811865476,816.9558483124682,25.007084267877563)"><path id="SvgjsPath1063" d="M 0 18C 0 -6 35 -6 35 18C 35 42 0 42 0 18Z" stroke="rgba(0,0,0,1)" stroke-width="2" fill-opacity="1" fill="#e1bee7"></path><g id="SvgjsG1064"><text id="SvgjsText1065" font-family="微软雅黑" text-anchor="middle" font-size="16px" width="15px" fill="#000000" font-weight="700" align="middle" lineHeight="125%" anchor="middle" family="微软雅黑" size="16px" weight="700" font-style="" opacity="1" y="6" transform="rotate(0)"></text></g></g><g id="SvgjsG1066" transform="translate(799.1022907321224,32.109375)"><path id="SvgjsPath1067" d="M 0 0L 35 0L 35 36L 0 36Z" stroke="none" fill="none"></path><g id="SvgjsG1068"><text id="SvgjsText1069" font-family="微软雅黑" text-anchor="middle" font-size="16px" width="35px" fill="#000000" font-weight="700" align="middle" lineHeight="125%" anchor="middle" family="微软雅黑" size="16px" weight="700" font-style="" opacity="1" y="6" transform="rotate(0)"><tspan id="SvgjsTspan1070" dy="20" x="17.5"><tspan id="SvgjsTspan1071" style="text-decoration:;">R</tspan></tspan></text></g></g><g id="SvgjsG1072"><path id="SvgjsPath1073" d="M705.064177772476 129.11061743365667L661.0441558772842 169.109375" stroke="#000000" stroke-width="2" fill="none"></path></g><g id="SvgjsG1074" transform="translate(875.5,124.109375)"><path id="SvgjsPath1075" d="M 37.5 0L 75 90L 0 90Z" stroke="rgba(50,50,50,1)" stroke-width="2" fill-opacity="1" fill="#ffe0b2"></path><g id="SvgjsG1076"><text id="SvgjsText1077" font-family="微软雅黑" text-anchor="middle" font-size="13px" width="55px" fill="#323232" font-weight="700" align="middle" lineHeight="125%" anchor="middle" family="微软雅黑" size="13px" weight="700" font-style="" opacity="1" y="38.625" transform="rotate(0)"><tspan id="SvgjsTspan1078" dy="16" x="37.5"><tspan id="SvgjsTspan1079" style="text-decoration:;">Z</tspan></tspan><tspan id="SvgjsTspan1080" dy="16" x="37.5"><tspan id="SvgjsTspan1081" style="text-decoration:;">Z&gt;N</tspan></tspan></text></g></g><g id="SvgjsG1082" transform="translate(739.5441558772843,169.109375)"><path id="SvgjsPath1083" d="M 37.5 0L 75 45L 0 45Z" stroke="rgba(50,50,50,1)" stroke-width="2" fill-opacity="1" fill="#bbdefb"></path><g id="SvgjsG1084"><text id="SvgjsText1085" font-family="微软雅黑" text-anchor="middle" font-size="13px" width="55px" fill="#323232" font-weight="700" align="middle" lineHeight="125%" anchor="middle" family="微软雅黑" size="13px" weight="700" font-style="" opacity="1" y="10.5" transform="rotate(0)"><tspan id="SvgjsTspan1086" dy="16" x="37.5"><tspan id="SvgjsTspan1087" style="text-decoration:;font-weight: bold;">Y</tspan></tspan><tspan id="SvgjsTspan1088" dy="16" x="37.5"><tspan id="SvgjsTspan1089" style="text-decoration:;font-weight: bold;">L&lt;Y&lt;N</tspan></tspan></text></g></g><g id="SvgjsG1090" transform="translate(623.5441558772842,169.109375)"><path id="SvgjsPath1091" d="M 37.5 0L 75 45L 0 45Z" stroke="rgba(50,50,50,1)" stroke-width="2" fill-opacity="1" fill="#ffcdd2"></path><g id="SvgjsG1092"><text id="SvgjsText1093" font-family="微软雅黑" text-anchor="middle" font-size="13px" width="55px" fill="#323232" font-weight="700" align="middle" lineHeight="125%" anchor="middle" family="微软雅黑" size="13px" weight="700" font-style="" opacity="1" y="10.5" transform="rotate(0)"><tspan id="SvgjsTspan1094" dy="16" x="37.5"><tspan id="SvgjsTspan1095" style="text-decoration:;">X</tspan></tspan><tspan id="SvgjsTspan1096" dy="16" x="37.5"><tspan id="SvgjsTspan1097" style="text-decoration:;">X &lt; L</tspan></tspan></text></g></g><g id="SvgjsG1098"><path id="SvgjsPath1099" d="M739 128.109375L777.0441558772841 169.109375" stroke="#323232" stroke-width="2" fill="none"></path></g><g id="SvgjsG1100"><path id="SvgjsPath1101" d="M831.0287142957714 65.79022295571099L913 124.109375" stroke="#323232" stroke-width="2" fill="none"></path></g><g id="SvgjsG1102" transform="translate(454.7941558772842,181.609375)"><path id="SvgjsPath1103" d="M 0 6.6000000000000005L 112.20584412271569 6.6000000000000005L 112.20584412271569 0L 122.20584412271569 10L 112.20584412271569 20L 112.20584412271569 13.4L 0 13.4L 0 6.6000000000000005Z" stroke="rgba(50,50,50,1)" stroke-width="2" fill-opacity="1" fill="#ffffff"></path><g id="SvgjsG1104"><text id="SvgjsText1105" font-family="微软雅黑" text-anchor="middle" font-size="13px" width="123px" fill="#323232" font-weight="400" align="middle" lineHeight="125%" anchor="middle" family="微软雅黑" size="13px" weight="400" font-style="" opacity="1" y="0.3750000000000009" transform="rotate(0)"></text></g></g><g id="SvgjsG1106" transform="translate(454.9999999999999,148.609375)"><path id="SvgjsPath1107" d="M 0 0L 120 0L 120 40L 0 40Z" stroke="none" fill="none"></path><g id="SvgjsG1108"><text id="SvgjsText1109" font-family="微软雅黑" text-anchor="middle" font-size="13px" width="120px" fill="#323232" font-weight="400" align="middle" lineHeight="125%" anchor="middle" family="微软雅黑" size="13px" weight="400" font-style="" opacity="1" y="10.375" transform="rotate(0)"><tspan id="SvgjsTspan1110" dy="16" x="60"><tspan id="SvgjsTspan1111" style="text-decoration:;font-weight: bold;">以N为支点，左旋</tspan></tspan></text></g></g><g id="SvgjsG1112" transform="matrix(0.7071067811865476,0.7071067811865475,-0.7071067811865475,0.7071067811865476,295.44885978707765,97.65479697539709)"><path id="SvgjsPath1113" d="M 0 18C 0 -6 35 -6 35 18C 35 42 0 42 0 18Z" stroke="rgba(0,0,0,1)" stroke-width="2" fill-opacity="1" fill="#e1bee7"></path><g id="SvgjsG1114"><text id="SvgjsText1115" font-family="微软雅黑" text-anchor="middle" font-size="16px" width="15px" fill="#000000" font-weight="700" align="middle" lineHeight="125%" anchor="middle" family="微软雅黑" size="16px" weight="700" font-style="" opacity="1" y="6" transform="rotate(0)"></text></g></g><g id="SvgjsG1116" transform="translate(279,104.50708426787753)"><path id="SvgjsPath1117" d="M 0 0L 35 0L 35 36L 0 36Z" stroke="none" fill="none"></path><g id="SvgjsG1118"><text id="SvgjsText1119" font-family="微软雅黑" text-anchor="middle" font-size="16px" width="35px" fill="#000000" font-weight="700" align="middle" lineHeight="125%" anchor="middle" family="微软雅黑" size="16px" weight="700" font-style="" opacity="1" y="6" transform="rotate(0)"><tspan id="SvgjsTspan1120" dy="20" x="17.5"><tspan id="SvgjsTspan1121" style="text-decoration:;">R</tspan></tspan></text></g></g><g id="SvgjsG1122"><path id="SvgjsPath1123" d="M313.8398187189314 136.90479353575506L368.7941558772843 188.609375" stroke="#323232" stroke-width="2" fill="none"></path></g><g id="SvgjsG1124" transform="matrix(0.7071067811865476,0.7071067811865475,-0.7071067811865475,0.7071067811865476,722.397681808562,91.90479697539709)"><path id="SvgjsPath1125" d="M 0 18C 0 -6 35 -6 35 18C 35 42 0 42 0 18Z" stroke="rgba(0,0,0,1)" stroke-width="2" fill-opacity="1" fill="#c8e6c9"></path><g id="SvgjsG1126"><text id="SvgjsText1127" font-family="微软雅黑" text-anchor="middle" font-size="16px" width="15px" fill="#000000" font-weight="700" align="middle" lineHeight="125%" anchor="middle" family="微软雅黑" size="16px" weight="700" font-style="" opacity="1" y="6" transform="rotate(0)"></text></g></g><g id="SvgjsG1128" transform="translate(704.5441558772843,99.00708426787753)"><path id="SvgjsPath1129" d="M 0 0L 35 0L 35 36L 0 36Z" stroke="none" fill="none"></path><g id="SvgjsG1130"><text id="SvgjsText1131" font-family="微软雅黑" text-anchor="middle" font-size="16px" width="35px" fill="#000000" font-weight="700" align="middle" lineHeight="125%" anchor="middle" family="微软雅黑" size="16px" weight="700" font-style="" opacity="1" y="6" transform="rotate(0)"><tspan id="SvgjsTspan1132" dy="20" x="17.5"><tspan id="SvgjsTspan1133" style="text-decoration:;">N</tspan></tspan></text></g></g><g id="SvgjsG1134"><path id="SvgjsPath1135" d="M738.0038053019084 102.59424001062519L799.9464452413788 60.651047167815136" stroke="#323232" stroke-width="2" fill="none"></path></g><g id="SvgjsG1136" transform="translate(639.2941558772843,224.609375)"><path id="SvgjsPath1137" d="M 0 0L 101.20584412271569 0L 117.20584412271569 16L 117.20584412271569 54L 0 54L 0 0Z" stroke="none" fill-opacity="1" fill="#64b5f6"></path><path id="SvgjsPath1138" d="M 101.20584412271569 0L 101.20584412271569 16L 117.20584412271569 16Z" stroke="none" fill-opacity="1" fill="#cdcdcd"></path><path id="SvgjsPath1139" d="M 0 0L 101.20584412271569 0L 117.20584412271569 16L 117.20584412271569 54L 0 54L 0 0Z" stroke="none" fill="none"></path><g id="SvgjsG1140"><text id="SvgjsText1141" font-family="微软雅黑" text-anchor="middle" font-size="13px" width="98px" fill="#323232" font-weight="400" align="middle" lineHeight="125%" anchor="middle" family="微软雅黑" size="13px" weight="400" font-style="" opacity="1" y="17.375" transform="rotate(0)"><tspan id="SvgjsTspan1142" dy="16" x="59"><tspan id="SvgjsTspan1143" style="text-decoration:;font-weight: bold;">结点Y过继给N</tspan></tspan></text></g></g><g id="SvgjsG1144"><path id="SvgjsPath1145" d="M756.5 251.609375C 773.6035076669561 251.609375 777.0441558772843 231.21288266695603 777.0441558772843 214.109375" stroke-dasharray="3,3" stroke="#323232" stroke-width="2" fill="none" marker-end="url(#SvgjsMarker1146)"></path></g></svg>