<svg id="SvgjsSvg1006" width="1012" height="316.109375" xmlns="http://www.w3.org/2000/svg" version="1.1" xmlns:xlink="http://www.w3.org/1999/xlink" xmlns:svgjs="http://svgjs.com/svgjs"><defs id="SvgjsDefs1007"><marker id="SvgjsMarker1136" markerWidth="16" markerHeight="12" refX="16" refY="6" viewBox="0 0 16 12" orient="auto" markerUnits="userSpaceOnUse" stroke-dasharray="0,0"><path id="SvgjsPath1137" d="M0,2 L14,6 L0,11 L0,2" fill="#323232" stroke="#323232" stroke-width="2"></path></marker></defs><g id="SvgjsG1008" transform="matrix(0.7071067811865476,0.7071067811865475,-0.7071067811865475,0.7071067811865476,277.3535533905933,25.007084267877563)"><path id="SvgjsPath1009" d="M 0 18C 0 -6 35 -6 35 18C 35 42 0 42 0 18Z" stroke="rgba(0,0,0,1)" stroke-width="2" fill-opacity="1" fill="#c8e6c9"></path><g id="SvgjsG1010"><text id="SvgjsText1011" font-family="微软雅黑" text-anchor="middle" font-size="16px" width="15px" fill="#000000" font-weight="700" align="middle" lineHeight="125%" anchor="middle" family="微软雅黑" size="16px" weight="700" font-style="" opacity="1" y="6" transform="rotate(0)"></text></g></g><g id="SvgjsG1012" transform="translate(259.5,32.109375)"><path id="SvgjsPath1013" d="M 0 0L 35 0L 35 36L 0 36Z" stroke="none" fill="none"></path><g id="SvgjsG1014"><text id="SvgjsText1015" font-family="微软雅黑" text-anchor="middle" font-size="16px" width="35px" fill="#000000" font-weight="700" align="middle" lineHeight="125%" anchor="middle" family="微软雅黑" size="16px" weight="700" font-style="" opacity="1" y="6" transform="rotate(0)"><tspan id="SvgjsTspan1016" dy="20" x="17.5"><tspan id="SvgjsTspan1017" style="text-decoration:;">N</tspan></tspan></text></g></g><g id="SvgjsG1018" transform="matrix(0.7071067811865476,0.7071067811865475,-0.7071067811865475,0.7071067811865476,177.35355339059328,96.00708426787756)"><path id="SvgjsPath1019" d="M 0 18C 0 -6 35 -6 35 18C 35 42 0 42 0 18Z" stroke="rgba(0,0,0,1)" stroke-width="2" fill-opacity="1" fill="#e1bee7"></path><g id="SvgjsG1020"><text id="SvgjsText1021" font-family="微软雅黑" text-anchor="middle" font-size="16px" width="15px" fill="#000000" font-weight="700" align="middle" lineHeight="125%" anchor="middle" family="微软雅黑" size="16px" weight="700" font-style="" opacity="1" y="6" transform="rotate(0)"></text></g></g><g id="SvgjsG1022" transform="translate(161.79478720651974,102.609375)"><path id="SvgjsPath1023" d="M 0 0L 35 0L 35 36L 0 36Z" stroke="none" fill="none"></path><g id="SvgjsG1024"><text id="SvgjsText1025" font-family="微软雅黑" text-anchor="middle" font-size="16px" width="35px" fill="#000000" font-weight="700" align="middle" lineHeight="125%" anchor="middle" family="微软雅黑" size="16px" weight="700" font-style="" opacity="1" y="6" transform="rotate(0)"><tspan id="SvgjsTspan1026" dy="20" x="17.5"><tspan id="SvgjsTspan1027" style="text-decoration:;">L</tspan></tspan></text></g></g><g id="SvgjsG1028"><path id="SvgjsPath1029" d="M263.3420201433257 64.16968237921412L196.79478720651974 103.6167917775141" stroke="#000000" stroke-width="2" fill="none"></path></g><g id="SvgjsG1030"><path id="SvgjsPath1031" d="M167.13309896108836 136.609375L90.04415587728431 191.74184263185293" stroke="#000000" stroke-width="2" fill="none"></path></g><g id="SvgjsG1032" transform="translate(330.2941558772843,98.109375)"><path id="SvgjsPath1033" d="M 37.5 0L 75 45L 0 45Z" stroke="rgba(50,50,50,1)" stroke-width="2" fill-opacity="1" fill="#ffcdd2"></path><g id="SvgjsG1034"><text id="SvgjsText1035" font-family="微软雅黑" text-anchor="middle" font-size="13px" width="55px" fill="#323232" font-weight="700" align="middle" lineHeight="125%" anchor="middle" family="微软雅黑" size="13px" weight="700" font-style="" opacity="1" y="10.5" transform="rotate(0)"><tspan id="SvgjsTspan1036" dy="16" x="37.5"><tspan id="SvgjsTspan1037" style="text-decoration:;">Z</tspan></tspan><tspan id="SvgjsTspan1038" dy="16" x="37.5"><tspan id="SvgjsTspan1039" style="text-decoration:;">Z&gt;N</tspan></tspan></text></g></g><g id="SvgjsG1040" transform="translate(207.2941558772843,170.109375)"><path id="SvgjsPath1041" d="M 37.5 0L 75 45L 0 45Z" stroke="rgba(50,50,50,1)" stroke-width="2" fill-opacity="1" fill="#bbdefb"></path><g id="SvgjsG1042"><text id="SvgjsText1043" font-family="微软雅黑" text-anchor="middle" font-size="13px" width="55px" fill="#323232" font-weight="700" align="middle" lineHeight="125%" anchor="middle" family="微软雅黑" size="13px" weight="700" font-style="" opacity="1" y="10.5" transform="rotate(0)"><tspan id="SvgjsTspan1044" dy="16" x="37.5"><tspan id="SvgjsTspan1045" style="text-decoration:;font-weight: bold;">Y</tspan></tspan><tspan id="SvgjsTspan1046" dy="16" x="37.5"><tspan id="SvgjsTspan1047" style="text-decoration:;font-weight: bold;">L&lt;Y&lt;N</tspan></tspan></text></g></g><g id="SvgjsG1048" transform="translate(52.54415587728431,191.74184263185293)"><path id="SvgjsPath1049" d="M 37.5 0L 75 90L 0 90Z" stroke="rgba(50,50,50,1)" stroke-width="2" fill-opacity="1" fill="#ffe0b2"></path><g id="SvgjsG1050"><text id="SvgjsText1051" font-family="微软雅黑" text-anchor="middle" font-size="13px" width="55px" fill="#323232" font-weight="700" align="middle" lineHeight="125%" anchor="middle" family="微软雅黑" size="13px" weight="700" font-style="" opacity="1" y="38.625" transform="rotate(0)"><tspan id="SvgjsTspan1052" dy="16" x="37.5"><tspan id="SvgjsTspan1053" style="text-decoration:;">X</tspan></tspan><tspan id="SvgjsTspan1054" dy="16" x="37.5"><tspan id="SvgjsTspan1055" style="text-decoration:;">X &lt; L</tspan></tspan></text></g></g><g id="SvgjsG1056"><path id="SvgjsPath1057" d="M189.0359681614172 136.46682566457366L244.7941558772843 170.109375" stroke="#323232" stroke-width="2" fill="none"></path></g><g id="SvgjsG1058"><path id="SvgjsPath1059" d="M294.5 58.932751490862756L367.7941558772843 98.109375" stroke="#323232" stroke-width="2" fill="none"></path></g><g id="SvgjsG1060" transform="matrix(-0.8191520442889916,0.5735764363510464,-0.5735764363510464,-0.8191520442889916,244.6869376397533,55.92389596006363)"><path id="SvgjsPath1061" d="M 0 10L 10 0L 10 6.6000000000000005L 54.818948278124765 6.6000000000000005L 54.818948278124765 13.4L 10 13.4L 10 20L 0 10Z" stroke="rgba(50,50,50,1)" stroke-width="2" fill-opacity="1" fill="#ffffff"></path><g id="SvgjsG1062"><text id="SvgjsText1063" font-family="微软雅黑" text-anchor="middle" font-size="13px" width="55px" fill="#323232" font-weight="700" align="middle" lineHeight="125%" anchor="middle" family="微软雅黑" size="13px" weight="700" font-style="" opacity="1" y="0.3750000000000009" transform="rotate(0)"></text></g></g><g id="SvgjsG1064" transform="matrix(-0.866025403784439,-0.4999999999999994,0.4999999999999994,-0.866025403784439,354.76214109863315,80.86111110674423)"><path id="SvgjsPath1065" d="M 0 10L 10 0L 10 6.6000000000000005L 50.27854119063852 6.6000000000000005L 50.27854119063852 13.4L 10 13.4L 10 20L 0 10Z" stroke="rgba(50,50,50,1)" stroke-width="2" fill-opacity="1" fill="#ffffff"></path><g id="SvgjsG1066"><text id="SvgjsText1067" font-family="微软雅黑" text-anchor="middle" font-size="13px" width="51px" fill="#323232" font-weight="700" align="middle" lineHeight="125%" anchor="middle" family="微软雅黑" size="13px" weight="700" font-style="" opacity="1" y="0.3750000000000009" transform="rotate(0)"></text></g></g><g id="SvgjsG1068"><path id="SvgjsPath1069" d="M25 146.109375L506 146.109375L506 146.109375L987 146.109375" stroke-dasharray="8,5" stroke="#323232" stroke-width="1" fill="none"></path></g><g id="SvgjsG1070"><path id="SvgjsPath1071" d="M25 215.609375L506 215.609375L506 215.609375L987 215.609375" stroke-dasharray="8,5" stroke="#323232" stroke-width="1" fill="none"></path></g><g id="SvgjsG1072"><path id="SvgjsPath1073" d="M25 285.109375L506 285.109375L506 285.109375L987 285.109375" stroke-dasharray="8,5" stroke="#323232" stroke-width="1" fill="none"></path></g><g id="SvgjsG1074" transform="matrix(0.7071067811865476,0.7071067811865475,-0.7071067811865475,0.7071067811865476,874.3535533905932,100.00708426787756)"><path id="SvgjsPath1075" d="M 0 18C 0 -6 35 -6 35 18C 35 42 0 42 0 18Z" stroke="rgba(0,0,0,1)" stroke-width="2" fill-opacity="1" fill="#c8e6c9"></path><g id="SvgjsG1076"><text id="SvgjsText1077" font-family="微软雅黑" text-anchor="middle" font-size="16px" width="15px" fill="#000000" font-weight="700" align="middle" lineHeight="125%" anchor="middle" family="微软雅黑" size="16px" weight="700" font-style="" opacity="1" y="6" transform="rotate(0)"></text></g></g><g id="SvgjsG1078" transform="translate(856.5,107.109375)"><path id="SvgjsPath1079" d="M 0 0L 35 0L 35 36L 0 36Z" stroke="none" fill="none"></path><g id="SvgjsG1080"><text id="SvgjsText1081" font-family="微软雅黑" text-anchor="middle" font-size="16px" width="35px" fill="#000000" font-weight="700" align="middle" lineHeight="125%" anchor="middle" family="微软雅黑" size="16px" weight="700" font-style="" opacity="1" y="6" transform="rotate(0)"><tspan id="SvgjsTspan1082" dy="20" x="17.5"><tspan id="SvgjsTspan1083" style="text-decoration:;">N</tspan></tspan></text></g></g><g id="SvgjsG1084" transform="matrix(0.7071067811865476,0.7071067811865475,-0.7071067811865475,0.7071067811865476,773.3535533905932,31.299042123102172)"><path id="SvgjsPath1085" d="M 0 18C 0 -6 35 -6 35 18C 35 42 0 42 0 18Z" stroke="rgba(0,0,0,1)" stroke-width="2" fill-opacity="1" fill="#e1bee7"></path><g id="SvgjsG1086"><text id="SvgjsText1087" font-family="微软雅黑" text-anchor="middle" font-size="16px" width="15px" fill="#000000" font-weight="700" align="middle" lineHeight="125%" anchor="middle" family="微软雅黑" size="16px" weight="700" font-style="" opacity="1" y="6" transform="rotate(0)"></text></g></g><g id="SvgjsG1088" transform="translate(755.5,38.401331345336445)"><path id="SvgjsPath1089" d="M 0 0L 35 0L 35 36L 0 36Z" stroke="none" fill="none"></path><g id="SvgjsG1090"><text id="SvgjsText1091" font-family="微软雅黑" text-anchor="middle" font-size="16px" width="35px" fill="#000000" font-weight="700" align="middle" lineHeight="125%" anchor="middle" family="微软雅黑" size="16px" weight="700" font-style="" opacity="1" y="6" transform="rotate(0)"><tspan id="SvgjsTspan1092" dy="20" x="17.5"><tspan id="SvgjsTspan1093" style="text-decoration:;">L</tspan></tspan></text></g></g><g id="SvgjsG1094"><path id="SvgjsPath1095" d="M856.5 110.18269083909104L790.5 71.22504040313467" stroke="#000000" stroke-width="2" fill="none"></path></g><g id="SvgjsG1096"><path id="SvgjsPath1097" d="M760.8383117545686 72.43483467785168L661.0441558772843 124.609375" stroke="#000000" stroke-width="2" fill="none"></path></g><g id="SvgjsG1098" transform="translate(900.5,170.109375)"><path id="SvgjsPath1099" d="M 37.5 0L 75 45L 0 45Z" stroke="rgba(50,50,50,1)" stroke-width="2" fill-opacity="1" fill="#ffcdd2"></path><g id="SvgjsG1100"><text id="SvgjsText1101" font-family="微软雅黑" text-anchor="middle" font-size="13px" width="55px" fill="#323232" font-weight="700" align="middle" lineHeight="125%" anchor="middle" family="微软雅黑" size="13px" weight="700" font-style="" opacity="1" y="10.5" transform="rotate(0)"><tspan id="SvgjsTspan1102" dy="16" x="37.5"><tspan id="SvgjsTspan1103" style="text-decoration:;">Z</tspan></tspan><tspan id="SvgjsTspan1104" dy="16" x="37.5"><tspan id="SvgjsTspan1105" style="text-decoration:;">Z&gt;N</tspan></tspan></text></g></g><g id="SvgjsG1106" transform="translate(768.2941558772843,169.609375)"><path id="SvgjsPath1107" d="M 37.5 0L 75 45L 0 45Z" stroke="rgba(50,50,50,1)" stroke-width="2" fill-opacity="1" fill="#bbdefb"></path><g id="SvgjsG1108"><text id="SvgjsText1109" font-family="微软雅黑" text-anchor="middle" font-size="13px" width="55px" fill="#323232" font-weight="700" align="middle" lineHeight="125%" anchor="middle" family="微软雅黑" size="13px" weight="700" font-style="" opacity="1" y="10.5" transform="rotate(0)"><tspan id="SvgjsTspan1110" dy="16" x="37.5"><tspan id="SvgjsTspan1111" style="text-decoration:;font-weight: bold;">Y</tspan></tspan><tspan id="SvgjsTspan1112" dy="16" x="37.5"><tspan id="SvgjsTspan1113" style="text-decoration:;font-weight: bold;">L&lt;Y&lt;N</tspan></tspan></text></g></g><g id="SvgjsG1114" transform="translate(623.5441558772843,124.609375)"><path id="SvgjsPath1115" d="M 37.5 0L 75 90L 0 90Z" stroke="rgba(50,50,50,1)" stroke-width="2" fill-opacity="1" fill="#ffe0b2"></path><g id="SvgjsG1116"><text id="SvgjsText1117" font-family="微软雅黑" text-anchor="middle" font-size="13px" width="55px" fill="#323232" font-weight="700" align="middle" lineHeight="125%" anchor="middle" family="微软雅黑" size="13px" weight="700" font-style="" opacity="1" y="38.625" transform="rotate(0)"><tspan id="SvgjsTspan1118" dy="16" x="37.5"><tspan id="SvgjsTspan1119" style="text-decoration:;">X</tspan></tspan><tspan id="SvgjsTspan1120" dy="16" x="37.5"><tspan id="SvgjsTspan1121" style="text-decoration:;">X &lt; L</tspan></tspan></text></g></g><g id="SvgjsG1122"><path id="SvgjsPath1123" d="M856.5 137.82441784110256L805.7941558772843 169.609375" stroke="#323232" stroke-width="2" fill="none"></path></g><g id="SvgjsG1124"><path id="SvgjsPath1125" d="M891.5 133.93275149086276L938 170.109375" stroke="#323232" stroke-width="2" fill="none"></path></g><g id="SvgjsG1126" transform="translate(768.2941558772843,237.109375)"><path id="SvgjsPath1127" d="M 0 0L 101.20584412271569 0L 117.20584412271569 16L 117.20584412271569 54L 0 54L 0 0Z" stroke="none" fill-opacity="1" fill="#64b5f6"></path><path id="SvgjsPath1128" d="M 101.20584412271569 0L 101.20584412271569 16L 117.20584412271569 16Z" stroke="none" fill-opacity="1" fill="#cdcdcd"></path><path id="SvgjsPath1129" d="M 0 0L 101.20584412271569 0L 117.20584412271569 16L 117.20584412271569 54L 0 54L 0 0Z" stroke="none" fill="none"></path><g id="SvgjsG1130"><text id="SvgjsText1131" font-family="微软雅黑" text-anchor="middle" font-size="13px" width="98px" fill="#323232" font-weight="400" align="middle" lineHeight="125%" anchor="middle" family="微软雅黑" size="13px" weight="400" font-style="" opacity="1" y="17.375" transform="rotate(0)"><tspan id="SvgjsTspan1132" dy="16" x="59"><tspan id="SvgjsTspan1133" style="text-decoration:;font-weight: bold;">结点Y过继给N</tspan></tspan></text></g></g><g id="SvgjsG1134"><path id="SvgjsPath1135" d="M826.8970779386423 237.109375C 826.8970779386423 224.77027733751106 805.7941558772843 226.94847266248894 805.7941558772843 214.609375" stroke-dasharray="3,3" stroke="#323232" stroke-width="2" fill="none" marker-end="url(#SvgjsMarker1136)"></path></g><g id="SvgjsG1138" transform="translate(454.7941558772843,182.609375)"><path id="SvgjsPath1139" d="M 0 6.6000000000000005L 112.20584412271569 6.6000000000000005L 112.20584412271569 0L 122.20584412271569 10L 112.20584412271569 20L 112.20584412271569 13.4L 0 13.4L 0 6.6000000000000005Z" stroke="rgba(50,50,50,1)" stroke-width="2" fill-opacity="1" fill="#ffffff"></path><g id="SvgjsG1140"><text id="SvgjsText1141" font-family="微软雅黑" text-anchor="middle" font-size="13px" width="123px" fill="#323232" font-weight="400" align="middle" lineHeight="125%" anchor="middle" family="微软雅黑" size="13px" weight="400" font-style="" opacity="1" y="0.3750000000000009" transform="rotate(0)"></text></g></g><g id="SvgjsG1142" transform="translate(455,149.609375)"><path id="SvgjsPath1143" d="M 0 0L 120 0L 120 40L 0 40Z" stroke="none" fill="none"></path><g id="SvgjsG1144"><text id="SvgjsText1145" font-family="微软雅黑" text-anchor="middle" font-size="13px" width="120px" fill="#323232" font-weight="400" align="middle" lineHeight="125%" anchor="middle" family="微软雅黑" size="13px" weight="400" font-style="" opacity="1" y="10.375" transform="rotate(0)"><tspan id="SvgjsTspan1146" dy="16" x="60"><tspan id="SvgjsTspan1147" style="text-decoration:;font-weight: bold;">以N为支点，右旋</tspan></tspan></text></g></g></svg>