<svg id="SvgjsSvg1006" width="1401" height="327.1875" xmlns="http://www.w3.org/2000/svg" version="1.1" xmlns:xlink="http://www.w3.org/1999/xlink" xmlns:svgjs="http://svgjs.com/svgjs"><defs id="SvgjsDefs1007"><marker id="SvgjsMarker1270" markerWidth="16" markerHeight="12" refX="16" refY="6" viewBox="0 0 16 12" orient="auto" markerUnits="userSpaceOnUse" stroke-dasharray="0,0"><path id="SvgjsPath1271" d="M0,2 L14,6 L0,11 L0,2" fill="#323232" stroke="#323232" stroke-width="2"></path></marker><marker id="SvgjsMarker1282" markerWidth="16" markerHeight="12" refX="16" refY="6" viewBox="0 0 16 12" orient="auto" markerUnits="userSpaceOnUse" stroke-dasharray="0,0"><path id="SvgjsPath1283" d="M0,2 L14,6 L0,11 L0,2" fill="#323232" stroke="#323232" stroke-width="2"></path></marker></defs><g id="SvgjsG1008" transform="matrix(0.7071067811865476,0.7071067811865475,-0.7071067811865475,0.7071067811865476,237.35355339059328,25.007084267877563)"><path id="SvgjsPath1009" d="M 0 18C 0 -6 35 -6 35 18C 35 42 0 42 0 18Z" stroke="rgba(0,0,0,1)" stroke-width="2" fill-opacity="1" fill="#c8e6c9"></path><g id="SvgjsG1010"><text id="SvgjsText1011" font-family="微软雅黑" text-anchor="middle" font-size="16px" width="15px" fill="#000000" font-weight="700" align="middle" lineHeight="125%" anchor="middle" family="微软雅黑" size="16px" weight="700" font-style="" opacity="1" y="6" transform="rotate(0)"></text></g></g><g id="SvgjsG1012" transform="translate(219.5,32.109375)"><path id="SvgjsPath1013" d="M 0 0L 35 0L 35 36L 0 36Z" stroke="none" fill="none"></path><g id="SvgjsG1014"><text id="SvgjsText1015" font-family="微软雅黑" text-anchor="middle" font-size="16px" width="35px" fill="#000000" font-weight="700" align="middle" lineHeight="125%" anchor="middle" family="微软雅黑" size="16px" weight="700" font-style="" opacity="1" y="6" transform="rotate(0)"><tspan id="SvgjsTspan1016" dy="20" x="17.5"><tspan id="SvgjsTspan1017" style="text-decoration:;">N</tspan></tspan></text></g></g><g id="SvgjsG1018" transform="matrix(0.7071067811865476,0.7071067811865475,-0.7071067811865475,0.7071067811865476,137.35355339059328,96.00708426787756)"><path id="SvgjsPath1019" d="M 0 18C 0 -6 35 -6 35 18C 35 42 0 42 0 18Z" stroke="rgba(0,0,0,1)" stroke-width="2" fill-opacity="1" fill="#e1bee7"></path><g id="SvgjsG1020"><text id="SvgjsText1021" font-family="微软雅黑" text-anchor="middle" font-size="16px" width="15px" fill="#000000" font-weight="700" align="middle" lineHeight="125%" anchor="middle" family="微软雅黑" size="16px" weight="700" font-style="" opacity="1" y="6" transform="rotate(0)"></text></g></g><g id="SvgjsG1022" transform="translate(121.79478720651974,102.609375)"><path id="SvgjsPath1023" d="M 0 0L 35 0L 35 36L 0 36Z" stroke="none" fill="none"></path><g id="SvgjsG1024"><text id="SvgjsText1025" font-family="微软雅黑" text-anchor="middle" font-size="16px" width="35px" fill="#000000" font-weight="700" align="middle" lineHeight="125%" anchor="middle" family="微软雅黑" size="16px" weight="700" font-style="" opacity="1" y="6" transform="rotate(0)"><tspan id="SvgjsTspan1026" dy="20" x="17.5"><tspan id="SvgjsTspan1027" style="text-decoration:;">L</tspan></tspan></text></g></g><g id="SvgjsG1028"><path id="SvgjsPath1029" d="M223.34202014332573 64.16968237921412L156.79478720651974 103.6167917775141" stroke="#000000" stroke-width="2" fill="none"></path></g><g id="SvgjsG1030"><path id="SvgjsPath1031" d="M127.13309896108836 136.609375L84.29478720651974 170.109375" stroke="#000000" stroke-width="2" fill="none"></path></g><g id="SvgjsG1032" transform="translate(290.2941558772843,98.109375)"><path id="SvgjsPath1033" d="M 37.5 0L 75 45L 0 45Z" stroke="rgba(50,50,50,1)" stroke-width="2" fill-opacity="1" fill="#ffcdd2"></path><g id="SvgjsG1034"><text id="SvgjsText1035" font-family="微软雅黑" text-anchor="middle" font-size="13px" width="55px" fill="#323232" font-weight="700" align="middle" lineHeight="125%" anchor="middle" family="微软雅黑" size="13px" weight="700" font-style="" opacity="1" y="10.5" transform="rotate(0)"><tspan id="SvgjsTspan1036" dy="16" x="37.5"><tspan id="SvgjsTspan1037" style="text-decoration:;">Z</tspan></tspan><tspan id="SvgjsTspan1038" dy="16" x="37.5"><tspan id="SvgjsTspan1039" style="text-decoration:;">Z&gt;N</tspan></tspan></text></g></g><g id="SvgjsG1040" transform="translate(229.69822330470322,237.109375)"><path id="SvgjsPath1041" d="M 37.5 0L 75 45L 0 45Z" stroke-dasharray="10,6" stroke="rgba(50,50,50,1)" stroke-width="2" fill-opacity="1" fill="#bbdefb"></path><g id="SvgjsG1042"><text id="SvgjsText1043" font-family="微软雅黑" text-anchor="middle" font-size="13px" width="55px" fill="#323232" font-weight="700" align="middle" lineHeight="125%" anchor="middle" family="微软雅黑" size="13px" weight="700" font-style="" opacity="1" y="18.5" transform="rotate(0)"><tspan id="SvgjsTspan1044" dy="16" x="37.5"><tspan id="SvgjsTspan1045" style="text-decoration:;font-weight: bold;">Y2</tspan></tspan></text></g></g><g id="SvgjsG1046" transform="translate(46.79478720651974,170.109375)"><path id="SvgjsPath1047" d="M 37.5 0L 75 45L 0 45Z" stroke="rgba(50,50,50,1)" stroke-width="2" fill-opacity="1" fill="#ffe0b2"></path><g id="SvgjsG1048"><text id="SvgjsText1049" font-family="微软雅黑" text-anchor="middle" font-size="13px" width="55px" fill="#323232" font-weight="700" align="middle" lineHeight="125%" anchor="middle" family="微软雅黑" size="13px" weight="700" font-style="" opacity="1" y="10.5" transform="rotate(0)"><tspan id="SvgjsTspan1050" dy="16" x="37.5"><tspan id="SvgjsTspan1051" style="text-decoration:;">X</tspan></tspan><tspan id="SvgjsTspan1052" dy="16" x="37.5"><tspan id="SvgjsTspan1053" style="text-decoration:;">X &lt; L</tspan></tspan></text></g></g><g id="SvgjsG1054"><path id="SvgjsPath1055" d="M254.5 58.932751490862756L327.7941558772843 98.109375" stroke="#323232" stroke-width="2" fill="none"></path></g><g id="SvgjsG1056" transform="matrix(0.7660444431189778,-0.6427876096865396,0.6427876096865396,0.7660444431189778,62.073891237738906,149.41183757893097)"><path id="SvgjsPath1057" d="M 0 10L 10 0L 10 6.6000000000000005L 54.818948278124765 6.6000000000000005L 54.818948278124765 13.4L 10 13.4L 10 20L 0 10Z" stroke="rgba(50,50,50,1)" stroke-width="2" fill-opacity="1" fill="#ffffff"></path><g id="SvgjsG1058"><text id="SvgjsText1059" font-family="微软雅黑" text-anchor="middle" font-size="13px" width="55px" fill="#323232" font-weight="700" align="middle" lineHeight="125%" anchor="middle" family="微软雅黑" size="13px" weight="700" font-style="" opacity="1" y="0.3750000000000009" transform="rotate(0)"></text></g></g><g id="SvgjsG1060" transform="matrix(0.7071067811865476,0.7071067811865475,-0.7071067811865475,0.7071067811865476,179.28581323030716,120.7840090620382)"><path id="SvgjsPath1061" d="M 0 10L 10 0L 10 6.6000000000000005L 50.27854119063852 6.6000000000000005L 50.27854119063852 13.4L 10 13.4L 10 20L 0 10Z" stroke="rgba(50,50,50,1)" stroke-width="2" fill-opacity="1" fill="#ffffff"></path><g id="SvgjsG1062"><text id="SvgjsText1063" font-family="微软雅黑" text-anchor="middle" font-size="13px" width="51px" fill="#323232" font-weight="700" align="middle" lineHeight="125%" anchor="middle" family="微软雅黑" size="13px" weight="700" font-style="" opacity="1" y="0.3750000000000009" transform="rotate(0)"></text></g></g><g id="SvgjsG1064"><path id="SvgjsPath1065" d="M29 146.109375L701.5 146.109375L701.5 146.109375L1374 146.109375" stroke-dasharray="8,5" stroke="#323232" stroke-width="1" fill="none"></path></g><g id="SvgjsG1066"><path id="SvgjsPath1067" d="M26 215.609375L700.5 215.609375L700.5 215.609375L1375 215.609375" stroke-dasharray="8,5" stroke="#323232" stroke-width="1" fill="none"></path></g><g id="SvgjsG1068"><path id="SvgjsPath1069" d="M25 285.109375L700.5 285.109375L700.5 285.109375L1376 285.109375" stroke-dasharray="8,5" stroke="#323232" stroke-width="1" fill="none"></path></g><g id="SvgjsG1070" transform="translate(365.2941558772843,193.23264390479056)"><path id="SvgjsPath1071" d="M 0 6.6000000000000005L 112.20584412271569 6.6000000000000005L 112.20584412271569 0L 122.20584412271569 10L 112.20584412271569 20L 112.20584412271569 13.4L 0 13.4L 0 6.6000000000000005Z" stroke="rgba(50,50,50,1)" stroke-width="2" fill-opacity="1" fill="#ffffff"></path><g id="SvgjsG1072"><text id="SvgjsText1073" font-family="微软雅黑" text-anchor="middle" font-size="13px" width="123px" fill="#323232" font-weight="400" align="middle" lineHeight="125%" anchor="middle" family="微软雅黑" size="13px" weight="400" font-style="" opacity="1" y="0.3750000000000009" transform="rotate(0)"></text></g></g><g id="SvgjsG1074" transform="translate(365.5,160.23264390479056)"><path id="SvgjsPath1075" d="M 0 0L 120 0L 120 40L 0 40Z" stroke="none" fill="none"></path><g id="SvgjsG1076"><text id="SvgjsText1077" font-family="微软雅黑" text-anchor="middle" font-size="13px" width="120px" fill="#323232" font-weight="400" align="middle" lineHeight="125%" anchor="middle" family="微软雅黑" size="13px" weight="400" font-style="" opacity="1" y="10.375" transform="rotate(0)"><tspan id="SvgjsTspan1078" dy="16" x="60"><tspan id="SvgjsTspan1079" style="text-decoration:;font-weight: bold;">以L为支点，左旋</tspan></tspan></text></g></g><g id="SvgjsG1080" transform="translate(119.69822330470322,237.109375)"><path id="SvgjsPath1081" d="M 37.5 0L 75 45L 0 45Z" stroke-dasharray="10,6" stroke="rgba(50,50,50,1)" stroke-width="2" fill-opacity="1" fill="#bbdefb"></path><g id="SvgjsG1082"><text id="SvgjsText1083" font-family="微软雅黑" text-anchor="middle" font-size="13px" width="55px" fill="#323232" font-weight="700" align="middle" lineHeight="125%" anchor="middle" family="微软雅黑" size="13px" weight="700" font-style="" opacity="1" y="18.5" transform="rotate(0)"><tspan id="SvgjsTspan1084" dy="16" x="37.5"><tspan id="SvgjsTspan1085" style="text-decoration:;font-weight: bold;">Y1</tspan></tspan></text></g></g><g id="SvgjsG1086"><path id="SvgjsPath1087" d="M152.42642356364894 135.29022295571102L195.01129080817714 179.609375" stroke="#323232" stroke-width="2" fill="none"></path></g><g id="SvgjsG1088"><path id="SvgjsPath1089" d="M198.35331095150275 207.66968237921412L157.19822330470322 237.109375" stroke="#323232" stroke-width="2" fill="none"></path></g><g id="SvgjsG1090" transform="matrix(0.7071067811865476,0.7071067811865475,-0.7071067811865475,0.7071067811865476,212.5517803193042,167.50708426787756)"><path id="SvgjsPath1091" d="M 0 18C 0 -6 35 -6 35 18C 35 42 0 42 0 18Z" stroke="rgba(0,0,0,1)" stroke-width="2" fill-opacity="1" fill="#bbdefb"></path><g id="SvgjsG1092"><text id="SvgjsText1093" font-family="微软雅黑" text-anchor="middle" font-size="16px" width="15px" fill="#000000" font-weight="700" align="middle" lineHeight="125%" anchor="middle" family="微软雅黑" size="16px" weight="700" font-style="" opacity="1" y="6" transform="rotate(0)"></text></g></g><g id="SvgjsG1094" transform="translate(194.69822330470322,174.609375)"><path id="SvgjsPath1095" d="M 0 0L 35 0L 35 36L 0 36Z" stroke="none" fill="none"></path><g id="SvgjsG1096"><text id="SvgjsText1097" font-family="微软雅黑" text-anchor="middle" font-size="16px" width="35px" fill="#000000" font-weight="700" align="middle" lineHeight="125%" anchor="middle" family="微软雅黑" size="16px" weight="700" font-style="" opacity="1" y="6" transform="rotate(0)"><tspan id="SvgjsTspan1098" dy="20" x="17.5"><tspan id="SvgjsTspan1099" style="text-decoration:;">LR</tspan></tspan></text></g></g><g id="SvgjsG1100"><path id="SvgjsPath1101" d="M229.23395555688103 207.46658739031346L267.1982233047032 237.109375" stroke="#323232" stroke-width="2" fill="none"></path></g><g id="SvgjsG1102" transform="matrix(0.7071067811865476,0.7071067811865475,-0.7071067811865475,0.7071067811865476,736.353248214812,27.609375375055297)"><path id="SvgjsPath1103" d="M 0 18C 0 -6 35 -6 35 18C 35 42 0 42 0 18Z" stroke="rgba(0,0,0,1)" stroke-width="2" fill-opacity="1" fill="#c8e6c9"></path><g id="SvgjsG1104"><text id="SvgjsText1105" font-family="微软雅黑" text-anchor="middle" font-size="16px" width="15px" fill="#000000" font-weight="700" align="middle" lineHeight="125%" anchor="middle" family="微软雅黑" size="16px" weight="700" font-style="" opacity="1" y="6" transform="rotate(0)"></text></g></g><g id="SvgjsG1106" transform="translate(718.4996843353822,34.71166573212244)"><path id="SvgjsPath1107" d="M 0 0L 35 0L 35 36L 0 36Z" stroke="none" fill="none"></path><g id="SvgjsG1108"><text id="SvgjsText1109" font-family="微软雅黑" text-anchor="middle" font-size="16px" width="35px" fill="#000000" font-weight="700" align="middle" lineHeight="125%" anchor="middle" family="微软雅黑" size="16px" weight="700" font-style="" opacity="1" y="6" transform="rotate(0)"><tspan id="SvgjsTspan1110" dy="20" x="17.5"><tspan id="SvgjsTspan1111" style="text-decoration:;">N</tspan></tspan></text></g></g><g id="SvgjsG1112" transform="matrix(0.7071067811865476,0.7071067811865475,-0.7071067811865475,0.7071067811865476,580.7539440155932,167.75708426787756)"><path id="SvgjsPath1113" d="M 0 18C 0 -6 35 -6 35 18C 35 42 0 42 0 18Z" stroke="rgba(0,0,0,1)" stroke-width="2" fill-opacity="1" fill="#e1bee7"></path><g id="SvgjsG1114"><text id="SvgjsText1115" font-family="微软雅黑" text-anchor="middle" font-size="16px" width="15px" fill="#000000" font-weight="700" align="middle" lineHeight="125%" anchor="middle" family="微软雅黑" size="16px" weight="700" font-style="" opacity="1" y="6" transform="rotate(0)"></text></g></g><g id="SvgjsG1116" transform="translate(565.1952020572412,174.359375)"><path id="SvgjsPath1117" d="M 0 0L 35 0L 35 36L 0 36Z" stroke="none" fill="none"></path><g id="SvgjsG1118"><text id="SvgjsText1119" font-family="微软雅黑" text-anchor="middle" font-size="16px" width="35px" fill="#000000" font-weight="700" align="middle" lineHeight="125%" anchor="middle" family="微软雅黑" size="16px" weight="700" font-style="" opacity="1" y="6" transform="rotate(0)"><tspan id="SvgjsTspan1120" dy="20" x="17.5"><tspan id="SvgjsTspan1121" style="text-decoration:;">L</tspan></tspan></text></g></g><g id="SvgjsG1122"><path id="SvgjsPath1123" d="M722.3417044787079 66.77197311133656L661.9585497055597 115.21166573212244" stroke="#000000" stroke-width="2" fill="none"></path></g><g id="SvgjsG1124"><path id="SvgjsPath1125" d="M570.5335138118098 208.359375L522.1979076400852 237.109375" stroke="#000000" stroke-width="2" fill="none"></path></g><g id="SvgjsG1126" transform="translate(789.2938402126665,100.71166573212244)"><path id="SvgjsPath1127" d="M 37.5 0L 75 45L 0 45Z" stroke="rgba(50,50,50,1)" stroke-width="2" fill-opacity="1" fill="#ffcdd2"></path><g id="SvgjsG1128"><text id="SvgjsText1129" font-family="微软雅黑" text-anchor="middle" font-size="13px" width="55px" fill="#323232" font-weight="700" align="middle" lineHeight="125%" anchor="middle" family="微软雅黑" size="13px" weight="700" font-style="" opacity="1" y="10.5" transform="rotate(0)"><tspan id="SvgjsTspan1130" dy="16" x="37.5"><tspan id="SvgjsTspan1131" style="text-decoration:;">Z</tspan></tspan><tspan id="SvgjsTspan1132" dy="16" x="37.5"><tspan id="SvgjsTspan1133" style="text-decoration:;">Z&gt;N</tspan></tspan></text></g></g><g id="SvgjsG1134" transform="translate(686.1019750675044,172.9616657321224)"><path id="SvgjsPath1135" d="M 37.5 0L 75 45L 0 45Z" stroke-dasharray="10,6" stroke="rgba(50,50,50,1)" stroke-width="2" fill-opacity="1" fill="#bbdefb"></path><g id="SvgjsG1136"><text id="SvgjsText1137" font-family="微软雅黑" text-anchor="middle" font-size="13px" width="55px" fill="#323232" font-weight="700" align="middle" lineHeight="125%" anchor="middle" family="微软雅黑" size="13px" weight="700" font-style="" opacity="1" y="18.5" transform="rotate(0)"><tspan id="SvgjsTspan1138" dy="16" x="37.5"><tspan id="SvgjsTspan1139" style="text-decoration:;font-weight: bold;">Y2</tspan></tspan></text></g></g><g id="SvgjsG1140" transform="translate(484.6979076400853,237.109375)"><path id="SvgjsPath1141" d="M 37.5 0L 75 45L 0 45Z" stroke="rgba(50,50,50,1)" stroke-width="2" fill-opacity="1" fill="#ffe0b2"></path><g id="SvgjsG1142"><text id="SvgjsText1143" font-family="微软雅黑" text-anchor="middle" font-size="13px" width="55px" fill="#323232" font-weight="700" align="middle" lineHeight="125%" anchor="middle" family="微软雅黑" size="13px" weight="700" font-style="" opacity="1" y="10.5" transform="rotate(0)"><tspan id="SvgjsTspan1144" dy="16" x="37.5"><tspan id="SvgjsTspan1145" style="text-decoration:;">X</tspan></tspan><tspan id="SvgjsTspan1146" dy="16" x="37.5"><tspan id="SvgjsTspan1147" style="text-decoration:;">X &lt; L</tspan></tspan></text></g></g><g id="SvgjsG1148"><path id="SvgjsPath1149" d="M753.4996843353822 61.5350422229852L826.7938402126665 100.71166573212244" stroke="#323232" stroke-width="2" fill="none"></path></g><g id="SvgjsG1150" transform="matrix(-0.8191520442889916,0.5735764363510464,-0.5735764363510464,-0.8191520442889916,703.686632463972,58.526187067241366)"><path id="SvgjsPath1151" d="M 0 10L 10 0L 10 6.6000000000000005L 54.818948278124765 6.6000000000000005L 54.818948278124765 13.4L 10 13.4L 10 20L 0 10Z" stroke="rgba(50,50,50,1)" stroke-width="2" fill-opacity="1" fill="#ffffff"></path><g id="SvgjsG1152"><text id="SvgjsText1153" font-family="微软雅黑" text-anchor="middle" font-size="13px" width="55px" fill="#323232" font-weight="700" align="middle" lineHeight="125%" anchor="middle" family="微软雅黑" size="13px" weight="700" font-style="" opacity="1" y="0.3750000000000009" transform="rotate(0)"></text></g></g><g id="SvgjsG1154" transform="matrix(-0.866025403784439,-0.4999999999999994,0.4999999999999994,-0.866025403784439,813.7618359228519,83.46340221392197)"><path id="SvgjsPath1155" d="M 0 10L 10 0L 10 6.6000000000000005L 50.27854119063852 6.6000000000000005L 50.27854119063852 13.4L 10 13.4L 10 20L 0 10Z" stroke="rgba(50,50,50,1)" stroke-width="2" fill-opacity="1" fill="#ffffff"></path><g id="SvgjsG1156"><text id="SvgjsText1157" font-family="微软雅黑" text-anchor="middle" font-size="13px" width="51px" fill="#323232" font-weight="700" align="middle" lineHeight="125%" anchor="middle" family="微软雅黑" size="13px" weight="700" font-style="" opacity="1" y="0.3750000000000009" transform="rotate(0)"></text></g></g><g id="SvgjsG1158" transform="translate(594.6979076400853,237.109375)"><path id="SvgjsPath1159" d="M 37.5 0L 75 45L 0 45Z" stroke-dasharray="10,6" stroke="rgba(50,50,50,1)" stroke-width="2" fill-opacity="1" fill="#bbdefb"></path><g id="SvgjsG1160"><text id="SvgjsText1161" font-family="微软雅黑" text-anchor="middle" font-size="13px" width="55px" fill="#323232" font-weight="700" align="middle" lineHeight="125%" anchor="middle" family="微软雅黑" size="13px" weight="700" font-style="" opacity="1" y="18.5" transform="rotate(0)"><tspan id="SvgjsTspan1162" dy="16" x="37.5"><tspan id="SvgjsTspan1163" style="text-decoration:;font-weight: bold;">Y1</tspan></tspan></text></g></g><g id="SvgjsG1164"><path id="SvgjsPath1165" d="M593.5585413818937 175.02428726573396L629.5967054302752 139.1595448721684" stroke="#323232" stroke-width="2" fill="none"></path></g><g id="SvgjsG1166"><path id="SvgjsPath1167" d="M592.7411809548975 208.1434491737109L632.1979076400853 237.109375" stroke="#323232" stroke-width="2" fill="none"></path></g><g id="SvgjsG1168" transform="matrix(0.7071067811865476,0.7071067811865475,-0.7071067811865475,0.7071067811865476,647.3562389374682,102.60937156035803)"><path id="SvgjsPath1169" d="M 0 18C 0 -6 35 -6 35 18C 35 42 0 42 0 18Z" stroke="rgba(0,0,0,1)" stroke-width="2" fill-opacity="1" fill="#bbdefb"></path><g id="SvgjsG1170"><text id="SvgjsText1171" font-family="微软雅黑" text-anchor="middle" font-size="16px" width="15px" fill="#000000" font-weight="700" align="middle" lineHeight="125%" anchor="middle" family="微软雅黑" size="16px" weight="700" font-style="" opacity="1" y="6" transform="rotate(0)"></text></g></g><g id="SvgjsG1172" transform="translate(629.502705582844,109.71166573212244)"><path id="SvgjsPath1173" d="M 0 0L 35 0L 35 36L 0 36Z" stroke="none" fill="none"></path><g id="SvgjsG1174"><text id="SvgjsText1175" font-family="微软雅黑" text-anchor="middle" font-size="16px" width="35px" fill="#000000" font-weight="700" align="middle" lineHeight="125%" anchor="middle" family="微软雅黑" size="16px" weight="700" font-style="" opacity="1" y="6" transform="rotate(0)"><tspan id="SvgjsTspan1176" dy="20" x="17.5"><tspan id="SvgjsTspan1177" style="text-decoration:;">LR</tspan></tspan></text></g></g><g id="SvgjsG1178"><path id="SvgjsPath1179" d="M664.0384378350219 142.56887812243593L723.6019750675041 172.9616657321224" stroke="#323232" stroke-width="2" fill="none"></path></g><g id="SvgjsG1180" transform="matrix(0.7071067811865476,0.7071067811865475,-0.7071067811865475,0.7071067811865476,1270.3531871796558,100.87688865020178)"><path id="SvgjsPath1181" d="M 0 18C 0 -6 35 -6 35 18C 35 42 0 42 0 18Z" stroke="rgba(0,0,0,1)" stroke-width="2" fill-opacity="1" fill="#c8e6c9"></path><g id="SvgjsG1182"><text id="SvgjsText1183" font-family="微软雅黑" text-anchor="middle" font-size="16px" width="15px" fill="#000000" font-weight="700" align="middle" lineHeight="125%" anchor="middle" family="微软雅黑" size="16px" weight="700" font-style="" opacity="1" y="6" transform="rotate(0)"></text></g></g><g id="SvgjsG1184" transform="translate(1252.4996843353824,107.97918171437195)"><path id="SvgjsPath1185" d="M 0 0L 35 0L 35 36L 0 36Z" stroke="none" fill="none"></path><g id="SvgjsG1186"><text id="SvgjsText1187" font-family="微软雅黑" text-anchor="middle" font-size="16px" width="35px" fill="#000000" font-weight="700" align="middle" lineHeight="125%" anchor="middle" family="微软雅黑" size="16px" weight="700" font-style="" opacity="1" y="6" transform="rotate(0)"><tspan id="SvgjsTspan1188" dy="20" x="17.5"><tspan id="SvgjsTspan1189" style="text-decoration:;">N</tspan></tspan></text></g></g><g id="SvgjsG1190" transform="matrix(0.7071067811865476,0.7071067811865475,-0.7071067811865475,0.7071067811865476,1096.7539440155933,98.88035239531897)"><path id="SvgjsPath1191" d="M 0 18C 0 -6 35 -6 35 18C 35 42 0 42 0 18Z" stroke="rgba(0,0,0,1)" stroke-width="2" fill-opacity="1" fill="#e1bee7"></path><g id="SvgjsG1192"><text id="SvgjsText1193" font-family="微软雅黑" text-anchor="middle" font-size="16px" width="15px" fill="#000000" font-weight="700" align="middle" lineHeight="125%" anchor="middle" family="微软雅黑" size="16px" weight="700" font-style="" opacity="1" y="6" transform="rotate(0)"></text></g></g><g id="SvgjsG1194" transform="translate(1081.1952020572412,105.48264390479065)"><path id="SvgjsPath1195" d="M 0 0L 35 0L 35 36L 0 36Z" stroke="none" fill="none"></path><g id="SvgjsG1196"><text id="SvgjsText1197" font-family="微软雅黑" text-anchor="middle" font-size="16px" width="35px" fill="#000000" font-weight="700" align="middle" lineHeight="125%" anchor="middle" family="微软雅黑" size="16px" weight="700" font-style="" opacity="1" y="6" transform="rotate(0)"><tspan id="SvgjsTspan1198" dy="20" x="17.5"><tspan id="SvgjsTspan1199" style="text-decoration:;">L</tspan></tspan></text></g></g><g id="SvgjsG1200"><path id="SvgjsPath1201" d="M1253 114.58493463691306L1187.426423563649 65.57957916982878" stroke="#000000" stroke-width="2" fill="none"></path></g><g id="SvgjsG1202"><path id="SvgjsPath1203" d="M1086.5335138118098 139.48264390479068L1053.1979076400853 168.23264390479062" stroke="#000000" stroke-width="2" fill="none"></path></g><g id="SvgjsG1204" transform="translate(1287.4996843353824,168.23264390479062)"><path id="SvgjsPath1205" d="M 37.5 0L 75 45L 0 45Z" stroke="rgba(50,50,50,1)" stroke-width="2" fill-opacity="1" fill="#ffcdd2"></path><g id="SvgjsG1206"><text id="SvgjsText1207" font-family="微软雅黑" text-anchor="middle" font-size="13px" width="55px" fill="#323232" font-weight="700" align="middle" lineHeight="125%" anchor="middle" family="微软雅黑" size="13px" weight="700" font-style="" opacity="1" y="10.5" transform="rotate(0)"><tspan id="SvgjsTspan1208" dy="16" x="37.5"><tspan id="SvgjsTspan1209" style="text-decoration:;">Z</tspan></tspan><tspan id="SvgjsTspan1210" dy="16" x="37.5"><tspan id="SvgjsTspan1211" style="text-decoration:;">Z&gt;N</tspan></tspan></text></g></g><g id="SvgjsG1212" transform="translate(1202.8395213942256,168.23264390479062)"><path id="SvgjsPath1213" d="M 37.5 0L 75 45L 0 45Z" stroke-dasharray="10,6" stroke="rgba(50,50,50,1)" stroke-width="2" fill-opacity="1" fill="#bbdefb"></path><g id="SvgjsG1214"><text id="SvgjsText1215" font-family="微软雅黑" text-anchor="middle" font-size="13px" width="55px" fill="#323232" font-weight="700" align="middle" lineHeight="125%" anchor="middle" family="微软雅黑" size="13px" weight="700" font-style="" opacity="1" y="18.5" transform="rotate(0)"><tspan id="SvgjsTspan1216" dy="16" x="37.5"><tspan id="SvgjsTspan1217" style="text-decoration:;font-weight: bold;">Y2</tspan></tspan></text></g></g><g id="SvgjsG1218" transform="translate(1015.6979076400853,168.23264390479062)"><path id="SvgjsPath1219" d="M 37.5 0L 75 45L 0 45Z" stroke="rgba(50,50,50,1)" stroke-width="2" fill-opacity="1" fill="#ffe0b2"></path><g id="SvgjsG1220"><text id="SvgjsText1221" font-family="微软雅黑" text-anchor="middle" font-size="13px" width="55px" fill="#323232" font-weight="700" align="middle" lineHeight="125%" anchor="middle" family="微软雅黑" size="13px" weight="700" font-style="" opacity="1" y="10.5" transform="rotate(0)"><tspan id="SvgjsTspan1222" dy="16" x="37.5"><tspan id="SvgjsTspan1223" style="text-decoration:;">X</tspan></tspan><tspan id="SvgjsTspan1224" dy="16" x="37.5"><tspan id="SvgjsTspan1225" style="text-decoration:;">X &lt; L</tspan></tspan></text></g></g><g id="SvgjsG1226"><path id="SvgjsPath1227" d="M1287.4996843353824 134.8025582052347L1324.9996843353824 168.23264390479062" stroke="#323232" stroke-width="2" fill="none"></path></g><g id="SvgjsG1228" transform="translate(1101.2372306621032,168.23264390479062)"><path id="SvgjsPath1229" d="M 37.5 0L 75 45L 0 45Z" stroke-dasharray="10,6" stroke="rgba(50,50,50,1)" stroke-width="2" fill-opacity="1" fill="#bbdefb"></path><g id="SvgjsG1230"><text id="SvgjsText1231" font-family="微软雅黑" text-anchor="middle" font-size="13px" width="55px" fill="#323232" font-weight="700" align="middle" lineHeight="125%" anchor="middle" family="微软雅黑" size="13px" weight="700" font-style="" opacity="1" y="18.5" transform="rotate(0)"><tspan id="SvgjsTspan1232" dy="16" x="37.5"><tspan id="SvgjsTspan1233" style="text-decoration:;font-weight: bold;">Y1</tspan></tspan></text></g></g><g id="SvgjsG1234"><path id="SvgjsPath1235" d="M1109.558541381894 106.14755617052461L1156.3312305095342 62.63856669950016" stroke="#323232" stroke-width="2" fill="none"></path></g><g id="SvgjsG1236"><path id="SvgjsPath1237" d="M1108.7411809548976 139.26671807850158L1138.7372306621032 168.23264390479062" stroke="#323232" stroke-width="2" fill="none"></path></g><g id="SvgjsG1238" transform="matrix(0.7071067811865476,0.7071067811865475,-0.7071067811865475,0.7071067811865476,1174.0907360077808,26.088398354791625)"><path id="SvgjsPath1239" d="M 0 18C 0 -6 35 -6 35 18C 35 42 0 42 0 18Z" stroke="rgba(0,0,0,1)" stroke-width="2" fill-opacity="1" fill="#bbdefb"></path><g id="SvgjsG1240"><text id="SvgjsText1241" font-family="微软雅黑" text-anchor="middle" font-size="16px" width="15px" fill="#000000" font-weight="700" align="middle" lineHeight="125%" anchor="middle" family="微软雅黑" size="16px" weight="700" font-style="" opacity="1" y="6" transform="rotate(0)"></text></g></g><g id="SvgjsG1242" transform="translate(1156.2372306621032,33.190687559454204)"><path id="SvgjsPath1243" d="M 0 0L 35 0L 35 36L 0 36Z" stroke="none" fill="none"></path><g id="SvgjsG1244"><text id="SvgjsText1245" font-family="微软雅黑" text-anchor="middle" font-size="16px" width="35px" fill="#000000" font-weight="700" align="middle" lineHeight="125%" anchor="middle" family="微软雅黑" size="16px" weight="700" font-style="" opacity="1" y="6" transform="rotate(0)"><tspan id="SvgjsTspan1246" dy="20" x="17.5"><tspan id="SvgjsTspan1247" style="text-decoration:;">LR</tspan></tspan></text></g></g><g id="SvgjsG1248"><path id="SvgjsPath1249" d="M1256 143.58493463691306L1240.3395213942251 168.23264390479062" stroke="#323232" stroke-width="2" fill="none"></path></g><g id="SvgjsG1250" transform="translate(874.5,193.23264390479062)"><path id="SvgjsPath1251" d="M 0 6.6000000000000005L 112.20584412271569 6.6000000000000005L 112.20584412271569 0L 122.20584412271569 10L 112.20584412271569 20L 112.20584412271569 13.4L 0 13.4L 0 6.6000000000000005Z" stroke="rgba(50,50,50,1)" stroke-width="2" fill-opacity="1" fill="#ffffff"></path><g id="SvgjsG1252"><text id="SvgjsText1253" font-family="微软雅黑" text-anchor="middle" font-size="13px" width="123px" fill="#323232" font-weight="400" align="middle" lineHeight="125%" anchor="middle" family="微软雅黑" size="13px" weight="400" font-style="" opacity="1" y="0.3750000000000009" transform="rotate(0)"></text></g></g><g id="SvgjsG1254" transform="translate(874.7058441227157,160.23264390479056)"><path id="SvgjsPath1255" d="M 0 0L 120 0L 120 40L 0 40Z" stroke="none" fill="none"></path><g id="SvgjsG1256"><text id="SvgjsText1257" font-family="微软雅黑" text-anchor="middle" font-size="13px" width="120px" fill="#323232" font-weight="400" align="middle" lineHeight="125%" anchor="middle" family="微软雅黑" size="13px" weight="400" font-style="" opacity="1" y="10.375" transform="rotate(0)"><tspan id="SvgjsTspan1258" dy="16" x="60"><tspan id="SvgjsTspan1259" style="text-decoration:;font-weight: bold;">以N为支点，右旋</tspan></tspan></text></g></g><g id="SvgjsG1260" transform="translate(726.2941558772843,248.1884793708872)"><path id="SvgjsPath1261" d="M 0 0L 101.20584412271569 0L 117.20584412271569 16L 117.20584412271569 54L 0 54L 0 0Z" stroke="none" fill-opacity="1" fill="#64b5f6"></path><path id="SvgjsPath1262" d="M 101.20584412271569 0L 101.20584412271569 16L 117.20584412271569 16Z" stroke="none" fill-opacity="1" fill="#cdcdcd"></path><path id="SvgjsPath1263" d="M 0 0L 101.20584412271569 0L 117.20584412271569 16L 117.20584412271569 54L 0 54L 0 0Z" stroke="none" fill="none"></path><g id="SvgjsG1264"><text id="SvgjsText1265" font-family="微软雅黑" text-anchor="middle" font-size="13px" width="98px" fill="#323232" font-weight="400" align="middle" lineHeight="125%" anchor="middle" family="微软雅黑" size="13px" weight="400" font-style="" opacity="1" y="17.375" transform="rotate(0)"><tspan id="SvgjsTspan1266" dy="16" x="59"><tspan id="SvgjsTspan1267" style="text-decoration:;font-weight: bold;">结点Y1过继给L</tspan></tspan></text></g></g><g id="SvgjsG1268"><path id="SvgjsPath1269" d="M726.2941558772843 275.1884793708872C 695.5181506357443 275.1884793708872 674.5236954367675 239.82694015509009 650.9479076400853 259.609375" stroke-dasharray="3,3" stroke="#323232" stroke-width="2" fill="none" marker-end="url(#SvgjsMarker1270)"></path></g><g id="SvgjsG1272" transform="translate(1059.0313865393875,228.109375)"><path id="SvgjsPath1273" d="M 0 0L 101.20584412271569 0L 117.20584412271569 16L 117.20584412271569 54L 0 54L 0 0Z" stroke="none" fill-opacity="1" fill="#64b5f6"></path><path id="SvgjsPath1274" d="M 101.20584412271569 0L 101.20584412271569 16L 117.20584412271569 16Z" stroke="none" fill-opacity="1" fill="#cdcdcd"></path><path id="SvgjsPath1275" d="M 0 0L 101.20584412271569 0L 117.20584412271569 16L 117.20584412271569 54L 0 54L 0 0Z" stroke="none" fill="none"></path><g id="SvgjsG1276"><text id="SvgjsText1277" font-family="微软雅黑" text-anchor="middle" font-size="13px" width="98px" fill="#323232" font-weight="400" align="middle" lineHeight="125%" anchor="middle" family="微软雅黑" size="13px" weight="400" font-style="" opacity="1" y="17.375" transform="rotate(0)"><tspan id="SvgjsTspan1278" dy="16" x="59"><tspan id="SvgjsTspan1279" style="text-decoration:;font-weight: bold;">结点Y2过继给N</tspan></tspan></text></g></g><g id="SvgjsG1280"><path id="SvgjsPath1281" d="M1176.2372306621032 255.109375C 1206.864706651681 255.109375 1240.3395213942256 243.86011989436838 1240.3395213942256 213.23264390479062" stroke-dasharray="3,3" stroke="#323232" stroke-width="2" fill="none" marker-end="url(#SvgjsMarker1282)"></path></g><g id="SvgjsG1284" transform="translate(366.39707793864216,230.73264390479056)"><path id="SvgjsPath1285" d="M 0 0L 120 0L 120 40L 0 40Z" stroke="none" fill="none"></path><g id="SvgjsG1286"><text id="SvgjsText1287" font-family="微软雅黑" text-anchor="middle" font-size="13px" width="120px" fill="#323232" font-weight="400" align="middle" lineHeight="125%" anchor="middle" family="微软雅黑" size="13px" weight="400" font-style="" opacity="1" y="-5.625" transform="rotate(0)"><tspan id="SvgjsTspan1288" dy="16" x="60"><tspan id="SvgjsTspan1289" style="text-decoration:;font-weight: bold;">把内部的高度差</tspan></tspan><tspan id="SvgjsTspan1290" dy="16" x="60"><tspan id="SvgjsTspan1291" style="text-decoration:;font-weight: bold;">转换为</tspan></tspan><tspan id="SvgjsTspan1292" dy="16" x="60"><tspan id="SvgjsTspan1293" style="text-decoration:;font-weight: bold;">边上的高度差</tspan></tspan></text></g></g></svg>