<svg id="SvgjsSvg1006" width="653" height="324" xmlns="http://www.w3.org/2000/svg" version="1.1" xmlns:xlink="http://www.w3.org/1999/xlink" xmlns:svgjs="http://svgjs.com/svgjs"><defs id="SvgjsDefs1007"></defs><g id="SvgjsG1008" transform="matrix(0.7071067811865476,0.7071067811865475,-0.7071067811865475,0.7071067811865476,471.46875,87.01290587728428)"><path id="SvgjsPath1009" d="M 0 18C 0 -6 36 -6 36 18C 36 42 0 42 0 18Z" stroke="rgba(0,0,0,1)" stroke-width="5" fill-opacity="1" fill="#000000"></path><g id="SvgjsG1010"><text id="SvgjsText1011" font-family="微软雅黑" text-anchor="middle" font-size="16px" width="16px" fill="#ffffff" font-weight="700" align="middle" lineHeight="125%" anchor="middle" family="微软雅黑" size="16px" weight="700" font-style="" opacity="1" y="6" transform="rotate(0)"></text></g></g><g id="SvgjsG1012" transform="translate(455.96875,97.96875)"><path id="SvgjsPath1013" d="M 0 0L 31 0L 31 29L 0 29Z" stroke="none" fill="none"></path><g id="SvgjsG1014"><text id="SvgjsText1015" font-family="微软雅黑" text-anchor="middle" font-size="16px" width="31px" fill="#ffffff" font-weight="700" align="middle" lineHeight="125%" anchor="middle" family="微软雅黑" size="16px" weight="700" font-style="" opacity="1" y="2.5" transform="rotate(0)"><tspan id="SvgjsTspan1016" dy="20" x="15.5"><tspan id="SvgjsTspan1017" style="text-decoration:;">70</tspan></tspan></text></g></g><g id="SvgjsG1018" transform="matrix(0.7071067811865476,0.7071067811865475,-0.7071067811865475,0.7071067811865476,154.46875,87.01290587728428)"><path id="SvgjsPath1019" d="M 0 18C 0 -6 36 -6 36 18C 36 42 0 42 0 18Z" stroke="rgba(0,0,0,1)" stroke-width="5" fill-opacity="1" fill="#000000"></path><g id="SvgjsG1020"><text id="SvgjsText1021" font-family="微软雅黑" text-anchor="middle" font-size="16px" width="16px" fill="#ffffff" font-weight="700" align="middle" lineHeight="125%" anchor="middle" family="微软雅黑" size="16px" weight="700" font-style="" opacity="1" y="6" transform="rotate(0)"></text></g></g><g id="SvgjsG1022" transform="translate(138.96875,97.96875)"><path id="SvgjsPath1023" d="M 0 0L 31 0L 31 29L 0 29Z" stroke="none" fill="none"></path><g id="SvgjsG1024"><text id="SvgjsText1025" font-family="微软雅黑" text-anchor="middle" font-size="16px" width="31px" fill="#ffffff" font-weight="700" align="middle" lineHeight="125%" anchor="middle" family="微软雅黑" size="16px" weight="700" font-style="" opacity="1" y="2.5" transform="rotate(0)"><tspan id="SvgjsTspan1026" dy="20" x="15.5"><tspan id="SvgjsTspan1027" style="text-decoration:;">15</tspan></tspan></text></g></g><g id="SvgjsG1028" transform="matrix(0.7071067811865476,0.7071067811865475,-0.7071067811865475,0.7071067811865476,102.46875,146.01290587728428)"><path id="SvgjsPath1029" d="M 0 18C 0 -6 36 -6 36 18C 36 42 0 42 0 18Z" stroke="rgba(0,0,0,1)" stroke-width="5" fill-opacity="1" fill="#000000"></path><g id="SvgjsG1030"><text id="SvgjsText1031" font-family="微软雅黑" text-anchor="middle" font-size="16px" width="16px" fill="#ffffff" font-weight="700" align="middle" lineHeight="125%" anchor="middle" family="微软雅黑" size="16px" weight="700" font-style="" opacity="1" y="6" transform="rotate(0)"></text></g></g><g id="SvgjsG1032" transform="translate(86.96875,156.96875)"><path id="SvgjsPath1033" d="M 0 0L 31 0L 31 29L 0 29Z" stroke="none" fill="none"></path><g id="SvgjsG1034"><text id="SvgjsText1035" font-family="微软雅黑" text-anchor="middle" font-size="16px" width="31px" fill="#ffffff" font-weight="700" align="middle" lineHeight="125%" anchor="middle" family="微软雅黑" size="16px" weight="700" font-style="" opacity="1" y="2.5" transform="rotate(0)"><tspan id="SvgjsTspan1036" dy="20" x="15.5"><tspan id="SvgjsTspan1037" style="text-decoration:;">10</tspan></tspan></text></g></g><g id="SvgjsG1038" transform="matrix(0.7071067811865476,0.7071067811865475,-0.7071067811865475,0.7071067811865476,205.46875,146.01290587728428)"><path id="SvgjsPath1039" d="M 0 18C 0 -6 36 -6 36 18C 36 42 0 42 0 18Z" stroke="rgba(0,0,0,1)" stroke-width="5" fill-opacity="1" fill="#000000"></path><g id="SvgjsG1040"><text id="SvgjsText1041" font-family="微软雅黑" text-anchor="middle" font-size="16px" width="16px" fill="#ffffff" font-weight="700" align="middle" lineHeight="125%" anchor="middle" family="微软雅黑" size="16px" weight="700" font-style="" opacity="1" y="6" transform="rotate(0)"></text></g></g><g id="SvgjsG1042" transform="translate(189.96875,156.96875)"><path id="SvgjsPath1043" d="M 0 0L 31 0L 31 29L 0 29Z" stroke="none" fill="none"></path><g id="SvgjsG1044"><text id="SvgjsText1045" font-family="微软雅黑" text-anchor="middle" font-size="16px" width="31px" fill="#ffffff" font-weight="700" align="middle" lineHeight="125%" anchor="middle" family="微软雅黑" size="16px" weight="700" font-style="" opacity="1" y="2.5" transform="rotate(0)"><tspan id="SvgjsTspan1046" dy="20" x="15.5"><tspan id="SvgjsTspan1047" style="text-decoration:;">20</tspan></tspan></text></g></g><g id="SvgjsG1048" transform="matrix(0.7071067811865476,0.7071067811865475,-0.7071067811865475,0.7071067811865476,434.46875,199.01290587728428)"><path id="SvgjsPath1049" d="M 0 18C 0 -6 36 -6 36 18C 36 42 0 42 0 18Z" stroke="rgba(0,0,0,1)" stroke-width="5" fill-opacity="1" fill="#000000"></path><g id="SvgjsG1050"><text id="SvgjsText1051" font-family="微软雅黑" text-anchor="middle" font-size="16px" width="16px" fill="#ffffff" font-weight="700" align="middle" lineHeight="125%" anchor="middle" family="微软雅黑" size="16px" weight="700" font-style="" opacity="1" y="6" transform="rotate(0)"></text></g></g><g id="SvgjsG1052" transform="translate(418.96875,209.96875)"><path id="SvgjsPath1053" d="M 0 0L 31 0L 31 29L 0 29Z" stroke="none" fill="none"></path><g id="SvgjsG1054"><text id="SvgjsText1055" font-family="微软雅黑" text-anchor="middle" font-size="16px" width="31px" fill="#ffffff" font-weight="700" align="middle" lineHeight="125%" anchor="middle" family="微软雅黑" size="16px" weight="700" font-style="" opacity="1" y="2.5" transform="rotate(0)"><tspan id="SvgjsTspan1056" dy="20" x="15.5"><tspan id="SvgjsTspan1057" style="text-decoration:;">65</tspan></tspan></text></g></g><g id="SvgjsG1058" transform="matrix(0.7071067811865476,0.7071067811865475,-0.7071067811865475,0.7071067811865476,248.46875,25.01290587728429)"><path id="SvgjsPath1059" d="M 0 18C 0 -6 36 -6 36 18C 36 42 0 42 0 18Z" stroke="rgba(0,0,0,1)" stroke-width="5" fill-opacity="1" fill="#000000"></path><g id="SvgjsG1060"><text id="SvgjsText1061" font-family="微软雅黑" text-anchor="middle" font-size="16px" width="16px" fill="#ffffff" font-weight="700" align="middle" lineHeight="125%" anchor="middle" family="微软雅黑" size="16px" weight="700" font-style="" opacity="1" y="6" transform="rotate(0)"></text></g></g><g id="SvgjsG1062" transform="translate(232.96875,35.96875)"><path id="SvgjsPath1063" d="M 0 0L 31 0L 31 29L 0 29Z" stroke="none" fill="none"></path><g id="SvgjsG1064"><text id="SvgjsText1065" font-family="微软雅黑" text-anchor="middle" font-size="16px" width="31px" fill="#ffffff" font-weight="700" align="middle" lineHeight="125%" anchor="middle" family="微软雅黑" size="16px" weight="700" font-style="" opacity="1" y="2.5" transform="rotate(0)"><tspan id="SvgjsTspan1066" dy="20" x="15.5"><tspan id="SvgjsTspan1067" style="text-decoration:;">30</tspan></tspan></text></g></g><g id="SvgjsG1068" transform="matrix(0.7071067811865476,0.7071067811865475,-0.7071067811865475,0.7071067811865476,505.46875,199.01290587728428)"><path id="SvgjsPath1069" d="M 0 18C 0 -6 36 -6 36 18C 36 42 0 42 0 18Z" stroke="rgba(211,47,47,1)" stroke-width="5" fill-opacity="1" fill="#d32f2f"></path><g id="SvgjsG1070"><text id="SvgjsText1071" font-family="微软雅黑" text-anchor="middle" font-size="16px" width="16px" fill="#ffffff" font-weight="700" align="middle" lineHeight="125%" anchor="middle" family="微软雅黑" size="16px" weight="700" font-style="" opacity="1" y="6" transform="rotate(0)"></text></g></g><g id="SvgjsG1072" transform="translate(489.96875,209.96875)"><path id="SvgjsPath1073" d="M 0 0L 31 0L 31 29L 0 29Z" stroke="none" fill="none"></path><g id="SvgjsG1074"><text id="SvgjsText1075" font-family="微软雅黑" text-anchor="middle" font-size="16px" width="31px" fill="#ffffff" font-weight="700" align="middle" lineHeight="125%" anchor="middle" family="微软雅黑" size="16px" weight="700" font-style="" opacity="1" y="2.5" transform="rotate(0)"><tspan id="SvgjsTspan1076" dy="20" x="15.5"><tspan id="SvgjsTspan1077" style="text-decoration:;">80</tspan></tspan></text></g></g><g id="SvgjsG1078"><path id="SvgjsPath1079" d="M538.96875 185.96875L518.0200485522206 209.19667206135784" stroke="#000000" stroke-width="2" fill="none"></path></g><g id="SvgjsG1080" transform="matrix(0.7071067811865476,0.7071067811865475,-0.7071067811865475,0.7071067811865476,554.46875,146.01290587728428)"><path id="SvgjsPath1081" d="M 0 18C 0 -6 36 -6 36 18C 36 42 0 42 0 18Z" stroke="rgba(0,0,0,1)" stroke-width="5" fill-opacity="1" fill="#000000"></path><g id="SvgjsG1082"><text id="SvgjsText1083" font-family="微软雅黑" text-anchor="middle" font-size="16px" width="16px" fill="#ffffff" font-weight="700" align="middle" lineHeight="125%" anchor="middle" family="微软雅黑" size="16px" weight="700" font-style="" opacity="1" y="6" transform="rotate(0)"></text></g></g><g id="SvgjsG1084" transform="translate(538.96875,156.96875)"><path id="SvgjsPath1085" d="M 0 0L 31 0L 31 29L 0 29Z" stroke="none" fill="none"></path><g id="SvgjsG1086"><text id="SvgjsText1087" font-family="微软雅黑" text-anchor="middle" font-size="16px" width="31px" fill="#ffffff" font-weight="700" align="middle" lineHeight="125%" anchor="middle" family="微软雅黑" size="16px" weight="700" font-style="" opacity="1" y="2.5" transform="rotate(0)"><tspan id="SvgjsTspan1088" dy="20" x="15.5"><tspan id="SvgjsTspan1089" style="text-decoration:;">85</tspan></tspan></text></g></g><g id="SvgjsG1090" transform="matrix(0.7071067811865476,0.7071067811865475,-0.7071067811865475,0.7071067811865476,603.46875,199.01290587728428)"><path id="SvgjsPath1091" d="M 0 18C 0 -6 36 -6 36 18C 36 42 0 42 0 18Z" stroke="rgba(211,47,47,1)" stroke-width="5" fill-opacity="1" fill="#d32f2f"></path><g id="SvgjsG1092"><text id="SvgjsText1093" font-family="微软雅黑" text-anchor="middle" font-size="16px" width="16px" fill="#ffffff" font-weight="700" align="middle" lineHeight="125%" anchor="middle" family="微软雅黑" size="16px" weight="700" font-style="" opacity="1" y="6" transform="rotate(0)"></text></g></g><g id="SvgjsG1094" transform="translate(587.96875,209.96875)"><path id="SvgjsPath1095" d="M 0 0L 31 0L 31 29L 0 29Z" stroke="none" fill="none"></path><g id="SvgjsG1096"><text id="SvgjsText1097" font-family="微软雅黑" text-anchor="middle" font-size="16px" width="31px" fill="#ffffff" font-weight="700" align="middle" lineHeight="125%" anchor="middle" family="微软雅黑" size="16px" weight="700" font-style="" opacity="1" y="2.5" transform="rotate(0)"><tspan id="SvgjsTspan1098" dy="20" x="15.5"><tspan id="SvgjsTspan1099" style="text-decoration:;">90</tspan></tspan></text></g></g><g id="SvgjsG1100"><path id="SvgjsPath1101" d="M566.792126490863 186.19667206135784L587.96875 213.01063906600154" stroke="#000000" stroke-width="2" fill="none"></path></g><g id="SvgjsG1102" transform="matrix(0.7071067811865476,0.7071067811865475,-0.7071067811865475,0.7071067811865476,282.46875,249.01290587728428)"><path id="SvgjsPath1103" d="M 0 18C 0 -6 36 -6 36 18C 36 42 0 42 0 18Z" stroke="rgba(211,47,47,1)" stroke-width="5" fill-opacity="1" fill="#d32f2f"></path><g id="SvgjsG1104"><text id="SvgjsText1105" font-family="微软雅黑" text-anchor="middle" font-size="16px" width="16px" fill="#ffffff" font-weight="700" align="middle" lineHeight="125%" anchor="middle" family="微软雅黑" size="16px" weight="700" font-style="" opacity="1" y="6" transform="rotate(0)"></text></g></g><g id="SvgjsG1106" transform="translate(266.96875,259.96875)"><path id="SvgjsPath1107" d="M 0 0L 31 0L 31 29L 0 29Z" stroke="none" fill="none"></path><g id="SvgjsG1108"><text id="SvgjsText1109" font-family="微软雅黑" text-anchor="middle" font-size="16px" width="31px" fill="#ffffff" font-weight="700" align="middle" lineHeight="125%" anchor="middle" family="微软雅黑" size="16px" weight="700" font-style="" opacity="1" y="2.5" transform="rotate(0)"><tspan id="SvgjsTspan1110" dy="20" x="15.5"><tspan id="SvgjsTspan1111" style="text-decoration:;">40</tspan></tspan></text></g></g><g id="SvgjsG1112"><path id="SvgjsPath1113" d="M314.96875 238.96875L294.564204429505 261.65251618407353" stroke="#d32f2f" stroke-width="2" fill="none"></path></g><g id="SvgjsG1114" transform="matrix(0.7071067811865476,0.7071067811865475,-0.7071067811865475,0.7071067811865476,330.46875,199.01290587728428)"><path id="SvgjsPath1115" d="M 0 18C 0 -6 36 -6 36 18C 36 42 0 42 0 18Z" stroke="rgba(0,0,0,1)" stroke-width="5" fill-opacity="1" fill="#000000"></path><g id="SvgjsG1116"><text id="SvgjsText1117" font-family="微软雅黑" text-anchor="middle" font-size="16px" width="16px" fill="#ffffff" font-weight="700" align="middle" lineHeight="125%" anchor="middle" family="微软雅黑" size="16px" weight="700" font-style="" opacity="1" y="6" transform="rotate(0)"></text></g></g><g id="SvgjsG1118" transform="translate(314.96875,209.96875)"><path id="SvgjsPath1119" d="M 0 0L 31 0L 31 29L 0 29Z" stroke="none" fill="none"></path><g id="SvgjsG1120"><text id="SvgjsText1121" font-family="微软雅黑" text-anchor="middle" font-size="16px" width="31px" fill="#ffffff" font-weight="700" align="middle" lineHeight="125%" anchor="middle" family="微软雅黑" size="16px" weight="700" font-style="" opacity="1" y="2.5" transform="rotate(0)"><tspan id="SvgjsTspan1122" dy="20" x="15.5"><tspan id="SvgjsTspan1123" style="text-decoration:;">50</tspan></tspan></text></g></g><g id="SvgjsG1124" transform="matrix(0.7071067811865476,0.7071067811865475,-0.7071067811865475,0.7071067811865476,379.46875,249.01290587728428)"><path id="SvgjsPath1125" d="M 0 18C 0 -6 36 -6 36 18C 36 42 0 42 0 18Z" stroke="rgba(211,47,47,1)" stroke-width="5" fill-opacity="1" fill="#d32f2f"></path><g id="SvgjsG1126"><text id="SvgjsText1127" font-family="微软雅黑" text-anchor="middle" font-size="16px" width="16px" fill="#ffffff" font-weight="700" align="middle" lineHeight="125%" anchor="middle" family="微软雅黑" size="16px" weight="700" font-style="" opacity="1" y="6" transform="rotate(0)"></text></g></g><g id="SvgjsG1128" transform="translate(363.96875,259.96875)"><path id="SvgjsPath1129" d="M 0 0L 31 0L 31 29L 0 29Z" stroke="none" fill="none"></path><g id="SvgjsG1130"><text id="SvgjsText1131" font-family="微软雅黑" text-anchor="middle" font-size="16px" width="31px" fill="#ffffff" font-weight="700" align="middle" lineHeight="125%" anchor="middle" family="微软雅黑" size="16px" weight="700" font-style="" opacity="1" y="2.5" transform="rotate(0)"><tspan id="SvgjsTspan1132" dy="20" x="15.5"><tspan id="SvgjsTspan1133" style="text-decoration:;">55</tspan></tspan></text></g></g><g id="SvgjsG1134"><path id="SvgjsPath1135" d="M343.3362823681473 238.65251618407353L363.96875 263.01063906600154" stroke="#d32f2f" stroke-width="2" fill="none"></path></g><g id="SvgjsG1136" transform="matrix(0.7071067811865476,0.7071067811865475,-0.7071067811865475,0.7071067811865476,379.46875,146.01290587728428)"><path id="SvgjsPath1137" d="M 0 18C 0 -6 36 -6 36 18C 36 42 0 42 0 18Z" stroke="rgba(211,47,47,1)" stroke-width="5" fill-opacity="1" fill="#d32f2f"></path><g id="SvgjsG1138"><text id="SvgjsText1139" font-family="微软雅黑" text-anchor="middle" font-size="16px" width="16px" fill="#ffffff" font-weight="700" align="middle" lineHeight="125%" anchor="middle" family="微软雅黑" size="16px" weight="700" font-style="" opacity="1" y="6" transform="rotate(0)"></text></g></g><g id="SvgjsG1140" transform="translate(363.96875,156.96875)"><path id="SvgjsPath1141" d="M 0 0L 31 0L 31 29L 0 29Z" stroke="none" fill="none"></path><g id="SvgjsG1142"><text id="SvgjsText1143" font-family="微软雅黑" text-anchor="middle" font-size="16px" width="31px" fill="#ffffff" font-weight="700" align="middle" lineHeight="125%" anchor="middle" family="微软雅黑" size="16px" weight="700" font-style="" opacity="1" y="2.5" transform="rotate(0)"><tspan id="SvgjsTspan1144" dy="20" x="15.5"><tspan id="SvgjsTspan1145" style="text-decoration:;">60</tspan></tspan></text></g></g><g id="SvgjsG1146" transform="matrix(0.7071067811865476,0.7071067811865475,-0.7071067811865475,0.7071067811865476,50.46875,199.01290587728428)"><path id="SvgjsPath1147" d="M 0 18C 0 -6 36 -6 36 18C 36 42 0 42 0 18Z" stroke="rgba(211,47,47,1)" stroke-width="5" fill-opacity="1" fill="#d32f2f"></path><g id="SvgjsG1148"><text id="SvgjsText1149" font-family="微软雅黑" text-anchor="middle" font-size="16px" width="16px" fill="#ffffff" font-weight="700" align="middle" lineHeight="125%" anchor="middle" family="微软雅黑" size="16px" weight="700" font-style="" opacity="1" y="6" transform="rotate(0)"></text></g></g><g id="SvgjsG1150" transform="translate(34.96875,209.96875)"><path id="SvgjsPath1151" d="M 0 0L 31 0L 31 29L 0 29Z" stroke="none" fill="none"></path><g id="SvgjsG1152"><text id="SvgjsText1153" font-family="微软雅黑" text-anchor="middle" font-size="16px" width="31px" fill="#ffffff" font-weight="700" align="middle" lineHeight="125%" anchor="middle" family="微软雅黑" size="16px" weight="700" font-style="" opacity="1" y="2.5" transform="rotate(0)"><tspan id="SvgjsTspan1154" dy="20" x="15.5"><tspan id="SvgjsTspan1155" style="text-decoration:;">5</tspan></tspan></text></g></g><g id="SvgjsG1156"><path id="SvgjsPath1157" d="M86.96875 185.4245941227157L65.96875 211.03054396748934" stroke="#000000" stroke-width="2" fill="none"></path></g><g id="SvgjsG1158"><path id="SvgjsPath1159" d="M365.86020223261824 185.96875L343.5865207119971 209.96875" stroke="#000000" stroke-width="2" fill="none"></path></g><g id="SvgjsG1160"><path id="SvgjsPath1161" d="M392.1083603067891 184.74082793864216L418.96875 210.8072116226885" stroke="#000000" stroke-width="2" fill="none"></path></g><g id="SvgjsG1162"><path id="SvgjsPath1163" d="M455.96875 123.43721106481678L394.96875 161.4245941227157" stroke="#000000" stroke-width="2" fill="none"></path></g><g id="SvgjsG1164"><path id="SvgjsPath1165" d="M486.96875 125.04038717094039L542.3291396932109 156.96875" stroke="#000000" stroke-width="2" fill="none"></path></g><g id="SvgjsG1166"><path id="SvgjsPath1167" d="M455.96875 99.01290587728431L261.38931794230564 64.96875" stroke="#000000" stroke-width="2" fill="none"></path></g><g id="SvgjsG1168"><path id="SvgjsPath1169" d="M113.96713798984877 156.96875L141.1430614854953 126.96875" stroke="#000000" stroke-width="2" fill="none"></path></g><g id="SvgjsG1170"><path id="SvgjsPath1171" d="M166.588879897737 123.65251618407353L189.96875 160.20105125802326" stroke="#000000" stroke-width="2" fill="none"></path></g><g id="SvgjsG1172"><path id="SvgjsPath1173" d="M235.68341316781823 64.96875L169.96875 98.77437310552727" stroke="#000000" stroke-width="2" fill="none"></path></g></svg>