<svg id="SvgjsSvg1006" width="798.046875" height="777.328125" xmlns="http://www.w3.org/2000/svg" version="1.1" xmlns:xlink="http://www.w3.org/1999/xlink" xmlns:svgjs="http://svgjs.com/svgjs"><defs id="SvgjsDefs1007"><marker id="SvgjsMarker1028" markerWidth="16" markerHeight="12" refX="16" refY="6" viewBox="0 0 16 12" orient="auto" markerUnits="userSpaceOnUse" stroke-dasharray="0,0"><path id="SvgjsPath1029" d="M0,2 L14,6 L0,11 L0,2" fill="#323232" stroke="#323232" stroke-width="2"></path></marker><marker id="SvgjsMarker1124" markerWidth="16" markerHeight="12" refX="16" refY="6" viewBox="0 0 16 12" orient="auto" markerUnits="userSpaceOnUse" stroke-dasharray="0,0"><path id="SvgjsPath1125" d="M0,2 L14,6 L0,11 L0,2" fill="#323232" stroke="#323232" stroke-width="2"></path></marker></defs><g id="SvgjsG1008" transform="translate(489.3070617545686,478.9653411409902)"><path id="SvgjsPath1009" d="M 0 0L 269 0L 269 222.57337649086276L 0 222.57337649086276Z" stroke-dasharray="3,4" stroke="rgba(50,50,50,1)" stroke-width="2" fill-opacity="1" fill="#ffffff"></path><g id="SvgjsG1010"><text id="SvgjsText1011" font-family="微软雅黑" text-anchor="middle" font-size="13px" width="249px" fill="#323232" font-weight="400" align="middle" lineHeight="125%" anchor="middle" family="微软雅黑" size="13px" weight="400" font-style="" opacity="1" y="101.66168824543138" transform="rotate(0)"></text></g></g><g id="SvgjsG1012" transform="translate(487.96875,85.70787350913724)"><path id="SvgjsPath1013" d="M 0 0L 269 0L 269 222.57337649086276L 0 222.57337649086276Z" stroke-dasharray="3,4" stroke="rgba(50,50,50,1)" stroke-width="2" fill-opacity="1" fill="#ffffff"></path><g id="SvgjsG1014"><text id="SvgjsText1015" font-family="微软雅黑" text-anchor="middle" font-size="13px" width="249px" fill="#323232" font-weight="400" align="middle" lineHeight="125%" anchor="middle" family="微软雅黑" size="13px" weight="400" font-style="" opacity="1" y="101.66168824543138" transform="rotate(0)"></text></g></g><g id="SvgjsG1016" transform="translate(284.0129058772843,226.04618526370587)"><path id="SvgjsPath1017" d="M 0 0L 89 0L 105 16L 105 50.91168824543138L 0 50.91168824543138L 0 0Z" stroke="none" fill-opacity="1" fill="#64b5f6"></path><path id="SvgjsPath1018" d="M 89 0L 89 16L 105 16Z" stroke="none" fill-opacity="1" fill="#cdcdcd"></path><path id="SvgjsPath1019" d="M 0 0L 89 0L 105 16L 105 50.91168824543138L 0 50.91168824543138L 0 0Z" stroke="none" fill="none"></path><g id="SvgjsG1020"><text id="SvgjsText1021" font-family="微软雅黑" text-anchor="middle" font-size="13px" width="85px" fill="#323232" font-weight="400" align="middle" lineHeight="125%" anchor="middle" family="微软雅黑" size="13px" weight="400" font-style="" opacity="1" y="7.830844122715689" transform="rotate(0)"><tspan id="SvgjsTspan1022" dy="16" x="52.5"><tspan id="SvgjsTspan1023" style="text-decoration:;font-weight: bold;">待平衡的</tspan></tspan><tspan id="SvgjsTspan1024" dy="16" x="52.5"><tspan id="SvgjsTspan1025" style="text-decoration:;font-weight: bold;">结点N</tspan></tspan></text></g></g><g id="SvgjsG1026"><path id="SvgjsPath1027" d="M336.5129058772843 226.04618526370587C 336.5129058772843 195.47649213493975 298.4134431287662 192.50202938642155 267.84375 192.50202938642155" stroke-dasharray="3,3" stroke="#323232" stroke-width="2" fill="none" marker-end="url(#SvgjsMarker1028)"></path></g><g id="SvgjsG1030" transform="matrix(0.7071067811865476,0.7071067811865475,-0.7071067811865475,0.7071067811865476,252.34375,167.0461852962296)"><path id="SvgjsPath1031" d="M 0 18C 0 -6 36 -6 36 18C 36 42 0 42 0 18Z" stroke="rgba(0,0,0,1)" stroke-width="5" fill-opacity="1" fill="#000000"></path><g id="SvgjsG1032"><text id="SvgjsText1033" font-family="微软雅黑" text-anchor="middle" font-size="16px" width="16px" fill="#ffffff" font-weight="700" align="middle" lineHeight="125%" anchor="middle" family="微软雅黑" size="16px" weight="700" font-style="" opacity="1" y="6" transform="rotate(0)"></text></g></g><g id="SvgjsG1034" transform="translate(236.84375,178.00202938642155)"><path id="SvgjsPath1035" d="M 0 0L 31 0L 31 29L 0 29Z" stroke="none" fill="none"></path><g id="SvgjsG1036"><text id="SvgjsText1037" font-family="微软雅黑" text-anchor="middle" font-size="16px" width="31px" fill="#ffffff" font-weight="700" align="middle" lineHeight="125%" anchor="middle" family="微软雅黑" size="16px" weight="700" font-style="" opacity="1" y="2.5" transform="rotate(0)"><tspan id="SvgjsTspan1038" dy="20" x="15.5"><tspan id="SvgjsTspan1039" style="text-decoration:;">N</tspan></tspan></text></g></g><g id="SvgjsG1040" transform="matrix(0.7071067811865476,0.7071067811865475,-0.7071067811865475,0.7071067811865476,199.51290893554688,93.50202636068272)"><path id="SvgjsPath1041" d="M 0 18C 0 -6 36 -6 36 18C 36 42 0 42 0 18Z" stroke="rgba(0,0,0,1)" stroke-width="2" fill-opacity="1" fill="#e0e0e0"></path><g id="SvgjsG1042"><text id="SvgjsText1043" font-family="微软雅黑" text-anchor="middle" font-size="16px" width="16px" fill="#000000" font-weight="700" align="middle" lineHeight="125%" anchor="middle" family="微软雅黑" size="16px" weight="700" font-style="" opacity="1" y="6" transform="rotate(0)"></text></g></g><g id="SvgjsG1044" transform="translate(182.7629058772843,101.95787350913724)"><path id="SvgjsPath1045" d="M 0 0L 33.5 0L 33.5 35L 0 35Z" stroke="none" fill="none"></path><g id="SvgjsG1046"><text id="SvgjsText1047" font-family="微软雅黑" text-anchor="middle" font-size="16px" width="34px" fill="#000000" font-weight="700" align="middle" lineHeight="125%" anchor="middle" family="微软雅黑" size="16px" weight="700" font-style="" opacity="1" y="5.5" transform="rotate(0)"><tspan id="SvgjsTspan1048" dy="20" x="17"><tspan id="SvgjsTspan1049" style="text-decoration:;">P</tspan></tspan></text></g></g><g id="SvgjsG1050"><path id="SvgjsPath1051" d="M215.0028241737109 129.02243095489746L237.06451022144495 178.69328805903956" stroke="#000000" stroke-width="2" fill="none"></path></g><g id="SvgjsG1052" transform="matrix(0.7071067811865476,0.7071067811865475,-0.7071067811865475,0.7071067811865476,145.26290893554688,167.0461852962296)"><path id="SvgjsPath1053" d="M 0 18C 0 -6 36 -6 36 18C 36 42 0 42 0 18Z" stroke="rgba(0,0,0,1)" stroke-width="5" fill-opacity="1" fill="#000000"></path><g id="SvgjsG1054"><text id="SvgjsText1055" font-family="微软雅黑" text-anchor="middle" font-size="16px" width="16px" fill="#ffffff" font-weight="700" align="middle" lineHeight="125%" anchor="middle" family="微软雅黑" size="16px" weight="700" font-style="" opacity="1" y="6" transform="rotate(0)"></text></g></g><g id="SvgjsG1056" transform="translate(128.5129058772843,175.50202938642155)"><path id="SvgjsPath1057" d="M 0 0L 33.5 0L 33.5 35L 0 35Z" stroke="none" fill="none"></path><g id="SvgjsG1058"><text id="SvgjsText1059" font-family="微软雅黑" text-anchor="middle" font-size="16px" width="34px" fill="#ffffff" font-weight="700" align="middle" lineHeight="125%" anchor="middle" family="微软雅黑" size="16px" weight="700" font-style="" opacity="1" y="5.5" transform="rotate(0)"><tspan id="SvgjsTspan1060" dy="20" x="17"><tspan id="SvgjsTspan1061" style="text-decoration:;">S</tspan></tspan></text></g></g><g id="SvgjsG1062" transform="matrix(0.7071067811865476,0.7071067811865475,-0.7071067811865475,0.7071067811865476,101.80706024169922,241.0461852962296)"><path id="SvgjsPath1063" d="M 0 18C 0 -6 36 -6 36 18C 36 42 0 42 0 18Z" stroke="rgba(0,0,0,1)" stroke-width="5" fill-opacity="1" fill="#000000"></path><g id="SvgjsG1064"><text id="SvgjsText1065" font-family="微软雅黑" text-anchor="middle" font-size="16px" width="16px" fill="#ffffff" font-weight="700" align="middle" lineHeight="125%" anchor="middle" family="微软雅黑" size="16px" weight="700" font-style="" opacity="1" y="6" transform="rotate(0)"></text></g></g><g id="SvgjsG1066" transform="translate(85.05706175456862,249.50202938642155)"><path id="SvgjsPath1067" d="M 0 0L 33.5 0L 33.5 35L 0 35Z" stroke="none" fill="none"></path><g id="SvgjsG1068"><text id="SvgjsText1069" font-family="微软雅黑" text-anchor="middle" font-size="16px" width="34px" fill="#ffffff" font-weight="700" align="middle" lineHeight="125%" anchor="middle" family="微软雅黑" size="16px" weight="700" font-style="" opacity="1" y="5.5" transform="rotate(0)"><tspan id="SvgjsTspan1070" dy="20" x="17"><tspan id="SvgjsTspan1071" style="text-decoration:;">SL</tspan></tspan></text></g></g><g id="SvgjsG1072" transform="matrix(0.7071067811865476,0.7071067811865475,-0.7071067811865475,0.7071067811865476,198.26290893554688,241.0461852962296)"><path id="SvgjsPath1073" d="M 0 18C 0 -6 36 -6 36 18C 36 42 0 42 0 18Z" stroke="rgba(211,47,47,1)" stroke-width="5" fill-opacity="1" fill="#d32f2f"></path><g id="SvgjsG1074"><text id="SvgjsText1075" font-family="微软雅黑" text-anchor="middle" font-size="16px" width="16px" fill="#ffffff" font-weight="700" align="middle" lineHeight="125%" anchor="middle" family="微软雅黑" size="16px" weight="700" font-style="" opacity="1" y="6" transform="rotate(0)"></text></g></g><g id="SvgjsG1076" transform="translate(181.5129058772843,249.50202938642155)"><path id="SvgjsPath1077" d="M 0 0L 33.5 0L 33.5 35L 0 35Z" stroke="none" fill="none"></path><g id="SvgjsG1078"><text id="SvgjsText1079" font-family="微软雅黑" text-anchor="middle" font-size="16px" width="34px" fill="#ffffff" font-weight="700" align="middle" lineHeight="125%" anchor="middle" family="微软雅黑" size="16px" weight="700" font-style="" opacity="1" y="5.5" transform="rotate(0)"><tspan id="SvgjsTspan1080" dy="20" x="17"><tspan id="SvgjsTspan1081" style="text-decoration:;">SR</tspan></tspan></text></g></g><g id="SvgjsG1082" transform="matrix(0.7071067811865476,0.7071067811865475,-0.7071067811865475,0.7071067811865476,199.51290893554688,25.002030175379993)"><path id="SvgjsPath1083" d="M 0 18C 0 -6 36 -6 36 18C 36 42 0 42 0 18Z" stroke="rgba(0,0,0,1)" stroke-width="2" fill-opacity="1" fill="#ffffff"></path><g id="SvgjsG1084"><text id="SvgjsText1085" font-family="微软雅黑" text-anchor="middle" font-size="16px" width="16px" fill="#000000" font-weight="700" align="middle" lineHeight="125%" anchor="middle" family="微软雅黑" size="16px" weight="700" font-style="" opacity="1" y="6" transform="rotate(0)"></text></g></g><g id="SvgjsG1086" transform="translate(182.7629058772843,33.457873509137244)"><path id="SvgjsPath1087" d="M 0 0L 33.5 0L 33.5 35L 0 35Z" stroke="none" fill="none"></path><g id="SvgjsG1088"><text id="SvgjsText1089" font-family="微软雅黑" text-anchor="middle" font-size="16px" width="34px" fill="#000000" font-weight="700" align="middle" lineHeight="125%" anchor="middle" family="微软雅黑" size="16px" weight="700" font-style="" opacity="1" y="5.5" transform="rotate(0)"><tspan id="SvgjsTspan1090" dy="20" x="17"><tspan id="SvgjsTspan1091" style="text-decoration:;">G</tspan></tspan></text></g></g><g id="SvgjsG1092"><path id="SvgjsPath1093" d="M199.5129058772843 68.45787350913724L199.5129058772843 85.20787350913724L199.5129058772843 85.20787350913724L199.5129058772843 101.95787350913724" stroke="#323232" stroke-width="2" fill="none"></path></g><g id="SvgjsG1094"><path id="SvgjsPath1095" d="M186.31077014332567 133.34155737921412L161.3835206357125 176.00944616393565" stroke="#323232" stroke-width="2" fill="none"></path></g><g id="SvgjsG1096"><path id="SvgjsPath1097" d="M133.80706175456862 209.50202938642155L111.80706175456862 250.15402593184388" stroke="#323232" stroke-width="2" fill="none"></path></g><g id="SvgjsG1098"><path id="SvgjsPath1099" d="M161.16427414488203 209.73598494330258L181.71590827264185 251.9997625751389" stroke="#323232" stroke-width="2" fill="none"></path></g><g id="SvgjsG1100" transform="matrix(-1,1.2246467991473532e-16,-1.2246467991473532e-16,-1,441.96875,170.95787048339844)"><path id="SvgjsPath1101" d="M 0 10L 10 0L 10 6.6000000000000005L 108 6.6000000000000005L 108 13.4L 10 13.4L 10 20L 0 10Z" stroke="rgba(50,50,50,1)" stroke-width="2" fill-opacity="1" fill="#ffffff"></path><g id="SvgjsG1102"><text id="SvgjsText1103" font-family="微软雅黑" text-anchor="middle" font-size="13px" width="108px" fill="#323232" font-weight="400" align="middle" lineHeight="125%" anchor="middle" family="微软雅黑" size="13px" weight="400" font-style="" opacity="1" y="0.3750000000000009" transform="rotate(0)"></text></g></g><g id="SvgjsG1104" transform="translate(316.96875,112.28125)"><path id="SvgjsPath1105" d="M 0 0L 142 0L 142 41.58831175456862L 0 41.58831175456862Z" stroke="none" fill="none"></path><g id="SvgjsG1106"><text id="SvgjsText1107" font-family="微软雅黑" text-anchor="middle" font-size="13px" width="142px" fill="#323232" font-weight="400" align="middle" lineHeight="125%" anchor="middle" family="微软雅黑" size="13px" weight="400" font-style="" opacity="1" y="3.169155877284311" transform="rotate(0)"><tspan id="SvgjsTspan1108" dy="16" x="71"><tspan id="SvgjsTspan1109" style="text-decoration:;font-weight: bold;">以S支点左旋</tspan></tspan><tspan id="SvgjsTspan1110" dy="16" x="71"><tspan id="SvgjsTspan1111" style="text-decoration:;font-weight: bold;">交换SR、S着色</tspan></tspan></text></g></g><g id="SvgjsG1112" transform="translate(25.01290587728431,617.0461852637059)"><path id="SvgjsPath1113" d="M 0 0L 89 0L 105 16L 105 50.91168824543138L 0 50.91168824543138L 0 0Z" stroke="none" fill-opacity="1" fill="#64b5f6"></path><path id="SvgjsPath1114" d="M 89 0L 89 16L 105 16Z" stroke="none" fill-opacity="1" fill="#cdcdcd"></path><path id="SvgjsPath1115" d="M 0 0L 89 0L 105 16L 105 50.91168824543138L 0 50.91168824543138L 0 0Z" stroke="none" fill="none"></path><g id="SvgjsG1116"><text id="SvgjsText1117" font-family="微软雅黑" text-anchor="middle" font-size="13px" width="85px" fill="#323232" font-weight="400" align="middle" lineHeight="125%" anchor="middle" family="微软雅黑" size="13px" weight="400" font-style="" opacity="1" y="7.830844122715689" transform="rotate(0)"><tspan id="SvgjsTspan1118" dy="16" x="52.5"><tspan id="SvgjsTspan1119" style="text-decoration:;font-weight: bold;">待平衡的</tspan></tspan><tspan id="SvgjsTspan1120" dy="16" x="52.5"><tspan id="SvgjsTspan1121" style="text-decoration:;font-weight: bold;">结点N</tspan></tspan></text></g></g><g id="SvgjsG1122"><path id="SvgjsPath1123" d="M77.51290587728431 617.0461852637059C 77.51290587728431 593.5706657255031 105.0886943502307 592.8042472795481 127.7643049577344 586.7283357293849" stroke-dasharray="3,3" stroke="#323232" stroke-width="2" fill="none" marker-end="url(#SvgjsMarker1124)"></path></g><g id="SvgjsG1126" transform="matrix(0.7071067811865476,0.7071067811865475,-0.7071067811865475,0.7071067811865476,145.51290893554688,562.0461700374406)"><path id="SvgjsPath1127" d="M 0 18C 0 -6 36 -6 36 18C 36 42 0 42 0 18Z" stroke="rgba(0,0,0,1)" stroke-width="5" fill-opacity="1" fill="#000000"></path><g id="SvgjsG1128"><text id="SvgjsText1129" font-family="微软雅黑" text-anchor="middle" font-size="16px" width="16px" fill="#ffffff" font-weight="700" align="middle" lineHeight="125%" anchor="middle" family="微软雅黑" size="16px" weight="700" font-style="" opacity="1" y="6" transform="rotate(0)"></text></g></g><g id="SvgjsG1130" transform="translate(130.0129058772843,573.0020293864216)"><path id="SvgjsPath1131" d="M 0 0L 31 0L 31 29L 0 29Z" stroke="none" fill="none"></path><g id="SvgjsG1132"><text id="SvgjsText1133" font-family="微软雅黑" text-anchor="middle" font-size="16px" width="31px" fill="#ffffff" font-weight="700" align="middle" lineHeight="125%" anchor="middle" family="微软雅黑" size="16px" weight="700" font-style="" opacity="1" y="2.5" transform="rotate(0)"><tspan id="SvgjsTspan1134" dy="20" x="15.5"><tspan id="SvgjsTspan1135" style="text-decoration:;">N</tspan></tspan></text></g></g><g id="SvgjsG1136" transform="matrix(0.7071067811865476,0.7071067811865475,-0.7071067811865475,0.7071067811865476,199.76290893554688,488.5020416194718)"><path id="SvgjsPath1137" d="M 0 18C 0 -6 36 -6 36 18C 36 42 0 42 0 18Z" stroke="rgba(0,0,0,1)" stroke-width="2" fill-opacity="1" fill="#e0e0e0"></path><g id="SvgjsG1138"><text id="SvgjsText1139" font-family="微软雅黑" text-anchor="middle" font-size="16px" width="16px" fill="#000000" font-weight="700" align="middle" lineHeight="125%" anchor="middle" family="微软雅黑" size="16px" weight="700" font-style="" opacity="1" y="6" transform="rotate(0)"></text></g></g><g id="SvgjsG1140" transform="translate(183.0129058772843,496.95787350913724)"><path id="SvgjsPath1141" d="M 0 0L 33.5 0L 33.5 35L 0 35Z" stroke="none" fill="none"></path><g id="SvgjsG1142"><text id="SvgjsText1143" font-family="微软雅黑" text-anchor="middle" font-size="16px" width="34px" fill="#000000" font-weight="700" align="middle" lineHeight="125%" anchor="middle" family="微软雅黑" size="16px" weight="700" font-style="" opacity="1" y="5.5" transform="rotate(0)"><tspan id="SvgjsTspan1144" dy="20" x="17"><tspan id="SvgjsTspan1145" style="text-decoration:;">P</tspan></tspan></text></g></g><g id="SvgjsG1146"><path id="SvgjsPath1147" d="M184.46875 528.4152245962156L156.77259757729337 573.28125" stroke="#000000" stroke-width="2" fill="none"></path></g><g id="SvgjsG1148" transform="matrix(0.7071067811865476,0.7071067811865475,-0.7071067811865475,0.7071067811865476,251.34375,562.0461700374406)"><path id="SvgjsPath1149" d="M 0 18C 0 -6 36 -6 36 18C 36 42 0 42 0 18Z" stroke="rgba(0,0,0,1)" stroke-width="5" fill-opacity="1" fill="#000000"></path><g id="SvgjsG1150"><text id="SvgjsText1151" font-family="微软雅黑" text-anchor="middle" font-size="16px" width="16px" fill="#ffffff" font-weight="700" align="middle" lineHeight="125%" anchor="middle" family="微软雅黑" size="16px" weight="700" font-style="" opacity="1" y="6" transform="rotate(0)"></text></g></g><g id="SvgjsG1152" transform="translate(234.59375,570.5020293864216)"><path id="SvgjsPath1153" d="M 0 0L 33.5 0L 33.5 35L 0 35Z" stroke="none" fill="none"></path><g id="SvgjsG1154"><text id="SvgjsText1155" font-family="微软雅黑" text-anchor="middle" font-size="16px" width="34px" fill="#ffffff" font-weight="700" align="middle" lineHeight="125%" anchor="middle" family="微软雅黑" size="16px" weight="700" font-style="" opacity="1" y="5.5" transform="rotate(0)"><tspan id="SvgjsTspan1156" dy="20" x="17"><tspan id="SvgjsTspan1157" style="text-decoration:;">S</tspan></tspan></text></g></g><g id="SvgjsG1158" transform="matrix(0.7071067811865476,0.7071067811865475,-0.7071067811865475,0.7071067811865476,301.0129089355469,628.5903594905656)"><path id="SvgjsPath1159" d="M 0 18C 0 -6 36 -6 36 18C 36 42 0 42 0 18Z" stroke="rgba(0,0,0,1)" stroke-width="5" fill-opacity="1" fill="#000000"></path><g id="SvgjsG1160"><text id="SvgjsText1161" font-family="微软雅黑" text-anchor="middle" font-size="16px" width="16px" fill="#ffffff" font-weight="700" align="middle" lineHeight="125%" anchor="middle" family="微软雅黑" size="16px" weight="700" font-style="" opacity="1" y="6" transform="rotate(0)"></text></g></g><g id="SvgjsG1162" transform="translate(284.2629058772843,637.0461852637059)"><path id="SvgjsPath1163" d="M 0 0L 33.5 0L 33.5 35L 0 35Z" stroke="none" fill="none"></path><g id="SvgjsG1164"><text id="SvgjsText1165" font-family="微软雅黑" text-anchor="middle" font-size="16px" width="34px" fill="#ffffff" font-weight="700" align="middle" lineHeight="125%" anchor="middle" family="微软雅黑" size="16px" weight="700" font-style="" opacity="1" y="5.5" transform="rotate(0)"><tspan id="SvgjsTspan1166" dy="20" x="17"><tspan id="SvgjsTspan1167" style="text-decoration:;">SR</tspan></tspan></text></g></g><g id="SvgjsG1168" transform="matrix(0.7071067811865476,0.7071067811865475,-0.7071067811865475,0.7071067811865476,207.88790893554688,628.5903594905656)"><path id="SvgjsPath1169" d="M 0 18C 0 -6 36 -6 36 18C 36 42 0 42 0 18Z" stroke="rgba(211,47,47,1)" stroke-width="5" fill-opacity="1" fill="#d32f2f"></path><g id="SvgjsG1170"><text id="SvgjsText1171" font-family="微软雅黑" text-anchor="middle" font-size="16px" width="16px" fill="#ffffff" font-weight="700" align="middle" lineHeight="125%" anchor="middle" family="微软雅黑" size="16px" weight="700" font-style="" opacity="1" y="6" transform="rotate(0)"></text></g></g><g id="SvgjsG1172" transform="translate(191.1379058772843,637.0461852637059)"><path id="SvgjsPath1173" d="M 0 0L 33.5 0L 33.5 35L 0 35Z" stroke="none" fill="none"></path><g id="SvgjsG1174"><text id="SvgjsText1175" font-family="微软雅黑" text-anchor="middle" font-size="16px" width="34px" fill="#ffffff" font-weight="700" align="middle" lineHeight="125%" anchor="middle" family="微软雅黑" size="16px" weight="700" font-style="" opacity="1" y="5.5" transform="rotate(0)"><tspan id="SvgjsTspan1176" dy="20" x="17"><tspan id="SvgjsTspan1177" style="text-decoration:;">SL</tspan></tspan></text></g></g><g id="SvgjsG1178" transform="matrix(0.7071067811865476,0.7071067811865475,-0.7071067811865475,0.7071067811865476,199.76290893554688,420.0020416194718)"><path id="SvgjsPath1179" d="M 0 18C 0 -6 36 -6 36 18C 36 42 0 42 0 18Z" stroke="rgba(0,0,0,1)" stroke-width="2" fill-opacity="1" fill="#ffffff"></path><g id="SvgjsG1180"><text id="SvgjsText1181" font-family="微软雅黑" text-anchor="middle" font-size="16px" width="16px" fill="#000000" font-weight="700" align="middle" lineHeight="125%" anchor="middle" family="微软雅黑" size="16px" weight="700" font-style="" opacity="1" y="6" transform="rotate(0)"></text></g></g><g id="SvgjsG1182" transform="translate(183.0129058772843,428.45787350913724)"><path id="SvgjsPath1183" d="M 0 0L 33.5 0L 33.5 35L 0 35Z" stroke="none" fill="none"></path><g id="SvgjsG1184"><text id="SvgjsText1185" font-family="微软雅黑" text-anchor="middle" font-size="16px" width="34px" fill="#000000" font-weight="700" align="middle" lineHeight="125%" anchor="middle" family="微软雅黑" size="16px" weight="700" font-style="" opacity="1" y="5.5" transform="rotate(0)"><tspan id="SvgjsTspan1186" dy="20" x="17"><tspan id="SvgjsTspan1187" style="text-decoration:;">G</tspan></tspan></text></g></g><g id="SvgjsG1188"><path id="SvgjsPath1189" d="M199.7629058772843 463.45787350913724L199.7629058772843 480.20787350913724L199.7629058772843 480.20787350913724L199.7629058772843 496.95787350913724" stroke="#323232" stroke-width="2" fill="none"></path></g><g id="SvgjsG1190"><path id="SvgjsPath1191" d="M214.3259623903134 530.515205556881L235.4328516151378 572.28125" stroke="#323232" stroke-width="2" fill="none"></path></g><g id="SvgjsG1192"><path id="SvgjsPath1193" d="M267.149597955711 601.707673563649L284.4613689812138 638.9913507166283" stroke="#323232" stroke-width="2" fill="none"></path></g><g id="SvgjsG1194"><path id="SvgjsPath1195" d="M239.96875 605.28125L223.29698005099522 639.0842249223869" stroke="#323232" stroke-width="2" fill="none"></path></g><g id="SvgjsG1196" transform="matrix(-1,1.2246467991473532e-16,-1.2246467991473532e-16,-1,442.21875,565.9578857421875)"><path id="SvgjsPath1197" d="M 0 10L 10 0L 10 6.6000000000000005L 108 6.6000000000000005L 108 13.4L 10 13.4L 10 20L 0 10Z" stroke="rgba(50,50,50,1)" stroke-width="2" fill-opacity="1" fill="#ffffff"></path><g id="SvgjsG1198"><text id="SvgjsText1199" font-family="微软雅黑" text-anchor="middle" font-size="13px" width="108px" fill="#323232" font-weight="400" align="middle" lineHeight="125%" anchor="middle" family="微软雅黑" size="13px" weight="400" font-style="" opacity="1" y="0.3750000000000009" transform="rotate(0)"></text></g></g><g id="SvgjsG1200" transform="translate(317.21875,507.28125)"><path id="SvgjsPath1201" d="M 0 0L 142 0L 142 41.58831175456862L 0 41.58831175456862Z" stroke="none" fill="none"></path><g id="SvgjsG1202"><text id="SvgjsText1203" font-family="微软雅黑" text-anchor="middle" font-size="13px" width="142px" fill="#323232" font-weight="400" align="middle" lineHeight="125%" anchor="middle" family="微软雅黑" size="13px" weight="400" font-style="" opacity="1" y="3.169155877284311" transform="rotate(0)"><tspan id="SvgjsTspan1204" dy="16" x="71"><tspan id="SvgjsTspan1205" style="text-decoration:;font-weight: bold;">以P支点左旋</tspan></tspan><tspan id="SvgjsTspan1206" dy="16" x="71"><tspan id="SvgjsTspan1207" style="text-decoration:;font-weight: bold;">交换P、S着色，SR着黑</tspan></tspan></text></g></g><g id="SvgjsG1208" transform="matrix(0.7071067811865476,0.7071067811865475,-0.7071067811865475,0.7071067811865476,646.8878784179688,564.7961700374406)"><path id="SvgjsPath1209" d="M 0 18C 0 -6 36 -6 36 18C 36 42 0 42 0 18Z" stroke="rgba(0,0,0,1)" stroke-width="5" fill-opacity="1" fill="#000000"></path><g id="SvgjsG1210"><text id="SvgjsText1211" font-family="微软雅黑" text-anchor="middle" font-size="16px" width="16px" fill="#ffffff" font-weight="700" align="middle" lineHeight="125%" anchor="middle" family="微软雅黑" size="16px" weight="700" font-style="" opacity="1" y="6" transform="rotate(0)"></text></g></g><g id="SvgjsG1212" transform="translate(631.3879058772843,575.7520293864216)"><path id="SvgjsPath1213" d="M 0 0L 31 0L 31 29L 0 29Z" stroke="none" fill="none"></path><g id="SvgjsG1214"><text id="SvgjsText1215" font-family="微软雅黑" text-anchor="middle" font-size="16px" width="31px" fill="#ffffff" font-weight="700" align="middle" lineHeight="125%" anchor="middle" family="微软雅黑" size="16px" weight="700" font-style="" opacity="1" y="2.5" transform="rotate(0)"><tspan id="SvgjsTspan1216" dy="20" x="15.5"><tspan id="SvgjsTspan1217" style="text-decoration:;">SL</tspan></tspan></text></g></g><g id="SvgjsG1218" transform="matrix(0.7071067811865476,0.7071067811865475,-0.7071067811865475,0.7071067811865476,594.0570678710938,491.2520416194718)"><path id="SvgjsPath1219" d="M 0 18C 0 -6 36 -6 36 18C 36 42 0 42 0 18Z" stroke="rgba(0,0,0,1)" stroke-width="2" fill-opacity="1" fill="#e0e0e0"></path><g id="SvgjsG1220"><text id="SvgjsText1221" font-family="微软雅黑" text-anchor="middle" font-size="16px" width="16px" fill="#000000" font-weight="700" align="middle" lineHeight="125%" anchor="middle" family="微软雅黑" size="16px" weight="700" font-style="" opacity="1" y="6" transform="rotate(0)"></text></g></g><g id="SvgjsG1222" transform="translate(577.3070617545686,499.70787350913724)"><path id="SvgjsPath1223" d="M 0 0L 33.5 0L 33.5 35L 0 35Z" stroke="none" fill="none"></path><g id="SvgjsG1224"><text id="SvgjsText1225" font-family="微软雅黑" text-anchor="middle" font-size="16px" width="34px" fill="#000000" font-weight="700" align="middle" lineHeight="125%" anchor="middle" family="微软雅黑" size="16px" weight="700" font-style="" opacity="1" y="5.5" transform="rotate(0)"><tspan id="SvgjsTspan1226" dy="20" x="17"><tspan id="SvgjsTspan1227" style="text-decoration:;">P</tspan></tspan></text></g></g><g id="SvgjsG1228"><path id="SvgjsPath1229" d="M609.5469800509952 526.7724309548975L631.6086660987293 576.4432880590396" stroke="#000000" stroke-width="2" fill="none"></path></g><g id="SvgjsG1230" transform="matrix(0.7071067811865476,0.7071067811865475,-0.7071067811865475,0.7071067811865476,539.8070678710938,564.7961700374406)"><path id="SvgjsPath1231" d="M 0 18C 0 -6 36 -6 36 18C 36 42 0 42 0 18Z" stroke="rgba(0,0,0,1)" stroke-width="5" fill-opacity="1" fill="#000000"></path><g id="SvgjsG1232"><text id="SvgjsText1233" font-family="微软雅黑" text-anchor="middle" font-size="16px" width="16px" fill="#ffffff" font-weight="700" align="middle" lineHeight="125%" anchor="middle" family="微软雅黑" size="16px" weight="700" font-style="" opacity="1" y="6" transform="rotate(0)"></text></g></g><g id="SvgjsG1234" transform="translate(523.0570617545686,573.2520293864216)"><path id="SvgjsPath1235" d="M 0 0L 33.5 0L 33.5 35L 0 35Z" stroke="none" fill="none"></path><g id="SvgjsG1236"><text id="SvgjsText1237" font-family="微软雅黑" text-anchor="middle" font-size="16px" width="34px" fill="#ffffff" font-weight="700" align="middle" lineHeight="125%" anchor="middle" family="微软雅黑" size="16px" weight="700" font-style="" opacity="1" y="5.5" transform="rotate(0)"><tspan id="SvgjsTspan1238" dy="20" x="17"><tspan id="SvgjsTspan1239" style="text-decoration:;">N</tspan></tspan></text></g></g><g id="SvgjsG1240" transform="matrix(0.7071067811865476,0.7071067811865475,-0.7071067811865475,0.7071067811865476,594.0570678710938,422.7520416194718)"><path id="SvgjsPath1241" d="M 0 18C 0 -6 36 -6 36 18C 36 42 0 42 0 18Z" stroke="rgba(0,0,0,1)" stroke-width="2" fill-opacity="1" fill="#ffffff"></path><g id="SvgjsG1242"><text id="SvgjsText1243" font-family="微软雅黑" text-anchor="middle" font-size="16px" width="16px" fill="#000000" font-weight="700" align="middle" lineHeight="125%" anchor="middle" family="微软雅黑" size="16px" weight="700" font-style="" opacity="1" y="6" transform="rotate(0)"></text></g></g><g id="SvgjsG1244" transform="translate(577.3070617545686,431.20787350913724)"><path id="SvgjsPath1245" d="M 0 0L 33.5 0L 33.5 35L 0 35Z" stroke="none" fill="none"></path><g id="SvgjsG1246"><text id="SvgjsText1247" font-family="微软雅黑" text-anchor="middle" font-size="16px" width="34px" fill="#000000" font-weight="700" align="middle" lineHeight="125%" anchor="middle" family="微软雅黑" size="16px" weight="700" font-style="" opacity="1" y="5.5" transform="rotate(0)"><tspan id="SvgjsTspan1248" dy="20" x="17"><tspan id="SvgjsTspan1249" style="text-decoration:;">G</tspan></tspan></text></g></g><g id="SvgjsG1250"><path id="SvgjsPath1251" d="M594.0570617545686 466.20787350913724L594.0570617545686 482.95787350913724L594.0570617545686 482.95787350913724L594.0570617545686 499.70787350913724" stroke="#323232" stroke-width="2" fill="none"></path></g><g id="SvgjsG1252"><path id="SvgjsPath1253" d="M580.85492602061 531.0915573792141L555.9276765129968 573.7594461639356" stroke="#323232" stroke-width="2" fill="none"></path></g><g id="SvgjsG1254" transform="matrix(0.7071067811865476,0.7071067811865475,-0.7071067811865475,0.7071067811865476,675.2996215820312,174.50202636068272)"><path id="SvgjsPath1255" d="M 0 18C 0 -6 36 -6 36 18C 36 42 0 42 0 18Z" stroke="rgba(0,0,0,1)" stroke-width="5" fill-opacity="1" fill="#000000"></path><g id="SvgjsG1256"><text id="SvgjsText1257" font-family="微软雅黑" text-anchor="middle" font-size="16px" width="16px" fill="#ffffff" font-weight="700" align="middle" lineHeight="125%" anchor="middle" family="微软雅黑" size="16px" weight="700" font-style="" opacity="1" y="6" transform="rotate(0)"></text></g></g><g id="SvgjsG1258" transform="translate(659.7995941227157,185.45787350913724)"><path id="SvgjsPath1259" d="M 0 0L 31 0L 31 29L 0 29Z" stroke="none" fill="none"></path><g id="SvgjsG1260"><text id="SvgjsText1261" font-family="微软雅黑" text-anchor="middle" font-size="16px" width="31px" fill="#ffffff" font-weight="700" align="middle" lineHeight="125%" anchor="middle" family="微软雅黑" size="16px" weight="700" font-style="" opacity="1" y="2.5" transform="rotate(0)"><tspan id="SvgjsTspan1262" dy="20" x="15.5"><tspan id="SvgjsTspan1263" style="text-decoration:;">N</tspan></tspan></text></g></g><g id="SvgjsG1264" transform="matrix(0.7071067811865476,0.7071067811865475,-0.7071067811865475,0.7071067811865476,622.46875,100.95787505453038)"><path id="SvgjsPath1265" d="M 0 18C 0 -6 36 -6 36 18C 36 42 0 42 0 18Z" stroke="rgba(0,0,0,1)" stroke-width="2" fill-opacity="1" fill="#e0e0e0"></path><g id="SvgjsG1266"><text id="SvgjsText1267" font-family="微软雅黑" text-anchor="middle" font-size="16px" width="16px" fill="#000000" font-weight="700" align="middle" lineHeight="125%" anchor="middle" family="微软雅黑" size="16px" weight="700" font-style="" opacity="1" y="6" transform="rotate(0)"></text></g></g><g id="SvgjsG1268" transform="translate(605.71875,109.41371763185293)"><path id="SvgjsPath1269" d="M 0 0L 33.5 0L 33.5 35L 0 35Z" stroke="none" fill="none"></path><g id="SvgjsG1270"><text id="SvgjsText1271" font-family="微软雅黑" text-anchor="middle" font-size="16px" width="34px" fill="#000000" font-weight="700" align="middle" lineHeight="125%" anchor="middle" family="微软雅黑" size="16px" weight="700" font-style="" opacity="1" y="5.5" transform="rotate(0)"><tspan id="SvgjsTspan1272" dy="20" x="17"><tspan id="SvgjsTspan1273" style="text-decoration:;">P</tspan></tspan></text></g></g><g id="SvgjsG1274"><path id="SvgjsPath1275" d="M637.9586682964266 136.47827507761315L660.0203543441606 186.14913218175525" stroke="#000000" stroke-width="2" fill="none"></path></g><g id="SvgjsG1276" transform="matrix(0.7071067811865476,0.7071067811865475,-0.7071067811865475,0.7071067811865476,568.21875,174.50202636068272)"><path id="SvgjsPath1277" d="M 0 18C 0 -6 36 -6 36 18C 36 42 0 42 0 18Z" stroke="rgba(0,0,0,1)" stroke-width="5" fill-opacity="1" fill="#000000"></path><g id="SvgjsG1278"><text id="SvgjsText1279" font-family="微软雅黑" text-anchor="middle" font-size="16px" width="16px" fill="#ffffff" font-weight="700" align="middle" lineHeight="125%" anchor="middle" family="微软雅黑" size="16px" weight="700" font-style="" opacity="1" y="6" transform="rotate(0)"></text></g></g><g id="SvgjsG1280" transform="translate(551.46875,182.95787350913724)"><path id="SvgjsPath1281" d="M 0 0L 33.5 0L 33.5 35L 0 35Z" stroke="none" fill="none"></path><g id="SvgjsG1282"><text id="SvgjsText1283" font-family="微软雅黑" text-anchor="middle" font-size="16px" width="34px" fill="#ffffff" font-weight="700" align="middle" lineHeight="125%" anchor="middle" family="微软雅黑" size="16px" weight="700" font-style="" opacity="1" y="5.5" transform="rotate(0)"><tspan id="SvgjsTspan1284" dy="20" x="17"><tspan id="SvgjsTspan1285" style="text-decoration:;">SR</tspan></tspan></text></g></g><g id="SvgjsG1286" transform="matrix(0.7071067811865476,0.7071067811865475,-0.7071067811865475,0.7071067811865476,524.7629089355469,248.50202636068272)"><path id="SvgjsPath1287" d="M 0 18C 0 -6 36 -6 36 18C 36 42 0 42 0 18Z" stroke="rgba(211,47,47,1)" stroke-width="5" fill-opacity="1" fill="#d32f2f"></path><g id="SvgjsG1288"><text id="SvgjsText1289" font-family="微软雅黑" text-anchor="middle" font-size="16px" width="16px" fill="#ffffff" font-weight="700" align="middle" lineHeight="125%" anchor="middle" family="微软雅黑" size="16px" weight="700" font-style="" opacity="1" y="6" transform="rotate(0)"></text></g></g><g id="SvgjsG1290" transform="translate(508.0129058772843,256.95787350913724)"><path id="SvgjsPath1291" d="M 0 0L 33.5 0L 33.5 35L 0 35Z" stroke="none" fill="none"></path><g id="SvgjsG1292"><text id="SvgjsText1293" font-family="微软雅黑" text-anchor="middle" font-size="16px" width="34px" fill="#ffffff" font-weight="700" align="middle" lineHeight="125%" anchor="middle" family="微软雅黑" size="16px" weight="700" font-style="" opacity="1" y="5.5" transform="rotate(0)"><tspan id="SvgjsTspan1294" dy="20" x="17"><tspan id="SvgjsTspan1295" style="text-decoration:;">S</tspan></tspan></text></g></g><g id="SvgjsG1296" transform="matrix(0.7071067811865476,0.7071067811865475,-0.7071067811865475,0.7071067811865476,622.46875,32.45787505453038)"><path id="SvgjsPath1297" d="M 0 18C 0 -6 36 -6 36 18C 36 42 0 42 0 18Z" stroke="rgba(0,0,0,1)" stroke-width="2" fill-opacity="1" fill="#ffffff"></path><g id="SvgjsG1298"><text id="SvgjsText1299" font-family="微软雅黑" text-anchor="middle" font-size="16px" width="16px" fill="#000000" font-weight="700" align="middle" lineHeight="125%" anchor="middle" family="微软雅黑" size="16px" weight="700" font-style="" opacity="1" y="6" transform="rotate(0)"></text></g></g><g id="SvgjsG1300" transform="translate(605.71875,40.91371763185293)"><path id="SvgjsPath1301" d="M 0 0L 33.5 0L 33.5 35L 0 35Z" stroke="none" fill="none"></path><g id="SvgjsG1302"><text id="SvgjsText1303" font-family="微软雅黑" text-anchor="middle" font-size="16px" width="34px" fill="#000000" font-weight="700" align="middle" lineHeight="125%" anchor="middle" family="微软雅黑" size="16px" weight="700" font-style="" opacity="1" y="5.5" transform="rotate(0)"><tspan id="SvgjsTspan1304" dy="20" x="17"><tspan id="SvgjsTspan1305" style="text-decoration:;">G</tspan></tspan></text></g></g><g id="SvgjsG1306"><path id="SvgjsPath1307" d="M622.46875 75.91371763185293L622.46875 92.66371763185293L622.46875 92.66371763185293L622.46875 109.41371763185293" stroke="#323232" stroke-width="2" fill="none"></path></g><g id="SvgjsG1308"><path id="SvgjsPath1309" d="M609.2666142660414 140.7974015019298L584.3393647584282 183.46529028665134" stroke="#323232" stroke-width="2" fill="none"></path></g><g id="SvgjsG1310"><path id="SvgjsPath1311" d="M556.7629058772843 216.95787350913724L534.7629058772843 257.60987005455956" stroke="#323232" stroke-width="2" fill="none"></path></g><g id="SvgjsG1312" transform="matrix(0.7071067811865476,0.7071067811865475,-0.7071067811865475,0.7071067811865476,481.30706787109375,314.54617003744056)"><path id="SvgjsPath1313" d="M 0 18C 0 -6 36 -6 36 18C 36 42 0 42 0 18Z" stroke="rgba(0,0,0,1)" stroke-width="5" fill-opacity="1" fill="#000000"></path><g id="SvgjsG1314"><text id="SvgjsText1315" font-family="微软雅黑" text-anchor="middle" font-size="16px" width="16px" fill="#ffffff" font-weight="700" align="middle" lineHeight="125%" anchor="middle" family="微软雅黑" size="16px" weight="700" font-style="" opacity="1" y="6" transform="rotate(0)"></text></g></g><g id="SvgjsG1316" transform="translate(465.8070617545686,325.50202938642155)"><path id="SvgjsPath1317" d="M 0 0L 31 0L 31 29L 0 29Z" stroke="none" fill="none"></path><g id="SvgjsG1318"><text id="SvgjsText1319" font-family="微软雅黑" text-anchor="middle" font-size="16px" width="31px" fill="#ffffff" font-weight="700" align="middle" lineHeight="125%" anchor="middle" family="微软雅黑" size="16px" weight="700" font-style="" opacity="1" y="2.5" transform="rotate(0)"><tspan id="SvgjsTspan1320" dy="20" x="15.5"><tspan id="SvgjsTspan1321" style="text-decoration:;">SL</tspan></tspan></text></g></g><g id="SvgjsG1322"><path id="SvgjsPath1323" d="M508.65279028665134 291.4018647584282L491.43321609406723 325.81678390593277" stroke="#323232" stroke-width="2" fill="none"></path></g><g id="SvgjsG1324" transform="translate(629.7629058772843,265.28125)"><path id="SvgjsPath1325" d="M 0 0L 142 0L 142 41.58831175456862L 0 41.58831175456862Z" stroke="none" fill="none"></path><g id="SvgjsG1326"><text id="SvgjsText1327" font-family="微软雅黑" text-anchor="middle" font-size="13px" width="142px" fill="#323232" font-weight="400" align="middle" lineHeight="125%" anchor="middle" family="微软雅黑" size="13px" weight="400" font-style="" opacity="1" y="3.169155877284311" transform="rotate(0)"><tspan id="SvgjsTspan1328" dy="16" x="71"><tspan id="SvgjsTspan1329" style="text-decoration:;font-weight: bold;">转换为问题：</tspan></tspan><tspan id="SvgjsTspan1330" dy="16" x="71"><tspan id="SvgjsTspan1331" style="text-decoration:;font-weight: bold;">S为左子，SL红</tspan></tspan></text></g></g><g id="SvgjsG1332" transform="translate(458.96875,179.16371763185293)"><path id="SvgjsPath1333" d="M 0 0L 142 0L 142 41.58831175456862L 0 41.58831175456862Z" stroke="none" fill="none"></path><g id="SvgjsG1334"><text id="SvgjsText1335" font-family="微软雅黑" text-anchor="middle" font-size="13px" width="142px" fill="#323232" font-weight="400" align="middle" lineHeight="125%" anchor="middle" family="微软雅黑" size="13px" weight="400" font-style="" opacity="1" y="11.169155877284311" transform="rotate(0)"><tspan id="SvgjsTspan1336" dy="16" x="71"><tspan id="SvgjsTspan1337" style="text-decoration:;font-weight: bold;">新S</tspan></tspan></text></g></g><g id="SvgjsG1338" transform="translate(491.46875,255.16371763185293)"><path id="SvgjsPath1339" d="M 0 0L 142 0L 142 41.58831175456862L 0 41.58831175456862Z" stroke="none" fill="none"></path><g id="SvgjsG1340"><text id="SvgjsText1341" font-family="微软雅黑" text-anchor="middle" font-size="13px" width="142px" fill="#323232" font-weight="400" align="middle" lineHeight="125%" anchor="middle" family="微软雅黑" size="13px" weight="400" font-style="" opacity="1" y="11.169155877284311" transform="rotate(0)"><tspan id="SvgjsTspan1342" dy="16" x="71"><tspan id="SvgjsTspan1343" style="text-decoration:;font-weight: bold;">新SL</tspan></tspan></text></g></g><g id="SvgjsG1344" transform="matrix(0.7071067811865476,0.7071067811865475,-0.7071067811865475,0.7071067811865476,700.0496215820312,638.7961700374406)"><path id="SvgjsPath1345" d="M 0 18C 0 -6 36 -6 36 18C 36 42 0 42 0 18Z" stroke="rgba(211,47,47,1)" stroke-width="5" fill-opacity="1" fill="#d32f2f"></path><g id="SvgjsG1346"><text id="SvgjsText1347" font-family="微软雅黑" text-anchor="middle" font-size="16px" width="16px" fill="#ffffff" font-weight="700" align="middle" lineHeight="125%" anchor="middle" family="微软雅黑" size="16px" weight="700" font-style="" opacity="1" y="6" transform="rotate(0)"></text></g></g><g id="SvgjsG1348" transform="translate(683.2995941227157,647.2520293864216)"><path id="SvgjsPath1349" d="M 0 0L 33.5 0L 33.5 35L 0 35Z" stroke="none" fill="none"></path><g id="SvgjsG1350"><text id="SvgjsText1351" font-family="微软雅黑" text-anchor="middle" font-size="16px" width="34px" fill="#ffffff" font-weight="700" align="middle" lineHeight="125%" anchor="middle" family="微软雅黑" size="16px" weight="700" font-style="" opacity="1" y="5.5" transform="rotate(0)"><tspan id="SvgjsTspan1352" dy="20" x="17"><tspan id="SvgjsTspan1353" style="text-decoration:;">S</tspan></tspan></text></g></g><g id="SvgjsG1354" transform="matrix(0.7071067811865476,0.7071067811865475,-0.7071067811865475,0.7071067811865476,747.5054321289062,701.3403594905656)"><path id="SvgjsPath1355" d="M 0 18C 0 -6 36 -6 36 18C 36 42 0 42 0 18Z" stroke="rgba(0,0,0,1)" stroke-width="5" fill-opacity="1" fill="#000000"></path><g id="SvgjsG1356"><text id="SvgjsText1357" font-family="微软雅黑" text-anchor="middle" font-size="16px" width="16px" fill="#ffffff" font-weight="700" align="middle" lineHeight="125%" anchor="middle" family="微软雅黑" size="16px" weight="700" font-style="" opacity="1" y="6" transform="rotate(0)"></text></g></g><g id="SvgjsG1358" transform="translate(730.7554382454314,709.7961852637059)"><path id="SvgjsPath1359" d="M 0 0L 33.5 0L 33.5 35L 0 35Z" stroke="none" fill="none"></path><g id="SvgjsG1360"><text id="SvgjsText1361" font-family="微软雅黑" text-anchor="middle" font-size="16px" width="34px" fill="#ffffff" font-weight="700" align="middle" lineHeight="125%" anchor="middle" family="微软雅黑" size="16px" weight="700" font-style="" opacity="1" y="5.5" transform="rotate(0)"><tspan id="SvgjsTspan1362" dy="20" x="17"><tspan id="SvgjsTspan1363" style="text-decoration:;">SR</tspan></tspan></text></g></g><g id="SvgjsG1364"><path id="SvgjsPath1365" d="M660.2276296968743 604.1675466948437L683.5226703340691 648.53125" stroke="#323232" stroke-width="2" fill="none"></path></g><g id="SvgjsG1366"><path id="SvgjsPath1367" d="M712.7629058772843 680.1652245962156L731.2362687639265 712.6413401992336" stroke="#323232" stroke-width="2" fill="none"></path></g><g id="SvgjsG1368" transform="translate(479.4320617545686,654.6637176318529)"><path id="SvgjsPath1369" d="M 0 0L 142 0L 142 41.58831175456862L 0 41.58831175456862Z" stroke="none" fill="none"></path><g id="SvgjsG1370"><text id="SvgjsText1371" font-family="微软雅黑" text-anchor="middle" font-size="13px" width="142px" fill="#323232" font-weight="400" align="middle" lineHeight="125%" anchor="middle" family="微软雅黑" size="13px" weight="400" font-style="" opacity="1" y="3.169155877284311" transform="rotate(0)"><tspan id="SvgjsTspan1372" dy="16" x="71"><tspan id="SvgjsTspan1373" style="text-decoration:;font-weight: bold;">转换为问题：</tspan></tspan><tspan id="SvgjsTspan1374" dy="16" x="71"><tspan id="SvgjsTspan1375" style="text-decoration:;font-weight: bold;">S为右子，SR红</tspan></tspan></text></g></g><g id="SvgjsG1376" transform="translate(618.2629058772843,569.4578735091372)"><path id="SvgjsPath1377" d="M 0 0L 142 0L 142 41.58831175456862L 0 41.58831175456862Z" stroke="none" fill="none"></path><g id="SvgjsG1378"><text id="SvgjsText1379" font-family="微软雅黑" text-anchor="middle" font-size="13px" width="142px" fill="#323232" font-weight="400" align="middle" lineHeight="125%" anchor="middle" family="微软雅黑" size="13px" weight="400" font-style="" opacity="1" y="11.169155877284311" transform="rotate(0)"><tspan id="SvgjsTspan1380" dy="16" x="71"><tspan id="SvgjsTspan1381" style="text-decoration:;font-weight: bold;">新S</tspan></tspan></text></g></g><g id="SvgjsG1382" transform="translate(588.7554382454314,645.1195617545686)"><path id="SvgjsPath1383" d="M 0 0L 142 0L 142 41.58831175456862L 0 41.58831175456862Z" stroke="none" fill="none"></path><g id="SvgjsG1384"><text id="SvgjsText1385" font-family="微软雅黑" text-anchor="middle" font-size="13px" width="142px" fill="#323232" font-weight="400" align="middle" lineHeight="125%" anchor="middle" family="微软雅黑" size="13px" weight="400" font-style="" opacity="1" y="11.169155877284311" transform="rotate(0)"><tspan id="SvgjsTspan1386" dy="16" x="71"><tspan id="SvgjsTspan1387" style="text-decoration:;font-weight: bold;">新SR</tspan></tspan></text></g></g></svg>