<svg id="SvgjsSvg1466" width="1244.34375" height="511.9375" xmlns="http://www.w3.org/2000/svg" version="1.1" xmlns:xlink="http://www.w3.org/1999/xlink" xmlns:svgjs="http://svgjs.com/svgjs"><defs id="SvgjsDefs1467"><marker id="SvgjsMarker1494" markerWidth="16" markerHeight="12" refX="16" refY="6" viewBox="0 0 16 12" orient="auto" markerUnits="userSpaceOnUse" stroke-dasharray="0,0"><path id="SvgjsPath1495" d="M0,2 L14,6 L0,11 L0,2" fill="#323232" stroke="#323232" stroke-width="2"></path></marker><marker id="SvgjsMarker1498" markerWidth="16" markerHeight="12" refX="16" refY="6" viewBox="0 0 16 12" orient="auto" markerUnits="userSpaceOnUse" stroke-dasharray="0,0"><path id="SvgjsPath1499" d="M0,2 L14,6 L0,11 L0,2" fill="#323232" stroke="#323232" stroke-width="2"></path></marker><marker id="SvgjsMarker1574" markerWidth="16" markerHeight="12" refX="16" refY="6" viewBox="0 0 16 12" orient="auto" markerUnits="userSpaceOnUse" stroke-dasharray="0,0"><path id="SvgjsPath1575" d="M0,2 L14,6 L0,11 L0,2" fill="#323232" stroke="#323232" stroke-width="2"></path></marker><marker id="SvgjsMarker1578" markerWidth="16" markerHeight="12" refX="16" refY="6" viewBox="0 0 16 12" orient="auto" markerUnits="userSpaceOnUse" stroke-dasharray="0,0"><path id="SvgjsPath1579" d="M0,2 L14,6 L0,11 L0,2" fill="#323232" stroke="#323232" stroke-width="2"></path></marker><marker id="SvgjsMarker1582" markerWidth="16" markerHeight="12" refX="16" refY="6" viewBox="0 0 16 12" orient="auto" markerUnits="userSpaceOnUse" stroke-dasharray="0,0"><path id="SvgjsPath1583" d="M0,2 L14,6 L0,11 L0,2" fill="#323232" stroke="#323232" stroke-width="2"></path></marker><marker id="SvgjsMarker1586" markerWidth="16" markerHeight="12" refX="16" refY="6" viewBox="0 0 16 12" orient="auto" markerUnits="userSpaceOnUse" stroke-dasharray="0,0"><path id="SvgjsPath1587" d="M0,2 L14,6 L0,11 L0,2" fill="#323232" stroke="#323232" stroke-width="2"></path></marker><marker id="SvgjsMarker1590" markerWidth="16" markerHeight="12" refX="16" refY="6" viewBox="0 0 16 12" orient="auto" markerUnits="userSpaceOnUse" stroke-dasharray="0,0"><path id="SvgjsPath1591" d="M0,2 L14,6 L0,11 L0,2" fill="#323232" stroke="#323232" stroke-width="2"></path></marker><marker id="SvgjsMarker1594" markerWidth="16" markerHeight="12" refX="16" refY="6" viewBox="0 0 16 12" orient="auto" markerUnits="userSpaceOnUse" stroke-dasharray="0,0"><path id="SvgjsPath1595" d="M0,2 L14,6 L0,11 L0,2" fill="#323232" stroke="#323232" stroke-width="2"></path></marker><marker id="SvgjsMarker1598" markerWidth="16" markerHeight="12" refX="16" refY="6" viewBox="0 0 16 12" orient="auto" markerUnits="userSpaceOnUse" stroke-dasharray="0,0"><path id="SvgjsPath1599" d="M0,2 L14,6 L0,11 L0,2" fill="#323232" stroke="#323232" stroke-width="2"></path></marker><marker id="SvgjsMarker1602" markerWidth="16" markerHeight="12" refX="16" refY="6" viewBox="0 0 16 12" orient="auto" markerUnits="userSpaceOnUse" stroke-dasharray="0,0"><path id="SvgjsPath1603" d="M0,2 L14,6 L0,11 L0,2" fill="#323232" stroke="#323232" stroke-width="2"></path></marker><marker id="SvgjsMarker1606" markerWidth="16" markerHeight="12" refX="16" refY="6" viewBox="0 0 16 12" orient="auto" markerUnits="userSpaceOnUse" stroke-dasharray="0,0"><path id="SvgjsPath1607" d="M0,2 L14,6 L0,11 L0,2" fill="#323232" stroke="#323232" stroke-width="2"></path></marker><marker id="SvgjsMarker1610" markerWidth="16" markerHeight="12" refX="16" refY="6" viewBox="0 0 16 12" orient="auto" markerUnits="userSpaceOnUse" stroke-dasharray="0,0"><path id="SvgjsPath1611" d="M0,2 L14,6 L0,11 L0,2" fill="#323232" stroke="#323232" stroke-width="2"></path></marker><marker id="SvgjsMarker1614" markerWidth="16" markerHeight="12" refX="16" refY="6" viewBox="0 0 16 12" orient="auto" markerUnits="userSpaceOnUse" stroke-dasharray="0,0"><path id="SvgjsPath1615" d="M0,2 L14,6 L0,11 L0,2" fill="#323232" stroke="#323232" stroke-width="2"></path></marker><marker id="SvgjsMarker1618" markerWidth="16" markerHeight="12" refX="16" refY="6" viewBox="0 0 16 12" orient="auto" markerUnits="userSpaceOnUse" stroke-dasharray="0,0"><path id="SvgjsPath1619" d="M0,2 L14,6 L0,11 L0,2" fill="#323232" stroke="#323232" stroke-width="2"></path></marker><marker id="SvgjsMarker1622" markerWidth="16" markerHeight="12" refX="16" refY="6" viewBox="0 0 16 12" orient="auto" markerUnits="userSpaceOnUse" stroke-dasharray="0,0"><path id="SvgjsPath1623" d="M0,2 L14,6 L0,11 L0,2" fill="#323232" stroke="#323232" stroke-width="2"></path></marker><marker id="SvgjsMarker1626" markerWidth="16" markerHeight="12" refX="16" refY="6" viewBox="0 0 16 12" orient="auto" markerUnits="userSpaceOnUse" stroke-dasharray="0,0"><path id="SvgjsPath1627" d="M0,2 L14,6 L0,11 L0,2" fill="#323232" stroke="#323232" stroke-width="2"></path></marker><marker id="SvgjsMarker1630" markerWidth="16" markerHeight="12" refX="16" refY="6" viewBox="0 0 16 12" orient="auto" markerUnits="userSpaceOnUse" stroke-dasharray="0,0"><path id="SvgjsPath1631" d="M0,2 L14,6 L0,11 L0,2" fill="#323232" stroke="#323232" stroke-width="2"></path></marker><marker id="SvgjsMarker1634" markerWidth="16" markerHeight="12" refX="16" refY="6" viewBox="0 0 16 12" orient="auto" markerUnits="userSpaceOnUse" stroke-dasharray="0,0"><path id="SvgjsPath1635" d="M0,2 L14,6 L0,11 L0,2" fill="#323232" stroke="#323232" stroke-width="2"></path></marker><marker id="SvgjsMarker1695" markerWidth="16" markerHeight="12" refX="16" refY="6" viewBox="0 0 16 12" orient="auto" markerUnits="userSpaceOnUse" stroke-dasharray="0,0"><path id="SvgjsPath1696" d="M0,2 L14,6 L0,11 L0,2" fill="#323232" stroke="#323232" stroke-width="2"></path></marker><marker id="SvgjsMarker1703" markerWidth="16" markerHeight="12" refX="16" refY="6" viewBox="0 0 16 12" orient="auto" markerUnits="userSpaceOnUse" stroke-dasharray="0,0"><path id="SvgjsPath1704" d="M0,2 L14,6 L0,11 L0,2" fill="#323232" stroke="#323232" stroke-width="2"></path></marker><marker id="SvgjsMarker1715" markerWidth="16" markerHeight="12" refX="16" refY="6" viewBox="0 0 16 12" orient="auto" markerUnits="userSpaceOnUse" stroke-dasharray="0,0"><path id="SvgjsPath1716" d="M0,2 L14,6 L0,11 L0,2" fill="#323232" stroke="#323232" stroke-width="2"></path></marker><marker id="SvgjsMarker1719" markerWidth="16" markerHeight="12" refX="16" refY="6" viewBox="0 0 16 12" orient="auto" markerUnits="userSpaceOnUse" stroke-dasharray="0,0"><path id="SvgjsPath1720" d="M0,2 L14,6 L0,11 L0,2" fill="#323232" stroke="#323232" stroke-width="2"></path></marker><marker id="SvgjsMarker1723" markerWidth="16" markerHeight="12" refX="16" refY="6" viewBox="0 0 16 12" orient="auto" markerUnits="userSpaceOnUse" stroke-dasharray="0,0"><path id="SvgjsPath1724" d="M0,2 L14,6 L0,11 L0,2" fill="#323232" stroke="#323232" stroke-width="2"></path></marker><marker id="SvgjsMarker1745" markerWidth="16" markerHeight="12" refX="16" refY="6" viewBox="0 0 16 12" orient="auto" markerUnits="userSpaceOnUse" stroke-dasharray="0,0"><path id="SvgjsPath1746" d="M0,2 L14,6 L0,11 L0,2" fill="#323232" stroke="#323232" stroke-width="2"></path></marker><marker id="SvgjsMarker1763" markerWidth="16" markerHeight="12" refX="16" refY="6" viewBox="0 0 16 12" orient="auto" markerUnits="userSpaceOnUse" stroke-dasharray="0,0"><path id="SvgjsPath1764" d="M0,2 L14,6 L0,11 L0,2" fill="#323232" stroke="#323232" stroke-width="2"></path></marker><marker id="SvgjsMarker1779" markerWidth="16" markerHeight="12" refX="16" refY="6" viewBox="0 0 16 12" orient="auto" markerUnits="userSpaceOnUse" stroke-dasharray="0,0"><path id="SvgjsPath1780" d="M0,2 L14,6 L0,11 L0,2" fill="#323232" stroke="#323232" stroke-width="2"></path></marker><marker id="SvgjsMarker1783" markerWidth="16" markerHeight="12" refX="16" refY="6" viewBox="0 0 16 12" orient="auto" markerUnits="userSpaceOnUse" stroke-dasharray="0,0"><path id="SvgjsPath1784" d="M0,2 L14,6 L0,11 L0,2" fill="#323232" stroke="#323232" stroke-width="2"></path></marker><marker id="SvgjsMarker1787" markerWidth="16" markerHeight="12" refX="16" refY="6" viewBox="0 0 16 12" orient="auto" markerUnits="userSpaceOnUse" stroke-dasharray="0,0"><path id="SvgjsPath1788" d="M0,2 L14,6 L0,11 L0,2" fill="#323232" stroke="#323232" stroke-width="2"></path></marker><marker id="SvgjsMarker1803" markerWidth="16" markerHeight="12" refX="16" refY="6" viewBox="0 0 16 12" orient="auto" markerUnits="userSpaceOnUse" stroke-dasharray="0,0"><path id="SvgjsPath1804" d="M0,2 L14,6 L0,11 L0,2" fill="#323232" stroke="#323232" stroke-width="2"></path></marker><marker id="SvgjsMarker1815" markerWidth="16" markerHeight="12" refX="16" refY="6" viewBox="0 0 16 12" orient="auto" markerUnits="userSpaceOnUse" stroke-dasharray="0,0"><path id="SvgjsPath1816" d="M0,2 L14,6 L0,11 L0,2" fill="#323232" stroke="#323232" stroke-width="2"></path></marker><marker id="SvgjsMarker1831" markerWidth="16" markerHeight="12" refX="16" refY="6" viewBox="0 0 16 12" orient="auto" markerUnits="userSpaceOnUse" stroke-dasharray="0,0"><path id="SvgjsPath1832" d="M0,2 L14,6 L0,11 L0,2" fill="#323232" stroke="#323232" stroke-width="2"></path></marker><marker id="SvgjsMarker1835" markerWidth="16" markerHeight="12" refX="16" refY="6" viewBox="0 0 16 12" orient="auto" markerUnits="userSpaceOnUse" stroke-dasharray="0,0"><path id="SvgjsPath1836" d="M0,2 L14,6 L0,11 L0,2" fill="#323232" stroke="#323232" stroke-width="2"></path></marker><marker id="SvgjsMarker1839" markerWidth="16" markerHeight="12" refX="16" refY="6" viewBox="0 0 16 12" orient="auto" markerUnits="userSpaceOnUse" stroke-dasharray="0,0"><path id="SvgjsPath1840" d="M0,2 L14,6 L0,11 L0,2" fill="#323232" stroke="#323232" stroke-width="2"></path></marker><marker id="SvgjsMarker1857" markerWidth="16" markerHeight="12" refX="16" refY="6" viewBox="0 0 16 12" orient="auto" markerUnits="userSpaceOnUse" stroke-dasharray="0,0"><path id="SvgjsPath1858" d="M0,2 L14,6 L0,11 L0,2" fill="#323232" stroke="#323232" stroke-width="2"></path></marker></defs><g id="SvgjsG1468" transform="translate(971.25,281.9375)"><path id="SvgjsPath1469" d="M 0 0L 172.9375 0L 172.9375 84L 0 84Z" stroke="rgba(255,224,178,1)" stroke-width="2" fill-opacity="1" fill="#ffe0b2"></path><g id="SvgjsG1470"><text id="SvgjsText1471" font-family="微软雅黑" text-anchor="middle" font-size="13px" width="153px" fill="#323232" font-weight="400" align="middle" lineHeight="125%" anchor="middle" family="微软雅黑" size="13px" weight="400" font-style="" opacity="1" y="32.375" transform="rotate(0)"></text></g></g><g id="SvgjsG1472" transform="translate(314.0625,91.9375)"><path id="SvgjsPath1473" d="M 0 0L 172.9375 0L 172.9375 84L 0 84Z" stroke="rgba(255,224,178,1)" stroke-width="2" fill-opacity="1" fill="#ffe0b2"></path><g id="SvgjsG1474"><text id="SvgjsText1475" font-family="微软雅黑" text-anchor="middle" font-size="13px" width="153px" fill="#323232" font-weight="400" align="middle" lineHeight="125%" anchor="middle" family="微软雅黑" size="13px" weight="400" font-style="" opacity="1" y="32.375" transform="rotate(0)"></text></g></g><g id="SvgjsG1476" transform="translate(452.1875,66.125)"><path id="SvgjsPath1477" d="M 0 25.40625C 0 -8.46875 50.8125 -8.46875 50.8125 25.40625C 50.8125 59.28125 0 59.28125 0 25.40625Z" stroke-dasharray="10,6" stroke="rgba(0,0,0,1)" stroke-width="1" fill-opacity="1" fill="#e57373"></path><g id="SvgjsG1478"><text id="SvgjsText1479" font-family="微软雅黑" text-anchor="middle" font-size="13px" width="31px" fill="#323232" font-weight="400" align="middle" lineHeight="125%" anchor="middle" family="微软雅黑" size="13px" weight="400" font-style="" opacity="1" y="15.78125" transform="rotate(0)"></text></g></g><g id="SvgjsG1480" transform="translate(682.0625,197.9375)"><path id="SvgjsPath1481" d="M 0 0L 172.9375 0L 172.9375 84L 0 84Z" stroke="rgba(255,224,178,1)" stroke-width="2" fill-opacity="1" fill="#ffe0b2"></path><g id="SvgjsG1482"><text id="SvgjsText1483" font-family="微软雅黑" text-anchor="middle" font-size="13px" width="153px" fill="#323232" font-weight="400" align="middle" lineHeight="125%" anchor="middle" family="微软雅黑" size="13px" weight="400" font-style="" opacity="1" y="32.375" transform="rotate(0)"></text></g></g><g id="SvgjsG1484" transform="translate(520.0625,280.9375)"><path id="SvgjsPath1485" d="M 0 0L 160.75 0L 160.75 206L 0 206Z" stroke="rgba(187,222,251,1)" stroke-width="2" fill-opacity="1" fill="#bbdefb"></path><g id="SvgjsG1486"><text id="SvgjsText1487" font-family="微软雅黑" text-anchor="middle" font-size="13px" width="141px" fill="#323232" font-weight="400" align="middle" lineHeight="125%" anchor="middle" family="微软雅黑" size="13px" weight="400" font-style="" opacity="1" y="93.375" transform="rotate(0)"></text></g></g><g id="SvgjsG1488" transform="translate(145,175.9375)"><path id="SvgjsPath1489" d="M 0 0L 167.25 0L 167.25 311L 0 311Z" stroke="rgba(187,222,251,1)" stroke-width="2" fill-opacity="1" fill="#bbdefb"></path><g id="SvgjsG1490"><text id="SvgjsText1491" font-family="微软雅黑" text-anchor="middle" font-size="13px" width="148px" fill="#323232" font-weight="400" align="middle" lineHeight="125%" anchor="middle" family="微软雅黑" size="13px" weight="400" font-style="" opacity="1" y="145.875" transform="rotate(0)"></text></g></g><g id="SvgjsG1492"><path id="SvgjsPath1493" d="M147 485.9375L1120.701866670643 485.9375" stroke="#323232" stroke-width="2" fill="none" marker-end="url(#SvgjsMarker1494)"></path></g><g id="SvgjsG1496"><path id="SvgjsPath1497" d="M146 485.9375L146 83.9375" stroke="#323232" stroke-width="2" fill="none" marker-end="url(#SvgjsMarker1498)"></path></g><g id="SvgjsG1500"><path id="SvgjsPath1501" d="M148 175.9375L899 175.9375" stroke-dasharray="3,3" stroke="#323232" stroke-width="2" fill="none"></path></g><g id="SvgjsG1502" transform="translate(136,457.9375)"><path id="SvgjsPath1503" d="M 0 10C 0 -3.3333333333333335 20 -3.3333333333333335 20 10C 20 23.333333333333332 0 23.333333333333332 0 10Z" stroke="none" fill-opacity="1" fill="#323232"></path><g id="SvgjsG1504"><text id="SvgjsText1505" font-family="微软雅黑" text-anchor="middle" font-size="13px" width="60px" fill="#323232" font-weight="400" align="middle" lineHeight="125%" anchor="middle" family="微软雅黑" size="13px" weight="400" font-style="" opacity="1" y="25.375" transform="rotate(0)"></text></g></g><g id="SvgjsG1506" transform="translate(177.3125,437.9375)"><path id="SvgjsPath1507" d="M 0 10C 0 -3.3333333333333335 20 -3.3333333333333335 20 10C 20 23.333333333333332 0 23.333333333333332 0 10Z" stroke="none" fill-opacity="1" fill="#323232"></path><g id="SvgjsG1508"><text id="SvgjsText1509" font-family="微软雅黑" text-anchor="middle" font-size="13px" width="60px" fill="#323232" font-weight="400" align="middle" lineHeight="125%" anchor="middle" family="微软雅黑" size="13px" weight="400" font-style="" opacity="1" y="25.375" transform="rotate(0)"></text></g></g><g id="SvgjsG1510" transform="translate(218.625,390.9375)"><path id="SvgjsPath1511" d="M 0 10C 0 -3.3333333333333335 20 -3.3333333333333335 20 10C 20 23.333333333333332 0 23.333333333333332 0 10Z" stroke="none" fill-opacity="1" fill="#323232"></path><g id="SvgjsG1512"><text id="SvgjsText1513" font-family="微软雅黑" text-anchor="middle" font-size="13px" width="60px" fill="#323232" font-weight="400" align="middle" lineHeight="125%" anchor="middle" family="微软雅黑" size="13px" weight="400" font-style="" opacity="1" y="25.375" transform="rotate(0)"></text></g></g><g id="SvgjsG1514" transform="translate(259.9375,310.9375)"><path id="SvgjsPath1515" d="M 0 10C 0 -3.3333333333333335 20 -3.3333333333333335 20 10C 20 23.333333333333332 0 23.333333333333332 0 10Z" stroke="none" fill-opacity="1" fill="#323232"></path><g id="SvgjsG1516"><text id="SvgjsText1517" font-family="微软雅黑" text-anchor="middle" font-size="13px" width="60px" fill="#323232" font-weight="400" align="middle" lineHeight="125%" anchor="middle" family="微软雅黑" size="13px" weight="400" font-style="" opacity="1" y="25.375" transform="rotate(0)"></text></g></g><g id="SvgjsG1518" transform="translate(301.25,166.9375)"><path id="SvgjsPath1519" d="M 0 10C 0 -3.3333333333333335 20 -3.3333333333333335 20 10C 20 23.333333333333332 0 23.333333333333332 0 10Z" stroke="none" fill-opacity="1" fill="#323232"></path><g id="SvgjsG1520"><text id="SvgjsText1521" font-family="微软雅黑" text-anchor="middle" font-size="13px" width="60px" fill="#323232" font-weight="400" align="middle" lineHeight="125%" anchor="middle" family="微软雅黑" size="13px" weight="400" font-style="" opacity="1" y="25.375" transform="rotate(0)"></text></g></g><g id="SvgjsG1522" transform="translate(342.5625,145.4375)"><path id="SvgjsPath1523" d="M 0 10C 0 -3.3333333333333335 20 -3.3333333333333335 20 10C 20 23.333333333333332 0 23.333333333333332 0 10Z" stroke="none" fill-opacity="1" fill="#323232"></path><g id="SvgjsG1524"><text id="SvgjsText1525" font-family="微软雅黑" text-anchor="middle" font-size="13px" width="60px" fill="#323232" font-weight="400" align="middle" lineHeight="125%" anchor="middle" family="微软雅黑" size="13px" weight="400" font-style="" opacity="1" y="25.375" transform="rotate(0)"></text></g></g><g id="SvgjsG1526" transform="translate(383.875,123.9375)"><path id="SvgjsPath1527" d="M 0 10C 0 -3.3333333333333335 20 -3.3333333333333335 20 10C 20 23.333333333333332 0 23.333333333333332 0 10Z" stroke="none" fill-opacity="1" fill="#323232"></path><g id="SvgjsG1528"><text id="SvgjsText1529" font-family="微软雅黑" text-anchor="middle" font-size="13px" width="60px" fill="#323232" font-weight="400" align="middle" lineHeight="125%" anchor="middle" family="微软雅黑" size="13px" weight="400" font-style="" opacity="1" y="25.375" transform="rotate(0)"></text></g></g><g id="SvgjsG1530" transform="translate(425.1875,102.4375)"><path id="SvgjsPath1531" d="M 0 10C 0 -3.3333333333333335 20 -3.3333333333333335 20 10C 20 23.333333333333332 0 23.333333333333332 0 10Z" stroke="none" fill-opacity="1" fill="#323232"></path><g id="SvgjsG1532"><text id="SvgjsText1533" font-family="微软雅黑" text-anchor="middle" font-size="13px" width="60px" fill="#323232" font-weight="400" align="middle" lineHeight="125%" anchor="middle" family="微软雅黑" size="13px" weight="400" font-style="" opacity="1" y="25.375" transform="rotate(0)"></text></g></g><g id="SvgjsG1534" transform="translate(466.5,80.9375)"><path id="SvgjsPath1535" d="M 0 10C 0 -3.3333333333333335 20 -3.3333333333333335 20 10C 20 23.333333333333332 0 23.333333333333332 0 10Z" stroke="none" fill-opacity="1" fill="#323232"></path><g id="SvgjsG1536"><text id="SvgjsText1537" font-family="微软雅黑" text-anchor="middle" font-size="13px" width="60px" fill="#323232" font-weight="400" align="middle" lineHeight="125%" anchor="middle" family="微软雅黑" size="13px" weight="400" font-style="" opacity="1" y="25.375" transform="rotate(0)"></text></g></g><g id="SvgjsG1538" transform="translate(507.8125,457.9375)"><path id="SvgjsPath1539" d="M 0 10C 0 -3.3333333333333335 20 -3.3333333333333335 20 10C 20 23.333333333333332 0 23.333333333333332 0 10Z" stroke="none" fill-opacity="1" fill="#323232"></path><g id="SvgjsG1540"><text id="SvgjsText1541" font-family="微软雅黑" text-anchor="middle" font-size="13px" width="60px" fill="#323232" font-weight="400" align="middle" lineHeight="125%" anchor="middle" family="微软雅黑" size="13px" weight="400" font-style="" opacity="1" y="25.375" transform="rotate(0)"></text></g></g><g id="SvgjsG1542"><path id="SvgjsPath1543" d="M148 281.9375L897 281.9375" stroke-dasharray="3,3" stroke="#323232" stroke-width="2" fill="none"></path></g><g id="SvgjsG1544" transform="translate(549.125,437.9375)"><path id="SvgjsPath1545" d="M 0 10C 0 -3.3333333333333335 20 -3.3333333333333335 20 10C 20 23.333333333333332 0 23.333333333333332 0 10Z" stroke="none" fill-opacity="1" fill="#323232"></path><g id="SvgjsG1546"><text id="SvgjsText1547" font-family="微软雅黑" text-anchor="middle" font-size="13px" width="60px" fill="#323232" font-weight="400" align="middle" lineHeight="125%" anchor="middle" family="微软雅黑" size="13px" weight="400" font-style="" opacity="1" y="25.375" transform="rotate(0)"></text></g></g><g id="SvgjsG1548" transform="translate(590.4375,390.9375)"><path id="SvgjsPath1549" d="M 0 10C 0 -3.3333333333333335 20 -3.3333333333333335 20 10C 20 23.333333333333332 0 23.333333333333332 0 10Z" stroke="none" fill-opacity="1" fill="#323232"></path><g id="SvgjsG1550"><text id="SvgjsText1551" font-family="微软雅黑" text-anchor="middle" font-size="13px" width="60px" fill="#323232" font-weight="400" align="middle" lineHeight="125%" anchor="middle" family="微软雅黑" size="13px" weight="400" font-style="" opacity="1" y="25.375" transform="rotate(0)"></text></g></g><g id="SvgjsG1552" transform="translate(631.75,310.9375)"><path id="SvgjsPath1553" d="M 0 10C 0 -3.3333333333333335 20 -3.3333333333333335 20 10C 20 23.333333333333332 0 23.333333333333332 0 10Z" stroke="none" fill-opacity="1" fill="#323232"></path><g id="SvgjsG1554"><text id="SvgjsText1555" font-family="微软雅黑" text-anchor="middle" font-size="13px" width="60px" fill="#323232" font-weight="400" align="middle" lineHeight="125%" anchor="middle" family="微软雅黑" size="13px" weight="400" font-style="" opacity="1" y="25.375" transform="rotate(0)"></text></g></g><g id="SvgjsG1556" transform="translate(673.0625,270.9375)"><path id="SvgjsPath1557" d="M 0 10C 0 -3.3333333333333335 20 -3.3333333333333335 20 10C 20 23.333333333333332 0 23.333333333333332 0 10Z" stroke="none" fill-opacity="1" fill="#323232"></path><g id="SvgjsG1558"><text id="SvgjsText1559" font-family="微软雅黑" text-anchor="middle" font-size="13px" width="60px" fill="#323232" font-weight="400" align="middle" lineHeight="125%" anchor="middle" family="微软雅黑" size="13px" weight="400" font-style="" opacity="1" y="25.375" transform="rotate(0)"></text></g></g><g id="SvgjsG1560" transform="translate(714.375,250.9375)"><path id="SvgjsPath1561" d="M 0 10C 0 -3.3333333333333335 20 -3.3333333333333335 20 10C 20 23.333333333333332 0 23.333333333333332 0 10Z" stroke="none" fill-opacity="1" fill="#323232"></path><g id="SvgjsG1562"><text id="SvgjsText1563" font-family="微软雅黑" text-anchor="middle" font-size="13px" width="60px" fill="#323232" font-weight="400" align="middle" lineHeight="125%" anchor="middle" family="微软雅黑" size="13px" weight="400" font-style="" opacity="1" y="25.375" transform="rotate(0)"></text></g></g><g id="SvgjsG1564" transform="translate(755.6875,250.9375)"><path id="SvgjsPath1565" d="M 0 10C 0 -3.3333333333333335 20 -3.3333333333333335 20 10C 20 23.333333333333332 0 23.333333333333332 0 10Z" stroke="none" fill-opacity="1" fill="#323232"></path><g id="SvgjsG1566"><text id="SvgjsText1567" font-family="微软雅黑" text-anchor="middle" font-size="13px" width="60px" fill="#323232" font-weight="400" align="middle" lineHeight="125%" anchor="middle" family="微软雅黑" size="13px" weight="400" font-style="" opacity="1" y="25.375" transform="rotate(0)"></text></g></g><g id="SvgjsG1568" transform="translate(802,250.9375)"><path id="SvgjsPath1569" d="M 0 10C 0 -3.3333333333333335 20 -3.3333333333333335 20 10C 20 23.333333333333332 0 23.333333333333332 0 10Z" stroke="none" fill-opacity="1" fill="#323232"></path><g id="SvgjsG1570"><text id="SvgjsText1571" font-family="微软雅黑" text-anchor="middle" font-size="13px" width="60px" fill="#323232" font-weight="400" align="middle" lineHeight="125%" anchor="middle" family="微软雅黑" size="13px" weight="400" font-style="" opacity="1" y="25.375" transform="rotate(0)"></text></g></g><g id="SvgjsG1572"><path id="SvgjsPath1573" d="M156 467.9375L179.86788218175522 453.84173977855505" stroke="#323232" stroke-width="2" fill="none" marker-end="url(#SvgjsMarker1574)"></path></g><g id="SvgjsG1576"><path id="SvgjsPath1577" d="M194.24122951685638 441.3055805733027L222.36808057330268 408.1787295168564" stroke="#323232" stroke-width="2" fill="none" marker-end="url(#SvgjsMarker1578)"></path></g><g id="SvgjsG1580"><path id="SvgjsPath1581" d="M234.65584549074345 392.89582783218486L269.9375 330.9375" stroke="#323232" stroke-width="2" fill="none" marker-end="url(#SvgjsMarker1582)"></path></g><g id="SvgjsG1584"><path id="SvgjsPath1585" d="M275.72339182284406 313.2318057454042L311.25 186.9375" stroke="#323232" stroke-width="2" fill="none" marker-end="url(#SvgjsMarker1586)"></path></g><g id="SvgjsG1588"><path id="SvgjsPath1589" d="M321.25 176.9375L345 162.2054491924311" stroke="#323232" stroke-width="2" fill="none" marker-end="url(#SvgjsMarker1590)"></path></g><g id="SvgjsG1592"><path id="SvgjsPath1593" d="M362.5625 155.4375L386.2943057454042 139.660891822844" stroke="#323232" stroke-width="2" fill="none" marker-end="url(#SvgjsMarker1594)"></path></g><g id="SvgjsG1596"><path id="SvgjsPath1597" d="M403.875 133.9375L427.2139380484327 117.10727778440508" stroke="#323232" stroke-width="2" fill="none" marker-end="url(#SvgjsMarker1598)"></path></g><g id="SvgjsG1600"><path id="SvgjsPath1601" d="M445.1875 112.4375L468.86788218175525 96.84173977855505" stroke="#323232" stroke-width="2" fill="none" marker-end="url(#SvgjsMarker1602)"></path></g><g id="SvgjsG1604"><path id="SvgjsPath1605" d="M476.5 100.9375L517.8125 457.9375" stroke="#323232" stroke-width="2" fill="none" marker-end="url(#SvgjsMarker1606)"></path></g><g id="SvgjsG1608"><path id="SvgjsPath1609" d="M527.8125 467.9375L551.5 454.3394237886466" stroke="#323232" stroke-width="2" fill="none" marker-end="url(#SvgjsMarker1610)"></path></g><g id="SvgjsG1612"><path id="SvgjsPath1613" d="M566.28107663889 441.2053547852221L593 407.4733983848622" stroke="#323232" stroke-width="2" fill="none" marker-end="url(#SvgjsMarker1614)"></path></g><g id="SvgjsG1616"><path id="SvgjsPath1617" d="M607.1809221376423 393.96356042997695L641.75 330.9375" stroke="#323232" stroke-width="2" fill="none" marker-end="url(#SvgjsMarker1618)"></path></g><g id="SvgjsG1620"><path id="SvgjsPath1621" d="M648.1339745962156 313.4375L676 287.2054491924311" stroke="#323232" stroke-width="2" fill="none" marker-end="url(#SvgjsMarker1622)"></path></g><g id="SvgjsG1624"><path id="SvgjsPath1625" d="M693.0625 280.9375L717.5 267.3394237886467" stroke="#323232" stroke-width="2" fill="none" marker-end="url(#SvgjsMarker1626)"></path></g><g id="SvgjsG1628"><path id="SvgjsPath1629" d="M734.375 260.9375L755.6875 260.9375" stroke="#323232" stroke-width="2" fill="none" marker-end="url(#SvgjsMarker1630)"></path></g><g id="SvgjsG1632"><path id="SvgjsPath1633" d="M775.6875 260.9375L802 260.9375" stroke="#323232" stroke-width="2" fill="none" marker-end="url(#SvgjsMarker1634)"></path></g><g id="SvgjsG1636" transform="translate(25,156.9375)"><path id="SvgjsPath1637" d="M 0 0L 120 0L 120 40L 0 40Z" stroke="none" fill="none"></path><g id="SvgjsG1638"><text id="SvgjsText1639" font-family="微软雅黑" text-anchor="middle" font-size="13px" width="120px" fill="#323232" font-weight="700" align="middle" lineHeight="125%" anchor="middle" family="微软雅黑" size="13px" weight="700" font-style="" opacity="1" y="10.375" transform="rotate(0)"><tspan id="SvgjsTspan1640" dy="16" x="60"><tspan id="SvgjsTspan1641" style="text-decoration:;">假设当前ssthresh</tspan></tspan></text></g></g><g id="SvgjsG1642" transform="translate(25,260.9375)"><path id="SvgjsPath1643" d="M 0 0L 120 0L 120 40L 0 40Z" stroke="none" fill="none"></path><g id="SvgjsG1644"><text id="SvgjsText1645" font-family="微软雅黑" text-anchor="middle" font-size="13px" width="120px" fill="#323232" font-weight="700" align="middle" lineHeight="125%" anchor="middle" family="微软雅黑" size="13px" weight="700" font-style="" opacity="1" y="10.375" transform="rotate(0)"><tspan id="SvgjsTspan1646" dy="16" x="60"><tspan id="SvgjsTspan1647" style="text-decoration:;">更新后的ssthresh</tspan></tspan></text></g></g><g id="SvgjsG1648" transform="translate(317.25,92.4375)"><path id="SvgjsPath1649" d="M 0 0L 82.625 0L 82.625 30L 0 30Z" stroke="none" fill="none"></path><g id="SvgjsG1650"><text id="SvgjsText1651" font-family="微软雅黑" text-anchor="middle" font-size="19px" width="83px" fill="#323232" font-weight="700" align="middle" lineHeight="125%" anchor="middle" family="微软雅黑" size="19px" weight="700" font-style="" opacity="1" y="1.125" transform="rotate(0)"><tspan id="SvgjsTspan1652" dy="23" x="41.5"><tspan id="SvgjsTspan1653" style="text-decoration:;">拥塞避免</tspan></tspan></text></g></g><g id="SvgjsG1654" transform="translate(683.0625,200.9375)"><path id="SvgjsPath1655" d="M 0 0L 82.625 0L 82.625 30L 0 30Z" stroke="none" fill="none"></path><g id="SvgjsG1656"><text id="SvgjsText1657" font-family="微软雅黑" text-anchor="middle" font-size="19px" width="83px" fill="#323232" font-weight="700" align="middle" lineHeight="125%" anchor="middle" family="微软雅黑" size="19px" weight="700" font-style="" opacity="1" y="1.125" transform="rotate(0)"><tspan id="SvgjsTspan1658" dy="23" x="41.5"><tspan id="SvgjsTspan1659" style="text-decoration:;">拥塞避免</tspan></tspan></text></g></g><g id="SvgjsG1660" transform="translate(511.8125,280.9375)"><path id="SvgjsPath1661" d="M 0 0L 82.625 0L 82.625 30L 0 30Z" stroke="none" fill="none"></path><g id="SvgjsG1662"><text id="SvgjsText1663" font-family="微软雅黑" text-anchor="middle" font-size="19px" width="83px" fill="#323232" font-weight="700" align="middle" lineHeight="125%" anchor="middle" family="微软雅黑" size="19px" weight="700" font-style="" opacity="1" y="1.125" transform="rotate(0)"><tspan id="SvgjsTspan1664" dy="23" x="41.5"><tspan id="SvgjsTspan1665" style="text-decoration:;">慢启动</tspan></tspan></text></g></g><g id="SvgjsG1666" transform="translate(140,175.9375)"><path id="SvgjsPath1667" d="M 0 0L 82.625 0L 82.625 30L 0 30Z" stroke="none" fill="none"></path><g id="SvgjsG1668"><text id="SvgjsText1669" font-family="微软雅黑" text-anchor="middle" font-size="19px" width="83px" fill="#323232" font-weight="700" align="middle" lineHeight="125%" anchor="middle" family="微软雅黑" size="19px" weight="700" font-style="" opacity="1" y="1.125" transform="rotate(0)"><tspan id="SvgjsTspan1670" dy="23" x="41.5"><tspan id="SvgjsTspan1671" style="text-decoration:;">慢启动</tspan></tspan></text></g></g><g id="SvgjsG1672" transform="translate(86,51.9375)"><path id="SvgjsPath1673" d="M 0 0L 120 0L 120 40L 0 40Z" stroke="none" fill="none"></path><g id="SvgjsG1674"><text id="SvgjsText1675" font-family="微软雅黑" text-anchor="middle" font-size="15px" width="120px" fill="#323232" font-weight="700" align="middle" lineHeight="125%" anchor="middle" family="微软雅黑" size="15px" weight="700" font-style="" opacity="1" y="9.125" transform="rotate(0)"><tspan id="SvgjsTspan1676" dy="18" x="60"><tspan id="SvgjsTspan1677" style="text-decoration:;">cnwd</tspan></tspan></text></g></g><g id="SvgjsG1678" transform="translate(1039.625,446.9375)"><path id="SvgjsPath1679" d="M 0 0L 81.3125 0L 81.3125 40L 0 40Z" stroke="none" fill="none"></path><g id="SvgjsG1680"><text id="SvgjsText1681" font-family="微软雅黑" text-anchor="middle" font-size="15px" width="82px" fill="#323232" font-weight="700" align="middle" lineHeight="125%" anchor="middle" family="微软雅黑" size="15px" weight="700" font-style="" opacity="1" y="9.125" transform="rotate(0)"><tspan id="SvgjsTspan1682" dy="18" x="41"><tspan id="SvgjsTspan1683" style="text-decoration:;">传输</tspan><tspan id="SvgjsTspan1684" style="text-decoration:;font-size: inherit;">轮次</tspan></tspan></text></g></g><g id="SvgjsG1685" transform="translate(591.75,80.9375)"><path id="SvgjsPath1686" d="M 0 0L 85.3125 0L 101.3125 16L 101.3125 54L 0 54L 0 0Z" stroke="none" fill-opacity="1" fill="#e57373"></path><path id="SvgjsPath1687" d="M 85.3125 0L 85.3125 16L 101.3125 16Z" stroke="none" fill-opacity="1" fill="#cdcdcd"></path><path id="SvgjsPath1688" d="M 0 0L 85.3125 0L 101.3125 16L 101.3125 54L 0 54L 0 0Z" stroke="none" fill="none"></path><g id="SvgjsG1689"><text id="SvgjsText1690" font-family="微软雅黑" text-anchor="middle" font-size="13px" width="82px" fill="#ffffff" font-weight="700" align="middle" lineHeight="125%" anchor="middle" family="微软雅黑" size="13px" weight="700" font-style="" opacity="1" y="17.375" transform="rotate(0)"><tspan id="SvgjsTspan1691" dy="16" x="51"><tspan id="SvgjsTspan1692" style="text-decoration:;">发生超时重传</tspan></tspan></text></g></g><g id="SvgjsG1693"><path id="SvgjsPath1694" d="M642.40625 80.9375C 642.40625 25.014223875473817 558.7104711751737 96.40528466751545 503 91.53125" stroke-dasharray="3,3" stroke="#323232" stroke-width="2" fill="none" marker-end="url(#SvgjsMarker1695)"></path></g><g id="SvgjsG1697" transform="translate(844,250.9375)"><path id="SvgjsPath1698" d="M 0 10C 0 -3.3333333333333335 20 -3.3333333333333335 20 10C 20 23.333333333333332 0 23.333333333333332 0 10Z" stroke="none" fill-opacity="1" fill="#323232"></path><g id="SvgjsG1699"><text id="SvgjsText1700" font-family="微软雅黑" text-anchor="middle" font-size="13px" width="60px" fill="#323232" font-weight="400" align="middle" lineHeight="125%" anchor="middle" family="微软雅黑" size="13px" weight="400" font-style="" opacity="1" y="25.375" transform="rotate(0)"></text></g></g><g id="SvgjsG1701"><path id="SvgjsPath1702" d="M822 260.9375L844 260.9375" stroke="#323232" stroke-width="2" fill="none" marker-end="url(#SvgjsMarker1703)"></path></g><g id="SvgjsG1705" transform="translate(747.34375,106.9375)"><path id="SvgjsPath1706" d="M 0 0L 85.3125 0L 101.3125 16L 101.3125 54L 0 54L 0 0Z" stroke="none" fill-opacity="1" fill="#ba68c8"></path><path id="SvgjsPath1707" d="M 85.3125 0L 85.3125 16L 101.3125 16Z" stroke="none" fill-opacity="1" fill="#cdcdcd"></path><path id="SvgjsPath1708" d="M 0 0L 85.3125 0L 101.3125 16L 101.3125 54L 0 54L 0 0Z" stroke="none" fill="none"></path><g id="SvgjsG1709"><text id="SvgjsText1710" font-family="微软雅黑" text-anchor="middle" font-size="13px" width="82px" fill="#ffffff" font-weight="700" align="middle" lineHeight="125%" anchor="middle" family="微软雅黑" size="13px" weight="700" font-style="" opacity="1" y="17.375" transform="rotate(0)"><tspan id="SvgjsTspan1711" dy="16" x="51"><tspan id="SvgjsTspan1712" style="text-decoration:;">收到重复ACK</tspan></tspan></text></g></g><g id="SvgjsG1713"><path id="SvgjsPath1714" d="M798 160.9375C 798 199.1874101306134 775.5873052152626 213.99092395160466 765.6875 250.9375" stroke-dasharray="3,3" stroke="#323232" stroke-width="2" fill="none" marker-end="url(#SvgjsMarker1715)"></path></g><g id="SvgjsG1717"><path id="SvgjsPath1718" d="M798 160.9375C 798 197.37045211755424 821.4295418773313 215.74597062170136 812 250.9375" stroke-dasharray="3,3" stroke="#323232" stroke-width="2" fill="none" marker-end="url(#SvgjsMarker1719)"></path></g><g id="SvgjsG1721"><path id="SvgjsPath1722" d="M798 160.9375C 798 203.33749999999998 864.9739275123469 209.9822449653435 854 250.9375" stroke-dasharray="3,3" stroke="#323232" stroke-width="2" fill="none" marker-end="url(#SvgjsMarker1723)"></path></g><g id="SvgjsG1725"><path id="SvgjsPath1726" d="M148 366.9375L1109 366.9375" stroke-dasharray="3,3" stroke="#323232" stroke-width="2" fill="none"></path></g><g id="SvgjsG1727" transform="translate(25,346.9375)"><path id="SvgjsPath1728" d="M 0 0L 120 0L 120 40L 0 40Z" stroke="none" fill="none"></path><g id="SvgjsG1729"><text id="SvgjsText1730" font-family="微软雅黑" text-anchor="middle" font-size="13px" width="120px" fill="#323232" font-weight="700" align="middle" lineHeight="125%" anchor="middle" family="微软雅黑" size="13px" weight="700" font-style="" opacity="1" y="2.375" transform="rotate(0)"><tspan id="SvgjsTspan1731" dy="16" x="60"><tspan id="SvgjsTspan1732" style="text-decoration:;">第二次更新后的</tspan></tspan><tspan id="SvgjsTspan1733" dy="16" x="60"><tspan id="SvgjsTspan1734" style="text-decoration:;">ssthresh</tspan></tspan></text></g></g><g id="SvgjsG1735" transform="translate(577.125,218.6875)"><path id="SvgjsPath1736" d="M 0 0L 63 0L 79 16L 79 42.5L 0 42.5L 0 0Z" stroke="none" fill-opacity="1" fill="#ba68c8"></path><path id="SvgjsPath1737" d="M 63 0L 63 16L 79 16Z" stroke="none" fill-opacity="1" fill="#cdcdcd"></path><path id="SvgjsPath1738" d="M 0 0L 63 0L 79 16L 79 42.5L 0 42.5L 0 0Z" stroke="none" fill="none"></path><g id="SvgjsG1739"><text id="SvgjsText1740" font-family="微软雅黑" text-anchor="middle" font-size="13px" width="59px" fill="#ffffff" font-weight="700" align="middle" lineHeight="125%" anchor="middle" family="微软雅黑" size="13px" weight="700" font-style="" opacity="1" y="11.625" transform="rotate(0)"><tspan id="SvgjsTspan1741" dy="16" x="39.5"><tspan id="SvgjsTspan1742" style="text-decoration:;">丢失</tspan></tspan></text></g></g><g id="SvgjsG1743"><path id="SvgjsPath1744" d="M656.125 239.9375C 680.8929228034973 239.9375 691 246.9375 714.375 260.9375" stroke-dasharray="3,3" stroke="#323232" stroke-width="2" fill="none" marker-end="url(#SvgjsMarker1745)"></path></g><g id="SvgjsG1747" transform="translate(892.34375,79.4375)"><path id="SvgjsPath1748" d="M 0 0L 310.65625 0L 326.65625 16L 326.65625 109L 0 109L 0 0Z" stroke="none" fill-opacity="1" fill="#e57373"></path><path id="SvgjsPath1749" d="M 310.65625 0L 310.65625 16L 326.65625 16Z" stroke="none" fill-opacity="1" fill="#cdcdcd"></path><path id="SvgjsPath1750" d="M 0 0L 310.65625 0L 326.65625 16L 326.65625 109L 0 109L 0 0Z" stroke="none" fill="none"></path><g id="SvgjsG1751"><text id="SvgjsText1752" font-family="微软雅黑" text-anchor="start" font-size="13px" width="307px" fill="#ffffff" font-weight="700" align="middle" lineHeight="125%" anchor="start" family="微软雅黑" size="13px" weight="700" font-style="" opacity="1" y="20.875" transform="rotate(0)"><tspan id="SvgjsTspan1753" dy="16" x="10"><tspan id="SvgjsTspan1754" style="text-decoration:;">当收到第3个重复的ACK时：</tspan></tspan><tspan id="SvgjsTspan1755" dy="16" x="10"><tspan id="SvgjsTspan1756" style="text-decoration:;">    1. 将ssthresh设置为当前拥塞窗口cwnd的一半。</tspan></tspan><tspan id="SvgjsTspan1757" dy="16" x="10"><tspan id="SvgjsTspan1758" style="text-decoration:;">    2. 重传丢失的报文段</tspan></tspan><tspan id="SvgjsTspan1759" dy="16" x="10"><tspan id="SvgjsTspan1760" style="text-decoration:;">    3. 设置cwnd为ssthresh加上3倍的报文段大小</tspan></tspan></text></g></g><g id="SvgjsG1761"><path id="SvgjsPath1762" d="M1055.671875 188.4375C 1048 245.9375 958 191.9375 864 260.9375" stroke-dasharray="3,3" stroke="#323232" stroke-width="2" fill="none" marker-end="url(#SvgjsMarker1763)"></path></g><g id="SvgjsG1765" transform="translate(885,330.9375)"><path id="SvgjsPath1766" d="M 0 10C 0 -3.3333333333333335 20 -3.3333333333333335 20 10C 20 23.333333333333332 0 23.333333333333332 0 10Z" stroke="none" fill-opacity="1" fill="#323232"></path><g id="SvgjsG1767"><text id="SvgjsText1768" font-family="微软雅黑" text-anchor="middle" font-size="13px" width="60px" fill="#323232" font-weight="400" align="middle" lineHeight="125%" anchor="middle" family="微软雅黑" size="13px" weight="400" font-style="" opacity="1" y="25.375" transform="rotate(0)"></text></g></g><g id="SvgjsG1769" transform="translate(926,330.9375)"><path id="SvgjsPath1770" d="M 0 10C 0 -3.3333333333333335 20 -3.3333333333333335 20 10C 20 23.333333333333332 0 23.333333333333332 0 10Z" stroke="none" fill-opacity="1" fill="#323232"></path><g id="SvgjsG1771"><text id="SvgjsText1772" font-family="微软雅黑" text-anchor="middle" font-size="13px" width="60px" fill="#323232" font-weight="400" align="middle" lineHeight="125%" anchor="middle" family="微软雅黑" size="13px" weight="400" font-style="" opacity="1" y="25.375" transform="rotate(0)"></text></g></g><g id="SvgjsG1773" transform="translate(967,352.9375)"><path id="SvgjsPath1774" d="M 0 10C 0 -3.3333333333333335 20 -3.3333333333333335 20 10C 20 23.333333333333332 0 23.333333333333332 0 10Z" stroke="none" fill-opacity="1" fill="#323232"></path><g id="SvgjsG1775"><text id="SvgjsText1776" font-family="微软雅黑" text-anchor="middle" font-size="13px" width="60px" fill="#323232" font-weight="400" align="middle" lineHeight="125%" anchor="middle" family="微软雅黑" size="13px" weight="400" font-style="" opacity="1" y="25.375" transform="rotate(0)"></text></g></g><g id="SvgjsG1777"><path id="SvgjsPath1778" d="M864 270.9375L887.914912265734 334.37895861810625" stroke="#323232" stroke-width="2" fill="none" marker-end="url(#SvgjsMarker1779)"></path></g><g id="SvgjsG1781"><path id="SvgjsPath1782" d="M905 340.9375L926 340.9375" stroke="#323232" stroke-width="2" fill="none" marker-end="url(#SvgjsMarker1783)"></path></g><g id="SvgjsG1785"><path id="SvgjsPath1786" d="M946 340.9375L969.3301270189222 356.4375" stroke="#323232" stroke-width="2" fill="none" marker-end="url(#SvgjsMarker1787)"></path></g><g id="SvgjsG1789" transform="translate(749.34375,386.9375)"><path id="SvgjsPath1790" d="M 0 0L 109.3125 0L 125.3125 16L 125.3125 68L 0 68L 0 0Z" stroke="none" fill-opacity="1" fill="#e57373"></path><path id="SvgjsPath1791" d="M 109.3125 0L 109.3125 16L 125.3125 16Z" stroke="none" fill-opacity="1" fill="#cdcdcd"></path><path id="SvgjsPath1792" d="M 0 0L 109.3125 0L 125.3125 16L 125.3125 68L 0 68L 0 0Z" stroke="none" fill="none"></path><g id="SvgjsG1793"><text id="SvgjsText1794" font-family="微软雅黑" text-anchor="start" font-size="13px" width="106px" fill="#ffffff" font-weight="700" align="middle" lineHeight="125%" anchor="start" family="微软雅黑" size="13px" weight="700" font-style="" opacity="1" y="8.375" transform="rotate(0)"><tspan id="SvgjsTspan1795" dy="16" x="10"><tspan id="SvgjsTspan1796" style="text-decoration:;">设置cwnd为</tspan></tspan><tspan id="SvgjsTspan1797" dy="16" x="10"><tspan id="SvgjsTspan1798" style="text-decoration:;">ssthresh加上3倍</tspan></tspan><tspan id="SvgjsTspan1799" dy="16" x="10"><tspan id="SvgjsTspan1800" style="text-decoration:;">的报文段大小</tspan></tspan></text></g></g><g id="SvgjsG1801"><path id="SvgjsPath1802" d="M812 386.9375C 812 352.4237346302233 853.7199056854155 355.52364752670144 885 340.9375" stroke-dasharray="3,3" stroke="#323232" stroke-width="2" fill="none" marker-end="url(#SvgjsMarker1803)"></path></g><g id="SvgjsG1805" transform="translate(885.6875,410.9375)"><path id="SvgjsPath1806" d="M 0 0L 85.3125 0L 101.3125 16L 101.3125 54L 0 54L 0 0Z" stroke="none" fill-opacity="1" fill="#ba68c8"></path><path id="SvgjsPath1807" d="M 85.3125 0L 85.3125 16L 101.3125 16Z" stroke="none" fill-opacity="1" fill="#cdcdcd"></path><path id="SvgjsPath1808" d="M 0 0L 85.3125 0L 101.3125 16L 101.3125 54L 0 54L 0 0Z" stroke="none" fill="none"></path><g id="SvgjsG1809"><text id="SvgjsText1810" font-family="微软雅黑" text-anchor="middle" font-size="13px" width="82px" fill="#ffffff" font-weight="700" align="middle" lineHeight="125%" anchor="middle" family="微软雅黑" size="13px" weight="700" font-style="" opacity="1" y="17.375" transform="rotate(0)"><tspan id="SvgjsTspan1811" dy="16" x="51"><tspan id="SvgjsTspan1812" style="text-decoration:;">收到新的ACK</tspan></tspan></text></g></g><g id="SvgjsG1813"><path id="SvgjsPath1814" d="M936.34375 410.9375C 936.34375 386.9371061230237 938.0917721545842 374.84656513235734 936 350.9375" stroke-dasharray="3,3" stroke="#323232" stroke-width="2" fill="none" marker-end="url(#SvgjsMarker1815)"></path></g><g id="SvgjsG1817" transform="translate(1004.5625,333.4375)"><path id="SvgjsPath1818" d="M 0 10C 0 -3.3333333333333335 20 -3.3333333333333335 20 10C 20 23.333333333333332 0 23.333333333333332 0 10Z" stroke="none" fill-opacity="1" fill="#323232"></path><g id="SvgjsG1819"><text id="SvgjsText1820" font-family="微软雅黑" text-anchor="middle" font-size="13px" width="60px" fill="#323232" font-weight="400" align="middle" lineHeight="125%" anchor="middle" family="微软雅黑" size="13px" weight="400" font-style="" opacity="1" y="25.375" transform="rotate(0)"></text></g></g><g id="SvgjsG1821" transform="translate(1045.875,311.9375)"><path id="SvgjsPath1822" d="M 0 10C 0 -3.3333333333333335 20 -3.3333333333333335 20 10C 20 23.333333333333332 0 23.333333333333332 0 10Z" stroke="none" fill-opacity="1" fill="#323232"></path><g id="SvgjsG1823"><text id="SvgjsText1824" font-family="微软雅黑" text-anchor="middle" font-size="13px" width="60px" fill="#323232" font-weight="400" align="middle" lineHeight="125%" anchor="middle" family="微软雅黑" size="13px" weight="400" font-style="" opacity="1" y="25.375" transform="rotate(0)"></text></g></g><g id="SvgjsG1825" transform="translate(1087.1875,290.4375)"><path id="SvgjsPath1826" d="M 0 10C 0 -3.3333333333333335 20 -3.3333333333333335 20 10C 20 23.333333333333332 0 23.333333333333332 0 10Z" stroke="none" fill-opacity="1" fill="#323232"></path><g id="SvgjsG1827"><text id="SvgjsText1828" font-family="微软雅黑" text-anchor="middle" font-size="13px" width="60px" fill="#323232" font-weight="400" align="middle" lineHeight="125%" anchor="middle" family="微软雅黑" size="13px" weight="400" font-style="" opacity="1" y="25.375" transform="rotate(0)"></text></g></g><g id="SvgjsG1829"><path id="SvgjsPath1830" d="M1024.5625 343.4375L1048.2943057454042 327.66089182284395" stroke="#323232" stroke-width="2" fill="none" marker-end="url(#SvgjsMarker1831)"></path></g><g id="SvgjsG1833"><path id="SvgjsPath1834" d="M1065.875 321.9375L1089.2139380484327 305.1072777844051" stroke="#323232" stroke-width="2" fill="none" marker-end="url(#SvgjsMarker1835)"></path></g><g id="SvgjsG1837"><path id="SvgjsPath1838" d="M987 362.9375L1008.026060429977 350.11842213764226" stroke="#323232" stroke-width="2" fill="none" marker-end="url(#SvgjsMarker1839)"></path></g><g id="SvgjsG1841" transform="translate(973.25,285.4375)"><path id="SvgjsPath1842" d="M 0 0L 82.625 0L 82.625 30L 0 30Z" stroke="none" fill="none"></path><g id="SvgjsG1843"><text id="SvgjsText1844" font-family="微软雅黑" text-anchor="middle" font-size="19px" width="83px" fill="#323232" font-weight="700" align="middle" lineHeight="125%" anchor="middle" family="微软雅黑" size="19px" weight="700" font-style="" opacity="1" y="1.125" transform="rotate(0)"><tspan id="SvgjsTspan1845" dy="23" x="41.5"><tspan id="SvgjsTspan1846" style="text-decoration:;">拥塞避免</tspan></tspan></text></g></g><g id="SvgjsG1847" transform="translate(1011.890625,396.9375)"><path id="SvgjsPath1848" d="M 0 0L 75.65625 0L 91.65625 16L 91.65625 41L 0 41L 0 0Z" stroke="none" fill-opacity="1" fill="#e57373"></path><path id="SvgjsPath1849" d="M 75.65625 0L 75.65625 16L 91.65625 16Z" stroke="none" fill-opacity="1" fill="#cdcdcd"></path><path id="SvgjsPath1850" d="M 0 0L 75.65625 0L 91.65625 16L 91.65625 41L 0 41L 0 0Z" stroke="none" fill="none"></path><g id="SvgjsG1851"><text id="SvgjsText1852" font-family="微软雅黑" text-anchor="middle" font-size="13px" width="72px" fill="#ffffff" font-weight="700" align="middle" lineHeight="125%" anchor="middle" family="微软雅黑" size="13px" weight="700" font-style="" opacity="1" y="10.875" transform="rotate(0)"><tspan id="SvgjsTspan1853" dy="16" x="46"><tspan id="SvgjsTspan1854" style="text-decoration:;">快速恢复</tspan></tspan></text></g></g><g id="SvgjsG1855"><path id="SvgjsPath1856" d="M1057.71875 396.9375L1057.71875 365.9375" stroke-dasharray="3,3" stroke="#323232" stroke-width="2" fill="none" marker-end="url(#SvgjsMarker1857)"></path></g></svg>