<svg id="SvgjsSvg3636" width="630.40625" height="658.859375" xmlns="http://www.w3.org/2000/svg" version="1.1" xmlns:xlink="http://www.w3.org/1999/xlink" xmlns:svgjs="http://svgjs.com/svgjs"><defs id="SvgjsDefs3637"><marker id="SvgjsMarker3666" markerWidth="16" markerHeight="12" refX="16" refY="6" viewBox="0 0 16 12" orient="auto" markerUnits="userSpaceOnUse" stroke-dasharray="0,0"><path id="SvgjsPath3667" d="M0,2 L14,6 L0,11 L0,2" fill="#323232" stroke="#323232" stroke-width="2"></path></marker><marker id="SvgjsMarker3678" markerWidth="16" markerHeight="12" refX="16" refY="6" viewBox="0 0 16 12" orient="auto" markerUnits="userSpaceOnUse" stroke-dasharray="0,0"><path id="SvgjsPath3679" d="M0,2 L14,6 L0,11 L0,2" fill="#323232" stroke="#323232" stroke-width="2"></path></marker><marker id="SvgjsMarker3682" markerWidth="16" markerHeight="12" refX="16" refY="6" viewBox="0 0 16 12" orient="auto" markerUnits="userSpaceOnUse" stroke-dasharray="0,0"><path id="SvgjsPath3683" d="M0,2 L14,6 L0,11 L0,2" fill="#323232" stroke="#323232" stroke-width="2"></path></marker><marker id="SvgjsMarker3704" markerWidth="16" markerHeight="12" refX="16" refY="6" viewBox="0 0 16 12" orient="auto" markerUnits="userSpaceOnUse" stroke-dasharray="0,0"><path id="SvgjsPath3705" d="M0,2 L14,6 L0,11 L0,2" fill="#323232" stroke="#323232" stroke-width="2"></path></marker><marker id="SvgjsMarker3714" markerWidth="16" markerHeight="12" refX="16" refY="6" viewBox="0 0 16 12" orient="auto" markerUnits="userSpaceOnUse" stroke-dasharray="0,0"><path id="SvgjsPath3715" d="M0,2 L14,6 L0,11 L0,2" fill="#323232" stroke="#323232" stroke-width="2"></path></marker><marker id="SvgjsMarker3718" markerWidth="16" markerHeight="12" refX="16" refY="6" viewBox="0 0 16 12" orient="auto" markerUnits="userSpaceOnUse" stroke-dasharray="0,0"><path id="SvgjsPath3719" d="M0,2 L14,6 L0,11 L0,2" fill="#323232" stroke="#323232" stroke-width="2"></path></marker><marker id="SvgjsMarker3728" markerWidth="16" markerHeight="12" refX="16" refY="6" viewBox="0 0 16 12" orient="auto" markerUnits="userSpaceOnUse" stroke-dasharray="0,0"><path id="SvgjsPath3729" d="M0,2 L14,6 L0,11 L0,2" fill="#323232" stroke="#323232" stroke-width="2"></path></marker><marker id="SvgjsMarker3732" markerWidth="16" markerHeight="12" refX="16" refY="6" viewBox="0 0 16 12" orient="auto" markerUnits="userSpaceOnUse" stroke-dasharray="0,0"><path id="SvgjsPath3733" d="M0,2 L14,6 L0,11 L0,2" fill="#323232" stroke="#323232" stroke-width="2"></path></marker><marker id="SvgjsMarker3772" markerWidth="16" markerHeight="12" refX="16" refY="6" viewBox="0 0 16 12" orient="auto" markerUnits="userSpaceOnUse" stroke-dasharray="0,0"><path id="SvgjsPath3773" d="M0,2 L14,6 L0,11 L0,2" fill="#323232" stroke="#323232" stroke-width="2"></path></marker><marker id="SvgjsMarker3776" markerWidth="16" markerHeight="12" refX="16" refY="6" viewBox="0 0 16 12" orient="auto" markerUnits="userSpaceOnUse" stroke-dasharray="0,0"><path id="SvgjsPath3777" d="M0,2 L14,6 L0,11 L0,2" fill="#323232" stroke="#323232" stroke-width="2"></path></marker><marker id="SvgjsMarker3780" markerWidth="16" markerHeight="12" refX="16" refY="6" viewBox="0 0 16 12" orient="auto" markerUnits="userSpaceOnUse" stroke-dasharray="0,0"><path id="SvgjsPath3781" d="M0,2 L14,6 L0,11 L0,2" fill="#323232" stroke="#323232" stroke-width="2"></path></marker><marker id="SvgjsMarker3784" markerWidth="16" markerHeight="12" refX="16" refY="6" viewBox="0 0 16 12" orient="auto" markerUnits="userSpaceOnUse" stroke-dasharray="0,0"><path id="SvgjsPath3785" d="M0,2 L14,6 L0,11 L0,2" fill="#323232" stroke="#323232" stroke-width="2"></path></marker><marker id="SvgjsMarker3788" markerWidth="16" markerHeight="12" refX="16" refY="6" viewBox="0 0 16 12" orient="auto" markerUnits="userSpaceOnUse" stroke-dasharray="0,0"><path id="SvgjsPath3789" d="M0,2 L14,6 L0,11 L0,2" fill="#323232" stroke="#323232" stroke-width="2"></path></marker><marker id="SvgjsMarker3792" markerWidth="16" markerHeight="12" refX="16" refY="6" viewBox="0 0 16 12" orient="auto" markerUnits="userSpaceOnUse" stroke-dasharray="0,0"><path id="SvgjsPath3793" d="M0,2 L14,6 L0,11 L0,2" fill="#323232" stroke="#323232" stroke-width="2"></path></marker><marker id="SvgjsMarker3796" markerWidth="16" markerHeight="12" refX="16" refY="6" viewBox="0 0 16 12" orient="auto" markerUnits="userSpaceOnUse" stroke-dasharray="0,0"><path id="SvgjsPath3797" d="M0,2 L14,6 L0,11 L0,2" fill="#323232" stroke="#323232" stroke-width="2"></path></marker><marker id="SvgjsMarker3800" markerWidth="16" markerHeight="12" refX="16" refY="6" viewBox="0 0 16 12" orient="auto" markerUnits="userSpaceOnUse" stroke-dasharray="0,0"><path id="SvgjsPath3801" d="M0,2 L14,6 L0,11 L0,2" fill="#323232" stroke="#323232" stroke-width="2"></path></marker><marker id="SvgjsMarker3804" markerWidth="16" markerHeight="12" refX="16" refY="6" viewBox="0 0 16 12" orient="auto" markerUnits="userSpaceOnUse" stroke-dasharray="0,0"><path id="SvgjsPath3805" d="M0,2 L14,6 L0,11 L0,2" fill="#323232" stroke="#323232" stroke-width="2"></path></marker><marker id="SvgjsMarker3808" markerWidth="16" markerHeight="12" refX="16" refY="6" viewBox="0 0 16 12" orient="auto" markerUnits="userSpaceOnUse" stroke-dasharray="0,0"><path id="SvgjsPath3809" d="M0,2 L14,6 L0,11 L0,2" fill="#323232" stroke="#323232" stroke-width="2"></path></marker><marker id="SvgjsMarker3812" markerWidth="16" markerHeight="12" refX="16" refY="6" viewBox="0 0 16 12" orient="auto" markerUnits="userSpaceOnUse" stroke-dasharray="0,0"><path id="SvgjsPath3813" d="M0,2 L14,6 L0,11 L0,2" fill="#323232" stroke="#323232" stroke-width="2"></path></marker><marker id="SvgjsMarker3816" markerWidth="16" markerHeight="12" refX="0" refY="6" viewBox="0 0 16 12" orient="auto" markerUnits="userSpaceOnUse" stroke-dasharray="0,0"><path id="SvgjsPath3817" d="M15,1.5 L2,6 L15,10.5" fill="#323232" stroke="#323232" stroke-width="2"></path></marker><marker id="SvgjsMarker3820" markerWidth="16" markerHeight="12" refX="16" refY="6" viewBox="0 0 16 12" orient="auto" markerUnits="userSpaceOnUse" stroke-dasharray="0,0"><path id="SvgjsPath3821" d="M0,2 L14,6 L0,11 L0,2" fill="#323232" stroke="#323232" stroke-width="2"></path></marker><marker id="SvgjsMarker3824" markerWidth="16" markerHeight="12" refX="16" refY="6" viewBox="0 0 16 12" orient="auto" markerUnits="userSpaceOnUse" stroke-dasharray="0,0"><path id="SvgjsPath3825" d="M0,2 L14,6 L0,11 L0,2" fill="#323232" stroke="#323232" stroke-width="2"></path></marker><marker id="SvgjsMarker4014" markerWidth="16" markerHeight="12" refX="16" refY="6" viewBox="0 0 16 12" orient="auto" markerUnits="userSpaceOnUse" stroke-dasharray="0,0"><path id="SvgjsPath4015" d="M0,2 L14,6 L0,11 L0,2" fill="#323232" stroke="#323232" stroke-width="2"></path></marker><marker id="SvgjsMarker4024" markerWidth="16" markerHeight="12" refX="16" refY="6" viewBox="0 0 16 12" orient="auto" markerUnits="userSpaceOnUse" stroke-dasharray="0,0"><path id="SvgjsPath4025" d="M0,2 L14,6 L0,11 L0,2" fill="#323232" stroke="#323232" stroke-width="2"></path></marker></defs><g id="SvgjsG3638" transform="translate(25.001762480027764,419.56792661016226)"><path id="SvgjsPath3639" d="M 0 0L 308.40448751997224 0L 308.40448751997224 156.43207338983774L 0 156.43207338983774Z" stroke-dasharray="10,6" stroke="rgba(50,50,50,1)" stroke-width="1" fill-opacity="1" fill="#ffe0b2"></path><g id="SvgjsG3640"><text id="SvgjsText3641" font-family="微软雅黑" text-anchor="middle" font-size="13px" width="289px" fill="#323232" font-weight="400" align="middle" lineHeight="125%" anchor="middle" family="微软雅黑" size="13px" weight="400" font-style="" opacity="1" y="68.59103669491887" transform="rotate(0)"></text></g></g><g id="SvgjsG3642" transform="translate(389.00176248002776,308.56792661016215)"><path id="SvgjsPath3643" d="M 0 0L 124.80897503994447 0L 124.80897503994447 159.43207338983785L 0 159.43207338983785Z" stroke-dasharray="10,6" stroke="rgba(50,50,50,1)" stroke-width="1" fill-opacity="1" fill="#bbdefb"></path><g id="SvgjsG3644"><text id="SvgjsText3645" font-family="微软雅黑" text-anchor="middle" font-size="13px" width="105px" fill="#323232" font-weight="400" align="middle" lineHeight="125%" anchor="middle" family="微软雅黑" size="13px" weight="400" font-style="" opacity="1" y="70.09103669491893" transform="rotate(0)"></text></g></g><g id="SvgjsG3646" transform="translate(32.40625,213)"><path id="SvgjsPath3647" d="M 9.666666666666666 0L 100.33333333333333 0C 113.22222222222223 0 113.22222222222223 29 100.33333333333333 29L 9.666666666666666 29C -3.222222222222222 29 -3.222222222222222 0 9.666666666666666 0Z" stroke="rgba(50,50,50,1)" stroke-width="2" fill-opacity="1" fill="#ffffff"></path><g id="SvgjsG3648"><text id="SvgjsText3649" font-family="微软雅黑" text-anchor="middle" font-size="13px" width="90px" fill="#323232" font-weight="700" align="middle" lineHeight="125%" anchor="middle" family="微软雅黑" size="13px" weight="700" font-style="" opacity="1" y="4.875" transform="rotate(0)"><tspan id="SvgjsTspan3650" dy="16" x="55"><tspan id="SvgjsTspan3651" style="text-decoration:;">SYN_RCVD</tspan></tspan></text></g></g><g id="SvgjsG3652" transform="translate(214.40625,25)"><path id="SvgjsPath3653" d="M 9.666666666666666 0L 100.33333333333333 0C 113.22222222222223 0 113.22222222222223 29 100.33333333333333 29L 9.666666666666666 29C -3.222222222222222 29 -3.222222222222222 0 9.666666666666666 0Z" stroke="rgba(50,50,50,1)" stroke-width="2" fill-opacity="1" fill="#ffffff"></path><g id="SvgjsG3654"><text id="SvgjsText3655" font-family="微软雅黑" text-anchor="middle" font-size="13px" width="90px" fill="#323232" font-weight="700" align="middle" lineHeight="125%" anchor="middle" family="微软雅黑" size="13px" weight="700" font-style="" opacity="1" y="4.875" transform="rotate(0)"><tspan id="SvgjsTspan3656" dy="16" x="55"><tspan id="SvgjsTspan3657" style="text-decoration:;">CLOSED</tspan></tspan></text></g></g><g id="SvgjsG3658" transform="translate(214.40625,119)"><path id="SvgjsPath3659" d="M 9.666666666666666 0L 100.33333333333333 0C 113.22222222222223 0 113.22222222222223 29 100.33333333333333 29L 9.666666666666666 29C -3.222222222222222 29 -3.222222222222222 0 9.666666666666666 0Z" stroke="rgba(50,50,50,1)" stroke-width="2" fill-opacity="1" fill="#ffffff"></path><g id="SvgjsG3660"><text id="SvgjsText3661" font-family="微软雅黑" text-anchor="middle" font-size="13px" width="90px" fill="#323232" font-weight="700" align="middle" lineHeight="125%" anchor="middle" family="微软雅黑" size="13px" weight="700" font-style="" opacity="1" y="4.875" transform="rotate(0)"><tspan id="SvgjsTspan3662" dy="16" x="55"><tspan id="SvgjsTspan3663" style="text-decoration:;">LISTEN</tspan></tspan></text></g></g><g id="SvgjsG3664"><path id="SvgjsPath3665" d="M269.40625 54C 269.40625 80 269.40625 93 269.40625 119" stroke-dasharray="8,5" stroke="#323232" stroke-width="2" fill="none" marker-end="url(#SvgjsMarker3666)"></path></g><g id="SvgjsG3668" transform="translate(142.40625,55)"><path id="SvgjsPath3669" d="M 0 0L 120 0L 120 40L 0 40Z" stroke="none" fill="none"></path><g id="SvgjsG3670"><text id="SvgjsText3671" font-family="微软雅黑" text-anchor="start" font-size="13px" width="120px" fill="#323232" font-weight="700" align="middle" lineHeight="125%" anchor="start" family="微软雅黑" size="13px" weight="700" font-style="" opacity="1" y="2.375" transform="rotate(0)"><tspan id="SvgjsTspan3672" dy="16" x="0"><tspan id="SvgjsTspan3673" style="text-decoration:;">应用进程：被动打开</tspan></tspan><tspan id="SvgjsTspan3674" dy="16" x="0"><tspan id="SvgjsTspan3675" style="text-decoration:;">发送：无</tspan></tspan></text></g></g><g id="SvgjsG3676"><path id="SvgjsPath3677" d="M216.26995330515626 125.03527618041008L87.40625 213" stroke-dasharray="8,5" stroke="#323232" stroke-width="2" fill="none" marker-end="url(#SvgjsMarker3678)"></path></g><g id="SvgjsG3680"><path id="SvgjsPath3681" d="M113.40625 213L216.90576326780575 142.63768889816714" stroke="#323232" stroke-width="2" fill="none" marker-end="url(#SvgjsMarker3682)"></path></g><g id="SvgjsG3684" transform="matrix(0.8191520442889916,-0.5735764363510465,0.5735764363510465,0.8191520442889916,72.41493027052617,191.90028871978961)"><path id="SvgjsPath3685" d="M 0 0L 152 0L 152 20L 0 20Z" stroke="none" fill="none"></path><g id="SvgjsG3686"><text id="SvgjsText3687" font-family="微软雅黑" text-anchor="middle" font-size="13px" width="152px" fill="#323232" font-weight="700" align="middle" lineHeight="125%" anchor="middle" family="微软雅黑" size="13px" weight="700" font-style="" opacity="1" y="0.375" transform="rotate(0)"><tspan id="SvgjsTspan3688" dy="16" x="76"><tspan id="SvgjsTspan3689" style="text-decoration:;">收：SYN，发：SYN,ACK</tspan></tspan></text></g></g><g id="SvgjsG3690" transform="matrix(0.8191520442889916,-0.5735764363510465,0.5735764363510465,0.8191520442889916,108.41493027052617,221.90028871978961)"><path id="SvgjsPath3691" d="M 0 0L 152 0L 152 20L 0 20Z" stroke="none" fill="none"></path><g id="SvgjsG3692"><text id="SvgjsText3693" font-family="微软雅黑" text-anchor="middle" font-size="13px" width="152px" fill="#323232" font-weight="700" align="middle" lineHeight="125%" anchor="middle" family="微软雅黑" size="13px" weight="700" font-style="" opacity="1" y="0.375" transform="rotate(0)"><tspan id="SvgjsTspan3694" dy="16" x="76"><tspan id="SvgjsTspan3695" style="text-decoration:;">收：RST</tspan></tspan></text></g></g><g id="SvgjsG3696" transform="translate(396.40625,213)"><path id="SvgjsPath3697" d="M 9.666666666666666 0L 100.33333333333333 0C 113.22222222222223 0 113.22222222222223 29 100.33333333333333 29L 9.666666666666666 29C -3.222222222222222 29 -3.222222222222222 0 9.666666666666666 0Z" stroke="rgba(50,50,50,1)" stroke-width="2" fill-opacity="1" fill="#ffffff"></path><g id="SvgjsG3698"><text id="SvgjsText3699" font-family="微软雅黑" text-anchor="middle" font-size="13px" width="90px" fill="#323232" font-weight="700" align="middle" lineHeight="125%" anchor="middle" family="微软雅黑" size="13px" weight="700" font-style="" opacity="1" y="4.875" transform="rotate(0)"><tspan id="SvgjsTspan3700" dy="16" x="55"><tspan id="SvgjsTspan3701" style="text-decoration:;">SYN_SENT</tspan></tspan></text></g></g><g id="SvgjsG3702"><path id="SvgjsPath3703" d="M324.40625 133.5L402.36457783218486 214.06082490368715" stroke="#323232" stroke-width="2" fill="none" marker-end="url(#SvgjsMarker3704)"></path></g><g id="SvgjsG3706" transform="translate(236.90625,144.5)"><path id="SvgjsPath3707" d="M 0 0L 65 0L 65 32L 0 32Z" stroke="none" fill="none"></path><g id="SvgjsG3708"><text id="SvgjsText3709" font-family="微软雅黑" text-anchor="middle" font-size="13px" width="65px" fill="#323232" font-weight="700" align="middle" lineHeight="125%" anchor="middle" family="微软雅黑" size="13px" weight="700" font-style="" opacity="1" y="6.375" transform="rotate(0)"><tspan id="SvgjsTspan3710" dy="16" x="32.5"><tspan id="SvgjsTspan3711" style="text-decoration:;">被动打开</tspan></tspan></text></g></g><g id="SvgjsG3712"><path id="SvgjsPath3713" d="M320.9920364376269 50.58578643762691L451.40625 213" stroke="#323232" stroke-width="2" fill="none" marker-end="url(#SvgjsMarker3714)"></path></g><g id="SvgjsG3716"><path id="SvgjsPath3717" d="M396.40625 227.5L142.40625 227.5" stroke="#323232" stroke-width="2" fill="none" marker-end="url(#SvgjsMarker3718)"></path></g><g id="SvgjsG3720" transform="translate(214.40625,319)"><path id="SvgjsPath3721" d="M 9.666666666666666 0L 100.33333333333333 0C 113.22222222222223 0 113.22222222222223 29 100.33333333333333 29L 9.666666666666666 29C -3.222222222222222 29 -3.222222222222222 0 9.666666666666666 0Z" stroke="rgba(50,50,50,1)" stroke-width="2" fill-opacity="1" fill="#ffffff"></path><g id="SvgjsG3722"><text id="SvgjsText3723" font-family="微软雅黑" text-anchor="middle" font-size="13px" width="90px" fill="#323232" font-weight="700" align="middle" lineHeight="125%" anchor="middle" family="微软雅黑" size="13px" weight="700" font-style="" opacity="1" y="4.875" transform="rotate(0)"><tspan id="SvgjsTspan3724" dy="16" x="55"><tspan id="SvgjsTspan3725" style="text-decoration:;">ESTABLISHED</tspan></tspan></text></g></g><g id="SvgjsG3726"><path id="SvgjsPath3727" d="M399.6201880484327 237.16977778440508L318.28492965644034 320.12132034355966" stroke="#323232" stroke-width="2" fill="none" marker-end="url(#SvgjsMarker3728)"></path></g><g id="SvgjsG3730"><path id="SvgjsPath3731" d="M137.76346239031346 238.23395555688103L218.64889068711926 322.24264068711926" stroke-dasharray="8,5" stroke="#323232" stroke-width="2" fill="none" marker-end="url(#SvgjsMarker3732)"></path></g><g id="SvgjsG3734" transform="translate(214.40625,428.7166703944306)"><path id="SvgjsPath3735" d="M 9.666666666666666 0L 100.33333333333333 0C 113.22222222222223 0 113.22222222222223 29 100.33333333333333 29L 9.666666666666666 29C -3.222222222222222 29 -3.222222222222222 0 9.666666666666666 0Z" stroke="rgba(50,50,50,1)" stroke-width="2" fill-opacity="1" fill="#ffffff"></path><g id="SvgjsG3736"><text id="SvgjsText3737" font-family="微软雅黑" text-anchor="middle" font-size="13px" width="90px" fill="#323232" font-weight="700" align="middle" lineHeight="125%" anchor="middle" family="微软雅黑" size="13px" weight="700" font-style="" opacity="1" y="4.875" transform="rotate(0)"><tspan id="SvgjsTspan3738" dy="16" x="55"><tspan id="SvgjsTspan3739" style="text-decoration:;">CLOSING</tspan></tspan></text></g></g><g id="SvgjsG3740" transform="translate(214.40625,538.4333407888612)"><path id="SvgjsPath3741" d="M 9.666666666666666 0L 100.33333333333333 0C 113.22222222222223 0 113.22222222222223 29 100.33333333333333 29L 9.666666666666666 29C -3.222222222222222 29 -3.222222222222222 0 9.666666666666666 0Z" stroke="rgba(50,50,50,1)" stroke-width="2" fill-opacity="1" fill="#ffffff"></path><g id="SvgjsG3742"><text id="SvgjsText3743" font-family="微软雅黑" text-anchor="middle" font-size="13px" width="90px" fill="#323232" font-weight="700" align="middle" lineHeight="125%" anchor="middle" family="微软雅黑" size="13px" weight="700" font-style="" opacity="1" y="4.875" transform="rotate(0)"><tspan id="SvgjsTspan3744" dy="16" x="55"><tspan id="SvgjsTspan3745" style="text-decoration:;">TIME_WAIT</tspan></tspan></text></g></g><g id="SvgjsG3746" transform="translate(32.40625,428.7166703944306)"><path id="SvgjsPath3747" d="M 9.666666666666666 0L 100.33333333333333 0C 113.22222222222223 0 113.22222222222223 29 100.33333333333333 29L 9.666666666666666 29C -3.222222222222222 29 -3.222222222222222 0 9.666666666666666 0Z" stroke="rgba(50,50,50,1)" stroke-width="2" fill-opacity="1" fill="#ffffff"></path><g id="SvgjsG3748"><text id="SvgjsText3749" font-family="微软雅黑" text-anchor="middle" font-size="13px" width="90px" fill="#323232" font-weight="700" align="middle" lineHeight="125%" anchor="middle" family="微软雅黑" size="13px" weight="700" font-style="" opacity="1" y="4.875" transform="rotate(0)"><tspan id="SvgjsTspan3750" dy="16" x="55"><tspan id="SvgjsTspan3751" style="text-decoration:;">FIN_WAIT_1</tspan></tspan></text></g></g><g id="SvgjsG3752" transform="translate(32.40625,538.4333407888612)"><path id="SvgjsPath3753" d="M 9.666666666666666 0L 100.33333333333333 0C 113.22222222222223 0 113.22222222222223 29 100.33333333333333 29L 9.666666666666666 29C -3.222222222222222 29 -3.222222222222222 0 9.666666666666666 0Z" stroke="rgba(50,50,50,1)" stroke-width="2" fill-opacity="1" fill="#ffffff"></path><g id="SvgjsG3754"><text id="SvgjsText3755" font-family="微软雅黑" text-anchor="middle" font-size="13px" width="90px" fill="#323232" font-weight="700" align="middle" lineHeight="125%" anchor="middle" family="微软雅黑" size="13px" weight="700" font-style="" opacity="1" y="4.875" transform="rotate(0)"><tspan id="SvgjsTspan3756" dy="16" x="55"><tspan id="SvgjsTspan3757" style="text-decoration:;">FIN_WAIT_2</tspan></tspan></text></g></g><g id="SvgjsG3758" transform="translate(396.40625,428.7166703944306)"><path id="SvgjsPath3759" d="M 9.666666666666666 0L 100.33333333333333 0C 113.22222222222223 0 113.22222222222223 29 100.33333333333333 29L 9.666666666666666 29C -3.222222222222222 29 -3.222222222222222 0 9.666666666666666 0Z" stroke="rgba(50,50,50,1)" stroke-width="2" fill-opacity="1" fill="#ffffff"></path><g id="SvgjsG3760"><text id="SvgjsText3761" font-family="微软雅黑" text-anchor="middle" font-size="13px" width="90px" fill="#323232" font-weight="700" align="middle" lineHeight="125%" anchor="middle" family="微软雅黑" size="13px" weight="700" font-style="" opacity="1" y="4.875" transform="rotate(0)"><tspan id="SvgjsTspan3762" dy="16" x="55"><tspan id="SvgjsTspan3763" style="text-decoration:;">LAST_ACK</tspan></tspan></text></g></g><g id="SvgjsG3764" transform="translate(396.40625,319)"><path id="SvgjsPath3765" d="M 9.666666666666666 0L 100.33333333333333 0C 113.22222222222223 0 113.22222222222223 29 100.33333333333333 29L 9.666666666666666 29C -3.222222222222222 29 -3.222222222222222 0 9.666666666666666 0Z" stroke="rgba(50,50,50,1)" stroke-width="2" fill-opacity="1" fill="#ffffff"></path><g id="SvgjsG3766"><text id="SvgjsText3767" font-family="微软雅黑" text-anchor="middle" font-size="13px" width="90px" fill="#323232" font-weight="700" align="middle" lineHeight="125%" anchor="middle" family="微软雅黑" size="13px" weight="700" font-style="" opacity="1" y="4.875" transform="rotate(0)"><tspan id="SvgjsTspan3768" dy="16" x="55"><tspan id="SvgjsTspan3769" style="text-decoration:;">CLOSE_WAIT</tspan></tspan></text></g></g><g id="SvgjsG3770"><path id="SvgjsPath3771" d="M142.40625 552.9333407888612L214.40625 552.9333407888612" stroke="#323232" stroke-width="2" fill="none" marker-end="url(#SvgjsMarker3772)"></path></g><g id="SvgjsG3774"><path id="SvgjsPath3775" d="M87.40625 457.7166703944306L87.40625 538.4333407888612" stroke="#323232" stroke-width="2" fill="none" marker-end="url(#SvgjsMarker3776)"></path></g><g id="SvgjsG3778"><path id="SvgjsPath3779" d="M87.40625 242L87.40625 428.7166703944306" stroke="#323232" stroke-width="2" fill="none" marker-end="url(#SvgjsMarker3780)"></path></g><g id="SvgjsG3782"><path id="SvgjsPath3783" d="M216.8204635623731 341.5857864376269L137.12964182284404 430.2943057454042" stroke="#323232" stroke-width="2" fill="none" marker-end="url(#SvgjsMarker3784)"></path></g><g id="SvgjsG3786"><path id="SvgjsPath3787" d="M139.10811667064308 453.07163717094033L220.40625 539.4641016151378" stroke="#323232" stroke-width="2" fill="none" marker-end="url(#SvgjsMarker3788)"></path></g><g id="SvgjsG3790"><path id="SvgjsPath3791" d="M142.40625 443.2166703944306L214.40625 443.2166703944306" stroke="#323232" stroke-width="2" fill="none" marker-end="url(#SvgjsMarker3792)"></path></g><g id="SvgjsG3794"><path id="SvgjsPath3795" d="M269.40625 457.7166703944306L269.40625 538.4333407888612" stroke="#323232" stroke-width="2" fill="none" marker-end="url(#SvgjsMarker3796)"></path></g><g id="SvgjsG3798"><path id="SvgjsPath3799" d="M324.40625 333.5L396.40625 333.5" stroke-dasharray="8,5" stroke="#323232" stroke-width="2" fill="none" marker-end="url(#SvgjsMarker3800)"></path></g><g id="SvgjsG3802"><path id="SvgjsPath3803" d="M451.40625 348L451.40625 428.7166703944306" stroke-dasharray="8,5" stroke="#323232" stroke-width="2" fill="none" marker-end="url(#SvgjsMarker3804)"></path></g><g id="SvgjsG3806"><path id="SvgjsPath3807" d="M553.40625 552L553.40625 297.5L553.40625 297.5L553.40625 43" stroke="#323232" stroke-width="2" fill="none" marker-end="url(#SvgjsMarker3808)"></path></g><g id="SvgjsG3810"><path id="SvgjsPath3811" d="M324.40625 552.9333407888612L550.40625 552.9333407888612" stroke="#323232" stroke-width="2" fill="none" marker-end="url(#SvgjsMarker3812)"></path></g><g id="SvgjsG3814"><path id="SvgjsPath3815" d="M324.40625 39.5L551.40625 39.5" stroke="#323232" stroke-width="2" fill="none" marker-start="url(#SvgjsMarker3816)"></path></g><g id="SvgjsG3818"><path id="SvgjsPath3819" d="M506.40625 443.2166703944306L549.40625 443.2166703944306" stroke-dasharray="8,5" stroke="#323232" stroke-width="2" fill="none" marker-end="url(#SvgjsMarker3820)"></path></g><g id="SvgjsG3822"><path id="SvgjsPath3823" d="M506.40625 227.5L551.40625 227.5" stroke="#323232" stroke-width="2" fill="none" marker-end="url(#SvgjsMarker3824)"></path></g><g id="SvgjsG3826" transform="matrix(0.7071067811865476,0.7071067811865475,-0.7071067811865475,0.7071067811865476,168.75714007628403,240.18116198527042)"><path id="SvgjsPath3827" d="M 0 0L 80.95612487597154 0L 80.95612487597154 20L 0 20Z" stroke="none" fill="none"></path><g id="SvgjsG3828"><text id="SvgjsText3829" font-family="微软雅黑" text-anchor="middle" font-size="13px" width="81px" fill="#323232" font-weight="700" align="middle" lineHeight="125%" anchor="middle" family="微软雅黑" size="13px" weight="700" font-style="" opacity="1" y="0.375" transform="rotate(0)"><tspan id="SvgjsTspan3830" dy="16" x="40.5"><tspan id="SvgjsTspan3831" style="text-decoration:;">收SYN</tspan></tspan></text></g></g><g id="SvgjsG3832" transform="matrix(0.7071067811865476,0.7071067811865475,-0.7071067811865475,0.7071067811865476,152.75714007628403,256.1811619852704)"><path id="SvgjsPath3833" d="M 0 0L 80.95612487597154 0L 80.95612487597154 20L 0 20Z" stroke="none" fill="none"></path><g id="SvgjsG3834"><text id="SvgjsText3835" font-family="微软雅黑" text-anchor="middle" font-size="13px" width="81px" fill="#323232" font-weight="700" align="middle" lineHeight="125%" anchor="middle" family="微软雅黑" size="13px" weight="700" font-style="" opacity="1" y="0.375" transform="rotate(0)"><tspan id="SvgjsTspan3836" dy="16" x="40.5"><tspan id="SvgjsTspan3837" style="text-decoration:;">不发送</tspan></tspan></text></g></g><g id="SvgjsG3838" transform="matrix(0.7071067811865476,0.7071067811865475,-0.7071067811865475,0.7071067811865476,341.75713358761584,119.18116253450236)"><path id="SvgjsPath3839" d="M 0 0L 104.98269161071823 0L 104.98269161071823 20L 0 20Z" stroke="none" fill="none"></path><g id="SvgjsG3840"><text id="SvgjsText3841" font-family="微软雅黑" text-anchor="middle" font-size="13px" width="105px" fill="#323232" font-weight="700" align="middle" lineHeight="125%" anchor="middle" family="微软雅黑" size="13px" weight="700" font-style="" opacity="1" y="0.375" transform="rotate(0)"><tspan id="SvgjsTspan3842" dy="16" x="52.5"><tspan id="SvgjsTspan3843" style="text-decoration:;">应用进程：发数据</tspan></tspan></text></g></g><g id="SvgjsG3844" transform="matrix(0.7071067811865476,0.7071067811865475,-0.7071067811865475,0.7071067811865476,331.75714007628403,140.18116198527042)"><path id="SvgjsPath3845" d="M 0 0L 80.95612487597154 0L 80.95612487597154 20L 0 20Z" stroke="none" fill="none"></path><g id="SvgjsG3846"><text id="SvgjsText3847" font-family="微软雅黑" text-anchor="middle" font-size="13px" width="81px" fill="#323232" font-weight="700" align="middle" lineHeight="125%" anchor="middle" family="微软雅黑" size="13px" weight="700" font-style="" opacity="1" y="0.375" transform="rotate(0)"><tspan id="SvgjsTspan3848" dy="16" x="40.5"><tspan id="SvgjsTspan3849" style="text-decoration:;">发：SYN</tspan></tspan></text></g></g><g id="SvgjsG3850" transform="matrix(0.6293203910498375,0.7771459614569708,-0.7771459614569708,0.6293203910498375,357.69571062116677,56.68501791749166)"><path id="SvgjsPath3851" d="M 0 0L 129.024322171061 0L 129.024322171061 26.282962122937462L 0 26.282962122937462Z" stroke="none" fill="none"></path><g id="SvgjsG3852"><text id="SvgjsText3853" font-family="微软雅黑" text-anchor="middle" font-size="13px" width="130px" fill="#323232" font-weight="700" align="middle" lineHeight="125%" anchor="middle" family="微软雅黑" size="13px" weight="700" font-style="" opacity="1" y="3.516481061468731" transform="rotate(0)"><tspan id="SvgjsTspan3854" dy="16" x="65"><tspan id="SvgjsTspan3855" style="text-decoration:;">应用进程：主动打开</tspan></tspan></text></g></g><g id="SvgjsG3856" transform="matrix(0.6293203910498375,0.7771459614569708,-0.7771459614569708,0.6293203910498375,339.69571062116677,68.68501791749166)"><path id="SvgjsPath3857" d="M 0 0L 129.024322171061 0L 129.024322171061 26.282962122937462L 0 26.282962122937462Z" stroke="none" fill="none"></path><g id="SvgjsG3858"><text id="SvgjsText3859" font-family="微软雅黑" text-anchor="middle" font-size="13px" width="130px" fill="#323232" font-weight="700" align="middle" lineHeight="125%" anchor="middle" family="微软雅黑" size="13px" weight="700" font-style="" opacity="1" y="3.516481061468731" transform="rotate(0)"><tspan id="SvgjsTspan3860" dy="16" x="65"><tspan id="SvgjsTspan3861" style="text-decoration:;">发：SYN</tspan></tspan></text></g></g><g id="SvgjsG3862" transform="matrix(0.7071067811865474,-0.7071067811865477,0.7071067811865477,0.7071067811865474,286.59506681795693,319.1690475583122)"><path id="SvgjsPath3863" d="M 0 0L 152 0L 152 20L 0 20Z" stroke="none" fill="none"></path><g id="SvgjsG3864"><text id="SvgjsText3865" font-family="微软雅黑" text-anchor="middle" font-size="13px" width="152px" fill="#323232" font-weight="700" align="middle" lineHeight="125%" anchor="middle" family="微软雅黑" size="13px" weight="700" font-style="" opacity="1" y="0.375" transform="rotate(0)"><tspan id="SvgjsTspan3866" dy="16" x="76"><tspan id="SvgjsTspan3867" style="text-decoration:;">收：SYN,ACK</tspan></tspan></text></g></g><g id="SvgjsG3868" transform="matrix(0.7071067811865474,-0.7071067811865477,0.7071067811865477,0.7071067811865474,306.59506681795693,334.1690475583122)"><path id="SvgjsPath3869" d="M 0 0L 152 0L 152 20L 0 20Z" stroke="none" fill="none"></path><g id="SvgjsG3870"><text id="SvgjsText3871" font-family="微软雅黑" text-anchor="middle" font-size="13px" width="152px" fill="#323232" font-weight="700" align="middle" lineHeight="125%" anchor="middle" family="微软雅黑" size="13px" weight="700" font-style="" opacity="1" y="0.375" transform="rotate(0)"><tspan id="SvgjsTspan3872" dy="16" x="76"><tspan id="SvgjsTspan3873" style="text-decoration:;">发：ACK</tspan></tspan></text></g></g><g id="SvgjsG3874" transform="translate(324.40625,307.56792661016215)"><path id="SvgjsPath3875" d="M 0 0L 65 0L 65 32L 0 32Z" stroke="none" fill="none"></path><g id="SvgjsG3876"><text id="SvgjsText3877" font-family="微软雅黑" text-anchor="middle" font-size="13px" width="65px" fill="#323232" font-weight="700" align="middle" lineHeight="125%" anchor="middle" family="微软雅黑" size="13px" weight="700" font-style="" opacity="1" y="6.375" transform="rotate(0)"><tspan id="SvgjsTspan3878" dy="16" x="32.5"><tspan id="SvgjsTspan3879" style="text-decoration:;">收：FIN</tspan></tspan></text></g></g><g id="SvgjsG3880" transform="translate(324.40625,327.56792661016215)"><path id="SvgjsPath3881" d="M 0 0L 65 0L 65 32L 0 32Z" stroke="none" fill="none"></path><g id="SvgjsG3882"><text id="SvgjsText3883" font-family="微软雅黑" text-anchor="middle" font-size="13px" width="65px" fill="#323232" font-weight="700" align="middle" lineHeight="125%" anchor="middle" family="微软雅黑" size="13px" weight="700" font-style="" opacity="1" y="6.375" transform="rotate(0)"><tspan id="SvgjsTspan3884" dy="16" x="32.5"><tspan id="SvgjsTspan3885" style="text-decoration:;">发：ACK</tspan></tspan></text></g></g><g id="SvgjsG3886" transform="translate(347.40625,367.4427251230673)"><path id="SvgjsPath3887" d="M 0 0L 97 0L 97 36.557274876932695L 0 36.557274876932695Z" stroke="none" fill="none"></path><g id="SvgjsG3888"><text id="SvgjsText3889" font-family="微软雅黑" text-anchor="end" font-size="13px" width="97px" fill="#323232" font-weight="700" align="middle" lineHeight="125%" anchor="end" family="微软雅黑" size="13px" weight="700" font-style="" opacity="1" y="0.6536374384663475" transform="rotate(0)"><tspan id="SvgjsTspan3890" dy="16" x="97"><tspan id="SvgjsTspan3891" style="text-decoration:;">应用进程：关闭</tspan></tspan><tspan id="SvgjsTspan3892" dy="16" x="97"><tspan id="SvgjsTspan3893" style="text-decoration:;">发：FIN</tspan></tspan></text></g></g><g id="SvgjsG3894" transform="translate(418.90625,470.5)"><path id="SvgjsPath3895" d="M 0 0L 65 0L 65 32L 0 32Z" stroke="none" fill="none"></path><g id="SvgjsG3896"><text id="SvgjsText3897" font-family="微软雅黑" text-anchor="middle" font-size="13px" width="65px" fill="#323232" font-weight="700" align="middle" lineHeight="125%" anchor="middle" family="微软雅黑" size="13px" weight="700" font-style="" opacity="1" y="6.375" transform="rotate(0)"><tspan id="SvgjsTspan3898" dy="16" x="32.5"><tspan id="SvgjsTspan3899" style="text-decoration:;">被动关闭</tspan></tspan></text></g></g><g id="SvgjsG3900" transform="translate(506.40625,415.56792661016215)"><path id="SvgjsPath3901" d="M 0 0L 65 0L 65 32L 0 32Z" stroke="none" fill="none"></path><g id="SvgjsG3902"><text id="SvgjsText3903" font-family="微软雅黑" text-anchor="middle" font-size="13px" width="65px" fill="#323232" font-weight="700" align="middle" lineHeight="125%" anchor="middle" family="微软雅黑" size="13px" weight="700" font-style="" opacity="1" y="6.375" transform="rotate(0)"><tspan id="SvgjsTspan3904" dy="16" x="32.5"><tspan id="SvgjsTspan3905" style="text-decoration:;">收：ACK</tspan></tspan></text></g></g><g id="SvgjsG3906" transform="translate(499.40625,438.49999999999994)"><path id="SvgjsPath3907" d="M 0 0L 65 0L 65 32L 0 32Z" stroke="none" fill="none"></path><g id="SvgjsG3908"><text id="SvgjsText3909" font-family="微软雅黑" text-anchor="middle" font-size="13px" width="65px" fill="#323232" font-weight="700" align="middle" lineHeight="125%" anchor="middle" family="微软雅黑" size="13px" weight="700" font-style="" opacity="1" y="6.375" transform="rotate(0)"><tspan id="SvgjsTspan3910" dy="16" x="32.5"><tspan id="SvgjsTspan3911" style="text-decoration:;">不发送</tspan></tspan></text></g></g><g id="SvgjsG3912" transform="translate(418.90625,238.2833296055694)"><path id="SvgjsPath3913" d="M 0 0L 65 0L 65 32L 0 32Z" stroke="none" fill="none"></path><g id="SvgjsG3914"><text id="SvgjsText3915" font-family="微软雅黑" text-anchor="middle" font-size="13px" width="65px" fill="#323232" font-weight="700" align="middle" lineHeight="125%" anchor="middle" family="微软雅黑" size="13px" weight="700" font-style="" opacity="1" y="6.375" transform="rotate(0)"><tspan id="SvgjsTspan3916" dy="16" x="32.5"><tspan id="SvgjsTspan3917" style="text-decoration:;">主动打开</tspan></tspan></text></g></g><g id="SvgjsG3918" transform="translate(227.81921510450786,348)"><path id="SvgjsPath3919" d="M 0 0L 83.17406979098428 0L 83.17406979098428 23.688816817956933L 0 23.688816817956933Z" stroke="none" fill="none"></path><g id="SvgjsG3920"><text id="SvgjsText3921" font-family="微软雅黑" text-anchor="middle" font-size="13px" width="84px" fill="#323232" font-weight="700" align="middle" lineHeight="125%" anchor="middle" family="微软雅黑" size="13px" weight="700" font-style="" opacity="1" y="2.2194084089784667" transform="rotate(0)"><tspan id="SvgjsTspan3922" dy="16" x="42"><tspan id="SvgjsTspan3923" style="text-decoration:;">数据传送状态</tspan></tspan></text></g></g><g id="SvgjsG3924" transform="translate(28.40625,319)"><path id="SvgjsPath3925" d="M 0 0L 97 0L 97 36.557274876932695L 0 36.557274876932695Z" stroke="none" fill="none"></path><g id="SvgjsG3926"><text id="SvgjsText3927" font-family="微软雅黑" text-anchor="start" font-size="13px" width="97px" fill="#323232" font-weight="700" align="middle" lineHeight="125%" anchor="start" family="微软雅黑" size="13px" weight="700" font-style="" opacity="1" y="0.6536374384663475" transform="rotate(0)"><tspan id="SvgjsTspan3928" dy="16" x="0"><tspan id="SvgjsTspan3929" style="text-decoration:;">应用进程：关闭</tspan></tspan><tspan id="SvgjsTspan3930" dy="16" x="0"><tspan id="SvgjsTspan3931" style="text-decoration:;">发：FIN</tspan></tspan></text></g></g><g id="SvgjsG3932" transform="matrix(0.6691306063588578,-0.7431448254773946,0.7431448254773946,0.6691306063588578,111.12087566195285,424.2877006726934)"><path id="SvgjsPath3933" d="M 0 0L 152 0L 152 20L 0 20Z" stroke="none" fill="none"></path><g id="SvgjsG3934"><text id="SvgjsText3935" font-family="微软雅黑" text-anchor="middle" font-size="13px" width="152px" fill="#323232" font-weight="700" align="middle" lineHeight="125%" anchor="middle" family="微软雅黑" size="13px" weight="700" font-style="" opacity="1" y="0.375" transform="rotate(0)"><tspan id="SvgjsTspan3936" dy="16" x="76"><tspan id="SvgjsTspan3937" style="text-decoration:;">应用进程：关闭</tspan></tspan></text></g></g><g id="SvgjsG3938" transform="matrix(0.6691306063588578,-0.7431448254773946,0.7431448254773946,0.6691306063588578,131.12087566195285,439.2877006726934)"><path id="SvgjsPath3939" d="M 0 0L 152 0L 152 20L 0 20Z" stroke="none" fill="none"></path><g id="SvgjsG3940"><text id="SvgjsText3941" font-family="微软雅黑" text-anchor="middle" font-size="13px" width="152px" fill="#323232" font-weight="700" align="middle" lineHeight="125%" anchor="middle" family="微软雅黑" size="13px" weight="700" font-style="" opacity="1" y="0.375" transform="rotate(0)"><tspan id="SvgjsTspan3942" dy="16" x="76"><tspan id="SvgjsTspan3943" style="text-decoration:;">发：FIN</tspan></tspan></text></g></g><g id="SvgjsG3944" transform="translate(142.40625,574.865414178699)"><path id="SvgjsPath3945" d="M 0 0L 65 0L 65 32L 0 32Z" stroke="none" fill="none"></path><g id="SvgjsG3946"><text id="SvgjsText3947" font-family="微软雅黑" text-anchor="middle" font-size="13px" width="65px" fill="#323232" font-weight="700" align="middle" lineHeight="125%" anchor="middle" family="微软雅黑" size="13px" weight="700" font-style="" opacity="1" y="6.375" transform="rotate(0)"><tspan id="SvgjsTspan3948" dy="16" x="32.5"><tspan id="SvgjsTspan3949" style="text-decoration:;">主动关闭</tspan></tspan></text></g></g><g id="SvgjsG3950" transform="translate(91.90625,479.2490927182089)"><path id="SvgjsPath3951" d="M 0 0L 97 0L 97 36.557274876932695L 0 36.557274876932695Z" stroke="none" fill="none"></path><g id="SvgjsG3952"><text id="SvgjsText3953" font-family="微软雅黑" text-anchor="start" font-size="13px" width="97px" fill="#323232" font-weight="700" align="middle" lineHeight="125%" anchor="start" family="微软雅黑" size="13px" weight="700" font-style="" opacity="1" y="0.6536374384663475" transform="rotate(0)"><tspan id="SvgjsTspan3954" dy="16" x="0"><tspan id="SvgjsTspan3955" style="text-decoration:;">收：ACK</tspan></tspan><tspan id="SvgjsTspan3956" dy="16" x="0"><tspan id="SvgjsTspan3957" style="text-decoration:;">不发送</tspan></tspan></text></g></g><g id="SvgjsG3958" transform="translate(125.40625,534.7490927182089)"><path id="SvgjsPath3959" d="M 0 0L 97 0L 97 36.557274876932695L 0 36.557274876932695Z" stroke="none" fill="none"></path><g id="SvgjsG3960"><text id="SvgjsText3961" font-family="微软雅黑" text-anchor="middle" font-size="13px" width="97px" fill="#323232" font-weight="700" align="middle" lineHeight="125%" anchor="middle" family="微软雅黑" size="13px" weight="700" font-style="" opacity="1" y="0.6536374384663475" transform="rotate(0)"><tspan id="SvgjsTspan3962" dy="16" x="48.5"><tspan id="SvgjsTspan3963" style="text-decoration:;">收：FIN</tspan></tspan><tspan id="SvgjsTspan3964" dy="16" x="48.5"><tspan id="SvgjsTspan3965" style="text-decoration:;">发：ACK</tspan></tspan></text></g></g><g id="SvgjsG3966" transform="translate(124.40625,423.7490927182089)"><path id="SvgjsPath3967" d="M 0 0L 97 0L 97 36.557274876932695L 0 36.557274876932695Z" stroke="none" fill="none"></path><g id="SvgjsG3968"><text id="SvgjsText3969" font-family="微软雅黑" text-anchor="middle" font-size="13px" width="97px" fill="#323232" font-weight="700" align="middle" lineHeight="125%" anchor="middle" family="微软雅黑" size="13px" weight="700" font-style="" opacity="1" y="0.6536374384663475" transform="rotate(0)"><tspan id="SvgjsTspan3970" dy="16" x="48.5"><tspan id="SvgjsTspan3971" style="text-decoration:;">收：FIN</tspan></tspan><tspan id="SvgjsTspan3972" dy="16" x="48.5"><tspan id="SvgjsTspan3973" style="text-decoration:;">发：ACK</tspan></tspan></text></g></g><g id="SvgjsG3974" transform="translate(273.90625,479.2490927182089)"><path id="SvgjsPath3975" d="M 0 0L 97 0L 97 36.557274876932695L 0 36.557274876932695Z" stroke="none" fill="none"></path><g id="SvgjsG3976"><text id="SvgjsText3977" font-family="微软雅黑" text-anchor="start" font-size="13px" width="97px" fill="#323232" font-weight="700" align="middle" lineHeight="125%" anchor="start" family="微软雅黑" size="13px" weight="700" font-style="" opacity="1" y="0.6536374384663475" transform="rotate(0)"><tspan id="SvgjsTspan3978" dy="16" x="0"><tspan id="SvgjsTspan3979" style="text-decoration:;">收：ACK</tspan></tspan><tspan id="SvgjsTspan3980" dy="16" x="0"><tspan id="SvgjsTspan3981" style="text-decoration:;">不发送</tspan></tspan></text></g></g><g id="SvgjsG3982" transform="matrix(0.6946583704589974,0.7193398003386511,-0.7193398003386511,0.6946583704589974,170.46248486831047,456.732734668385)"><path id="SvgjsPath3983" d="M 0 0L 93.66898311173355 0L 93.66898311173355 20L 0 20Z" stroke="none" fill="none"></path><g id="SvgjsG3984"><text id="SvgjsText3985" font-family="微软雅黑" text-anchor="middle" font-size="13px" width="94px" fill="#323232" font-weight="700" align="middle" lineHeight="125%" anchor="middle" family="微软雅黑" size="13px" weight="700" font-style="" opacity="1" y="0.375" transform="rotate(0)"><tspan id="SvgjsTspan3986" dy="16" x="47"><tspan id="SvgjsTspan3987" style="text-decoration:;">收：FIN,ACK</tspan></tspan></text></g></g><g id="SvgjsG3988" transform="matrix(0.6946583704589974,0.7193398003386511,-0.7193398003386511,0.6946583704589974,152.46248486831047,466.732734668385)"><path id="SvgjsPath3989" d="M 0 0L 93.66898311173355 0L 93.66898311173355 20L 0 20Z" stroke="none" fill="none"></path><g id="SvgjsG3990"><text id="SvgjsText3991" font-family="微软雅黑" text-anchor="middle" font-size="13px" width="94px" fill="#323232" font-weight="700" align="middle" lineHeight="125%" anchor="middle" family="微软雅黑" size="13px" weight="700" font-style="" opacity="1" y="0.375" transform="rotate(0)"><tspan id="SvgjsTspan3992" dy="16" x="47"><tspan id="SvgjsTspan3993" style="text-decoration:;">发：ACK</tspan></tspan></text></g></g><g id="SvgjsG3994" transform="translate(324.00176248002776,526.865414178699)"><path id="SvgjsPath3995" d="M 0 0L 65 0L 65 32L 0 32Z" stroke="none" fill="none"></path><g id="SvgjsG3996"><text id="SvgjsText3997" font-family="微软雅黑" text-anchor="middle" font-size="13px" width="65px" fill="#323232" font-weight="700" align="middle" lineHeight="125%" anchor="middle" family="微软雅黑" size="13px" weight="700" font-style="" opacity="1" y="6.375" transform="rotate(0)"><tspan id="SvgjsTspan3998" dy="16" x="32.5"><tspan id="SvgjsTspan3999" style="text-decoration:;">2MSL超时</tspan></tspan></text></g></g><g id="SvgjsG4000" transform="translate(501.40625,206)"><path id="SvgjsPath4001" d="M 0 0L 104 0L 104 25.567926610162147L 0 25.567926610162147Z" stroke="none" fill="none"></path><g id="SvgjsG4002"><text id="SvgjsText4003" font-family="微软雅黑" text-anchor="middle" font-size="13px" width="104px" fill="#323232" font-weight="700" align="middle" lineHeight="125%" anchor="middle" family="微软雅黑" size="13px" weight="700" font-style="" opacity="1" y="3.1589633050810733" transform="rotate(0)"><tspan id="SvgjsTspan4004" dy="16" x="52"><tspan id="SvgjsTspan4005" style="text-decoration:;">应用进程：关闭</tspan></tspan></text></g></g><g id="SvgjsG4006" transform="translate(494.40625,222.5)"><path id="SvgjsPath4007" d="M 0 0L 65 0L 65 32L 0 32Z" stroke="none" fill="none"></path><g id="SvgjsG4008"><text id="SvgjsText4009" font-family="微软雅黑" text-anchor="middle" font-size="13px" width="65px" fill="#323232" font-weight="700" align="middle" lineHeight="125%" anchor="middle" family="微软雅黑" size="13px" weight="700" font-style="" opacity="1" y="6.375" transform="rotate(0)"><tspan id="SvgjsTspan4010" dy="16" x="32.5"><tspan id="SvgjsTspan4011" style="text-decoration:;">或超时</tspan></tspan></text></g></g><g id="SvgjsG4012"><path id="SvgjsPath4013" d="M354.40625 599L383.40625 599L383.40625 598.5636531457128L412.40625 598.5636531457128" stroke="#323232" stroke-width="2" fill="none" marker-end="url(#SvgjsMarker4014)"></path></g><g id="SvgjsG4016" transform="translate(412.40625,582.865414178699)"><path id="SvgjsPath4017" d="M 0 0L 140 0L 140 31.134585821301016L 0 31.134585821301016Z" stroke="none" fill="none"></path><g id="SvgjsG4018"><text id="SvgjsText4019" font-family="微软雅黑" text-anchor="middle" font-size="13px" width="140px" fill="#323232" font-weight="700" align="middle" lineHeight="125%" anchor="middle" family="微软雅黑" size="13px" weight="700" font-style="" opacity="1" y="5.942292910650508" transform="rotate(0)"><tspan id="SvgjsTspan4020" dy="16" x="70"><tspan id="SvgjsTspan4021" style="text-decoration:;">client端的正常状态变迁</tspan></tspan></text></g></g><g id="SvgjsG4022"><path id="SvgjsPath4023" d="M354.40625 619L383.40625 619L383.40625 618.5636531457128L412.40625 618.5636531457128" stroke-dasharray="8,5" stroke="#323232" stroke-width="2" fill="none" marker-end="url(#SvgjsMarker4024)"></path></g><g id="SvgjsG4026" transform="translate(412.40625,602.865414178699)"><path id="SvgjsPath4027" d="M 0 0L 140 0L 140 31.134585821301016L 0 31.134585821301016Z" stroke="none" fill="none"></path><g id="SvgjsG4028"><text id="SvgjsText4029" font-family="微软雅黑" text-anchor="start" font-size="13px" width="140px" fill="#323232" font-weight="700" align="middle" lineHeight="125%" anchor="start" family="微软雅黑" size="13px" weight="700" font-style="" opacity="1" y="5.942292910650508" transform="rotate(0)"><tspan id="SvgjsTspan4030" dy="16" x="0"><tspan id="SvgjsTspan4031" style="text-decoration:;">svr端的正常状态变迁</tspan></tspan></text></g></g><g id="SvgjsG4032" transform="translate(236.90625,404)"><path id="SvgjsPath4033" d="M 0 0L 65 0L 65 32L 0 32Z" stroke="none" fill="none"></path><g id="SvgjsG4034"><text id="SvgjsText4035" font-family="微软雅黑" text-anchor="middle" font-size="13px" width="65px" fill="#323232" font-weight="700" align="middle" lineHeight="125%" anchor="middle" family="微软雅黑" size="13px" weight="700" font-style="" opacity="1" y="6.375" transform="rotate(0)"><tspan id="SvgjsTspan4036" dy="16" x="32.5"><tspan id="SvgjsTspan4037" style="text-decoration:;">同时关闭</tspan></tspan></text></g></g><g id="SvgjsG4038" transform="translate(236.90625,202.7839633050811)"><path id="SvgjsPath4039" d="M 0 0L 65 0L 65 32L 0 32Z" stroke="none" fill="none"></path><g id="SvgjsG4040"><text id="SvgjsText4041" font-family="微软雅黑" text-anchor="middle" font-size="13px" width="65px" fill="#323232" font-weight="700" align="middle" lineHeight="125%" anchor="middle" family="微软雅黑" size="13px" weight="700" font-style="" opacity="1" y="6.375" transform="rotate(0)"><tspan id="SvgjsTspan4042" dy="16" x="32.5"><tspan id="SvgjsTspan4043" style="text-decoration:;">收：SYN</tspan></tspan></text></g></g><g id="SvgjsG4044" transform="translate(220.11500197791236,224.18116610804674)"><path id="SvgjsPath4045" d="M 0 0L 107.5 0L 107.5 32L 0 32Z" stroke="none" fill="none"></path><g id="SvgjsG4046"><text id="SvgjsText4047" font-family="微软雅黑" text-anchor="middle" font-size="13px" width="108px" fill="#323232" font-weight="700" align="middle" lineHeight="125%" anchor="middle" family="微软雅黑" size="13px" weight="700" font-style="" opacity="1" y="6.375" transform="rotate(0)"><tspan id="SvgjsTspan4048" dy="16" x="54"><tspan id="SvgjsTspan4049" style="text-decoration:;">发：SYN，ACK</tspan></tspan></text></g></g><g id="SvgjsG4050" transform="translate(236.90625,246.5)"><path id="SvgjsPath4051" d="M 0 0L 65 0L 65 32L 0 32Z" stroke="none" fill="none"></path><g id="SvgjsG4052"><text id="SvgjsText4053" font-family="微软雅黑" text-anchor="middle" font-size="13px" width="65px" fill="#323232" font-weight="700" align="middle" lineHeight="125%" anchor="middle" family="微软雅黑" size="13px" weight="700" font-style="" opacity="1" y="6.375" transform="rotate(0)"><tspan id="SvgjsTspan4054" dy="16" x="32.5"><tspan id="SvgjsTspan4055" style="text-decoration:;">同时打开</tspan></tspan></text></g></g></svg>