<svg id="SvgjsSvg4210" width="628.328125" height="242" xmlns="http://www.w3.org/2000/svg" version="1.1" xmlns:xlink="http://www.w3.org/1999/xlink" xmlns:svgjs="http://svgjs.com/svgjs"><defs id="SvgjsDefs4211"><marker id="SvgjsMarker4292" markerWidth="16" markerHeight="12" refX="16" refY="6" viewBox="0 0 16 12" orient="auto" markerUnits="userSpaceOnUse" stroke-dasharray="0,0"><path id="SvgjsPath4293" d="M0,2 L14,6 L0,11 L0,2" fill="#323232" stroke="#323232" stroke-width="2"></path></marker><marker id="SvgjsMarker4302" markerWidth="16" markerHeight="12" refX="16" refY="6" viewBox="0 0 16 12" orient="auto" markerUnits="userSpaceOnUse" stroke-dasharray="0,0"><path id="SvgjsPath4303" d="M0,2 L14,6 L0,11 L0,2" fill="#323232" stroke="#323232" stroke-width="2"></path></marker><marker id="SvgjsMarker4312" markerWidth="16" markerHeight="12" refX="16" refY="6" viewBox="0 0 16 12" orient="auto" markerUnits="userSpaceOnUse" stroke-dasharray="0,0"><path id="SvgjsPath4313" d="M0,2 L14,6 L0,11 L0,2" fill="#323232" stroke="#323232" stroke-width="2"></path></marker><marker id="SvgjsMarker4322" markerWidth="16" markerHeight="12" refX="16" refY="6" viewBox="0 0 16 12" orient="auto" markerUnits="userSpaceOnUse" stroke-dasharray="0,0"><path id="SvgjsPath4323" d="M0,2 L14,6 L0,11 L0,2" fill="#323232" stroke="#323232" stroke-width="2"></path></marker><marker id="SvgjsMarker4338" markerWidth="16" markerHeight="12" refX="16" refY="6" viewBox="0 0 16 12" orient="auto" markerUnits="userSpaceOnUse" stroke-dasharray="0,0"><path id="SvgjsPath4339" d="M0,2 L14,6 L0,11 L0,2" fill="#323232" stroke="#323232" stroke-width="2"></path></marker><marker id="SvgjsMarker4348" markerWidth="16" markerHeight="12" refX="0" refY="6" viewBox="0 0 16 12" orient="auto" markerUnits="userSpaceOnUse" stroke-dasharray="0,0"><path id="SvgjsPath4349" d="M15,1.5 L2,6 L15,10.5" fill="#323232" stroke="#323232" stroke-width="2"></path></marker><marker id="SvgjsMarker4350" markerWidth="16" markerHeight="12" refX="16" refY="6" viewBox="0 0 16 12" orient="auto" markerUnits="userSpaceOnUse" stroke-dasharray="0,0"><path id="SvgjsPath4351" d="M0,2 L14,6 L0,11 L0,2" fill="#323232" stroke="#323232" stroke-width="2"></path></marker><marker id="SvgjsMarker4370" markerWidth="16" markerHeight="12" refX="16" refY="6" viewBox="0 0 16 12" orient="auto" markerUnits="userSpaceOnUse" stroke-dasharray="0,0"><path id="SvgjsPath4371" d="M0,2 L14,6 L0,11 L0,2" fill="#323232" stroke="#323232" stroke-width="2"></path></marker><marker id="SvgjsMarker4378" markerWidth="16" markerHeight="12" refX="16" refY="6" viewBox="0 0 16 12" orient="auto" markerUnits="userSpaceOnUse" stroke-dasharray="0,0"><path id="SvgjsPath4379" d="M0,2 L14,6 L0,11 L0,2" fill="#323232" stroke="#323232" stroke-width="2"></path></marker><marker id="SvgjsMarker4386" markerWidth="16" markerHeight="12" refX="16" refY="6" viewBox="0 0 16 12" orient="auto" markerUnits="userSpaceOnUse" stroke-dasharray="0,0"><path id="SvgjsPath4387" d="M0,2 L14,6 L0,11 L0,2" fill="#323232" stroke="#323232" stroke-width="2"></path></marker></defs><g id="SvgjsG4212" transform="translate(174.7727272727273,130)"><path id="SvgjsPath4213" d="M 0 0L 280.0454545454545 0L 280.0454545454545 33L 0 33Z" stroke="rgba(50,50,50,1)" stroke-width="2" fill-opacity="1" fill="#ffffff"></path><g id="SvgjsG4214"><text id="SvgjsText4215" font-family="微软雅黑" text-anchor="middle" font-size="13px" width="261px" fill="#323232" font-weight="700" align="middle" lineHeight="125%" anchor="middle" family="微软雅黑" size="13px" weight="700" font-style="" opacity="1" y="6.875" transform="rotate(0)"></text></g></g><g id="SvgjsG4216" transform="translate(25,130)"><path id="SvgjsPath4217" d="M 0 0L 53 0L 53 33L 0 33Z" stroke="none" fill="none"></path><g id="SvgjsG4218"><text id="SvgjsText4219" font-family="微软雅黑" text-anchor="middle" font-size="13px" width="53px" fill="#323232" font-weight="700" align="middle" lineHeight="125%" anchor="middle" family="微软雅黑" size="13px" weight="700" font-style="" opacity="1" y="6.875" transform="rotate(0)"><tspan id="SvgjsTspan4220" dy="16" x="26.5"><tspan id="SvgjsTspan4221" style="text-decoration:;">1</tspan></tspan></text></g></g><g id="SvgjsG4222" transform="translate(72.75757575757576,130)"><path id="SvgjsPath4223" d="M 0 0L 53 0L 53 33L 0 33Z" stroke="none" fill="none"></path><g id="SvgjsG4224"><text id="SvgjsText4225" font-family="微软雅黑" text-anchor="middle" font-size="13px" width="53px" fill="#323232" font-weight="700" align="middle" lineHeight="125%" anchor="middle" family="微软雅黑" size="13px" weight="700" font-style="" opacity="1" y="6.875" transform="rotate(0)"><tspan id="SvgjsTspan4226" dy="16" x="26.5"><tspan id="SvgjsTspan4227" style="text-decoration:;">2</tspan></tspan></text></g></g><g id="SvgjsG4228" transform="translate(120.51515151515153,130)"><path id="SvgjsPath4229" d="M 0 0L 53 0L 53 33L 0 33Z" stroke="none" fill="none"></path><g id="SvgjsG4230"><text id="SvgjsText4231" font-family="微软雅黑" text-anchor="middle" font-size="13px" width="53px" fill="#323232" font-weight="700" align="middle" lineHeight="125%" anchor="middle" family="微软雅黑" size="13px" weight="700" font-style="" opacity="1" y="6.875" transform="rotate(0)"><tspan id="SvgjsTspan4232" dy="16" x="26.5"><tspan id="SvgjsTspan4233" style="text-decoration:;">3</tspan></tspan></text></g></g><g id="SvgjsG4234" transform="translate(168.2727272727273,130)"><path id="SvgjsPath4235" d="M 0 0L 53 0L 53 33L 0 33Z" stroke="none" fill="none"></path><g id="SvgjsG4236"><text id="SvgjsText4237" font-family="微软雅黑" text-anchor="middle" font-size="13px" width="53px" fill="#323232" font-weight="700" align="middle" lineHeight="125%" anchor="middle" family="微软雅黑" size="13px" weight="700" font-style="" opacity="1" y="6.875" transform="rotate(0)"><tspan id="SvgjsTspan4238" dy="16" x="26.5"><tspan id="SvgjsTspan4239" style="text-decoration:;">4</tspan></tspan></text></g></g><g id="SvgjsG4240" transform="translate(216.03030303030306,130)"><path id="SvgjsPath4241" d="M 0 0L 53 0L 53 33L 0 33Z" stroke="none" fill="none"></path><g id="SvgjsG4242"><text id="SvgjsText4243" font-family="微软雅黑" text-anchor="middle" font-size="13px" width="53px" fill="#323232" font-weight="700" align="middle" lineHeight="125%" anchor="middle" family="微软雅黑" size="13px" weight="700" font-style="" opacity="1" y="6.875" transform="rotate(0)"><tspan id="SvgjsTspan4244" dy="16" x="26.5"><tspan id="SvgjsTspan4245" style="text-decoration:;">5</tspan></tspan></text></g></g><g id="SvgjsG4246" transform="translate(263.7878787878788,130)"><path id="SvgjsPath4247" d="M 0 0L 53 0L 53 33L 0 33Z" stroke="none" fill="none"></path><g id="SvgjsG4248"><text id="SvgjsText4249" font-family="微软雅黑" text-anchor="middle" font-size="13px" width="53px" fill="#323232" font-weight="700" align="middle" lineHeight="125%" anchor="middle" family="微软雅黑" size="13px" weight="700" font-style="" opacity="1" y="6.875" transform="rotate(0)"><tspan id="SvgjsTspan4250" dy="16" x="26.5"><tspan id="SvgjsTspan4251" style="text-decoration:;">6</tspan></tspan></text></g></g><g id="SvgjsG4252" transform="translate(311.54545454545456,130)"><path id="SvgjsPath4253" d="M 0 0L 53 0L 53 33L 0 33Z" stroke="none" fill="none"></path><g id="SvgjsG4254"><text id="SvgjsText4255" font-family="微软雅黑" text-anchor="middle" font-size="13px" width="53px" fill="#323232" font-weight="700" align="middle" lineHeight="125%" anchor="middle" family="微软雅黑" size="13px" weight="700" font-style="" opacity="1" y="6.875" transform="rotate(0)"><tspan id="SvgjsTspan4256" dy="16" x="26.5"><tspan id="SvgjsTspan4257" style="text-decoration:;">7</tspan></tspan></text></g></g><g id="SvgjsG4258" transform="translate(359.3030303030303,130)"><path id="SvgjsPath4259" d="M 0 0L 53 0L 53 33L 0 33Z" stroke="none" fill="none"></path><g id="SvgjsG4260"><text id="SvgjsText4261" font-family="微软雅黑" text-anchor="middle" font-size="13px" width="53px" fill="#323232" font-weight="700" align="middle" lineHeight="125%" anchor="middle" family="微软雅黑" size="13px" weight="700" font-style="" opacity="1" y="6.875" transform="rotate(0)"><tspan id="SvgjsTspan4262" dy="16" x="26.5"><tspan id="SvgjsTspan4263" style="text-decoration:;">8</tspan></tspan></text></g></g><g id="SvgjsG4264" transform="translate(407.06060606060606,130)"><path id="SvgjsPath4265" d="M 0 0L 53 0L 53 33L 0 33Z" stroke="none" fill="none"></path><g id="SvgjsG4266"><text id="SvgjsText4267" font-family="微软雅黑" text-anchor="middle" font-size="13px" width="53px" fill="#323232" font-weight="700" align="middle" lineHeight="125%" anchor="middle" family="微软雅黑" size="13px" weight="700" font-style="" opacity="1" y="6.875" transform="rotate(0)"><tspan id="SvgjsTspan4268" dy="16" x="26.5"><tspan id="SvgjsTspan4269" style="text-decoration:;">9</tspan></tspan></text></g></g><g id="SvgjsG4270" transform="translate(454.8181818181818,130)"><path id="SvgjsPath4271" d="M 0 0L 53 0L 53 33L 0 33Z" stroke="none" fill="none"></path><g id="SvgjsG4272"><text id="SvgjsText4273" font-family="微软雅黑" text-anchor="middle" font-size="13px" width="53px" fill="#323232" font-weight="700" align="middle" lineHeight="125%" anchor="middle" family="微软雅黑" size="13px" weight="700" font-style="" opacity="1" y="6.875" transform="rotate(0)"><tspan id="SvgjsTspan4274" dy="16" x="26.5"><tspan id="SvgjsTspan4275" style="text-decoration:;">10</tspan></tspan></text></g></g><g id="SvgjsG4276" transform="translate(502.5757575757576,130)"><path id="SvgjsPath4277" d="M 0 0L 53 0L 53 33L 0 33Z" stroke="none" fill="none"></path><g id="SvgjsG4278"><text id="SvgjsText4279" font-family="微软雅黑" text-anchor="middle" font-size="13px" width="53px" fill="#323232" font-weight="700" align="middle" lineHeight="125%" anchor="middle" family="微软雅黑" size="13px" weight="700" font-style="" opacity="1" y="6.875" transform="rotate(0)"><tspan id="SvgjsTspan4280" dy="16" x="26.5"><tspan id="SvgjsTspan4281" style="text-decoration:;">11</tspan></tspan></text></g></g><g id="SvgjsG4282" transform="translate(550.3333333333334,130)"><path id="SvgjsPath4283" d="M 0 0L 53 0L 53 33L 0 33Z" stroke="none" fill="none"></path><g id="SvgjsG4284"><text id="SvgjsText4285" font-family="微软雅黑" text-anchor="middle" font-size="13px" width="53px" fill="#323232" font-weight="700" align="middle" lineHeight="125%" anchor="middle" family="微软雅黑" size="13px" weight="700" font-style="" opacity="1" y="6.875" transform="rotate(0)"><tspan id="SvgjsTspan4286" dy="16" x="26.5"><tspan id="SvgjsTspan4287" style="text-decoration:;">...</tspan></tspan></text></g></g><g id="SvgjsG4288"><path id="SvgjsPath4289" d="M314.79545454545456 162L314.79545454545456 146L314.79545454545456 146L314.79545454545456 130" stroke-dasharray="8,5" stroke="#323232" stroke-width="2" fill="none"></path></g><g id="SvgjsG4290"><path id="SvgjsPath4291" d="M177 184L244.27272727272725 184L244.27272727272725 184L311.54545454545456 184" stroke="#323232" stroke-width="2" fill="none" marker-end="url(#SvgjsMarker4292)"></path></g><g id="SvgjsG4294" transform="translate(182.53030303030306,177)"><path id="SvgjsPath4295" d="M 0 0L 120 0L 120 40L 0 40Z" stroke="none" fill="none"></path><g id="SvgjsG4296"><text id="SvgjsText4297" font-family="微软雅黑" text-anchor="middle" font-size="13px" width="120px" fill="#323232" font-weight="700" align="middle" lineHeight="125%" anchor="middle" family="微软雅黑" size="13px" weight="700" font-style="" opacity="1" y="10.375" transform="rotate(0)"><tspan id="SvgjsTspan4298" dy="16" x="60"><tspan id="SvgjsTspan4299" style="text-decoration:;">发送，但未被确认</tspan></tspan></text></g></g><g id="SvgjsG4300"><path id="SvgjsPath4301" d="M48.27272727272731 203L111.52272727272734 203L111.52272727272734 203L174.77272727272737 203" stroke="#323232" stroke-width="2" fill="none" marker-end="url(#SvgjsMarker4302)"></path></g><g id="SvgjsG4304" transform="translate(48.27272727272731,170)"><path id="SvgjsPath4305" d="M 0 0L 120 0L 120 40L 0 40Z" stroke="none" fill="none"></path><g id="SvgjsG4306"><text id="SvgjsText4307" font-family="微软雅黑" text-anchor="middle" font-size="13px" width="120px" fill="#323232" font-weight="700" align="middle" lineHeight="125%" anchor="middle" family="微软雅黑" size="13px" weight="700" font-style="" opacity="1" y="10.375" transform="rotate(0)"><tspan id="SvgjsTspan4308" dy="16" x="60"><tspan id="SvgjsTspan4309" style="text-decoration:;">发送并被确认</tspan></tspan></text></g></g><g id="SvgjsG4310"><path id="SvgjsPath4311" d="M318.2727272727273 203L381.52272727272737 203L381.52272727272737 203L444.77272727272737 203" stroke="#323232" stroke-width="2" fill="none" marker-end="url(#SvgjsMarker4312)"></path></g><g id="SvgjsG4314" transform="translate(318.2727272727273,170)"><path id="SvgjsPath4315" d="M 0 0L 120 0L 120 40L 0 40Z" stroke="none" fill="none"></path><g id="SvgjsG4316"><text id="SvgjsText4317" font-family="微软雅黑" text-anchor="middle" font-size="13px" width="120px" fill="#323232" font-weight="700" align="middle" lineHeight="125%" anchor="middle" family="微软雅黑" size="13px" weight="700" font-style="" opacity="1" y="10.375" transform="rotate(0)"><tspan id="SvgjsTspan4318" dy="16" x="60"><tspan id="SvgjsTspan4319" style="text-decoration:;">能够发送ASAP</tspan></tspan></text></g></g><g id="SvgjsG4320"><path id="SvgjsPath4321" d="M457 184L524.2727272727273 184L524.2727272727273 184L591.5454545454545 184" stroke="#323232" stroke-width="2" fill="none" marker-end="url(#SvgjsMarker4322)"></path></g><g id="SvgjsG4324" transform="translate(458.060606060606,177)"><path id="SvgjsPath4325" d="M 0 0L 120 0L 120 40L 0 40Z" stroke="none" fill="none"></path><g id="SvgjsG4326"><text id="SvgjsText4327" font-family="微软雅黑" text-anchor="middle" font-size="13px" width="120px" fill="#323232" font-weight="700" align="middle" lineHeight="125%" anchor="middle" family="微软雅黑" size="13px" weight="700" font-style="" opacity="1" y="10.375" transform="rotate(0)"><tspan id="SvgjsTspan4328" dy="16" x="60"><tspan id="SvgjsTspan4329" style="text-decoration:;">直至窗口移动</tspan></tspan></text></g></g><g id="SvgjsG4330" transform="translate(462.530303030303,152)"><path id="SvgjsPath4331" d="M 0 0L 120 0L 120 40L 0 40Z" stroke="none" fill="none"></path><g id="SvgjsG4332"><text id="SvgjsText4333" font-family="微软雅黑" text-anchor="middle" font-size="13px" width="120px" fill="#323232" font-weight="700" align="middle" lineHeight="125%" anchor="middle" family="微软雅黑" size="13px" weight="700" font-style="" opacity="1" y="10.375" transform="rotate(0)"><tspan id="SvgjsTspan4334" dy="16" x="60"><tspan id="SvgjsTspan4335" style="text-decoration:;">不能够发送，</tspan></tspan></text></g></g><g id="SvgjsG4336"><path id="SvgjsPath4337" d="M454 91L386.1363636363636 91L386.1363636363636 91L318.2727272727273 91" stroke="#323232" stroke-width="2" fill="none" marker-end="url(#SvgjsMarker4338)"></path></g><g id="SvgjsG4340" transform="translate(325.8030303030303,84)"><path id="SvgjsPath4341" d="M 0 0L 120 0L 120 40L 0 40Z" stroke="none" fill="none"></path><g id="SvgjsG4342"><text id="SvgjsText4343" font-family="微软雅黑" text-anchor="middle" font-size="13px" width="120px" fill="#323232" font-weight="700" align="middle" lineHeight="125%" anchor="middle" family="微软雅黑" size="13px" weight="700" font-style="" opacity="1" y="10.375" transform="rotate(0)"><tspan id="SvgjsTspan4344" dy="16" x="60"><tspan id="SvgjsTspan4345" style="text-decoration:;">可用的窗口</tspan></tspan></text></g></g><g id="SvgjsG4346"><path id="SvgjsPath4347" d="M454.8181818181818 58L314.79545454545456 58L314.79545454545456 58L174.7727272727273 58" stroke="#323232" stroke-width="2" fill="none" marker-start="url(#SvgjsMarker4348)" marker-end="url(#SvgjsMarker4350)"></path></g><g id="SvgjsG4352" transform="translate(254.79545454545456,25)"><path id="SvgjsPath4353" d="M 0 0L 120 0L 120 40L 0 40Z" stroke="none" fill="none"></path><g id="SvgjsG4354"><text id="SvgjsText4355" font-family="微软雅黑" text-anchor="middle" font-size="13px" width="120px" fill="#323232" font-weight="700" align="middle" lineHeight="125%" anchor="middle" family="微软雅黑" size="13px" weight="700" font-style="" opacity="1" y="10.375" transform="rotate(0)"><tspan id="SvgjsTspan4356" dy="16" x="60"><tspan id="SvgjsTspan4357" style="text-decoration:;">提供的窗口</tspan></tspan></text></g></g><g id="SvgjsG4358" transform="translate(254.79545454545456,51)"><path id="SvgjsPath4359" d="M 0 0L 120 0L 120 40L 0 40Z" stroke="none" fill="none"></path><g id="SvgjsG4360"><text id="SvgjsText4361" font-family="微软雅黑" text-anchor="middle" font-size="13px" width="120px" fill="#323232" font-weight="700" align="middle" lineHeight="125%" anchor="middle" family="微软雅黑" size="13px" weight="700" font-style="" opacity="1" y="10.375" transform="rotate(0)"><tspan id="SvgjsTspan4362" dy="16" x="60"><tspan id="SvgjsTspan4363" style="text-decoration:;">由接收方通告</tspan></tspan></text></g></g><g id="SvgjsG4364"><path id="SvgjsPath4365" d="M175 126L175 119.5L175 119.5L175 113" stroke="#323232" stroke-width="2" fill="none"></path></g><g id="SvgjsG4366"><path id="SvgjsPath4367" d="M455 126L455 119.5L455 119.5L455 113" stroke="#323232" stroke-width="2" fill="none"></path></g><g id="SvgjsG4368"><path id="SvgjsPath4369" d="M179 119L206.5 119L206.5 119L234 119" stroke="#323232" stroke-width="2" fill="none" marker-end="url(#SvgjsMarker4370)"></path><rect id="SvgjsRect4372" width="26" height="16" x="193.5" y="111" fill="#ffffff"></rect><text id="SvgjsText4373" font-family="微软雅黑" text-anchor="middle" font-size="13px" width="26px" fill="#323232" font-weight="700" align="top" lineHeight="16px" anchor="middle" family="微软雅黑" size="13px" weight="700" font-style="" opacity="1" y="109.375" transform="rotate(0)"><tspan id="SvgjsTspan4374" dy="16" x="206.5"><tspan id="SvgjsTspan4375" style="text-decoration:;">合拢</tspan></tspan></text></g><g id="SvgjsG4376"><path id="SvgjsPath4377" d="M457 119L484.5 119L484.5 119L512 119" stroke="#323232" stroke-width="2" fill="none" marker-end="url(#SvgjsMarker4378)"></path><rect id="SvgjsRect4380" width="26" height="16" x="471.5" y="111" fill="#ffffff"></rect><text id="SvgjsText4381" font-family="微软雅黑" text-anchor="middle" font-size="13px" width="26px" fill="#323232" font-weight="700" align="top" lineHeight="16px" anchor="middle" family="微软雅黑" size="13px" weight="700" font-style="" opacity="1" y="109.375" transform="rotate(0)"><tspan id="SvgjsTspan4382" dy="16" x="484.5"><tspan id="SvgjsTspan4383" style="text-decoration:;">张开</tspan></tspan></text></g><g id="SvgjsG4384"><path id="SvgjsPath4385" d="M452 119L427 119L427 119L402 119" stroke="#323232" stroke-width="2" fill="none" marker-end="url(#SvgjsMarker4386)"></path><rect id="SvgjsRect4388" width="26" height="16" x="414" y="111" fill="#ffffff"></rect><text id="SvgjsText4389" font-family="微软雅黑" text-anchor="middle" font-size="13px" width="26px" fill="#323232" font-weight="700" align="top" lineHeight="16px" anchor="middle" family="微软雅黑" size="13px" weight="700" font-style="" opacity="1" y="109.375" transform="rotate(0)"><tspan id="SvgjsTspan4390" dy="16" x="427"><tspan id="SvgjsTspan4391" style="text-decoration:;">收缩</tspan></tspan></text></g></svg>