<svg id="SvgjsSvg2165" width="745.5" height="352.5" xmlns="http://www.w3.org/2000/svg" version="1.1" xmlns:xlink="http://www.w3.org/1999/xlink" xmlns:svgjs="http://svgjs.com/svgjs"><defs id="SvgjsDefs2166"></defs><g id="SvgjsG2167" transform="translate(179.25,117.5)"><path id="SvgjsPath2168" d="M 0 0L 138 0L 138 35L 0 35Z" stroke-dasharray="10,6" stroke="rgba(50,50,50,1)" stroke-width="2" fill-opacity="1" fill="#e0e0e0"></path><g id="SvgjsG2169"><text id="SvgjsText2170" font-family="微软雅黑" text-anchor="middle" font-size="13px" width="118px" fill="#323232" font-weight="700" align="middle" lineHeight="125%" anchor="middle" family="微软雅黑" size="13px" weight="700" font-style="" opacity="1" y="7.875" transform="rotate(0)"><tspan id="SvgjsTspan2171" dy="16" x="69"><tspan id="SvgjsTspan2172" style="text-decoration:;">8位协议（17）</tspan></tspan></text></g></g><g id="SvgjsG2173" transform="translate(316.25,117.5)"><path id="SvgjsPath2174" d="M 0 0L 275 0L 275 35L 0 35Z" stroke-dasharray="10,6" stroke="rgba(50,50,50,1)" stroke-width="2" fill-opacity="1" fill="#e0e0e0"></path><g id="SvgjsG2175"><text id="SvgjsText2176" font-family="微软雅黑" text-anchor="middle" font-size="13px" width="255px" fill="#323232" font-weight="700" align="middle" lineHeight="125%" anchor="middle" family="微软雅黑" size="13px" weight="700" font-style="" opacity="1" y="7.875" transform="rotate(0)"><tspan id="SvgjsTspan2177" dy="16" x="137.5"><tspan id="SvgjsTspan2178" style="text-decoration:;">16位UDP长度</tspan></tspan></text></g></g><g id="SvgjsG2179" transform="translate(41.25,48.5)"><path id="SvgjsPath2180" d="M 0 0L 550 0L 550 35L 0 35Z" stroke-dasharray="10,6" stroke="rgba(50,50,50,1)" stroke-width="2" fill-opacity="1" fill="#e0e0e0"></path><g id="SvgjsG2181"><text id="SvgjsText2182" font-family="微软雅黑" text-anchor="middle" font-size="13px" width="530px" fill="#323232" font-weight="700" align="middle" lineHeight="125%" anchor="middle" family="微软雅黑" size="13px" weight="700" font-style="" opacity="1" y="7.875" transform="rotate(0)"><tspan id="SvgjsTspan2183" dy="16" x="275"><tspan id="SvgjsTspan2184" style="text-decoration:;">32位源IP地址</tspan></tspan></text></g></g><g id="SvgjsG2185" transform="translate(41.25,82.5)"><path id="SvgjsPath2186" d="M 0 0L 550 0L 550 35L 0 35Z" stroke-dasharray="10,6" stroke="rgba(50,50,50,1)" stroke-width="2" fill-opacity="1" fill="#e0e0e0"></path><g id="SvgjsG2187"><text id="SvgjsText2188" font-family="微软雅黑" text-anchor="middle" font-size="13px" width="530px" fill="#323232" font-weight="700" align="middle" lineHeight="125%" anchor="middle" family="微软雅黑" size="13px" weight="700" font-style="" opacity="1" y="7.875" transform="rotate(0)"><tspan id="SvgjsTspan2189" dy="16" x="275"><tspan id="SvgjsTspan2190" style="text-decoration:;">32位目的IP地址</tspan></tspan></text></g></g><g id="SvgjsG2191" transform="translate(41.25,221.5)"><path id="SvgjsPath2192" d="M 0 0L 550 0L 550 70.5L 0 70.5Z" stroke="rgba(50,50,50,1)" stroke-width="2" fill-opacity="1" fill="#ffffff"></path><g id="SvgjsG2193"><text id="SvgjsText2194" font-family="微软雅黑" text-anchor="middle" font-size="13px" width="530px" fill="#323232" font-weight="700" align="middle" lineHeight="125%" anchor="middle" family="微软雅黑" size="13px" weight="700" font-style="" opacity="1" y="25.625" transform="rotate(0)"><tspan id="SvgjsTspan2195" dy="16" x="275"><tspan id="SvgjsTspan2196" style="text-decoration:;">数据</tspan></tspan></text></g></g><g id="SvgjsG2197" transform="translate(41.25,117.5)"><path id="SvgjsPath2198" d="M 0 0L 138 0L 138 35L 0 35Z" stroke-dasharray="10,6" stroke="rgba(50,50,50,1)" stroke-width="2" fill-opacity="1" fill="#e0e0e0"></path><g id="SvgjsG2199"><text id="SvgjsText2200" font-family="微软雅黑" text-anchor="middle" font-size="13px" width="118px" fill="#323232" font-weight="700" align="middle" lineHeight="125%" anchor="middle" family="微软雅黑" size="13px" weight="700" font-style="" opacity="1" y="7.875" transform="rotate(0)"><tspan id="SvgjsTspan2201" dy="16" x="69"><tspan id="SvgjsTspan2202" style="text-decoration:;">0</tspan></tspan></text></g></g><g id="SvgjsG2203" transform="translate(41.25,152.5)"><path id="SvgjsPath2204" d="M 0 0L 275 0L 275 35L 0 35Z" stroke="rgba(50,50,50,1)" stroke-width="2" fill-opacity="1" fill="#ffffff"></path><g id="SvgjsG2205"><text id="SvgjsText2206" font-family="微软雅黑" text-anchor="middle" font-size="13px" width="255px" fill="#323232" font-weight="700" align="middle" lineHeight="125%" anchor="middle" family="微软雅黑" size="13px" weight="700" font-style="" opacity="1" y="7.875" transform="rotate(0)"><tspan id="SvgjsTspan2207" dy="16" x="137.5"><tspan id="SvgjsTspan2208" style="text-decoration:;">16位总长度（字节数）</tspan></tspan></text></g></g><g id="SvgjsG2209" transform="translate(316.25,152.5)"><path id="SvgjsPath2210" d="M 0 0L 275 0L 275 35L 0 35Z" stroke="rgba(50,50,50,1)" stroke-width="2" fill-opacity="1" fill="#ffffff"></path><g id="SvgjsG2211"><text id="SvgjsText2212" font-family="微软雅黑" text-anchor="middle" font-size="13px" width="255px" fill="#323232" font-weight="700" align="middle" lineHeight="125%" anchor="middle" family="微软雅黑" size="13px" weight="700" font-style="" opacity="1" y="7.875" transform="rotate(0)"><tspan id="SvgjsTspan2213" dy="16" x="137.5"><tspan id="SvgjsTspan2214" style="text-decoration:;">16位总长度（字节数）</tspan></tspan></text></g></g><g id="SvgjsG2215" transform="translate(41.25,186.5)"><path id="SvgjsPath2216" d="M 0 0L 275 0L 275 35L 0 35Z" stroke="rgba(50,50,50,1)" stroke-width="2" fill-opacity="1" fill="#ffffff"></path><g id="SvgjsG2217"><text id="SvgjsText2218" font-family="微软雅黑" text-anchor="middle" font-size="13px" width="255px" fill="#323232" font-weight="700" align="middle" lineHeight="125%" anchor="middle" family="微软雅黑" size="13px" weight="700" font-style="" opacity="1" y="7.875" transform="rotate(0)"><tspan id="SvgjsTspan2219" dy="16" x="137.5"><tspan id="SvgjsTspan2220" style="text-decoration:;">16位总长度（字节数）</tspan></tspan></text></g></g><g id="SvgjsG2221" transform="translate(316.25,186.5)"><path id="SvgjsPath2222" d="M 0 0L 275 0L 275 35L 0 35Z" stroke="rgba(50,50,50,1)" stroke-width="2" fill-opacity="1" fill="#ffffff"></path><g id="SvgjsG2223"><text id="SvgjsText2224" font-family="微软雅黑" text-anchor="middle" font-size="13px" width="255px" fill="#323232" font-weight="700" align="middle" lineHeight="125%" anchor="middle" family="微软雅黑" size="13px" weight="700" font-style="" opacity="1" y="7.875" transform="rotate(0)"><tspan id="SvgjsTspan2225" dy="16" x="137.5"><tspan id="SvgjsTspan2226" style="text-decoration:;">16位总长度（字节数）</tspan></tspan></text></g></g><g id="SvgjsG2227" transform="translate(41.25,292.5)"><path id="SvgjsPath2228" d="M 0 0L 169.25 0L 169.25 34.75L 0 34.75Z" stroke="rgba(50,50,50,1)" stroke-width="2" fill-opacity="1" fill="#ffffff"></path><g id="SvgjsG2229"><text id="SvgjsText2230" font-family="微软雅黑" text-anchor="middle" font-size="13px" width="150px" fill="#323232" font-weight="700" align="middle" lineHeight="125%" anchor="middle" family="微软雅黑" size="13px" weight="700" font-style="" opacity="1" y="7.75" transform="rotate(0)"><tspan id="SvgjsTspan2231" dy="16" x="85"><tspan id="SvgjsTspan2232" style="text-decoration:;">数据</tspan></tspan></text></g></g><g id="SvgjsG2233" transform="translate(210.25,292.5)"><path id="SvgjsPath2234" d="M 0 0L 106 0L 106 34.75L 0 34.75Z" stroke-dasharray="10,6" stroke="rgba(50,50,50,1)" stroke-width="2" fill-opacity="1" fill="#e0e0e0"></path><g id="SvgjsG2235"><text id="SvgjsText2236" font-family="微软雅黑" text-anchor="middle" font-size="13px" width="86px" fill="#323232" font-weight="700" align="middle" lineHeight="125%" anchor="middle" family="微软雅黑" size="13px" weight="700" font-style="" opacity="1" y="7.75" transform="rotate(0)"><tspan id="SvgjsTspan2237" dy="16" x="53"><tspan id="SvgjsTspan2238" style="text-decoration:;">补充字节（0）</tspan></tspan></text></g></g><g id="SvgjsG2239" transform="translate(25,25)"><path id="SvgjsPath2240" d="M 0 0L 39 0L 39 27L 0 27Z" stroke="none" fill="none"></path><g id="SvgjsG2241"><text id="SvgjsText2242" font-family="微软雅黑" text-anchor="middle" font-size="13px" width="39px" fill="#323232" font-weight="700" align="middle" lineHeight="125%" anchor="middle" family="微软雅黑" size="13px" weight="700" font-style="" opacity="1" y="3.875" transform="rotate(0)"><tspan id="SvgjsTspan2243" dy="16" x="19.5"><tspan id="SvgjsTspan2244" style="text-decoration:;">0</tspan></tspan></text></g></g><g id="SvgjsG2245" transform="translate(287,25)"><path id="SvgjsPath2246" d="M 0 0L 39 0L 39 27L 0 27Z" stroke="none" fill="none"></path><g id="SvgjsG2247"><text id="SvgjsText2248" font-family="微软雅黑" text-anchor="middle" font-size="13px" width="39px" fill="#323232" font-weight="700" align="middle" lineHeight="125%" anchor="middle" family="微软雅黑" size="13px" weight="700" font-style="" opacity="1" y="3.875" transform="rotate(0)"><tspan id="SvgjsTspan2249" dy="16" x="19.5"><tspan id="SvgjsTspan2250" style="text-decoration:;">15</tspan></tspan></text></g></g><g id="SvgjsG2251" transform="translate(304,25)"><path id="SvgjsPath2252" d="M 0 0L 39 0L 39 27L 0 27Z" stroke="none" fill="none"></path><g id="SvgjsG2253"><text id="SvgjsText2254" font-family="微软雅黑" text-anchor="middle" font-size="13px" width="39px" fill="#323232" font-weight="700" align="middle" lineHeight="125%" anchor="middle" family="微软雅黑" size="13px" weight="700" font-style="" opacity="1" y="3.875" transform="rotate(0)"><tspan id="SvgjsTspan2255" dy="16" x="19.5"><tspan id="SvgjsTspan2256" style="text-decoration:;">16</tspan></tspan></text></g></g><g id="SvgjsG2257" transform="translate(565,25)"><path id="SvgjsPath2258" d="M 0 0L 39 0L 39 27L 0 27Z" stroke="none" fill="none"></path><g id="SvgjsG2259"><text id="SvgjsText2260" font-family="微软雅黑" text-anchor="middle" font-size="13px" width="39px" fill="#323232" font-weight="700" align="middle" lineHeight="125%" anchor="middle" family="微软雅黑" size="13px" weight="700" font-style="" opacity="1" y="3.875" transform="rotate(0)"><tspan id="SvgjsTspan2261" dy="16" x="19.5"><tspan id="SvgjsTspan2262" style="text-decoration:;">31</tspan></tspan></text></g></g><g id="SvgjsG2263" transform="translate(607.5,48.5)"><path id="SvgjsPath2264" d="M 0 103Q 9 103 9 94L 9 60.5Q 9 51.5 22 51.5Q 9 51.5 9 42.5L 9 9Q 9 0 0 0" stroke="rgba(50,50,50,1)" stroke-width="2" fill="none"></path><path id="SvgjsPath2265" d="M 0 0L 113 0L 113 103L 0 103Z" stroke="none" fill="none"></path><g id="SvgjsG2266"><text id="SvgjsText2267" font-family="微软雅黑" text-anchor="start" font-size="13px" width="86px" fill="#323232" font-weight="700" align="middle" lineHeight="125%" anchor="start" family="微软雅黑" size="13px" weight="700" font-style="" opacity="1" y="41.875" transform="rotate(0)"><tspan id="SvgjsTspan2268" dy="16" x="27"><tspan id="SvgjsTspan2269" style="text-decoration:;">UDP伪首部</tspan></tspan></text></g></g><g id="SvgjsG2270" transform="translate(607.5,152.5)"><path id="SvgjsPath2271" d="M 0 69Q 9 69 9 62.1L 9 41.4Q 9 34.5 22 34.5Q 9 34.5 9 27.6L 9 6.9Q 9 0 0 0" stroke="rgba(50,50,50,1)" stroke-width="2" fill="none"></path><path id="SvgjsPath2272" d="M 0 0L 113 0L 113 69L 0 69Z" stroke="none" fill="none"></path><g id="SvgjsG2273"><text id="SvgjsText2274" font-family="微软雅黑" text-anchor="start" font-size="13px" width="86px" fill="#323232" font-weight="700" align="middle" lineHeight="125%" anchor="start" family="微软雅黑" size="13px" weight="700" font-style="" opacity="1" y="24.875" transform="rotate(0)"><tspan id="SvgjsTspan2275" dy="16" x="27"><tspan id="SvgjsTspan2276" style="text-decoration:;">UDP首部</tspan></tspan></text></g></g></svg>