<svg id="SvgjsSvg2033" width="731" height="215" xmlns="http://www.w3.org/2000/svg" version="1.1" xmlns:xlink="http://www.w3.org/1999/xlink" xmlns:svgjs="http://svgjs.com/svgjs"><defs id="SvgjsDefs2034"></defs><g id="SvgjsG2035" transform="translate(41.5,52.5)"><path id="SvgjsPath2036" d="M 0 0L 275 0L 275 35L 0 35Z" stroke="rgba(50,50,50,1)" stroke-width="2" fill-opacity="1" fill="#ffffff"></path><g id="SvgjsG2037"><text id="SvgjsText2038" font-family="微软雅黑" text-anchor="middle" font-size="13px" width="255px" fill="#323232" font-weight="700" align="middle" lineHeight="125%" anchor="middle" family="微软雅黑" size="13px" weight="700" font-style="" opacity="1" y="7.875" transform="rotate(0)"><tspan id="SvgjsTspan2039" dy="16" x="137.5"><tspan id="SvgjsTspan2040" style="text-decoration:;">16位源端口号</tspan></tspan></text></g></g><g id="SvgjsG2041" transform="translate(316.5,52.5)"><path id="SvgjsPath2042" d="M 0 0L 275 0L 275 35L 0 35Z" stroke="rgba(50,50,50,1)" stroke-width="2" fill-opacity="1" fill="#ffffff"></path><g id="SvgjsG2043"><text id="SvgjsText2044" font-family="微软雅黑" text-anchor="middle" font-size="13px" width="255px" fill="#323232" font-weight="700" align="middle" lineHeight="125%" anchor="middle" family="微软雅黑" size="13px" weight="700" font-style="" opacity="1" y="7.875" transform="rotate(0)"><tspan id="SvgjsTspan2045" dy="16" x="137.5"><tspan id="SvgjsTspan2046" style="text-decoration:;">16位目的端口号</tspan></tspan></text></g></g><g id="SvgjsG2047" transform="translate(41.5,120)"><path id="SvgjsPath2048" d="M 0 0L 550 0L 550 70.5L 0 70.5Z" stroke="rgba(50,50,50,1)" stroke-width="2" fill-opacity="1" fill="#ffffff"></path><g id="SvgjsG2049"><text id="SvgjsText2050" font-family="微软雅黑" text-anchor="middle" font-size="13px" width="530px" fill="#323232" font-weight="700" align="middle" lineHeight="125%" anchor="middle" family="微软雅黑" size="13px" weight="700" font-style="" opacity="1" y="25.625" transform="rotate(0)"><tspan id="SvgjsTspan2051" dy="16" x="275"><tspan id="SvgjsTspan2052" style="text-decoration:;">数据（如果有）</tspan></tspan></text></g></g><g id="SvgjsG2053" transform="translate(25,25)"><path id="SvgjsPath2054" d="M 0 0L 39 0L 39 27L 0 27Z" stroke="none" fill="none"></path><g id="SvgjsG2055"><text id="SvgjsText2056" font-family="微软雅黑" text-anchor="middle" font-size="13px" width="39px" fill="#323232" font-weight="700" align="middle" lineHeight="125%" anchor="middle" family="微软雅黑" size="13px" weight="700" font-style="" opacity="1" y="3.875" transform="rotate(0)"><tspan id="SvgjsTspan2057" dy="16" x="19.5"><tspan id="SvgjsTspan2058" style="text-decoration:;">0</tspan></tspan></text></g></g><g id="SvgjsG2059" transform="translate(287,25)"><path id="SvgjsPath2060" d="M 0 0L 39 0L 39 27L 0 27Z" stroke="none" fill="none"></path><g id="SvgjsG2061"><text id="SvgjsText2062" font-family="微软雅黑" text-anchor="middle" font-size="13px" width="39px" fill="#323232" font-weight="700" align="middle" lineHeight="125%" anchor="middle" family="微软雅黑" size="13px" weight="700" font-style="" opacity="1" y="3.875" transform="rotate(0)"><tspan id="SvgjsTspan2063" dy="16" x="19.5"><tspan id="SvgjsTspan2064" style="text-decoration:;">15</tspan></tspan></text></g></g><g id="SvgjsG2065" transform="translate(304,25)"><path id="SvgjsPath2066" d="M 0 0L 39 0L 39 27L 0 27Z" stroke="none" fill="none"></path><g id="SvgjsG2067"><text id="SvgjsText2068" font-family="微软雅黑" text-anchor="middle" font-size="13px" width="39px" fill="#323232" font-weight="700" align="middle" lineHeight="125%" anchor="middle" family="微软雅黑" size="13px" weight="700" font-style="" opacity="1" y="3.875" transform="rotate(0)"><tspan id="SvgjsTspan2069" dy="16" x="19.5"><tspan id="SvgjsTspan2070" style="text-decoration:;">16</tspan></tspan></text></g></g><g id="SvgjsG2071" transform="translate(565,25)"><path id="SvgjsPath2072" d="M 0 0L 39 0L 39 27L 0 27Z" stroke="none" fill="none"></path><g id="SvgjsG2073"><text id="SvgjsText2074" font-family="微软雅黑" text-anchor="middle" font-size="13px" width="39px" fill="#323232" font-weight="700" align="middle" lineHeight="125%" anchor="middle" family="微软雅黑" size="13px" weight="700" font-style="" opacity="1" y="3.875" transform="rotate(0)"><tspan id="SvgjsTspan2075" dy="16" x="19.5"><tspan id="SvgjsTspan2076" style="text-decoration:;">31</tspan></tspan></text></g></g><g id="SvgjsG2077" transform="translate(42,87.5)"><path id="SvgjsPath2078" d="M 0 0L 275 0L 275 35L 0 35Z" stroke="rgba(50,50,50,1)" stroke-width="2" fill-opacity="1" fill="#ffffff"></path><g id="SvgjsG2079"><text id="SvgjsText2080" font-family="微软雅黑" text-anchor="middle" font-size="13px" width="255px" fill="#323232" font-weight="700" align="middle" lineHeight="125%" anchor="middle" family="微软雅黑" size="13px" weight="700" font-style="" opacity="1" y="7.875" transform="rotate(0)"><tspan id="SvgjsTspan2081" dy="16" x="137.5"><tspan id="SvgjsTspan2082" style="text-decoration:;">16位UDP长度</tspan></tspan></text></g></g><g id="SvgjsG2083" transform="translate(317,87.5)"><path id="SvgjsPath2084" d="M 0 0L 275 0L 275 35L 0 35Z" stroke="rgba(50,50,50,1)" stroke-width="2" fill-opacity="1" fill="#ffffff"></path><g id="SvgjsG2085"><text id="SvgjsText2086" font-family="微软雅黑" text-anchor="middle" font-size="13px" width="255px" fill="#323232" font-weight="700" align="middle" lineHeight="125%" anchor="middle" family="微软雅黑" size="13px" weight="700" font-style="" opacity="1" y="7.875" transform="rotate(0)"><tspan id="SvgjsTspan2087" dy="16" x="137.5"><tspan id="SvgjsTspan2088" style="text-decoration:;">16位UDP校验和</tspan></tspan></text></g></g><g id="SvgjsG2089" transform="translate(601,54.5)"><path id="SvgjsPath2090" d="M 0 68Q 9 68 9 61.2L 9 40.8Q 9 34 22 34Q 9 34 9 27.2L 9 6.800000000000001Q 9 0 0 0" stroke="rgba(50,50,50,1)" stroke-width="2" fill="none"></path><path id="SvgjsPath2091" d="M 0 0L 105 0L 105 68L 0 68Z" stroke="none" fill="none"></path><g id="SvgjsG2092"><text id="SvgjsText2093" font-family="微软雅黑" text-anchor="start" font-size="13px" width="78px" fill="#323232" font-weight="700" align="middle" lineHeight="125%" anchor="start" family="微软雅黑" size="13px" weight="700" font-style="" opacity="1" y="24.375" transform="rotate(0)"><tspan id="SvgjsTspan2094" dy="16" x="27"><tspan id="SvgjsTspan2095" style="text-decoration:;">8字节</tspan></tspan></text></g></g></svg>